<svg width="36" height="36" viewBox="0 0 36 36" fill="none" xmlns="http://www.w3.org/2000/svg">
<rect width="36" height="36" fill="white"/>
<path d="M31.9217 27.636C31.3999 28.8413 30.7824 29.9508 30.0668 30.9709C29.0915 32.3615 28.2929 33.324 27.6775 33.8585C26.7234 34.7359 25.7012 35.1853 24.6066 35.2108C23.8208 35.2108 22.8732 34.9872 21.7701 34.5336C20.6633 34.0821 19.6462 33.8585 18.7163 33.8585C17.7409 33.8585 16.6949 34.0821 15.576 34.5336C14.4554 34.9872 13.5527 35.2236 12.8625 35.247C11.8128 35.2917 10.7666 34.8296 9.72225 33.8585C9.0557 33.2772 8.22198 32.2805 7.22321 30.8686C6.15161 29.3609 5.27061 27.6125 4.58042 25.6193C3.84125 23.4663 3.4707 21.3814 3.4707 19.363C3.4707 17.051 3.9703 15.0568 4.97098 13.3858C5.75743 12.0435 6.80368 10.9847 8.11315 10.2074C9.42262 9.43011 10.8375 9.03401 12.3612 9.00866C13.1949 9.00866 14.2883 9.26655 15.6469 9.77339C17.0017 10.2819 17.8717 10.5398 18.2531 10.5398C18.5382 10.5398 19.5046 10.2383 21.1429 9.6371C22.6922 9.07958 23.9997 8.84873 25.0709 8.93967C27.9735 9.17392 30.1542 10.3181 31.6044 12.3795C29.0084 13.9524 27.7243 16.1555 27.7499 18.9816C27.7733 21.1829 28.5719 23.0148 30.1414 24.4693C30.8526 25.1444 31.647 25.6661 32.5307 26.0367C32.3391 26.5925 32.1368 27.1249 31.9217 27.636ZM25.2647 1.4402C25.2647 3.16559 24.6343 4.77658 23.3779 6.2677C21.8616 8.04035 20.0276 9.06467 18.0388 8.90304C18.0135 8.69604 17.9988 8.47819 17.9988 8.24926C17.9988 6.59289 18.7199 4.82024 20.0004 3.37086C20.6397 2.63701 21.4527 2.02683 22.4387 1.54007C23.4226 1.06058 24.3532 0.795409 25.2285 0.75C25.254 0.980658 25.2647 1.21133 25.2647 1.44017V1.4402Z" fill="#3B3B3B"/>
</svg>
