<svg width="24" height="25" viewBox="0 0 24 25" fill="none" xmlns="http://www.w3.org/2000/svg">
<rect width="24" height="24" transform="translate(0 0.5)" fill="black"/>
<path d="M21.2808 18.924C20.933 19.7275 20.5213 20.4672 20.0442 21.1472C19.394 22.0743 18.8616 22.716 18.4513 23.0724C17.8153 23.6573 17.1338 23.9568 16.4041 23.9739C15.8802 23.9739 15.2485 23.8248 14.513 23.5224C13.7752 23.2214 13.0972 23.0724 12.4772 23.0724C11.827 23.0724 11.1296 23.2214 10.3837 23.5224C9.63662 23.8248 9.03481 23.9824 8.57468 23.998C7.87491 24.0278 7.1774 23.7197 6.48118 23.0724C6.03681 22.6848 5.48099 22.0204 4.81515 21.0791C4.10075 20.0739 3.51342 18.9084 3.05329 17.5795C2.56051 16.1442 2.31348 14.7543 2.31348 13.4087C2.31348 11.8673 2.64654 10.5379 3.31366 9.42385C3.83796 8.529 4.53546 7.82312 5.40844 7.30493C6.28142 6.78674 7.22468 6.52267 8.24048 6.50578C8.7963 6.50578 9.52518 6.6777 10.431 7.01559C11.3342 7.35462 11.9141 7.52655 12.1684 7.52655C12.3585 7.52655 13.0028 7.32552 14.0949 6.92473C15.1278 6.55305 15.9995 6.39916 16.7136 6.45978C18.6487 6.61595 20.1024 7.37876 21.0693 8.75303C19.3386 9.80163 18.4826 11.2703 18.4996 13.1544C18.5152 14.622 19.0476 15.8432 20.0939 16.8129C20.5681 17.2629 21.0977 17.6107 21.6868 17.8578C21.5591 18.2283 21.4242 18.5832 21.2808 18.924ZM16.8428 1.46013C16.8428 2.61039 16.4226 3.68439 15.5849 4.67847C14.5741 5.86023 13.3514 6.54311 12.0256 6.43536C12.0087 6.29736 11.9989 6.15213 11.9989 5.99951C11.9989 4.89526 12.4796 3.71349 13.3333 2.74724C13.7595 2.25801 14.3015 1.85122 14.9588 1.52671C15.6147 1.20705 16.2352 1.03027 16.8187 1C16.8357 1.15377 16.8428 1.30755 16.8428 1.46012V1.46013Z" fill="white"/>
</svg>
