<svg width="24" height="25" viewBox="0 0 24 25" fill="none" xmlns="http://www.w3.org/2000/svg">
<rect width="24" height="24" transform="translate(0 0.5)" fill="black"/>
<path d="M21.2806 18.924C20.9327 19.7275 20.521 20.4672 20.044 21.1472C19.3938 22.0743 18.8614 22.716 18.4511 23.0724C17.815 23.6573 17.1336 23.9568 16.4039 23.9739C15.88 23.9739 15.2482 23.8248 14.5128 23.5224C13.775 23.2214 13.0969 23.0724 12.4769 23.0724C11.8267 23.0724 11.1293 23.2214 10.3834 23.5224C9.63638 23.8248 9.03456 23.9824 8.57444 23.998C7.87466 24.0278 7.17716 23.7197 6.48093 23.0724C6.03656 22.6848 5.48075 22.0204 4.8149 21.0791C4.10051 20.0739 3.51317 18.9084 3.05304 17.5795C2.56026 16.1442 2.31323 14.7543 2.31323 13.4087C2.31323 11.8673 2.6463 10.5379 3.31342 9.42385C3.83772 8.529 4.53522 7.82312 5.4082 7.30493C6.28118 6.78674 7.22443 6.52267 8.24024 6.50578C8.79605 6.50578 9.52493 6.6777 10.4307 7.01559C11.3339 7.35462 11.9139 7.52655 12.1681 7.52655C12.3582 7.52655 13.0025 7.32552 14.0947 6.92473C15.1275 6.55305 15.9992 6.39916 16.7133 6.45978C18.6484 6.61595 20.1022 7.37876 21.069 8.75303C19.3384 9.80163 18.4823 11.2703 18.4993 13.1544C18.515 14.622 19.0474 15.8432 20.0937 16.8129C20.5679 17.2629 21.0974 17.6107 21.6866 17.8578C21.5588 18.2283 21.4239 18.5832 21.2806 18.924ZM16.8425 1.46013C16.8425 2.61039 16.4223 3.68439 15.5847 4.67847C14.5738 5.86023 13.3512 6.54311 12.0253 6.43536C12.0084 6.29736 11.9986 6.15213 11.9986 5.99951C11.9986 4.89526 12.4793 3.71349 13.333 2.74724C13.7592 2.25801 14.3013 1.85122 14.9586 1.52671C15.6145 1.20705 16.2349 1.03027 16.8184 1C16.8354 1.15377 16.8425 1.30755 16.8425 1.46012V1.46013Z" fill="white"/>
</svg>
