<svg width="32" height="32" viewBox="0 0 32 32" fill="none" xmlns="http://www.w3.org/2000/svg">
<path fill-rule="evenodd" clip-rule="evenodd" d="M22.7078 3.29183C22.801 3.38473 22.8748 3.49508 22.9253 3.61657C22.9757 3.73806 23.0016 3.8683 23.0016 3.99983C23.0016 4.13137 22.9757 4.26161 22.9253 4.3831C22.8748 4.50459 22.801 4.61494 22.7078 4.70783L11.4138 15.9998L22.7078 27.2918C22.8956 27.4796 23.0011 27.7343 23.0011 27.9998C23.0011 28.2654 22.8956 28.5201 22.7078 28.7078C22.5201 28.8956 22.2654 29.0011 21.9998 29.0011C21.7343 29.0011 21.4796 28.8956 21.2918 28.7078L9.29183 16.7078C9.19871 16.6149 9.12482 16.5046 9.07441 16.3831C9.024 16.2616 8.99805 16.1314 8.99805 15.9998C8.99805 15.8683 9.024 15.7381 9.07441 15.6166C9.12482 15.4951 9.19871 15.3847 9.29183 15.2918L21.2918 3.29183C21.3847 3.19871 21.4951 3.12482 21.6166 3.07441C21.7381 3.024 21.8683 2.99805 21.9998 2.99805C22.1314 2.99805 22.2616 3.024 22.3831 3.07441C22.5046 3.12482 22.6149 3.19871 22.7078 3.29183Z" fill="#3B3B3B"/>
</svg>
