<svg width="32" height="32" viewBox="0 0 32 32" fill="none" xmlns="http://www.w3.org/2000/svg">
<path fill-rule="evenodd" clip-rule="evenodd" d="M22.7078 3.29196C22.801 3.38485 22.8748 3.4952 22.9253 3.61669C22.9757 3.73818 23.0016 3.86842 23.0016 3.99996C23.0016 4.13149 22.9757 4.26173 22.9253 4.38322C22.8748 4.50471 22.801 4.61507 22.7078 4.70796L11.4138 16L22.7078 27.292C22.8956 27.4797 23.0011 27.7344 23.0011 28C23.0011 28.2655 22.8956 28.5202 22.7078 28.708C22.5201 28.8957 22.2654 29.0012 21.9998 29.0012C21.7343 29.0012 21.4796 28.8957 21.2918 28.708L9.29183 16.708C9.19871 16.6151 9.12482 16.5047 9.07441 16.3832C9.024 16.2617 8.99805 16.1315 8.99805 16C8.99805 15.8684 9.024 15.7382 9.07441 15.6167C9.12482 15.4952 9.19871 15.3848 9.29183 15.292L21.2918 3.29196C21.3847 3.19883 21.4951 3.12494 21.6166 3.07453C21.7381 3.02412 21.8683 2.99817 21.9998 2.99817C22.1314 2.99817 22.2616 3.02412 22.3831 3.07453C22.5046 3.12494 22.6149 3.19883 22.7078 3.29196Z" fill="#3B3B3B"/>
</svg>
