<svg width="14" height="25" viewBox="0 0 14 25" fill="none" xmlns="http://www.w3.org/2000/svg">
<path fill-rule="evenodd" clip-rule="evenodd" d="M13.7063 0.282455C13.7994 0.371763 13.8733 0.477858 13.9237 0.594662C13.9741 0.711465 14 0.836684 14 0.963144C14 1.08961 13.9741 1.21482 13.9237 1.33163C13.8733 1.44843 13.7994 1.55453 13.7063 1.64383L2.41517 12.5003L13.7063 23.3567C13.894 23.5372 13.9995 23.7821 13.9995 24.0374C13.9995 24.2927 13.894 24.5375 13.7063 24.7181C13.5186 24.8986 13.264 25 12.9985 25C12.733 25 12.4784 24.8986 12.2906 24.7181L0.293712 13.1809C0.200609 13.0916 0.126742 12.9855 0.0763422 12.8687C0.0259421 12.7519 0 12.6267 0 12.5003C0 12.3738 0.0259421 12.2486 0.0763422 12.1318C0.126742 12.015 0.200609 11.9089 0.293712 11.8196L12.2906 0.282455C12.3835 0.192921 12.4938 0.121885 12.6153 0.073417C12.7368 0.0249487 12.867 0 12.9985 0C13.13 0 13.2602 0.0249487 13.3816 0.073417C13.5031 0.121885 13.6134 0.192921 13.7063 0.282455Z" fill="#3B3B3B"/>
</svg>
