<svg width="42" height="41" viewBox="0 0 42 41" fill="none" xmlns="http://www.w3.org/2000/svg">
<circle cx="21" cy="20.5" r="20.5" fill="#EEEEEE" fill-opacity="0.7"/>
<path d="M13.051 13.3878C13.051 12.722 13.3155 12.0835 13.7862 11.6128C14.257 11.142 14.8955 10.8775 15.5612 10.8775H25.602C26.2678 10.8775 26.9063 11.142 27.377 11.6128C27.8478 12.0835 28.1123 12.722 28.1123 13.3878V30.3319C28.1122 30.4455 28.0813 30.5568 28.023 30.6542C27.9646 30.7516 27.881 30.8313 27.7809 30.8849C27.6808 30.9385 27.5681 30.9639 27.4547 30.9585C27.3413 30.953 27.2315 30.917 27.137 30.8541L20.5816 27.3209L14.0262 30.8541C13.9317 30.917 13.8219 30.953 13.7086 30.9585C13.5952 30.9639 13.4824 30.9385 13.3824 30.8849C13.2823 30.8313 13.1986 30.7516 13.1403 30.6542C13.0819 30.5568 13.0511 30.4455 13.051 30.3319V13.3878ZM15.5612 12.1327C15.2284 12.1327 14.9091 12.2649 14.6737 12.5003C14.4384 12.7357 14.3061 13.0549 14.3061 13.3878V29.1597L20.234 26.0444C20.337 25.9759 20.4579 25.9393 20.5816 25.9393C20.7054 25.9393 20.8263 25.9759 20.9293 26.0444L26.8572 29.1597V13.3878C26.8572 13.0549 26.7249 12.7357 26.4895 12.5003C26.2542 12.2649 25.9349 12.1327 25.602 12.1327H15.5612Z" fill="#3B3B3B"/>
</svg>
