<svg width="56" height="55" viewBox="0 0 56 55" fill="none" xmlns="http://www.w3.org/2000/svg">
<circle cx="28.4021" cy="27.5084" r="27.486" fill="#EEEEEE" fill-opacity="0.7"/>
<path d="M17.7441 17.9725C17.7441 17.0799 18.0987 16.2238 18.7299 15.5926C19.3611 14.9614 20.2172 14.6068 21.1098 14.6068H34.5723C35.4649 14.6068 36.321 14.9614 36.9522 15.5926C37.5834 16.2238 37.938 17.0799 37.938 17.9725V40.6909C37.9379 40.8431 37.8965 40.9924 37.8183 41.123C37.7401 41.2536 37.6279 41.3604 37.4937 41.4323C37.3595 41.5041 37.2084 41.5382 37.0563 41.5309C36.9043 41.5237 36.7571 41.4753 36.6304 41.391L27.8411 36.6538L19.0517 41.391C18.925 41.4753 18.7778 41.5237 18.6258 41.5309C18.4737 41.5382 18.3226 41.5041 18.1884 41.4323C18.0542 41.3604 17.942 41.2536 17.8638 41.123C17.7856 40.9924 17.7442 40.8431 17.7441 40.6909V17.9725ZM21.1098 16.2897C20.6635 16.2897 20.2354 16.467 19.9198 16.7826C19.6043 17.0981 19.427 17.5262 19.427 17.9725V39.1191L27.3749 34.9423C27.513 34.8504 27.6752 34.8014 27.8411 34.8014C28.0069 34.8014 28.1691 34.8504 28.3072 34.9423L36.2551 39.1191V17.9725C36.2551 17.5262 36.0778 17.0981 35.7623 16.7826C35.4467 16.467 35.0186 16.2897 34.5723 16.2897H21.1098Z" fill="#3B3B3B"/>
</svg>
