<svg width="42" height="41" viewBox="0 0 42 41" fill="none" xmlns="http://www.w3.org/2000/svg">
<circle cx="21" cy="20.5" r="20.5" fill="#EEEEEE" fill-opacity="0.7"/>
<path d="M13.051 13.3879C13.051 12.7222 13.3155 12.0837 13.7862 11.6129C14.257 11.1422 14.8955 10.8777 15.5612 10.8777H25.602C26.2678 10.8777 26.9063 11.1422 27.377 11.6129C27.8478 12.0837 28.1123 12.7222 28.1123 13.3879V30.3321C28.1122 30.4456 28.0813 30.557 28.023 30.6543C27.9646 30.7517 27.881 30.8314 27.7809 30.885C27.6808 30.9386 27.5681 30.964 27.4547 30.9586C27.3413 30.9532 27.2315 30.9171 27.137 30.8542L20.5816 27.321L14.0262 30.8542C13.9317 30.9171 13.8219 30.9532 13.7086 30.9586C13.5952 30.964 13.4824 30.9386 13.3824 30.885C13.2823 30.8314 13.1986 30.7517 13.1403 30.6543C13.0819 30.557 13.0511 30.4456 13.051 30.3321V13.3879ZM15.5612 12.1328C15.2284 12.1328 14.9091 12.265 14.6737 12.5004C14.4384 12.7358 14.3061 13.0551 14.3061 13.3879V29.1598L20.234 26.0446C20.337 25.976 20.4579 25.9395 20.5816 25.9395C20.7054 25.9395 20.8263 25.976 20.9293 26.0446L26.8572 29.1598V13.3879C26.8572 13.0551 26.7249 12.7358 26.4895 12.5004C26.2542 12.265 25.9349 12.1328 25.602 12.1328H15.5612Z" fill="#3B3B3B"/>
</svg>
