<svg width="56" height="56" viewBox="0 0 56 56" fill="none" xmlns="http://www.w3.org/2000/svg">
<circle cx="28.4021" cy="27.7265" r="27.486" fill="#EEEEEE" fill-opacity="0.7"/>
<path d="M17.7441 18.1905C17.7441 17.2979 18.0987 16.4418 18.7299 15.8106C19.3611 15.1794 20.2172 14.8248 21.1098 14.8248H34.5723C35.4649 14.8248 36.321 15.1794 36.9522 15.8106C37.5834 16.4418 37.938 17.2979 37.938 18.1905V40.9089C37.9379 41.0611 37.8965 41.2105 37.8183 41.341C37.7401 41.4716 37.6279 41.5785 37.4937 41.6503C37.3595 41.7221 37.2084 41.7562 37.0563 41.749C36.9043 41.7417 36.7571 41.6933 36.6304 41.609L27.8411 36.8718L19.0517 41.609C18.925 41.6933 18.7778 41.7417 18.6258 41.749C18.4737 41.7562 18.3226 41.7221 18.1884 41.6503C18.0542 41.5785 17.942 41.4716 17.8638 41.341C17.7856 41.2105 17.7442 41.0611 17.7441 40.9089V18.1905ZM21.1098 16.5077C20.6635 16.5077 20.2354 16.685 19.9198 17.0006C19.6043 17.3162 19.427 17.7442 19.427 18.1905V39.3372L27.3749 35.1603C27.513 35.0684 27.6752 35.0194 27.8411 35.0194C28.0069 35.0194 28.1691 35.0684 28.3072 35.1603L36.2551 39.3372V18.1905C36.2551 17.7442 36.0778 17.3162 35.7623 17.0006C35.4467 16.685 35.0186 16.5077 34.5723 16.5077H21.1098Z" fill="#3B3B3B"/>
</svg>
