<svg width="56" height="56" viewBox="0 0 56 56" fill="none" xmlns="http://www.w3.org/2000/svg">
<circle cx="27.9021" cy="28.1621" r="27.486" fill="#EEEEEE" fill-opacity="0.7"/>
<path d="M17.2441 18.6262C17.2441 17.7335 17.5987 16.8774 18.2299 16.2463C18.8611 15.6151 19.7172 15.2605 20.6098 15.2605H34.0723C34.9649 15.2605 35.821 15.6151 36.4522 16.2463C37.0834 16.8774 37.438 17.7335 37.438 18.6262V41.3446C37.4379 41.4968 37.3965 41.6461 37.3183 41.7767C37.2401 41.9072 37.1279 42.0141 36.9937 42.0859C36.8595 42.1578 36.7084 42.1919 36.5563 42.1846C36.4043 42.1773 36.2571 42.129 36.1304 42.0446L27.3411 37.3074L18.5517 42.0446C18.425 42.129 18.2778 42.1773 18.1258 42.1846C17.9737 42.1919 17.8226 42.1578 17.6884 42.0859C17.5542 42.0141 17.442 41.9072 17.3638 41.7767C17.2856 41.6461 17.2442 41.4968 17.2441 41.3446V18.6262ZM20.6098 16.9433C20.1635 16.9433 19.7354 17.1206 19.4198 17.4362C19.1043 17.7518 18.927 18.1798 18.927 18.6262V39.7728L26.8749 35.596C27.013 35.5041 27.1752 35.4551 27.3411 35.4551C27.5069 35.4551 27.6691 35.5041 27.8072 35.596L35.7551 39.7728V18.6262C35.7551 18.1798 35.5778 17.7518 35.2623 17.4362C34.9467 17.1206 34.5186 16.9433 34.0723 16.9433H20.6098Z" fill="#3B3B3B"/>
</svg>
