<svg width="56" height="55" viewBox="0 0 56 55" fill="none" xmlns="http://www.w3.org/2000/svg">
<circle cx="28.4021" cy="27.5086" r="27.486" fill="#EEEEEE" fill-opacity="0.7"/>
<path d="M17.7441 17.9727C17.7441 17.0801 18.0987 16.224 18.7299 15.5928C19.3611 14.9617 20.2172 14.6071 21.1098 14.6071H34.5723C35.4649 14.6071 36.321 14.9617 36.9522 15.5928C37.5834 16.224 37.938 17.0801 37.938 17.9727V40.6912C37.9379 40.8434 37.8965 40.9927 37.8183 41.1232C37.7401 41.2538 37.6279 41.3607 37.4937 41.4325C37.3595 41.5044 37.2084 41.5385 37.0563 41.5312C36.9043 41.5239 36.7571 41.4755 36.6304 41.3912L27.8411 36.654L19.0517 41.3912C18.925 41.4755 18.7778 41.5239 18.6258 41.5312C18.4737 41.5385 18.3226 41.5044 18.1884 41.4325C18.0542 41.3607 17.942 41.2538 17.8638 41.1232C17.7856 40.9927 17.7442 40.8434 17.7441 40.6912V17.9727ZM21.1098 16.2899C20.6635 16.2899 20.2354 16.4672 19.9198 16.7828C19.6043 17.0984 19.427 17.5264 19.427 17.9727V39.1194L27.3749 34.9426C27.513 34.8507 27.6752 34.8016 27.8411 34.8016C28.0069 34.8016 28.1691 34.8507 28.3072 34.9426L36.2551 39.1194V17.9727C36.2551 17.5264 36.0778 17.0984 35.7623 16.7828C35.4467 16.4672 35.0186 16.2899 34.5723 16.2899H21.1098Z" fill="#3B3B3B"/>
</svg>
