<svg width="42" height="42" viewBox="0 0 42 42" fill="none" xmlns="http://www.w3.org/2000/svg">
<circle cx="20.8799" cy="21.4456" r="20.5" fill="#EEEEEE" fill-opacity="0.7"/>
<path d="M12.9307 14.3335C12.9307 13.6677 13.1951 13.0292 13.6659 12.5585C14.1366 12.0877 14.7751 11.8232 15.4409 11.8232H25.4817C26.1474 11.8232 26.7859 12.0877 27.2567 12.5585C27.7274 13.0292 27.9919 13.6677 27.9919 14.3335V31.2776C27.9918 31.3912 27.961 31.5025 27.9026 31.5999C27.8443 31.6973 27.7606 31.777 27.6605 31.8306C27.5605 31.8841 27.4477 31.9096 27.3344 31.9042C27.221 31.8987 27.1112 31.8627 27.0167 31.7998L20.4613 28.2666L13.9059 31.7998C13.8114 31.8627 13.7016 31.8987 13.5882 31.9042C13.4748 31.9096 13.3621 31.8841 13.262 31.8306C13.1619 31.777 13.0783 31.6973 13.0199 31.5999C12.9616 31.5025 12.9307 31.3912 12.9307 31.2776V14.3335ZM15.4409 13.0784C15.108 13.0784 14.7888 13.2106 14.5534 13.446C14.318 13.6814 14.1858 14.0006 14.1858 14.3335V30.1054L20.1136 26.9901C20.2166 26.9216 20.3376 26.885 20.4613 26.885C20.585 26.885 20.7059 26.9216 20.8089 26.9901L26.7368 30.1054V14.3335C26.7368 14.0006 26.6046 13.6814 26.3692 13.446C26.1338 13.2106 25.8146 13.0784 25.4817 13.0784H15.4409Z" fill="#3B3B3B"/>
</svg>
