<svg width="56" height="56" viewBox="0 0 56 56" fill="none" xmlns="http://www.w3.org/2000/svg">
<circle cx="27.9021" cy="27.5978" r="27.486" fill="#EEEEEE" fill-opacity="0.7"/>
<path d="M17.2441 18.0619C17.2441 17.1692 17.5987 16.3131 18.2299 15.682C18.8611 15.0508 19.7172 14.6962 20.6098 14.6962H34.0723C34.9649 14.6962 35.821 15.0508 36.4522 15.682C37.0834 16.3131 37.438 17.1692 37.438 18.0619V40.7803C37.4379 40.9325 37.3965 41.0818 37.3183 41.2124C37.2401 41.3429 37.1279 41.4498 36.9937 41.5216C36.8595 41.5935 36.7084 41.6276 36.5563 41.6203C36.4043 41.613 36.2571 41.5647 36.1304 41.4803L27.3411 36.7431L18.5517 41.4803C18.425 41.5647 18.2778 41.613 18.1258 41.6203C17.9737 41.6276 17.8226 41.5935 17.6884 41.5216C17.5542 41.4498 17.442 41.3429 17.3638 41.2124C17.2856 41.0818 17.2442 40.9325 17.2441 40.7803V18.0619ZM20.6098 16.379C20.1635 16.379 19.7354 16.5563 19.4198 16.8719C19.1043 17.1875 18.927 17.6155 18.927 18.0619V39.2085L26.8749 35.0317C27.013 34.9398 27.1752 34.8908 27.3411 34.8908C27.5069 34.8908 27.6691 34.9398 27.8072 35.0317L35.7551 39.2085V18.0619C35.7551 17.6155 35.5778 17.1875 35.2623 16.8719C34.9467 16.5563 34.5186 16.379 34.0723 16.379H20.6098Z" fill="#3B3B3B"/>
</svg>
