<svg width="56" height="56" viewBox="0 0 56 56" fill="none" xmlns="http://www.w3.org/2000/svg">
<circle cx="28.4021" cy="27.9442" r="27.486" fill="#EEEEEE" fill-opacity="0.7"/>
<path d="M17.7441 18.4083C17.7441 17.5156 18.0987 16.6595 18.7299 16.0284C19.3611 15.3972 20.2172 15.0426 21.1098 15.0426H34.5723C35.4649 15.0426 36.321 15.3972 36.9522 16.0284C37.5834 16.6595 37.938 17.5156 37.938 18.4083V41.1267C37.9379 41.2789 37.8965 41.4282 37.8183 41.5588C37.7401 41.6893 37.6279 41.7962 37.4937 41.868C37.3595 41.9399 37.2084 41.974 37.0563 41.9667C36.9043 41.9594 36.7571 41.9111 36.6304 41.8267L27.8411 37.0895L19.0517 41.8267C18.925 41.9111 18.7778 41.9594 18.6258 41.9667C18.4737 41.974 18.3226 41.9399 18.1884 41.868C18.0542 41.7962 17.942 41.6893 17.8638 41.5588C17.7856 41.4282 17.7442 41.2789 17.7441 41.1267V18.4083ZM21.1098 16.7254C20.6635 16.7254 20.2354 16.9027 19.9198 17.2183C19.6043 17.5339 19.427 17.9619 19.427 18.4083V39.5549L27.3749 35.3781C27.513 35.2862 27.6752 35.2372 27.8411 35.2372C28.0069 35.2372 28.1691 35.2862 28.3072 35.3781L36.2551 39.5549V18.4083C36.2551 17.9619 36.0778 17.5339 35.7623 17.2183C35.4467 16.9027 35.0186 16.7254 34.5723 16.7254H21.1098Z" fill="#3B3B3B"/>
</svg>
