<svg width="42" height="41" viewBox="0 0 42 41" fill="none" xmlns="http://www.w3.org/2000/svg">
<circle cx="21" cy="20.5" r="20.5" fill="#EEEEEE" fill-opacity="0.7"/>
<path d="M13.051 13.3877C13.051 12.7219 13.3155 12.0834 13.7862 11.6127C14.257 11.1419 14.8955 10.8774 15.5612 10.8774H25.602C26.2678 10.8774 26.9063 11.1419 27.377 11.6127C27.8478 12.0834 28.1123 12.7219 28.1123 13.3877V30.3318C28.1122 30.4454 28.0813 30.5567 28.023 30.6541C27.9646 30.7515 27.881 30.8312 27.7809 30.8848C27.6808 30.9383 27.5681 30.9638 27.4547 30.9584C27.3413 30.9529 27.2315 30.9169 27.137 30.854L20.5816 27.3208L14.0262 30.854C13.9317 30.9169 13.8219 30.9529 13.7086 30.9584C13.5952 30.9638 13.4824 30.9383 13.3824 30.8848C13.2823 30.8312 13.1986 30.7515 13.1403 30.6541C13.0819 30.5567 13.0511 30.4454 13.051 30.3318V13.3877ZM15.5612 12.1326C15.2284 12.1326 14.9091 12.2648 14.6737 12.5002C14.4384 12.7356 14.3061 13.0548 14.3061 13.3877V29.1596L20.234 26.0443C20.337 25.9758 20.4579 25.9392 20.5816 25.9392C20.7054 25.9392 20.8263 25.9758 20.9293 26.0443L26.8572 29.1596V13.3877C26.8572 13.0548 26.7249 12.7356 26.4895 12.5002C26.2542 12.2648 25.9349 12.1326 25.602 12.1326H15.5612Z" fill="#3B3B3B"/>
</svg>
