<svg width="56" height="56" viewBox="0 0 56 56" fill="none" xmlns="http://www.w3.org/2000/svg">
<circle cx="28.4021" cy="27.7262" r="27.486" fill="#EEEEEE" fill-opacity="0.7"/>
<path d="M17.7441 18.1903C17.7441 17.2976 18.0987 16.4416 18.7299 15.8104C19.3611 15.1792 20.2172 14.8246 21.1098 14.8246H34.5723C35.4649 14.8246 36.321 15.1792 36.9522 15.8104C37.5834 16.4416 37.938 17.2976 37.938 18.1903V40.9087C37.9379 41.0609 37.8965 41.2102 37.8183 41.3408C37.7401 41.4713 37.6279 41.5782 37.4937 41.6501C37.3595 41.7219 37.2084 41.756 37.0563 41.7487C36.9043 41.7414 36.7571 41.6931 36.6304 41.6088L27.8411 36.8715L19.0517 41.6088C18.925 41.6931 18.7778 41.7414 18.6258 41.7487C18.4737 41.756 18.3226 41.7219 18.1884 41.6501C18.0542 41.5782 17.942 41.4713 17.8638 41.3408C17.7856 41.2102 17.7442 41.0609 17.7441 40.9087V18.1903ZM21.1098 16.5074C20.6635 16.5074 20.2354 16.6847 19.9198 17.0003C19.6043 17.3159 19.427 17.744 19.427 18.1903V39.3369L27.3749 35.1601C27.513 35.0682 27.6752 35.0192 27.8411 35.0192C28.0069 35.0192 28.1691 35.0682 28.3072 35.1601L36.2551 39.3369V18.1903C36.2551 17.744 36.0778 17.3159 35.7623 17.0003C35.4467 16.6847 35.0186 16.5074 34.5723 16.5074H21.1098Z" fill="#3B3B3B"/>
</svg>
