<svg width="41" height="41" viewBox="0 0 41 41" fill="none" xmlns="http://www.w3.org/2000/svg">
<circle cx="20.5" cy="20.5" r="20.5" fill="#EEEEEE" fill-opacity="0.7"/>
<path d="M12.5508 13.3879C12.5508 12.7222 12.8152 12.0837 13.286 11.6129C13.7568 11.1422 14.3952 10.8777 15.061 10.8777H25.1018C25.7676 10.8777 26.406 11.1422 26.8768 11.6129C27.3475 12.0837 27.612 12.7222 27.612 13.3879V30.3321C27.6119 30.4456 27.5811 30.557 27.5228 30.6543C27.4644 30.7517 27.3807 30.8314 27.2807 30.885C27.1806 30.9386 27.0679 30.964 26.9545 30.9586C26.8411 30.9532 26.7313 30.9171 26.6368 30.8542L20.0814 27.321L13.526 30.8542C13.4315 30.9171 13.3217 30.9532 13.2083 30.9586C13.0949 30.964 12.9822 30.9386 12.8821 30.885C12.7821 30.8314 12.6984 30.7517 12.64 30.6543C12.5817 30.557 12.5508 30.4456 12.5508 30.3321V13.3879ZM15.061 12.1328C14.7281 12.1328 14.4089 12.265 14.1735 12.5004C13.9381 12.7358 13.8059 13.0551 13.8059 13.3879V29.1598L19.7337 26.0446C19.8367 25.976 19.9577 25.9395 20.0814 25.9395C20.2051 25.9395 20.3261 25.976 20.4291 26.0446L26.3569 29.1598V13.3879C26.3569 13.0551 26.2247 12.7358 25.9893 12.5004C25.7539 12.265 25.4347 12.1328 25.1018 12.1328H15.061Z" fill="#3B3B3B"/>
</svg>
