<svg width="42" height="42" viewBox="0 0 42 42" fill="none" xmlns="http://www.w3.org/2000/svg">
<circle cx="20.9893" cy="20.8828" r="20.5" fill="#EEEEEE" fill-opacity="0.7"/>
<path d="M13.04 13.7707C13.04 13.105 13.3045 12.4665 13.7753 11.9957C14.246 11.525 14.8845 11.2605 15.5502 11.2605H25.5911C26.2568 11.2605 26.8953 11.525 27.366 11.9957C27.8368 12.4665 28.1013 13.105 28.1013 13.7707V30.7149C28.1012 30.8284 28.0704 30.9398 28.012 31.0372C27.9537 31.1345 27.87 31.2142 27.7699 31.2678C27.6698 31.3214 27.5571 31.3468 27.4437 31.3414C27.3303 31.336 27.2206 31.2999 27.1261 31.237L20.5707 27.7039L14.0153 31.237C13.9208 31.2999 13.811 31.336 13.6976 31.3414C13.5842 31.3468 13.4715 31.3214 13.3714 31.2678C13.2713 31.2142 13.1876 31.1345 13.1293 31.0372C13.0709 30.9398 13.0401 30.8284 13.04 30.7149V13.7707ZM15.5502 12.5156C15.2174 12.5156 14.8981 12.6479 14.6628 12.8832C14.4274 13.1186 14.2951 13.4379 14.2951 13.7707V29.5426L20.223 26.4274C20.326 26.3589 20.4469 26.3223 20.5707 26.3223C20.6944 26.3223 20.8153 26.3589 20.9183 26.4274L26.8462 29.5426V13.7707C26.8462 13.4379 26.7139 13.1186 26.4786 12.8832C26.2432 12.6479 25.9239 12.5156 25.5911 12.5156H15.5502Z" fill="#3B3B3B"/>
</svg>
