<svg width="41" height="41" viewBox="0 0 41 41" fill="none" xmlns="http://www.w3.org/2000/svg">
<circle cx="20.5" cy="20.5" r="20.5" fill="#EEEEEE" fill-opacity="0.7"/>
<path d="M12.551 13.3878C12.551 12.722 12.8155 12.0836 13.2862 11.6128C13.757 11.142 14.3955 10.8776 15.0612 10.8776H25.102C25.7678 10.8776 26.4063 11.142 26.877 11.6128C27.3478 12.0836 27.6123 12.722 27.6123 13.3878V30.332C27.6122 30.4455 27.5813 30.5568 27.523 30.6542C27.4646 30.7516 27.381 30.8313 27.2809 30.8849C27.1808 30.9385 27.0681 30.9639 26.9547 30.9585C26.8413 30.9531 26.7315 30.917 26.637 30.8541L20.0816 27.3209L13.5262 30.8541C13.4317 30.917 13.3219 30.9531 13.2086 30.9585C13.0952 30.9639 12.9824 30.9385 12.8824 30.8849C12.7823 30.8313 12.6986 30.7516 12.6403 30.6542C12.5819 30.5568 12.5511 30.4455 12.551 30.332V13.3878ZM15.0612 12.1327C14.7284 12.1327 14.4091 12.2649 14.1737 12.5003C13.9384 12.7357 13.8061 13.0549 13.8061 13.3878V29.1597L19.734 26.0445C19.837 25.9759 19.9579 25.9394 20.0816 25.9394C20.2054 25.9394 20.3263 25.9759 20.4293 26.0445L26.3571 29.1597V13.3878C26.3571 13.0549 26.2249 12.7357 25.9895 12.5003C25.7542 12.2649 25.4349 12.1327 25.102 12.1327H15.0612Z" fill="#3B3B3B"/>
</svg>
