<svg width="56" height="56" viewBox="0 0 56 56" fill="none" xmlns="http://www.w3.org/2000/svg">
<circle cx="28.4021" cy="27.5978" r="27.486" fill="#EEEEEE" fill-opacity="0.7"/>
<path d="M17.7441 18.0619C17.7441 17.1692 18.0987 16.3131 18.7299 15.682C19.3611 15.0508 20.2172 14.6962 21.1098 14.6962H34.5723C35.4649 14.6962 36.321 15.0508 36.9522 15.682C37.5834 16.3131 37.938 17.1692 37.938 18.0619V40.7803C37.9379 40.9325 37.8965 41.0818 37.8183 41.2124C37.7401 41.3429 37.6279 41.4498 37.4937 41.5216C37.3595 41.5935 37.2084 41.6276 37.0563 41.6203C36.9043 41.613 36.7571 41.5647 36.6304 41.4803L27.8411 36.7431L19.0517 41.4803C18.925 41.5647 18.7778 41.613 18.6258 41.6203C18.4737 41.6276 18.3226 41.5935 18.1884 41.5216C18.0542 41.4498 17.942 41.3429 17.8638 41.2124C17.7856 41.0818 17.7442 40.9325 17.7441 40.7803V18.0619ZM21.1098 16.379C20.6635 16.379 20.2354 16.5563 19.9198 16.8719C19.6043 17.1875 19.427 17.6155 19.427 18.0619V39.2085L27.3749 35.0317C27.513 34.9398 27.6752 34.8908 27.8411 34.8908C28.0069 34.8908 28.1691 34.9398 28.3072 35.0317L36.2551 39.2085V18.0619C36.2551 17.6155 36.0778 17.1875 35.7623 16.8719C35.4467 16.5563 35.0186 16.379 34.5723 16.379H21.1098Z" fill="#3B3B3B"/>
</svg>
