<svg width="56" height="56" viewBox="0 0 56 56" fill="none" xmlns="http://www.w3.org/2000/svg">
<circle cx="28.4021" cy="28.3799" r="27.486" fill="#EEEEEE" fill-opacity="0.7"/>
<path d="M17.7441 18.844C17.7441 17.9514 18.0987 17.0953 18.7299 16.4641C19.3611 15.8329 20.2172 15.4783 21.1098 15.4783H34.5723C35.4649 15.4783 36.321 15.8329 36.9522 16.4641C37.5834 17.0953 37.938 17.9514 37.938 18.844V41.5624C37.9379 41.7146 37.8965 41.8639 37.8183 41.9945C37.7401 42.125 37.6279 42.2319 37.4937 42.3038C37.3595 42.3756 37.2084 42.4097 37.0563 42.4024C36.9043 42.3952 36.7571 42.3468 36.6304 42.2625L27.8411 37.5253L19.0517 42.2625C18.925 42.3468 18.7778 42.3952 18.6258 42.4024C18.4737 42.4097 18.3226 42.3756 18.1884 42.3038C18.0542 42.2319 17.942 42.125 17.8638 41.9945C17.7856 41.8639 17.7442 41.7146 17.7441 41.5624V18.844ZM21.1098 17.1611C20.6635 17.1611 20.2354 17.3384 19.9198 17.654C19.6043 17.9696 19.427 18.3977 19.427 18.844V39.9906L27.3749 35.8138C27.513 35.7219 27.6752 35.6729 27.8411 35.6729C28.0069 35.6729 28.1691 35.7219 28.3072 35.8138L36.2551 39.9906V18.844C36.2551 18.3977 36.0778 17.9696 35.7623 17.654C35.4467 17.3384 35.0186 17.1611 34.5723 17.1611H21.1098Z" fill="#3B3B3B"/>
</svg>
