<svg width="41" height="41" viewBox="0 0 41 41" fill="none" xmlns="http://www.w3.org/2000/svg">
<circle cx="20.5" cy="20.5" r="20.5" fill="#EEEEEE" fill-opacity="0.7"/>
<path d="M12.5508 13.3878C12.5508 12.722 12.8152 12.0835 13.286 11.6128C13.7568 11.142 14.3952 10.8775 15.061 10.8775H25.1018C25.7676 10.8775 26.406 11.142 26.8768 11.6128C27.3475 12.0835 27.612 12.722 27.612 13.3878V30.3319C27.6119 30.4454 27.5811 30.5568 27.5228 30.6542C27.4644 30.7516 27.3807 30.8313 27.2807 30.8849C27.1806 30.9384 27.0679 30.9639 26.9545 30.9584C26.8411 30.953 26.7313 30.9169 26.6368 30.8541L20.0814 27.3209L13.526 30.8541C13.4315 30.9169 13.3217 30.953 13.2083 30.9584C13.0949 30.9639 12.9822 30.9384 12.8821 30.8849C12.7821 30.8313 12.6984 30.7516 12.64 30.6542C12.5817 30.5568 12.5508 30.4454 12.5508 30.3319V13.3878ZM15.061 12.1327C14.7281 12.1327 14.4089 12.2649 14.1735 12.5003C13.9381 12.7357 13.8059 13.0549 13.8059 13.3878V29.1596L19.7337 26.0444C19.8367 25.9759 19.9577 25.9393 20.0814 25.9393C20.2051 25.9393 20.3261 25.9759 20.4291 26.0444L26.3569 29.1596V13.3878C26.3569 13.0549 26.2247 12.7357 25.9893 12.5003C25.7539 12.2649 25.4347 12.1327 25.1018 12.1327H15.061Z" fill="#3B3B3B"/>
</svg>
