<svg width="56" height="56" viewBox="0 0 56 56" fill="none" xmlns="http://www.w3.org/2000/svg">
<circle cx="28.4021" cy="28.3798" r="27.486" fill="#EEEEEE" fill-opacity="0.7"/>
<path d="M17.7441 18.8439C17.7441 17.9512 18.0987 17.0952 18.7299 16.464C19.3611 15.8328 20.2172 15.4782 21.1098 15.4782H34.5723C35.4649 15.4782 36.321 15.8328 36.9522 16.464C37.5834 17.0952 37.938 17.9512 37.938 18.8439V41.5623C37.9379 41.7145 37.8965 41.8638 37.8183 41.9944C37.7401 42.1249 37.6279 42.2318 37.4937 42.3036C37.3595 42.3755 37.2084 42.4096 37.0563 42.4023C36.9043 42.395 36.7571 42.3467 36.6304 42.2624L27.8411 37.5251L19.0517 42.2624C18.925 42.3467 18.7778 42.395 18.6258 42.4023C18.4737 42.4096 18.3226 42.3755 18.1884 42.3036C18.0542 42.2318 17.942 42.1249 17.8638 41.9944C17.7856 41.8638 17.7442 41.7145 17.7441 41.5623V18.8439ZM21.1098 17.161C20.6635 17.161 20.2354 17.3383 19.9198 17.6539C19.6043 17.9695 19.427 18.3976 19.427 18.8439V39.9905L27.3749 35.8137C27.513 35.7218 27.6752 35.6728 27.8411 35.6728C28.0069 35.6728 28.1691 35.7218 28.3072 35.8137L36.2551 39.9905V18.8439C36.2551 18.3976 36.0778 17.9695 35.7623 17.6539C35.4467 17.3383 35.0186 17.161 34.5723 17.161H21.1098Z" fill="#3B3B3B"/>
</svg>
