<svg width="56" height="56" viewBox="0 0 56 56" fill="none" xmlns="http://www.w3.org/2000/svg">
<circle cx="27.9021" cy="28.3799" r="27.486" fill="#EEEEEE" fill-opacity="0.7"/>
<path d="M17.2441 18.844C17.2441 17.9514 17.5987 17.0953 18.2299 16.4641C18.8611 15.8329 19.7172 15.4783 20.6098 15.4783H34.0723C34.9649 15.4783 35.821 15.8329 36.4522 16.4641C37.0834 17.0953 37.438 17.9514 37.438 18.844V41.5624C37.4379 41.7146 37.3965 41.864 37.3183 41.9945C37.2401 42.1251 37.1279 42.232 36.9937 42.3038C36.8595 42.3756 36.7084 42.4097 36.5563 42.4025C36.4043 42.3952 36.2571 42.3468 36.1304 42.2625L27.3411 37.5253L18.5517 42.2625C18.425 42.3468 18.2778 42.3952 18.1258 42.4025C17.9737 42.4097 17.8226 42.3756 17.6884 42.3038C17.5542 42.232 17.442 42.1251 17.3638 41.9945C17.2856 41.864 17.2442 41.7146 17.2441 41.5624V18.844ZM20.6098 17.1612C20.1635 17.1612 19.7354 17.3385 19.4198 17.6541C19.1043 17.9697 18.927 18.3977 18.927 18.844V39.9907L26.8749 35.8138C27.013 35.7219 27.1752 35.6729 27.3411 35.6729C27.5069 35.6729 27.6691 35.7219 27.8072 35.8138L35.7551 39.9907V18.844C35.7551 18.3977 35.5778 17.9697 35.2623 17.6541C34.9467 17.3385 34.5186 17.1612 34.0723 17.1612H20.6098Z" fill="#3B3B3B"/>
</svg>
