<svg width="41" height="41" viewBox="0 0 41 41" fill="none" xmlns="http://www.w3.org/2000/svg">
<circle cx="20.5" cy="20.5" r="20.5" fill="#EEEEEE" fill-opacity="0.7"/>
<path d="M12.5508 13.3877C12.5508 12.7219 12.8152 12.0834 13.286 11.6127C13.7568 11.1419 14.3952 10.8774 15.061 10.8774H25.1018C25.7676 10.8774 26.406 11.1419 26.8768 11.6127C27.3475 12.0834 27.612 12.7219 27.612 13.3877V30.3318C27.6119 30.4454 27.5811 30.5567 27.5228 30.6541C27.4644 30.7515 27.3807 30.8312 27.2807 30.8848C27.1806 30.9383 27.0679 30.9638 26.9545 30.9584C26.8411 30.9529 26.7313 30.9169 26.6368 30.854L20.0814 27.3208L13.526 30.854C13.4315 30.9169 13.3217 30.9529 13.2083 30.9584C13.0949 30.9638 12.9822 30.9383 12.8821 30.8848C12.7821 30.8312 12.6984 30.7515 12.64 30.6541C12.5817 30.5567 12.5508 30.4454 12.5508 30.3318V13.3877ZM15.061 12.1326C14.7281 12.1326 14.4089 12.2648 14.1735 12.5002C13.9381 12.7356 13.8059 13.0548 13.8059 13.3877V29.1596L19.7337 26.0443C19.8367 25.9758 19.9577 25.9392 20.0814 25.9392C20.2051 25.9392 20.3261 25.9758 20.4291 26.0443L26.3569 29.1596V13.3877C26.3569 13.0548 26.2247 12.7356 25.9893 12.5002C25.7539 12.2648 25.4347 12.1326 25.1018 12.1326H15.061Z" fill="#3B3B3B"/>
</svg>
