<svg width="56" height="56" viewBox="0 0 56 56" fill="none" xmlns="http://www.w3.org/2000/svg">
<circle cx="28.4021" cy="28.162" r="27.486" fill="#EEEEEE" fill-opacity="0.7"/>
<path d="M17.7441 18.6261C17.7441 17.7334 18.0987 16.8773 18.7299 16.2462C19.3611 15.615 20.2172 15.2604 21.1098 15.2604H34.5723C35.4649 15.2604 36.321 15.615 36.9522 16.2462C37.5834 16.8773 37.938 17.7334 37.938 18.6261V41.3445C37.9379 41.4967 37.8965 41.646 37.8183 41.7766C37.7401 41.9071 37.6279 42.014 37.4937 42.0858C37.3595 42.1577 37.2084 42.1918 37.0563 42.1845C36.9043 42.1772 36.7571 42.1289 36.6304 42.0445L27.8411 37.3073L19.0517 42.0445C18.925 42.1289 18.7778 42.1772 18.6258 42.1845C18.4737 42.1918 18.3226 42.1577 18.1884 42.0858C18.0542 42.014 17.942 41.9071 17.8638 41.7766C17.7856 41.646 17.7442 41.4967 17.7441 41.3445V18.6261ZM21.1098 16.9432C20.6635 16.9432 20.2354 17.1205 19.9198 17.4361C19.6043 17.7517 19.427 18.1797 19.427 18.6261V39.7727L27.3749 35.5959C27.513 35.504 27.6752 35.455 27.8411 35.455C28.0069 35.455 28.1691 35.504 28.3072 35.5959L36.2551 39.7727V18.6261C36.2551 18.1797 36.0778 17.7517 35.7623 17.4361C35.4467 17.1205 35.0186 16.9432 34.5723 16.9432H21.1098Z" fill="#3B3B3B"/>
</svg>
