<svg width="56" height="56" viewBox="0 0 56 56" fill="none" xmlns="http://www.w3.org/2000/svg">
<circle cx="28.4021" cy="28.1621" r="27.486" fill="#EEEEEE" fill-opacity="0.7"/>
<path d="M17.7441 18.6262C17.7441 17.7335 18.0987 16.8775 18.7299 16.2463C19.3611 15.6151 20.2172 15.2605 21.1098 15.2605H34.5723C35.4649 15.2605 36.321 15.6151 36.9522 16.2463C37.5834 16.8775 37.938 17.7335 37.938 18.6262V41.3446C37.9379 41.4968 37.8965 41.6461 37.8183 41.7767C37.7401 41.9072 37.6279 42.0141 37.4937 42.086C37.3595 42.1578 37.2084 42.1919 37.0563 42.1846C36.9043 42.1774 36.7571 42.129 36.6304 42.0447L27.8411 37.3075L19.0517 42.0447C18.925 42.129 18.7778 42.1774 18.6258 42.1846C18.4737 42.1919 18.3226 42.1578 18.1884 42.086C18.0542 42.0141 17.942 41.9072 17.8638 41.7767C17.7856 41.6461 17.7442 41.4968 17.7441 41.3446V18.6262ZM21.1098 16.9433C20.6635 16.9433 20.2354 17.1206 19.9198 17.4362C19.6043 17.7518 19.427 18.1799 19.427 18.6262V39.7728L27.3749 35.596C27.513 35.5041 27.6752 35.4551 27.8411 35.4551C28.0069 35.4551 28.1691 35.5041 28.3072 35.596L36.2551 39.7728V18.6262C36.2551 18.1799 36.0778 17.7518 35.7623 17.4362C35.4467 17.1206 35.0186 16.9433 34.5723 16.9433H21.1098Z" fill="#3B3B3B"/>
</svg>
