<svg width="41" height="41" viewBox="0 0 41 41" fill="none" xmlns="http://www.w3.org/2000/svg">
<circle cx="20.5" cy="20.5" r="20.5" fill="#EEEEEE" fill-opacity="0.7"/>
<path d="M12.551 13.3879C12.551 12.7222 12.8155 12.0837 13.2862 11.6129C13.757 11.1422 14.3955 10.8777 15.0612 10.8777H25.102C25.7678 10.8777 26.4063 11.1422 26.877 11.6129C27.3478 12.0837 27.6123 12.7222 27.6123 13.3879V30.3321C27.6122 30.4456 27.5813 30.557 27.523 30.6543C27.4646 30.7517 27.381 30.8314 27.2809 30.885C27.1808 30.9386 27.0681 30.964 26.9547 30.9586C26.8413 30.9532 26.7315 30.9171 26.637 30.8542L20.0816 27.321L13.5262 30.8542C13.4317 30.9171 13.3219 30.9532 13.2086 30.9586C13.0952 30.964 12.9824 30.9386 12.8824 30.885C12.7823 30.8314 12.6986 30.7517 12.6403 30.6543C12.5819 30.557 12.5511 30.4456 12.551 30.3321V13.3879ZM15.0612 12.1328C14.7284 12.1328 14.4091 12.265 14.1737 12.5004C13.9384 12.7358 13.8061 13.0551 13.8061 13.3879V29.1598L19.734 26.0446C19.837 25.976 19.9579 25.9395 20.0816 25.9395C20.2054 25.9395 20.3263 25.976 20.4293 26.0446L26.3571 29.1598V13.3879C26.3571 13.0551 26.2249 12.7358 25.9895 12.5004C25.7542 12.265 25.4349 12.1328 25.102 12.1328H15.0612Z" fill="#3B3B3B"/>
</svg>
