<svg width="56" height="56" viewBox="0 0 56 56" fill="none" xmlns="http://www.w3.org/2000/svg">
<circle cx="28.402" cy="27.9441" r="27.486" fill="#EEEEEE" fill-opacity="0.7"/>
<path d="M17.7441 18.4081C17.7441 17.5155 18.0987 16.6594 18.7299 16.0282C19.3611 15.397 20.2172 15.0424 21.1098 15.0424H34.5723C35.4649 15.0424 36.321 15.397 36.9522 16.0282C37.5834 16.6594 37.938 17.5155 37.938 18.4081V41.1265C37.9379 41.2787 37.8965 41.4281 37.8183 41.5586C37.7401 41.6892 37.6279 41.7961 37.4937 41.8679C37.3595 41.9398 37.2084 41.9738 37.0563 41.9666C36.9043 41.9593 36.7571 41.9109 36.6304 41.8266L27.841 37.0894L19.0517 41.8266C18.925 41.9109 18.7778 41.9593 18.6258 41.9666C18.4737 41.9738 18.3226 41.9398 18.1884 41.8679C18.0542 41.7961 17.942 41.6892 17.8638 41.5586C17.7856 41.4281 17.7442 41.2787 17.7441 41.1265V18.4081ZM21.1098 16.7253C20.6635 16.7253 20.2354 16.9026 19.9198 17.2182C19.6043 17.5338 19.427 17.9618 19.427 18.4081V39.5548L27.3749 35.378C27.513 35.2861 27.6752 35.237 27.841 35.237C28.0069 35.237 28.1691 35.2861 28.3072 35.378L36.2551 39.5548V18.4081C36.2551 17.9618 36.0778 17.5338 35.7623 17.2182C35.4467 16.9026 35.0186 16.7253 34.5723 16.7253H21.1098Z" fill="#3B3B3B"/>
</svg>
