<svg width="56" height="56" viewBox="0 0 56 56" fill="none" xmlns="http://www.w3.org/2000/svg">
<circle cx="27.9021" cy="27.9442" r="27.486" fill="#EEEEEE" fill-opacity="0.7"/>
<path d="M17.2441 18.4083C17.2441 17.5157 17.5987 16.6596 18.2299 16.0284C18.8611 15.3972 19.7172 15.0426 20.6098 15.0426H34.0723C34.9649 15.0426 35.821 15.3972 36.4522 16.0284C37.0834 16.6596 37.438 17.5157 37.438 18.4083V41.1267C37.4379 41.2789 37.3965 41.4282 37.3183 41.5588C37.2401 41.6893 37.1279 41.7962 36.9937 41.8681C36.8595 41.9399 36.7084 41.974 36.5563 41.9667C36.4043 41.9595 36.2571 41.9111 36.1304 41.8268L27.3411 37.0896L18.5517 41.8268C18.425 41.9111 18.2778 41.9595 18.1258 41.9667C17.9737 41.974 17.8226 41.9399 17.6884 41.8681C17.5542 41.7962 17.442 41.6893 17.3638 41.5588C17.2856 41.4282 17.2442 41.2789 17.2441 41.1267V18.4083ZM20.6098 16.7254C20.1635 16.7254 19.7354 16.9027 19.4198 17.2183C19.1043 17.5339 18.927 17.962 18.927 18.4083V39.5549L26.8749 35.3781C27.013 35.2862 27.1752 35.2372 27.3411 35.2372C27.5069 35.2372 27.6691 35.2862 27.8072 35.3781L35.7551 39.5549V18.4083C35.7551 17.962 35.5778 17.5339 35.2623 17.2183C34.9467 16.9027 34.5186 16.7254 34.0723 16.7254H20.6098Z" fill="#3B3B3B"/>
</svg>
