<svg width="52" height="52" viewBox="0 0 52 52" fill="none" xmlns="http://www.w3.org/2000/svg">
<circle cx="25.625" cy="26.125" r="25.625" transform="rotate(-180 25.625 26.125)" fill="#EEEEEE" fill-opacity="0.7"/>
<path d="M23.1629 16.1875L31.3129 24.3375C32.6379 25.6625 32.6379 27.8375 31.3129 29.1625L23.1629 37.3125C22.8004 37.675 22.2004 37.675 21.8379 37.3125C21.4754 36.95 21.4754 36.35 21.8379 35.9875L29.9879 27.8375C30.5879 27.2375 30.5879 26.2625 29.9879 25.6625L21.8379 17.5125C21.4754 17.15 21.4754 16.55 21.8379 16.1875C22.0254 16.0125 22.2629 15.9125 22.5004 15.9125C22.7379 15.9125 22.9754 16 23.1629 16.1875Z" fill="#292D32"/>
</svg>
