<svg width="53" height="53" viewBox="0 0 53 53" fill="none" xmlns="http://www.w3.org/2000/svg">
<circle cx="26.6249" cy="26.625" r="25.625" transform="rotate(-0.434865 26.6249 26.625)" fill="#EEEEEE" fill-opacity="0.7"/>
<path d="M29.1623 36.5436L20.9507 28.4556C19.6157 27.1407 19.5992 24.9658 20.9141 23.6308L29.002 15.4192C29.3617 15.0539 29.9617 15.0494 30.327 15.4091C30.6922 15.7688 30.6968 16.3688 30.337 16.7341L22.2491 24.9457C21.6537 25.5502 21.6611 26.5252 22.2656 27.1206L30.4772 35.2085C30.8425 35.5683 30.847 36.1683 30.4873 36.5335C30.3011 36.7099 30.0644 36.8117 29.8269 36.8135C29.5894 36.8153 29.3512 36.7296 29.1623 36.5436Z" fill="#292D32"/>
</svg>
