<svg width="52" height="52" viewBox="0 0 52 52" fill="none" xmlns="http://www.w3.org/2000/svg">
<circle cx="25.625" cy="25.625" r="25.625" transform="rotate(-180 25.625 25.625)" fill="#EEEEEE" fill-opacity="0.7"/>
<path d="M23.1629 15.6875L31.3129 23.8375C32.6379 25.1625 32.6379 27.3375 31.3129 28.6625L23.1629 36.8125C22.8004 37.175 22.2004 37.175 21.8379 36.8125C21.4754 36.45 21.4754 35.85 21.8379 35.4875L29.9879 27.3375C30.5879 26.7375 30.5879 25.7625 29.9879 25.1625L21.8379 17.0125C21.4754 16.65 21.4754 16.05 21.8379 15.6875C22.0254 15.5125 22.2629 15.4125 22.5004 15.4125C22.7379 15.4125 22.9754 15.5 23.1629 15.6875Z" fill="#292D32"/>
</svg>
