<svg width="52" height="53" viewBox="0 0 52 53" fill="none" xmlns="http://www.w3.org/2000/svg">
<circle cx="25.625" cy="26.5" r="25.625" transform="rotate(-180 25.625 26.5)" fill="#EEEEEE" fill-opacity="0.7"/>
<path d="M23.1629 16.5625L31.3129 24.7125C32.6379 26.0375 32.6379 28.2125 31.3129 29.5375L23.1629 37.6875C22.8004 38.05 22.2004 38.05 21.8379 37.6875C21.4754 37.325 21.4754 36.725 21.8379 36.3625L29.9879 28.2125C30.5879 27.6125 30.5879 26.6375 29.9879 26.0375L21.8379 17.8875C21.4754 17.525 21.4754 16.925 21.8379 16.5625C22.0254 16.3875 22.2629 16.2875 22.5004 16.2875C22.7379 16.2875 22.9754 16.375 23.1629 16.5625Z" fill="#292D32"/>
</svg>
