<svg width="24" height="25" viewBox="0 0 24 25" fill="none" xmlns="http://www.w3.org/2000/svg">
<rect width="24" height="24" transform="translate(0 0.5)" fill="#1877F2"/>
<path d="M23.5 12.5699C23.5 6.2186 18.3513 1.06988 12 1.06988C5.64872 1.06988 0.5 6.2186 0.5 12.5699C0.5 18.3099 4.70538 23.0674 10.2031 23.9302V15.8941H7.2832V12.5699H10.2031V10.0363C10.2031 7.1541 11.92 5.56207 14.5468 5.56207C15.805 5.56207 17.1211 5.78668 17.1211 5.78668V8.61675H15.671C14.2424 8.61675 13.7969 9.50322 13.7969 10.4127V12.5699H16.9863L16.4765 15.8941H13.7969V23.9302C19.2946 23.0674 23.5 18.3099 23.5 12.5699Z" fill="white"/>
</svg>
