<svg width="27" height="25" viewBox="0 0 27 25" fill="none" xmlns="http://www.w3.org/2000/svg">
<path d="M10.3437 5.62745C10.0537 5.62745 9.77547 5.73281 9.57035 5.92034C9.36523 6.10788 9.25 6.36223 9.25 6.62745C9.25 6.89267 9.36523 7.14702 9.57035 7.33456C9.77547 7.52209 10.0537 7.62745 10.3437 7.62745C10.6338 7.62745 10.912 7.52209 11.1171 7.33456C11.3223 7.14702 11.4375 6.89267 11.4375 6.62745C11.4375 6.36223 11.3223 6.10788 11.1171 5.92034C10.912 5.73281 10.6338 5.62745 10.3437 5.62745ZM7.24844 5.62745C7.47441 5.04192 7.89346 4.53488 8.44784 4.17624C9.00222 3.8176 9.66463 3.625 10.3437 3.625C11.0229 3.625 11.6853 3.8176 12.2397 4.17624C12.794 4.53488 13.2131 5.04192 13.4391 5.62745H21.2812C21.5713 5.62745 21.8495 5.73281 22.0546 5.92034C22.2598 6.10788 22.375 6.36223 22.375 6.62745C22.375 6.89267 22.2598 7.14702 22.0546 7.33456C21.8495 7.52209 21.5713 7.62745 21.2812 7.62745H13.4391C13.2131 8.21298 12.794 8.72002 12.2397 9.07866C11.6853 9.4373 11.0229 9.6299 10.3437 9.6299C9.66463 9.6299 9.00222 9.4373 8.44784 9.07866C7.89346 8.72002 7.47441 8.21298 7.24844 7.62745H5.96875C5.67867 7.62745 5.40047 7.52209 5.19535 7.33456C4.99023 7.14702 4.875 6.89267 4.875 6.62745C4.875 6.36223 4.99023 6.10788 5.19535 5.92034C5.40047 5.73281 5.67867 5.62745 5.96875 5.62745H7.24844ZM16.9062 11.6274C16.6162 11.6274 16.338 11.7328 16.1329 11.9203C15.9277 12.1079 15.8125 12.3622 15.8125 12.6274C15.8125 12.8927 15.9277 13.147 16.1329 13.3346C16.338 13.5221 16.6162 13.6274 16.9062 13.6274C17.1963 13.6274 17.4745 13.5221 17.6796 13.3346C17.8848 13.147 18 12.8927 18 12.6274C18 12.3622 17.8848 12.1079 17.6796 11.9203C17.4745 11.7328 17.1963 11.6274 16.9062 11.6274ZM13.8109 11.6274C14.0369 11.0419 14.456 10.5349 15.0103 10.1762C15.5647 9.81759 16.2271 9.625 16.9062 9.625C17.5854 9.625 18.2478 9.81759 18.8022 10.1762C19.3565 10.5349 19.7756 11.0419 20.0016 11.6274H21.2812C21.5713 11.6274 21.8495 11.7328 22.0546 11.9203C22.2598 12.1079 22.375 12.3622 22.375 12.6274C22.375 12.8927 22.2598 13.147 22.0546 13.3346C21.8495 13.5221 21.5713 13.6274 21.2812 13.6274H20.0016C19.7756 14.213 19.3565 14.72 18.8022 15.0787C18.2478 15.4373 17.5854 15.6299 16.9062 15.6299C16.2271 15.6299 15.5647 15.4373 15.0103 15.0787C14.456 14.72 14.0369 14.213 13.8109 13.6274H5.96875C5.67867 13.6274 5.40047 13.5221 5.19535 13.3346C4.99023 13.147 4.875 12.8927 4.875 12.6274C4.875 12.3622 4.99023 12.1079 5.19535 11.9203C5.40047 11.7328 5.67867 11.6274 5.96875 11.6274H13.8109ZM10.3437 17.6274C10.0537 17.6274 9.77547 17.7328 9.57035 17.9203C9.36523 18.1079 9.25 18.3622 9.25 18.6274C9.25 18.8927 9.36523 19.147 9.57035 19.3346C9.77547 19.5221 10.0537 19.6274 10.3437 19.6274C10.6338 19.6274 10.912 19.5221 11.1171 19.3346C11.3223 19.147 11.4375 18.8927 11.4375 18.6274C11.4375 18.3622 11.3223 18.1079 11.1171 17.9203C10.912 17.7328 10.6338 17.6274 10.3437 17.6274ZM7.24844 17.6274C7.47441 17.0419 7.89346 16.5349 8.44784 16.1762C9.00222 15.8176 9.66463 15.625 10.3437 15.625C11.0229 15.625 11.6853 15.8176 12.2397 16.1762C12.794 16.5349 13.2131 17.0419 13.4391 17.6274H21.2812C21.5713 17.6274 21.8495 17.7328 22.0546 17.9203C22.2598 18.1079 22.375 18.3622 22.375 18.6274C22.375 18.8927 22.2598 19.147 22.0546 19.3346C21.8495 19.5221 21.5713 19.6274 21.2812 19.6274H13.4391C13.2131 20.213 12.794 20.72 12.2397 21.0787C11.6853 21.4373 11.0229 21.6299 10.3437 21.6299C9.66463 21.6299 9.00222 21.4373 8.44784 21.0787C7.89346 20.72 7.47441 20.213 7.24844 19.6274H5.96875C5.67867 19.6274 5.40047 19.5221 5.19535 19.3346C4.99023 19.147 4.875 18.8927 4.875 18.6274C4.875 18.3622 4.99023 18.1079 5.19535 17.9203C5.40047 17.7328 5.67867 17.6274 5.96875 17.6274H7.24844Z" fill="#3B3B3B"/>
</svg>
