<svg width="24" height="22" viewBox="0 0 24 22" fill="none" xmlns="http://www.w3.org/2000/svg">
<path d="M8.75003 4.44658C8.49218 4.44658 8.24489 4.54023 8.06256 4.70693C7.88024 4.87363 7.7778 5.09972 7.7778 5.33547C7.7778 5.57122 7.88024 5.79731 8.06256 5.96401C8.24489 6.13071 8.49218 6.22436 8.75003 6.22436C9.00788 6.22436 9.25516 6.13071 9.43749 5.96401C9.61982 5.79731 9.72225 5.57122 9.72225 5.33547C9.72225 5.09972 9.61982 4.87363 9.43749 4.70693C9.25516 4.54023 9.00788 4.44658 8.75003 4.44658ZM5.99864 4.44658C6.1995 3.92611 6.572 3.47541 7.06478 3.15662C7.55756 2.83782 8.14636 2.66663 8.75003 2.66663C9.35369 2.66663 9.9425 2.83782 10.4353 3.15662C10.9281 3.47541 11.3006 3.92611 11.5014 4.44658H18.4722C18.7301 4.44658 18.9774 4.54023 19.1597 4.70693C19.342 4.87363 19.4445 5.09972 19.4445 5.33547C19.4445 5.57122 19.342 5.79731 19.1597 5.96401C18.9774 6.13071 18.7301 6.22436 18.4722 6.22436H11.5014C11.3006 6.74483 10.9281 7.19553 10.4353 7.51432C9.9425 7.83312 9.35369 8.00432 8.75003 8.00432C8.14636 8.00432 7.55756 7.83312 7.06478 7.51432C6.572 7.19553 6.1995 6.74483 5.99864 6.22436H4.86114C4.60329 6.22436 4.356 6.13071 4.17367 5.96401C3.99135 5.79731 3.88892 5.57122 3.88892 5.33547C3.88892 5.09972 3.99135 4.87363 4.17367 4.70693C4.356 4.54023 4.60329 4.44658 4.86114 4.44658H5.99864ZM14.5834 9.77991C14.3255 9.77991 14.0782 9.87356 13.8959 10.0403C13.7136 10.207 13.6111 10.4331 13.6111 10.6688C13.6111 10.9046 13.7136 11.1306 13.8959 11.2973C14.0782 11.464 14.3255 11.5577 14.5834 11.5577C14.8412 11.5577 15.0885 11.464 15.2708 11.2973C15.4532 11.1306 15.5556 10.9046 15.5556 10.6688C15.5556 10.4331 15.4532 10.207 15.2708 10.0403C15.0885 9.87356 14.8412 9.77991 14.5834 9.77991ZM11.832 9.77991C12.0328 9.25944 12.4053 8.80874 12.8981 8.48995C13.3909 8.17115 13.9797 7.99996 14.5834 7.99996C15.187 7.99996 15.7758 8.17115 16.2686 8.48995C16.7614 8.80874 17.1339 9.25944 17.3347 9.77991H18.4722C18.7301 9.77991 18.9774 9.87356 19.1597 10.0403C19.342 10.207 19.4445 10.4331 19.4445 10.6688C19.4445 10.9046 19.342 11.1306 19.1597 11.2973C18.9774 11.464 18.7301 11.5577 18.4722 11.5577H17.3347C17.1339 12.0782 16.7614 12.5289 16.2686 12.8477C15.7758 13.1665 15.187 13.3376 14.5834 13.3376C13.9797 13.3376 13.3909 13.1665 12.8981 12.8477C12.4053 12.5289 12.0328 12.0782 11.832 11.5577H4.86114C4.60329 11.5577 4.356 11.464 4.17367 11.2973C3.99135 11.1306 3.88892 10.9046 3.88892 10.6688C3.88892 10.4331 3.99135 10.207 4.17367 10.0403C4.356 9.87356 4.60329 9.77991 4.86114 9.77991H11.832ZM8.75003 15.1132C8.49218 15.1132 8.24489 15.2069 8.06256 15.3736C7.88024 15.5403 7.7778 15.7664 7.7778 16.0021C7.7778 16.2379 7.88024 16.464 8.06256 16.6307C8.24489 16.7974 8.49218 16.891 8.75003 16.891C9.00788 16.891 9.25516 16.7974 9.43749 16.6307C9.61982 16.464 9.72225 16.2379 9.72225 16.0021C9.72225 15.7664 9.61982 15.5403 9.43749 15.3736C9.25516 15.2069 9.00788 15.1132 8.75003 15.1132ZM5.99864 15.1132C6.1995 14.5928 6.572 14.1421 7.06478 13.8233C7.55756 13.5045 8.14636 13.3333 8.75003 13.3333C9.35369 13.3333 9.9425 13.5045 10.4353 13.8233C10.9281 14.1421 11.3006 14.5928 11.5014 15.1132H18.4722C18.7301 15.1132 18.9774 15.2069 19.1597 15.3736C19.342 15.5403 19.4445 15.7664 19.4445 16.0021C19.4445 16.2379 19.342 16.464 19.1597 16.6307C18.9774 16.7974 18.7301 16.891 18.4722 16.891H11.5014C11.3006 17.4115 10.9281 17.8622 10.4353 18.181C9.9425 18.4998 9.35369 18.671 8.75003 18.671C8.14636 18.671 7.55756 18.4998 7.06478 18.181C6.572 17.8622 6.1995 17.4115 5.99864 16.891H4.86114C4.60329 16.891 4.356 16.7974 4.17367 16.6307C3.99135 16.464 3.88892 16.2379 3.88892 16.0021C3.88892 15.7664 3.99135 15.5403 4.17367 15.3736C4.356 15.2069 4.60329 15.1132 4.86114 15.1132H5.99864Z" fill="#3B3B3B"/>
</svg>
