<svg width="24" height="22" viewBox="0 0 24 22" fill="none" xmlns="http://www.w3.org/2000/svg">
<path d="M8.75003 4.44664C8.49218 4.44664 8.24489 4.54029 8.06256 4.70699C7.88024 4.87369 7.7778 5.09978 7.7778 5.33553C7.7778 5.57128 7.88024 5.79737 8.06256 5.96407C8.24489 6.13077 8.49218 6.22442 8.75003 6.22442C9.00788 6.22442 9.25516 6.13077 9.43749 5.96407C9.61982 5.79737 9.72225 5.57128 9.72225 5.33553C9.72225 5.09978 9.61982 4.87369 9.43749 4.70699C9.25516 4.54029 9.00788 4.44664 8.75003 4.44664ZM5.99864 4.44664C6.1995 3.92617 6.572 3.47547 7.06478 3.15668C7.55756 2.83788 8.14636 2.66669 8.75003 2.66669C9.35369 2.66669 9.9425 2.83788 10.4353 3.15668C10.9281 3.47547 11.3006 3.92617 11.5014 4.44664H18.4722C18.7301 4.44664 18.9774 4.54029 19.1597 4.70699C19.342 4.87369 19.4445 5.09978 19.4445 5.33553C19.4445 5.57128 19.342 5.79737 19.1597 5.96407C18.9774 6.13077 18.7301 6.22442 18.4722 6.22442H11.5014C11.3006 6.74489 10.9281 7.19559 10.4353 7.51439C9.9425 7.83318 9.35369 8.00438 8.75003 8.00438C8.14636 8.00438 7.55756 7.83318 7.06478 7.51439C6.572 7.19559 6.1995 6.74489 5.99864 6.22442H4.86114C4.60329 6.22442 4.356 6.13077 4.17367 5.96407C3.99135 5.79737 3.88892 5.57128 3.88892 5.33553C3.88892 5.09978 3.99135 4.87369 4.17367 4.70699C4.356 4.54029 4.60329 4.44664 4.86114 4.44664H5.99864ZM14.5834 9.77998C14.3255 9.77998 14.0782 9.87363 13.8959 10.0403C13.7136 10.207 13.6111 10.4331 13.6111 10.6689C13.6111 10.9046 13.7136 11.1307 13.8959 11.2974C14.0782 11.4641 14.3255 11.5578 14.5834 11.5578C14.8412 11.5578 15.0885 11.4641 15.2708 11.2974C15.4532 11.1307 15.5556 10.9046 15.5556 10.6689C15.5556 10.4331 15.4532 10.207 15.2708 10.0403C15.0885 9.87363 14.8412 9.77998 14.5834 9.77998ZM11.832 9.77998C12.0328 9.2595 12.4053 8.8088 12.8981 8.49001C13.3909 8.17122 13.9797 8.00002 14.5834 8.00002C15.187 8.00002 15.7758 8.17122 16.2686 8.49001C16.7614 8.8088 17.1339 9.2595 17.3347 9.77998H18.4722C18.7301 9.77998 18.9774 9.87363 19.1597 10.0403C19.342 10.207 19.4445 10.4331 19.4445 10.6689C19.4445 10.9046 19.342 11.1307 19.1597 11.2974C18.9774 11.4641 18.7301 11.5578 18.4722 11.5578H17.3347C17.1339 12.0782 16.7614 12.5289 16.2686 12.8477C15.7758 13.1665 15.187 13.3377 14.5834 13.3377C13.9797 13.3377 13.3909 13.1665 12.8981 12.8477C12.4053 12.5289 12.0328 12.0782 11.832 11.5578H4.86114C4.60329 11.5578 4.356 11.4641 4.17367 11.2974C3.99135 11.1307 3.88892 10.9046 3.88892 10.6689C3.88892 10.4331 3.99135 10.207 4.17367 10.0403C4.356 9.87363 4.60329 9.77998 4.86114 9.77998H11.832ZM8.75003 15.1133C8.49218 15.1133 8.24489 15.207 8.06256 15.3737C7.88024 15.5404 7.7778 15.7664 7.7778 16.0022C7.7778 16.2379 7.88024 16.464 8.06256 16.6307C8.24489 16.7974 8.49218 16.8911 8.75003 16.8911C9.00788 16.8911 9.25516 16.7974 9.43749 16.6307C9.61982 16.464 9.72225 16.2379 9.72225 16.0022C9.72225 15.7664 9.61982 15.5404 9.43749 15.3737C9.25516 15.207 9.00788 15.1133 8.75003 15.1133ZM5.99864 15.1133C6.1995 14.5928 6.572 14.1421 7.06478 13.8233C7.55756 13.5045 8.14636 13.3334 8.75003 13.3334C9.35369 13.3334 9.9425 13.5045 10.4353 13.8233C10.9281 14.1421 11.3006 14.5928 11.5014 15.1133H18.4722C18.7301 15.1133 18.9774 15.207 19.1597 15.3737C19.342 15.5404 19.4445 15.7664 19.4445 16.0022C19.4445 16.2379 19.342 16.464 19.1597 16.6307C18.9774 16.7974 18.7301 16.8911 18.4722 16.8911H11.5014C11.3006 17.4116 10.9281 17.8623 10.4353 18.181C9.9425 18.4998 9.35369 18.671 8.75003 18.671C8.14636 18.671 7.55756 18.4998 7.06478 18.181C6.572 17.8623 6.1995 17.4116 5.99864 16.8911H4.86114C4.60329 16.8911 4.356 16.7974 4.17367 16.6307C3.99135 16.464 3.88892 16.2379 3.88892 16.0022C3.88892 15.7664 3.99135 15.5404 4.17367 15.3737C4.356 15.207 4.60329 15.1133 4.86114 15.1133H5.99864Z" fill="#3B3B3B"/>
</svg>
