<svg width="57" height="57" viewBox="0 0 57 57" fill="none" xmlns="http://www.w3.org/2000/svg">
<g filter="url(#filter0_d_701_3067)">
<circle cx="24" cy="21" r="12" fill="#F16E00"/>
</g>
<path fill-rule="evenodd" clip-rule="evenodd" d="M17 18.8C17 18.3226 17.1844 17.8648 17.5126 17.5272C17.8408 17.1896 18.2859 17 18.75 17H25.3125C25.737 16.9999 26.147 17.1586 26.4662 17.4463C26.7854 17.7341 26.992 18.1314 27.0476 18.5642L29.7689 17.3204C29.9021 17.2594 30.048 17.2335 30.1934 17.2452C30.3387 17.257 30.479 17.3059 30.6013 17.3875C30.7236 17.4692 30.8242 17.5809 30.8938 17.7127C30.9634 17.8445 30.9999 17.9921 31 18.1421V24.8579C30.9999 25.0078 30.9634 25.1552 30.8938 25.2869C30.8242 25.4186 30.7237 25.5303 30.6015 25.6119C30.4793 25.6936 30.3392 25.7425 30.194 25.7543C30.0487 25.7661 29.9029 25.7404 29.7697 25.6796L27.0476 24.4358C26.992 24.8686 26.7854 25.2659 26.4662 25.5537C26.147 25.8414 25.737 26.0001 25.3125 26H18.75C18.2859 26 17.8408 25.8104 17.5126 25.4728C17.1844 25.1352 17 24.6774 17 24.2V18.8ZM27.0625 23.4575L30.125 24.8579V18.1421L27.0625 19.5425V23.4575ZM18.75 17.9C18.5179 17.9 18.2954 17.9948 18.1313 18.1636C17.9672 18.3324 17.875 18.5613 17.875 18.8V24.2C17.875 24.4387 17.9672 24.6676 18.1313 24.8364C18.2954 25.0052 18.5179 25.1 18.75 25.1H25.3125C25.5446 25.1 25.7671 25.0052 25.9312 24.8364C26.0953 24.6676 26.1875 24.4387 26.1875 24.2V18.8C26.1875 18.5613 26.0953 18.3324 25.9312 18.1636C25.7671 17.9948 25.5446 17.9 25.3125 17.9H18.75Z" fill="white"/>
<defs>
<filter id="filter0_d_701_3067" x="0.75" y="0.75" width="55.5" height="55.5" filterUnits="userSpaceOnUse" color-interpolation-filters="sRGB">
<feFlood flood-opacity="0" result="BackgroundImageFix"/>
<feColorMatrix in="SourceAlpha" type="matrix" values="0 0 0 0 0 0 0 0 0 0 0 0 0 0 0 0 0 0 127 0" result="hardAlpha"/>
<feOffset dx="4.5" dy="7.5"/>
<feGaussianBlur stdDeviation="7.875"/>
<feComposite in2="hardAlpha" operator="out"/>
<feColorMatrix type="matrix" values="0 0 0 0 0 0 0 0 0 0 0 0 0 0 0 0 0 0 0.1 0"/>
<feBlend mode="normal" in2="BackgroundImageFix" result="effect1_dropShadow_701_3067"/>
<feBlend mode="normal" in="SourceGraphic" in2="effect1_dropShadow_701_3067" result="shape"/>
</filter>
</defs>
</svg>
