<svg width="36" height="36" viewBox="0 0 36 36" fill="none" xmlns="http://www.w3.org/2000/svg">
<rect width="36" height="36" fill="white"/>
<path fill-rule="evenodd" clip-rule="evenodd" d="M34.56 18.3922C34.56 17.169 34.4502 15.9929 34.2464 14.8638H18V21.5364H27.2836C26.8837 23.6926 25.6684 25.5196 23.8415 26.7427V31.0709H29.4164C32.6782 28.0679 34.56 23.6456 34.56 18.3922Z" fill="#4285F4"/>
<path fill-rule="evenodd" clip-rule="evenodd" d="M17.9992 35.2497C22.6567 35.2497 26.5615 33.7051 29.4156 31.0705L23.8407 26.7423C22.296 27.7773 20.3201 28.3889 17.9992 28.3889C13.5064 28.3889 9.70353 25.3545 8.34705 21.2772H2.58398V25.7465C5.42239 31.3842 11.256 35.2497 17.9992 35.2497Z" fill="#34A853"/>
<path fill-rule="evenodd" clip-rule="evenodd" d="M8.34784 21.2775C8.00284 20.2425 7.80682 19.1369 7.80682 18C7.80682 16.8631 8.00284 15.7575 8.34784 14.7225V10.2532H2.58477C1.41648 12.5819 0.75 15.2165 0.75 18C0.75 20.7835 1.41648 23.4181 2.58477 25.7468L8.34784 21.2775Z" fill="#FBBC05"/>
<path fill-rule="evenodd" clip-rule="evenodd" d="M17.9992 7.6108C20.5318 7.6108 22.8057 8.48114 24.5934 10.1905L29.541 5.24284C26.5536 2.45932 22.6489 0.75 17.9992 0.75C11.256 0.75 5.42239 4.61557 2.58398 10.2532L8.34705 14.7225C9.70353 10.6452 13.5064 7.6108 17.9992 7.6108Z" fill="#EA4335"/>
</svg>
