<svg width="155" height="148" viewBox="0 0 155 148" fill="none" xmlns="http://www.w3.org/2000/svg">
<g filter="url(#filter0_d_717_4752)">
<rect x="21.7998" y="16" width="95.2" height="88.2" rx="16.8" fill="#C9D7C0" shape-rendering="crispEdges"/>
<path d="M45.5994 73.4874V48.1999H42.6244V45.2249H45.5994V42.25H42.6244V39.275H45.5994V36.3H42.6244V33.325H60.4744C61.9619 33.4142 63.3007 34.039 64.4609 35.1992C65.6212 36.3595 66.2757 37.7875 66.4244 39.275H96.1744V42.25H66.4244C66.2757 43.8267 65.6212 45.2249 64.4609 46.5042C63.3007 47.7834 61.9619 48.3487 60.4744 48.1999H54.5244V69.1737C54.6732 69.1737 54.9112 69.1439 55.2384 69.0249C55.5657 68.9059 55.8334 69.0249 56.0119 69.0249C57.6779 69.0249 59.5819 69.4414 61.7239 70.2744C62.9437 67.5374 65.0262 65.0979 68.0012 63.0749C70.9762 61.0519 73.9512 60.0999 76.9262 60.0999C81.4779 60.0999 85.3454 61.6767 88.4989 64.8302C91.6524 67.9837 93.1994 71.8512 93.1994 76.4624V77.2657C93.1994 77.6524 93.1102 77.8607 93.1102 77.9499H43.0409C43.4277 76.4624 44.2607 74.9749 45.5994 73.4874ZM51.5494 69.7092V48.1999H48.5744V71.1074C50.0619 70.3637 50.9842 69.9174 51.5494 69.7092ZM60.4744 45.2249V42.25H54.5244V45.2249H60.4744ZM60.4744 36.3H54.5244V39.275H60.4744V36.3ZM48.5744 36.3V39.275H51.5494V36.3H48.5744ZM48.5744 42.25V45.2249H51.5494V42.25H48.5744ZM39.6494 80.9249H99.1494L93.1994 86.8749H45.5994L39.6494 80.9249Z" fill="#3B3B3B"/>
</g>
<defs>
<filter id="filter0_d_717_4752" x="0.799797" y="0.599991" width="154" height="147" filterUnits="userSpaceOnUse" color-interpolation-filters="sRGB">
<feFlood flood-opacity="0" result="BackgroundImageFix"/>
<feColorMatrix in="SourceAlpha" type="matrix" values="0 0 0 0 0 0 0 0 0 0 0 0 0 0 0 0 0 0 127 0" result="hardAlpha"/>
<feOffset dx="8.4" dy="14"/>
<feGaussianBlur stdDeviation="14.7"/>
<feComposite in2="hardAlpha" operator="out"/>
<feColorMatrix type="matrix" values="0 0 0 0 0 0 0 0 0 0 0 0 0 0 0 0 0 0 0.1 0"/>
<feBlend mode="normal" in2="BackgroundImageFix" result="effect1_dropShadow_717_4752"/>
<feBlend mode="normal" in="SourceGraphic" in2="effect1_dropShadow_717_4752" result="shape"/>
</filter>
</defs>
</svg>
