<svg width="111" height="105" viewBox="0 0 111 105" fill="none" xmlns="http://www.w3.org/2000/svg">
<g filter="url(#filter0_d_701_4628)">
<rect x="15.5" y="11" width="68" height="63" rx="12" fill="#C9D7C0" shape-rendering="crispEdges"/>
<path fill-rule="evenodd" clip-rule="evenodd" d="M46.0027 39.2867C45.9902 39.5079 46.0215 39.7742 46.084 40.3092L46.5852 44.5942C46.7816 46.2722 47.5873 47.8197 48.8494 48.9428C50.1114 50.0659 51.742 50.6865 53.4315 50.6867H57.949C59.2765 50.6866 60.5758 50.3032 61.6907 49.5825C62.8056 48.8618 63.6887 47.8346 64.234 46.6242H66.9402C68.1834 46.6242 69.3757 46.1303 70.2548 45.2512C71.1339 44.3722 71.6277 43.1799 71.6277 41.9367C71.6277 40.6935 71.1339 39.5012 70.2548 38.6221C69.3757 37.743 68.1834 37.2492 66.9402 37.2492H64.0915C63.8509 37.1155 63.5899 37.0226 63.319 36.9742C63.1015 36.9367 62.8315 36.9367 62.294 36.9367H49.0865C48.549 36.9367 48.2802 36.9367 48.0627 36.9742C47.5099 37.0726 47.0063 37.3542 46.633 37.7737C46.2598 38.1932 46.0386 38.7262 46.0052 39.2867H46.0027ZM65.3615 39.1242C65.3677 39.1779 65.374 39.2329 65.3765 39.2867C65.389 39.5079 65.359 39.7742 65.2965 40.3092L64.7952 44.5942L64.7752 44.7492H66.9402C67.6861 44.7492 68.4015 44.4529 68.929 43.9254C69.4564 43.398 69.7527 42.6826 69.7527 41.9367C69.7527 41.1908 69.4564 40.4754 68.929 39.9479C68.4015 39.4205 67.6861 39.1242 66.9402 39.1242H65.3615ZM56.3527 26.2742C56.5283 26.45 56.6269 26.6882 56.6269 26.9367C56.6269 27.1851 56.5283 27.4234 56.3527 27.5992C56.1973 27.7552 56.11 27.9665 56.11 28.1867C56.11 28.4069 56.1973 28.6181 56.3527 28.7742C56.8599 29.2814 57.1448 29.9694 57.1448 30.6867C57.1448 31.404 56.8599 32.0919 56.3527 32.5992C56.175 32.7648 55.9399 32.8549 55.6971 32.8506C55.4542 32.8464 55.2225 32.748 55.0507 32.5762C54.8789 32.4044 54.7805 32.1727 54.7762 31.9298C54.772 31.687 54.8621 31.4519 55.0277 31.2742C55.3527 30.9492 55.3527 30.4242 55.0277 30.0992C54.5206 29.5919 54.2357 28.904 54.2357 28.1867C54.2357 27.4694 54.5206 26.7814 55.0277 26.2742C55.2035 26.0986 55.4418 26 55.6902 26C55.9387 26 56.1769 26.0986 56.3527 26.2742ZM50.7277 28.1492C50.9033 28.325 51.0019 28.5632 51.0019 28.8117C51.0019 29.0601 50.9033 29.2984 50.7277 29.4742L50.5827 29.6192C50.4355 29.7663 50.3463 29.9616 50.3316 30.1692C50.3169 30.3768 50.3777 30.5828 50.5027 30.7492C50.8982 31.2767 51.0902 31.9291 51.0434 32.5868C50.9965 33.2444 50.714 33.8631 50.2477 34.3292L50.1027 34.4742C49.925 34.6398 49.6899 34.7299 49.4471 34.7256C49.2042 34.7214 48.9725 34.623 48.8007 34.4512C48.6289 34.2794 48.5305 34.0477 48.5262 33.8048C48.522 33.562 48.6121 33.3269 48.7777 33.1492L48.9227 33.0042C49.07 32.8571 49.1591 32.6617 49.1738 32.4541C49.1885 32.2465 49.1278 32.0406 49.0027 31.8742C48.6072 31.3467 48.4152 30.6942 48.4621 30.0366C48.5089 29.3789 48.7914 28.7603 49.2577 28.2942L49.4027 28.1492C49.5785 27.9736 49.8168 27.875 50.0652 27.875C50.3137 27.875 50.5519 27.9736 50.7277 28.1492ZM62.6027 28.1492C62.7783 28.325 62.8769 28.5632 62.8769 28.8117C62.8769 29.0601 62.7783 29.2984 62.6027 29.4742L62.4577 29.6192C62.3105 29.7663 62.2213 29.9616 62.2066 30.1692C62.1919 30.3768 62.2527 30.5828 62.3777 30.7492C62.7732 31.2767 62.9652 31.9291 62.9184 32.5868C62.8715 33.2444 62.589 33.8631 62.1227 34.3292L61.9777 34.4742C61.8919 34.5663 61.7884 34.6402 61.6734 34.6914C61.5584 34.7426 61.4342 34.7702 61.3084 34.7724C61.1825 34.7746 61.0575 34.7515 60.9407 34.7043C60.824 34.6572 60.7179 34.587 60.6289 34.498C60.5399 34.4089 60.4697 34.3029 60.4226 34.1862C60.3754 34.0694 60.3523 33.9444 60.3545 33.8185C60.3567 33.6926 60.3842 33.5685 60.4355 33.4535C60.4867 33.3385 60.5606 33.235 60.6527 33.1492L60.7977 33.0042C60.945 32.8571 61.0341 32.6617 61.0488 32.4541C61.0635 32.2465 61.0028 32.0406 60.8777 31.8742C60.4822 31.3467 60.2902 30.6942 60.3371 30.0366C60.3839 29.3789 60.6664 28.7603 61.1327 28.2942L61.2777 28.1492C61.4535 27.9736 61.6918 27.875 61.9402 27.875C62.1887 27.875 62.4269 27.9736 62.6027 28.1492Z" fill="#3B3B3B"/>
<path d="M47.533 35.3916C46.4107 36.2251 41.4457 34.9775 39.3188 33.8343C40.5596 35.2202 41.1164 35.7824 40.6351 36.8531C39.2372 39.9627 31.1142 34.15 31.3189 40.306C29.0408 37.6762 32.5801 33.574 34.6815 34.1513C36.0431 34.5253 37.5907 35.4235 37.7733 33.8007C37.7274 32.2025 35.4966 28.7816 38.5735 29.1181L47.533 35.3916ZM47.3627 52.3118L45.3921 55.1262L41.9123 52.6896L43.8829 49.8752L47.3627 52.3118ZM43.163 49.3711L41.1923 52.1855L30.2329 44.5117L32.2036 41.6973L43.163 49.3711ZM31.4837 41.1932L29.513 44.0076L28.873 43.5595L30.8437 40.745L31.4837 41.1932ZM30.1238 40.2409L28.1531 43.0554L27.4731 42.5792L29.4438 39.7648L30.1238 40.2409Z" fill="#3B3B3B"/>
<path d="M38.5236 28.5723C39.5806 29.6375 40.2666 30.7921 41.5481 31.5968C42.4174 32.1426 43.3711 32.5273 44.2078 33.1179C44.4104 33.2609 44.5826 33.3601 44.7683 33.536C44.9811 33.7377 45.4039 33.8463 45.5511 34.0964C45.6687 34.2964 45.7276 34.5163 45.8268 34.7369C45.8805 34.8561 46.1623 35.1372 46.107 35.1372C45.658 35.1372 44.7851 35.3785 44.4658 35.7376C44.3882 35.8249 44.0322 35.9376 44.0388 35.6976C44.0476 35.3817 44.7849 35.1024 45.0307 35.066C45.4672 35.0013 45.5901 35.3463 45.9247 35.5375C46.0716 35.6214 46.2555 35.485 46.3339 35.3418C46.5876 34.8781 45.7889 34.676 45.5333 34.5056C45.3063 34.3543 45.1145 33.9889 44.8305 33.9452C44.6369 33.9154 44.3246 34.0613 44.1634 33.9985C43.938 33.9109 43.5682 33.8361 43.4517 33.616C43.2504 33.2357 43.0298 32.8667 42.8112 32.4952C42.7148 32.3313 42.547 32.2758 42.4465 32.0949C42.3054 31.8409 42.1746 31.6628 41.9662 31.4544C41.219 30.7073 40.3772 29.8741 39.3331 29.613C38.79 29.4773 38.1616 29.4122 37.6429 29.2127C37.3519 29.1008 36.661 29.0321 36.362 29.1816C35.9358 29.3947 35.8344 29.9496 35.4146 30.1245C35.1593 30.2309 35.8897 29.7732 36.1663 29.7732C36.6447 29.7732 37.0523 29.7452 37.4428 30.0489C37.6878 30.2395 38.1797 30.1359 38.4702 30.2535C39.4478 30.6492 40.2055 31.4327 41.0055 32.0771C41.635 32.5842 42.3679 33.2686 42.7668 33.9808C42.9431 34.2956 43.6263 35.1283 42.9358 35.1283C42.7122 35.1283 42.5148 34.7907 42.2953 34.728C42.2053 34.7023 41.9102 34.1408 41.8772 34.0252C41.8204 33.8263 41.5645 33.3752 41.4058 33.2958" stroke="#C9D7C0" stroke-width="3" stroke-linecap="round"/>
</g>
<defs>
<filter id="filter0_d_701_4628" x="0.5" y="0" width="110" height="105" filterUnits="userSpaceOnUse" color-interpolation-filters="sRGB">
<feFlood flood-opacity="0" result="BackgroundImageFix"/>
<feColorMatrix in="SourceAlpha" type="matrix" values="0 0 0 0 0 0 0 0 0 0 0 0 0 0 0 0 0 0 127 0" result="hardAlpha"/>
<feOffset dx="6" dy="10"/>
<feGaussianBlur stdDeviation="10.5"/>
<feComposite in2="hardAlpha" operator="out"/>
<feColorMatrix type="matrix" values="0 0 0 0 0 0 0 0 0 0 0 0 0 0 0 0 0 0 0.1 0"/>
<feBlend mode="normal" in2="BackgroundImageFix" result="effect1_dropShadow_701_4628"/>
<feBlend mode="normal" in="SourceGraphic" in2="effect1_dropShadow_701_4628" result="shape"/>
</filter>
</defs>
</svg>
