<svg width="2929" height="2978" viewBox="0 0 2929 2978" fill="none" xmlns="http://www.w3.org/2000/svg">
<path fill-rule="evenodd" clip-rule="evenodd" d="M1065.51 700.415L1072.52 697.84L1079.52 695.28L1086.53 692.732L1093.54 690.199L1100.56 687.679L1107.6 685.175L1114.65 682.685L1121.71 680.212L1128.8 677.755L1135.9 675.318L1143.04 672.905L1150.2 670.522L1157.4 668.178L1164.64 665.883L1171.92 663.65L1179.25 661.492L1186.63 659.422L1194.07 657.455L1201.56 655.606L1209.12 653.889L1216.73 652.319L1224.41 650.909L1232.14 649.675L1239.93 648.627L1247.78 647.78L1255.68 647.143L1263.63 646.728L1271.63 646.544L1279.66 646.6L1287.73 646.903L1295.83 647.46L1303.95 648.278L1312.08 649.358L1320.23 650.703L1328.37 652.313L1336.5 654.185L1344.62 656.315L1352.71 658.697L1360.78 661.322L1368.81 664.183L1376.79 667.268L1384.73 670.565L1392.61 674.059L1400.44 677.738L1408.2 681.586L1415.9 685.586L1423.53 689.721L1431.1 693.975L1438.59 698.331L1446.02 702.77L1453.39 707.277L1460.69 711.833L1467.94 716.423L1475.13 721.029L1482.28 725.638L1489.38 730.235L1496.44 734.806L1503.48 739.339L1510.49 743.823L1517.49 748.248L1524.49 752.605L1531.49 756.887L1538.5 761.088L1545.53 765.204L1552.6 769.232L1559.7 773.169L1566.85 777.017L1574.06 780.775L1581.32 784.447L1588.66 788.035L1596.08 791.545L1603.57 794.983L1611.16 798.356L1618.84 801.672L1626.62 804.939L1634.49 808.167L1642.47 811.365L1650.56 814.546L1658.75 817.719L1667.05 820.896L1675.45 824.089L1683.95 827.308L1692.56 830.567L1701.26 833.876L1710.06 837.247L1718.96 840.69L1727.94 844.214L1737.01 847.825L1746.17 851.53L1755.42 855.333L1764.76 859.235L1774.19 863.241L1783.72 867.351L1793.35 871.566L1803.08 875.889L1812.93 880.32L1822.89 884.861L1832.97 889.513L1843.18 894.279L1853.52 899.162L1863.99 904.166L1874.61 909.296L1885.36 914.556L1896.26 919.953L1907.3 925.496L1918.47 931.192L1929.78 937.051L1941.21 943.082L1952.77 949.295L1964.43 955.7L1976.19 962.305L1988.03 969.122L1999.95 976.157L2011.93 983.42L2023.95 990.919L2036 998.662L2048.06 1006.65L2060.11 1014.9L2072.14 1023.41L2084.11 1032.19L2096.01 1041.24L2107.81 1050.56L2119.5 1060.16L2131.04 1070.03L2142.41 1080.17L2153.59 1090.59L2164.55 1101.28L2175.27 1112.24L2185.71 1123.45L2195.85 1134.92L2205.67 1146.63L2215.14 1158.58L2224.23 1170.75L2232.91 1183.13L2241.18 1195.71L2248.99 1208.48L2256.33 1221.42L2263.18 1234.51L2269.51 1247.74L2275.31 1261.08L2280.56 1274.53L2285.25 1288.05L2289.35 1301.62L2292.86 1315.24L2295.77 1328.87L2298.07 1342.49L2299.75 1356.08L2300.81 1369.63L2301.25 1383.1L2301.05 1396.48L2300.24 1409.75L2298.8 1422.88L2296.76 1435.85L2294.1 1448.65L2290.86 1461.26L2287.03 1473.66L2282.64 1485.84L2277.7 1497.77L2272.22 1509.45L2266.24 1520.86L2259.77 1531.99L2252.83 1542.84L2245.46 1553.39L2237.68 1563.64L2229.53 1573.6L2221.03 1583.25L2212.24 1592.6L2203.18 1601.67L2193.89 1610.45L2184.42 1618.95L2174.81 1627.19L2165.09 1635.19L2155.3 1642.95L2145.49 1650.5L2135.69 1657.86L2125.94 1665.05L2116.28 1672.09L2106.73 1679.01L2097.33 1685.84L2088.1 1692.59L2079.08 1699.29L2070.28 1705.97L2061.71 1712.66L2053.41 1719.37L2045.37 1726.14L2037.6 1732.97L2030.12 1739.9L2022.92 1746.95L2016.01 1754.12L2009.38 1761.45L2003.01 1768.93L1996.91 1776.58L1991.06 1784.41L1985.44 1792.43L1980.04 1800.64L1974.83 1809.03L1969.79 1817.62L1964.9 1826.38L1960.13 1835.32L1955.46 1844.41L1950.85 1853.66L1946.29 1863.04L1941.73 1872.52L1937.14 1882.1L1932.51 1891.74L1927.8 1901.43L1922.97 1911.12L1918.01 1920.79L1912.89 1930.41L1907.58 1939.94L1902.05 1949.36L1896.29 1958.62L1890.27 1967.68L1883.98 1976.53L1877.39 1985.11L1870.51 1993.39L1863.3 2001.34L1855.78 2008.92L1847.93 2016.1L1839.74 2022.86L1831.22 2029.15L1822.36 2034.96L1813.18 2040.25L1803.68 2045.01L1793.87 2049.21L1783.76 2052.84L1773.36 2055.89L1762.7 2058.34L1751.78 2060.18L1740.63 2061.41L1729.26 2062.04L1717.71 2062.05L1705.98 2061.47L1694.12 2060.29L1682.14 2058.53L1670.06 2056.2L1657.91 2053.33L1645.72 2049.94L1633.52 2046.05L1621.32 2041.69L1609.15 2036.89L1597.03 2031.69L1584.99 2026.11L1573.04 2020.21L1561.21 2014.01L1549.51 2007.56L1537.96 2000.91L1526.57 1994.08L1515.36 1987.14L1504.33 1980.11L1493.49 1973.04L1482.84 1965.97L1472.39 1958.95L1462.15 1952L1452.1 1945.17L1442.24 1938.5L1432.58 1932L1423.1 1925.72L1413.79 1919.67L1404.64 1913.88L1395.65 1908.37L1386.79 1903.15L1378.05 1898.25L1369.43 1893.67L1360.9 1889.41L1352.45 1885.49L1344.06 1881.91L1335.71 1878.67L1327.4 1875.75L1319.09 1873.16L1310.79 1870.89L1302.46 1868.91L1294.11 1867.22L1285.71 1865.79L1277.25 1864.6L1268.72 1863.63L1260.12 1862.86L1251.43 1862.25L1242.66 1861.77L1233.78 1861.4L1224.81 1861.1L1215.75 1860.83L1206.58 1860.57L1197.33 1860.28L1187.99 1859.92L1178.57 1859.47L1169.08 1858.88L1159.53 1858.12L1149.93 1857.16L1140.3 1855.97L1130.66 1854.53L1121.03 1852.79L1111.41 1850.75L1101.84 1848.37L1092.33 1845.64L1082.9 1842.53L1073.59 1839.03L1064.4 1835.13L1055.36 1830.82L1046.5 1826.09L1037.83 1820.93L1029.37 1815.36L1021.16 1809.36L1013.2 1802.95L1005.51 1796.13L998.118 1788.91L991.026 1781.31L984.252 1773.34L977.804 1765.02L971.693 1756.38L965.923 1747.43L960.498 1738.21L955.419 1728.73L950.685 1719.02L946.294 1709.11L942.242 1699.02L938.525 1688.78L935.138 1678.42L932.072 1667.95L929.321 1657.41L926.875 1646.81L924.724 1636.17L922.856 1625.51L921.259 1614.87L919.919 1604.25L918.822 1593.67L917.951 1583.15L917.293 1572.71L916.83 1562.35L916.546 1552.11L916.424 1541.97L916.449 1531.97L916.605 1522.09L916.876 1512.36L917.249 1502.78L917.71 1493.35L918.243 1484.07L918.835 1474.95L919.469 1465.99L920.131 1457.19L920.805 1448.56L921.475 1440.09L922.125 1431.78L922.74 1423.63L923.304 1415.64L923.802 1407.81L924.22 1400.12L924.545 1392.58L924.761 1385.18L924.858 1377.91L924.823 1370.76L924.646 1363.73L924.318 1356.81L923.829 1349.98L923.173 1343.24L922.343 1336.59L921.336 1329.99L920.147 1323.46L918.775 1316.97L917.22 1310.51L915.482 1304.08L913.564 1297.66L911.47 1291.23L909.203 1284.8L906.772 1278.35L904.182 1271.87L901.444 1265.36L898.565 1258.79L895.559 1252.17L892.435 1245.49L889.206 1238.73L885.885 1231.91L882.485 1225L879.021 1218L875.506 1210.92L871.955 1203.75L868.382 1196.48L864.801 1189.12L861.226 1181.67L857.67 1174.12L854.146 1166.47L850.667 1158.74L847.244 1150.91L843.889 1142.99L840.611 1134.98L837.419 1126.89L834.321 1118.72L831.325 1110.47L828.437 1102.14L825.662 1093.74L823.008 1085.27L820.481 1076.73L818.09 1068.14L815.843 1059.49L813.751 1050.79L811.82 1042.05L810.061 1033.27L808.481 1024.46L807.089 1015.64L805.894 1006.8L804.902 997.958L804.121 989.12L803.558 980.296L803.22 971.494L803.114 962.725L803.246 953.998L803.622 945.324L804.25 936.714L805.137 928.181L806.289 919.736L807.715 911.393L809.422 903.167L811.415 895.071L813.697 887.116L816.27 879.315L819.133 871.678L822.283 864.215L825.718 856.935L829.432 849.844L833.418 842.95L837.668 836.256L842.173 829.768L846.923 823.487L851.907 817.414L857.113 811.551L862.528 805.895L868.139 800.444L873.933 795.196L879.896 790.146L886.015 785.288L892.276 780.618L898.665 776.126L905.169 771.808L911.776 767.653L918.473 763.654L925.248 759.801L932.089 756.087L938.987 752.5L945.932 749.032L952.914 745.673L959.926 742.415L966.96 739.247L974.009 736.162L981.068 733.151L988.132 730.205L995.196 727.318L1002.26 724.482L1009.32 721.692L1016.37 718.94L1023.41 716.222L1030.44 713.534L1037.47 710.871L1044.49 708.229L1051.5 705.608L1058.51 703.003L1065.51 700.415Z" fill="#AEC79F" fill-opacity="0.99"/>
<path d="M2139.85 1476.48V1476.48ZM2139.85 1476.48L2139.7 1484.56L2139.54 1492.64L2139.36 1500.71L2139.17 1508.77L2138.97 1516.84L2138.75 1524.91L2138.51 1532.98L2138.25 1541.05L2137.97 1549.14L2137.67 1557.23L2137.33 1565.33L2136.96 1573.44L2136.55 1581.56L2136.08 1589.68L2135.54 1597.81L2134.93 1605.93L2134.22 1614.04L2133.4 1622.14L2132.46 1630.22L2131.4 1638.27L2130.18 1646.28L2128.81 1654.25L2127.27 1662.16L2125.55 1670.01L2123.63 1677.79L2121.53 1685.47L2119.21 1693.07L2116.68 1700.56L2113.94 1707.94L2110.97 1715.19L2107.77 1722.31L2104.35 1729.28L2100.69 1736.1L2096.81 1742.76L2092.7 1749.26L2088.37 1755.58L2083.82 1761.72L2079.07 1767.69L2074.12 1773.47L2068.98 1779.07L2063.66 1784.49L2058.18 1789.74L2052.54 1794.8L2046.77 1799.7L2040.88 1804.44L2034.87 1809.02L2028.78 1813.45L2022.6 1817.75L2016.36 1821.92L2010.07 1825.97L2003.75 1829.92L1997.4 1833.79L1991.04 1837.58L1984.69 1841.31L1978.35 1844.99L1972.04 1848.64L1965.76 1852.28L1959.53 1855.91L1953.34 1859.55L1947.21 1863.22L1941.13 1866.93L1935.12 1870.68L1929.18 1874.5L1923.3 1878.4L1917.49 1882.37L1911.73 1886.44L1906.05 1890.61L1900.41 1894.89L1894.84 1899.28L1889.31 1903.78L1883.82 1908.41L1878.36 1913.16L1872.93 1918.03L1867.52 1923.02L1862.11 1928.14L1856.71 1933.37L1851.3 1938.71L1845.86 1944.16L1840.4 1949.72L1834.9 1955.37L1829.35 1961.1L1823.74 1966.92L1818.07 1972.8L1812.32 1978.74L1806.48 1984.74L1800.55 1990.77L1794.53 1996.83L1788.39 2002.92L1782.15 2009.04L1775.8 2015.17L1769.32 2021.32L1762.73 2027.5L1756.02 2033.7L1749.19 2039.92L1742.22 2046.17L1735.13 2052.46L1727.91 2058.78L1720.54 2065.15L1713.04 2071.56L1705.4 2078.02L1697.6 2084.53L1689.66 2091.08L1681.55 2097.69L1673.28 2104.34L1664.83 2111.02L1656.21 2117.74L1647.41 2124.48L1638.42 2131.22L1629.23 2137.96L1619.84 2144.68L1610.24 2151.36L1600.44 2157.99L1590.43 2164.55L1580.2 2171.02L1569.75 2177.38L1559.09 2183.61L1548.21 2189.7L1537.11 2195.61L1525.8 2201.34L1514.28 2206.85L1502.55 2212.12L1490.62 2217.13L1478.49 2221.86L1466.18 2226.28L1453.69 2230.38L1441.03 2234.12L1428.22 2237.49L1415.26 2240.47L1402.17 2243.03L1388.96 2245.16L1375.66 2246.83L1362.27 2248.03L1348.81 2248.74L1335.31 2248.94L1321.78 2248.63L1308.25 2247.79L1294.72 2246.4L1281.24 2244.47L1267.8 2241.97L1254.45 2238.91L1241.2 2235.28L1228.07 2231.07L1215.09 2226.3L1202.28 2220.96L1189.65 2215.05L1177.24 2208.58L1165.05 2201.56L1153.12 2194L1141.46 2185.9L1130.09 2177.29L1119.03 2168.18L1108.29 2158.58L1097.89 2148.51L1087.84 2137.99L1078.15 2127.05L1068.84 2115.7L1059.91 2103.97L1051.37 2091.89L1043.23 2079.48L1035.48 2066.77L1028.14 2053.78L1021.2 2040.55L1014.66 2027.09L1008.51 2013.45L1002.74 1999.66L997.34 1985.74L992.297 1971.73L987.593 1957.66L983.208 1943.56L979.12 1929.46L975.304 1915.4L971.736 1901.39L968.386 1887.47L965.227 1873.66L962.227 1859.98L959.356 1846.46L956.583 1833.1L953.874 1819.93L951.2 1806.96L948.529 1794.19L945.83 1781.64L943.075 1769.31L940.237 1757.2L937.289 1745.3L934.207 1733.62L930.971 1722.15L927.559 1710.88L923.955 1699.8L920.144 1688.9L916.115 1678.17L911.857 1667.58L907.365 1657.13L902.636 1646.79L897.67 1636.55L892.471 1626.4L887.045 1616.3L881.402 1606.24L875.554 1596.2L869.517 1586.17L863.311 1576.13L856.955 1566.05L850.476 1555.93L843.898 1545.74L837.251 1535.47L830.565 1525.12L823.873 1514.67L817.21 1504.11L810.609 1493.44L804.109 1482.65L797.745 1471.74L791.555 1460.7L785.577 1449.55L779.847 1438.28L774.403 1426.9L769.281 1415.42L764.515 1403.85L760.14 1392.2L756.186 1380.47L752.684 1368.7L749.661 1356.89L747.144 1345.06L745.154 1333.24L743.712 1321.43L742.835 1309.67L742.537 1297.97L742.829 1286.35L743.717 1274.84L745.207 1263.46L747.298 1252.23L749.988 1241.16L753.272 1230.29L757.138 1219.62L761.576 1209.18L766.568 1198.98L772.095 1189.03L778.137 1179.36L784.667 1169.97L791.659 1160.86L799.082 1152.05L806.905 1143.55L815.093 1135.35L823.61 1127.45L832.416 1119.86L841.474 1112.57L850.743 1105.56L860.182 1098.83L869.75 1092.38L879.407 1086.17L889.111 1080.21L898.823 1074.47L908.504 1068.92L918.119 1063.56L927.63 1058.35L937.006 1053.28L946.215 1048.31L955.231 1043.43L964.027 1038.61L972.581 1033.83L980.876 1029.06L988.895 1024.27L996.626 1019.45L1004.06 1014.56L1011.18 1009.6L1017.99 1004.53L1024.49 999.348L1030.68 994.022L1036.56 988.541L1042.13 982.889L1047.42 977.056L1052.42 971.03L1057.15 964.804L1061.64 958.373L1065.89 951.733L1069.93 944.886L1073.79 937.832L1077.48 930.579L1081.03 923.132L1084.47 915.504L1087.82 907.708L1091.12 899.759L1094.39 891.676L1097.66 883.479L1100.96 875.192L1104.31 866.839L1107.76 858.447L1111.31 850.046L1115 841.664L1118.86 833.334L1122.9 825.087L1127.14 816.957L1131.62 808.976L1136.33 801.179L1141.31 793.599L1146.56 786.269L1152.09 779.222L1157.91 772.488L1164.03 766.099L1170.45 760.082L1177.17 754.464L1184.19 749.271L1191.5 744.524L1199.1 740.243L1206.99 736.447L1215.14 733.148L1223.55 730.359L1232.2 728.087L1241.08 726.337L1250.17 725.111L1259.44 724.407L1268.88 724.218L1278.46 724.537L1288.17 725.351L1297.98 726.644L1307.86 728.398L1317.81 730.596L1327.79 733.217L1337.79 736.242L1347.78 739.651L1357.75 743.422L1367.69 747.533L1377.57 751.961L1387.39 756.684L1397.12 761.677L1406.76 766.916L1416.28 772.376L1425.69 778.033L1434.97 783.862L1444.12 789.838L1453.12 795.937L1461.98 802.136L1470.68 808.411L1479.22 814.743L1487.61 821.11L1495.83 827.495L1503.9 833.881L1511.8 840.253L1519.55 846.594L1527.15 852.889L1534.59 859.122L1541.89 865.279L1549.04 871.343L1556.06 877.301L1562.94 883.139L1569.7 888.843L1576.34 894.401L1582.87 899.801L1589.29 905.032L1595.63 910.085L1601.88 914.952L1608.07 919.625L1614.18 924.098L1620.25 928.367L1626.28 932.429L1632.28 936.28L1638.25 939.922L1644.22 943.355L1650.2 946.582L1656.18 949.606L1662.19 952.433L1668.23 955.069L1674.31 957.522L1680.44 959.801L1686.63 961.917L1692.89 963.881L1699.22 965.704L1705.63 967.401L1712.12 968.984L1718.7 970.468L1725.36 971.869L1732.12 973.201L1738.98 974.48L1745.93 975.721L1752.98 976.941L1760.12 978.154L1767.35 979.377L1774.67 980.623L1782.08 981.908L1789.57 983.245L1797.15 984.647L1804.79 986.127L1812.51 987.697L1820.29 989.366L1828.13 991.145L1836.03 993.043L1843.97 995.066L1851.96 997.223L1859.98 999.519L1868.04 1001.96L1876.13 1004.54L1884.24 1007.28L1892.37 1010.17L1900.51 1013.22L1908.66 1016.44L1916.81 1019.82L1924.95 1023.37L1933.06 1027.1L1941.16 1031.01L1949.21 1035.11L1957.22 1039.39L1965.18 1043.85L1973.07 1048.51L1980.88 1053.37L1988.61 1058.41L1996.25 1063.65L2003.78 1069.08L2011.19 1074.7L2018.48 1080.52L2025.63 1086.52L2032.62 1092.72L2039.45 1099.11L2046.1 1105.68L2052.56 1112.44L2058.81 1119.39L2064.84 1126.51L2070.65 1133.8L2076.21 1141.25L2081.53 1148.86L2086.6 1156.62L2091.41 1164.52L2095.97 1172.54L2100.26 1180.68L2104.29 1188.93L2108.07 1197.27L2111.58 1205.69L2114.85 1214.19L2117.86 1222.75L2120.64 1231.36L2123.18 1240.02L2125.49 1248.7L2127.59 1257.41L2129.48 1266.13L2131.17 1274.85L2132.68 1283.57L2134.01 1292.29L2135.18 1300.98L2136.2 1309.66L2137.07 1318.31L2137.82 1326.94L2138.45 1335.53L2138.98 1344.09L2139.41 1352.61L2139.76 1361.09L2140.03 1369.54L2140.23 1377.95L2140.38 1386.32L2140.47 1394.66L2140.52 1402.96L2140.54 1411.23L2140.52 1419.47L2140.48 1427.68L2140.42 1435.86L2140.33 1444.02L2140.23 1452.16L2140.12 1460.28L2139.99 1468.39L2139.85 1476.48" stroke="white" stroke-width="3"/>
<path d="M1603.6 733.726V733.726ZM1603.6 733.726L1610.6 738.707L1617.6 743.695L1624.59 748.692L1631.57 753.7L1638.55 758.722L1645.52 763.76L1652.49 768.817L1659.46 773.896L1666.43 778.999L1673.4 784.13L1680.37 789.293L1687.34 794.496L1694.3 799.746L1701.25 805.051L1708.18 810.421L1715.08 815.865L1721.95 821.391L1728.77 827.01L1735.54 832.728L1742.25 838.554L1748.88 844.496L1755.42 850.558L1761.87 856.747L1768.2 863.067L1774.41 869.521L1780.49 876.11L1786.43 882.837L1792.21 889.702L1797.83 896.704L1803.28 903.841L1808.53 911.111L1813.6 918.511L1818.46 926.036L1823.12 933.681L1827.56 941.439L1831.79 949.302L1835.79 957.262L1839.58 965.31L1843.15 973.437L1846.51 981.631L1849.66 989.885L1852.6 998.186L1855.34 1006.53L1857.9 1014.89L1860.27 1023.28L1862.48 1031.67L1864.53 1040.07L1866.44 1048.46L1868.22 1056.83L1869.88 1065.18L1871.45 1073.5L1872.93 1081.79L1874.34 1090.05L1875.71 1098.26L1877.03 1106.44L1878.34 1114.57L1879.64 1122.66L1880.95 1130.7L1882.29 1138.71L1883.66 1146.68L1885.08 1154.62L1886.57 1162.53L1888.13 1170.41L1889.78 1178.28L1891.52 1186.14L1893.35 1193.99L1895.3 1201.84L1897.35 1209.7L1899.52 1217.59L1901.8 1225.49L1904.21 1233.43L1906.72 1241.41L1909.36 1249.44L1912.1 1257.53L1914.95 1265.68L1917.91 1273.9L1920.96 1282.19L1924.1 1290.58L1927.32 1299.04L1930.61 1307.61L1933.96 1316.27L1937.36 1325.03L1940.81 1333.89L1944.28 1342.87L1947.77 1351.95L1951.27 1361.15L1954.76 1370.45L1958.25 1379.88L1961.72 1389.41L1965.18 1399.07L1968.62 1408.85L1972.05 1418.75L1975.46 1428.78L1978.85 1438.95L1982.23 1449.25L1985.61 1459.69L1988.97 1470.28L1992.33 1481.02L1995.69 1491.93L1999.05 1502.99L2002.41 1514.23L2005.76 1525.64L2009.11 1537.23L2012.45 1549L2015.77 1560.95L2019.06 1573.09L2022.31 1585.41L2025.52 1597.92L2028.66 1610.61L2031.73 1623.47L2034.7 1636.51L2037.56 1649.71L2040.3 1663.06L2042.9 1676.57L2045.34 1690.22L2047.6 1703.99L2049.67 1717.88L2051.53 1731.87L2053.15 1745.95L2054.53 1760.1L2055.63 1774.3L2056.45 1788.53L2056.97 1802.78L2057.16 1817.03L2057.01 1831.24L2056.51 1845.4L2055.63 1859.49L2054.37 1873.47L2052.7 1887.33L2050.63 1901.04L2048.12 1914.57L2045.18 1927.9L2041.79 1941L2037.95 1953.83L2033.65 1966.39L2028.88 1978.63L2023.64 1990.53L2017.93 2002.07L2011.75 2013.23L2005.11 2023.97L1997.99 2034.27L1990.41 2044.12L1982.38 2053.49L1973.9 2062.35L1964.99 2070.71L1955.64 2078.52L1945.89 2085.79L1935.74 2092.5L1925.2 2098.63L1914.3 2104.19L1903.05 2109.15L1891.47 2113.51L1879.59 2117.28L1867.42 2120.45L1854.99 2123.02L1842.31 2125L1829.42 2126.38L1816.34 2127.19L1803.08 2127.43L1789.68 2127.11L1776.16 2126.24L1762.55 2124.86L1748.86 2122.96L1735.13 2120.59L1721.37 2117.76L1707.62 2114.51L1693.89 2110.87L1680.21 2106.88L1666.61 2102.57L1653.09 2097.98L1639.68 2093.15L1626.4 2088.13L1613.25 2082.95L1600.26 2077.65L1587.43 2072.29L1574.78 2066.89L1562.3 2061.51L1550 2056.18L1537.88 2050.93L1525.95 2045.8L1514.19 2040.83L1502.61 2036.04L1491.2 2031.46L1479.94 2027.11L1468.83 2023.02L1457.86 2019.2L1447.01 2015.67L1436.27 2012.43L1425.62 2009.49L1415.05 2006.86L1404.55 2004.53L1394.09 2002.5L1383.66 2000.77L1373.25 1999.31L1362.84 1998.13L1352.41 1997.19L1341.96 1996.48L1331.46 1995.98L1320.91 1995.66L1310.29 1995.49L1299.61 1995.44L1288.84 1995.48L1277.99 1995.58L1267.06 1995.69L1256.03 1995.79L1244.92 1995.84L1233.72 1995.79L1222.45 1995.62L1211.1 1995.28L1199.68 1994.74L1188.21 1993.96L1176.7 1992.91L1165.16 1991.56L1153.61 1989.87L1142.06 1987.82L1130.55 1985.38L1119.07 1982.53L1107.67 1979.23L1096.35 1975.48L1085.15 1971.26L1074.08 1966.55L1063.17 1961.34L1052.44 1955.63L1041.91 1949.41L1031.61 1942.69L1021.57 1935.46L1011.79 1927.73L1002.3 1919.52L993.122 1910.82L984.269 1901.66L975.757 1892.06L967.601 1882.03L959.812 1871.6L952.398 1860.79L945.368 1849.63L938.726 1838.15L932.475 1826.38L926.615 1814.35L921.142 1802.08L916.052 1789.62L911.336 1777L906.983 1764.26L902.981 1751.42L899.313 1738.52L895.961 1725.6L892.905 1712.68L890.121 1699.81L887.585 1687L885.272 1674.29L883.153 1661.7L881.2 1649.27L879.384 1637L877.674 1624.93L876.04 1613.06L874.452 1601.42L872.879 1590.01L871.294 1578.84L869.667 1567.92L867.973 1557.25L866.185 1546.83L864.279 1536.66L862.232 1526.74L860.024 1517.06L857.633 1507.61L855.044 1498.39L852.24 1489.37L849.208 1480.56L845.938 1471.92L842.422 1463.45L838.654 1455.14L834.632 1446.95L830.356 1438.88L825.83 1430.9L821.059 1422.99L816.052 1415.14L810.822 1407.32L805.383 1399.52L799.751 1391.72L793.948 1383.89L787.994 1376.03L781.915 1368.11L775.737 1360.12L769.489 1352.05L763.201 1343.89L756.904 1335.62L750.632 1327.25L744.419 1318.75L738.299 1310.13L732.306 1301.39L726.477 1292.52L720.846 1283.53L715.448 1274.43L710.317 1265.2L705.484 1255.87L700.982 1246.44L696.841 1236.93L693.088 1227.34L689.75 1217.7L686.85 1208.01L684.41 1198.29L682.447 1188.56L680.977 1178.83L680.013 1169.13L679.564 1159.48L679.635 1149.89L680.23 1140.38L681.348 1130.98L682.984 1121.69L685.131 1112.54L687.778 1103.54L690.911 1094.7L694.513 1086.05L698.563 1077.58L703.039 1069.32L707.918 1061.27L713.178 1053.44L718.796 1045.84L724.747 1038.47L731.008 1031.34L737.555 1024.44L744.363 1017.78L751.407 1011.37L758.663 1005.2L766.104 999.258L773.707 993.555L781.445 988.081L789.296 982.83L797.235 977.795L805.238 972.969L813.284 968.343L821.351 963.907L829.421 959.652L837.474 955.568L845.495 951.645L853.47 947.873L861.385 944.242L869.226 940.74L876.981 937.357L884.638 934.079L892.182 930.895L899.605 927.79L906.893 924.751L914.036 921.765L921.026 918.817L927.853 915.892L934.51 912.976L940.99 910.054L947.286 907.113L953.396 904.137L959.314 901.114L965.04 898.03L970.572 894.871L975.911 891.628L981.058 888.286L986.017 884.837L990.79 881.271L995.385 877.579L999.806 873.754L1004.06 869.789L1008.16 865.679L1012.11 861.42L1015.93 857.01L1019.62 852.446L1023.2 847.73L1026.67 842.862L1030.06 837.844L1033.38 832.68L1036.63 827.375L1039.84 821.934L1043.02 816.365L1046.17 810.674L1049.33 804.872L1052.49 798.968L1055.68 792.971L1058.9 786.892L1062.17 780.743L1065.49 774.535L1068.89 768.279L1072.37 761.988L1075.94 755.673L1079.61 749.346L1083.38 743.018L1087.27 736.699L1091.28 730.401L1095.41 724.133L1099.67 717.903L1104.06 711.72L1108.59 705.592L1113.26 699.524L1118.06 693.524L1123.01 687.599L1128.09 681.757L1133.32 676.007L1138.7 670.36L1144.23 664.824L1149.9 659.412L1155.72 654.133L1161.69 648.998L1167.81 644.018L1174.08 639.203L1180.5 634.562L1187.06 630.107L1193.76 625.847L1200.61 621.793L1207.59 617.953L1214.71 614.338L1221.95 610.958L1229.32 607.823L1236.81 604.946L1244.42 602.338L1252.14 600.011L1259.96 597.978L1267.88 596.249L1275.89 594.831L1283.98 593.731L1292.14 592.953L1300.37 592.5L1308.65 592.371L1316.97 592.566L1325.33 593.081L1333.71 593.912L1342.1 595.051L1350.51 596.492L1358.9 598.225L1367.29 600.24L1375.66 602.525L1384 605.069L1392.31 607.858L1400.57 610.878L1408.79 614.116L1416.97 617.557L1425.08 621.186L1433.14 624.989L1441.14 628.951L1449.08 633.057L1456.95 637.294L1464.76 641.648L1472.51 646.106L1480.2 650.655L1487.82 655.284L1495.38 659.98L1502.89 664.735L1510.34 669.538L1517.74 674.381L1525.09 679.257L1532.39 684.158L1539.65 689.079L1546.87 694.015L1554.05 698.962L1561.2 703.917L1568.33 708.877L1575.42 713.841L1582.49 718.808L1589.54 723.777L1596.58 728.75L1603.6 733.726" stroke="#637856" stroke-width="3"/>
</svg>
