<svg width="2512" height="2548" viewBox="0 0 2512 2548" fill="none" xmlns="http://www.w3.org/2000/svg">
<path fill-rule="evenodd" clip-rule="evenodd" d="M920.251 603.098L926.292 600.834L932.333 598.582L938.378 596.341L944.428 594.112L950.485 591.895L956.552 589.69L962.631 587.498L968.725 585.32L974.835 583.156L980.964 581.009L987.116 578.881L993.293 576.779L999.5 574.71L1005.74 572.683L1012.02 570.709L1018.34 568.798L1024.7 566.962L1031.11 565.214L1037.57 563.566L1044.07 562.03L1050.63 560.619L1057.24 559.346L1063.9 558.221L1070.6 557.256L1077.35 556.461L1084.15 555.847L1090.98 555.421L1097.86 555.193L1104.76 555.169L1111.69 555.356L1118.65 555.761L1125.62 556.388L1132.6 557.239L1139.58 558.318L1146.56 559.622L1153.53 561.151L1160.49 562.9L1167.43 564.865L1174.33 567.039L1181.21 569.415L1188.04 571.982L1194.84 574.731L1201.58 577.65L1208.27 580.726L1214.91 583.948L1221.49 587.301L1228.01 590.77L1234.47 594.341L1240.88 597.999L1247.22 601.73L1253.51 605.519L1259.75 609.351L1265.94 613.212L1272.08 617.088L1278.17 620.966L1284.23 624.834L1290.26 628.681L1296.27 632.495L1302.26 636.268L1308.24 639.99L1314.21 643.654L1320.19 647.254L1326.17 650.785L1332.18 654.243L1338.22 657.625L1344.29 660.93L1350.4 664.156L1356.55 667.307L1362.77 670.382L1369.04 673.386L1375.38 676.322L1381.79 679.196L1388.28 682.014L1394.85 684.781L1401.51 687.506L1408.25 690.197L1415.08 692.861L1422 695.51L1429.01 698.151L1436.11 700.794L1443.3 703.45L1450.58 706.128L1457.95 708.838L1465.4 711.591L1472.93 714.396L1480.54 717.262L1488.23 720.196L1495.99 723.204L1503.83 726.291L1511.75 729.461L1519.74 732.716L1527.81 736.058L1535.96 739.488L1544.2 743.008L1552.52 746.618L1560.94 750.321L1569.46 754.115L1578.08 758.005L1586.81 761.99L1595.66 766.075L1604.61 770.261L1613.69 774.554L1622.89 778.957L1632.2 783.477L1641.64 788.119L1651.19 792.891L1660.86 797.801L1670.63 802.858L1680.5 808.069L1690.47 813.443L1700.51 818.989L1710.63 824.713L1720.81 830.624L1731.04 836.73L1741.3 843.036L1751.59 849.551L1761.88 856.28L1772.17 863.228L1782.42 870.4L1792.63 877.801L1802.78 885.434L1812.84 893.301L1822.8 901.404L1832.63 909.744L1842.31 918.32L1851.83 927.132L1861.15 936.176L1870.26 945.449L1879.13 954.947L1887.75 964.664L1896.08 974.593L1904.11 984.727L1911.81 995.056L1919.17 1005.57L1926.16 1016.26L1932.76 1027.11L1938.95 1038.11L1944.72 1049.25L1950.04 1060.5L1954.91 1071.86L1959.3 1083.31L1963.21 1094.84L1966.62 1106.41L1969.51 1118.02L1971.89 1129.65L1973.75 1141.29L1975.07 1152.9L1975.86 1164.47L1976.11 1175.99L1975.83 1187.44L1975.01 1198.79L1973.66 1210.03L1971.79 1221.15L1969.39 1232.12L1966.49 1242.93L1963.09 1253.57L1959.21 1264.02L1954.86 1274.27L1950.05 1284.31L1944.81 1294.12L1939.14 1303.7L1933.09 1313.04L1926.66 1322.13L1919.88 1330.97L1912.79 1339.55L1905.4 1347.88L1897.76 1355.96L1889.9 1363.8L1881.84 1371.39L1873.62 1378.74L1865.29 1385.88L1856.86 1392.8L1848.39 1399.53L1839.89 1406.07L1831.4 1412.46L1822.96 1418.69L1814.59 1424.8L1806.32 1430.81L1798.19 1436.72L1790.2 1442.58L1782.38 1448.39L1774.76 1454.19L1767.34 1459.98L1760.14 1465.8L1753.17 1471.65L1746.44 1477.57L1739.95 1483.56L1733.7 1489.65L1727.7 1495.85L1721.93 1502.17L1716.4 1508.63L1711.08 1515.23L1705.99 1521.98L1701.08 1528.88L1696.37 1535.95L1691.82 1543.18L1687.41 1550.56L1683.13 1558.1L1678.95 1565.79L1674.86 1573.61L1670.82 1581.56L1666.81 1589.62L1662.81 1597.77L1658.78 1606.01L1654.72 1614.29L1650.58 1622.62L1646.35 1630.95L1642 1639.26L1637.51 1647.54L1632.86 1655.74L1628.03 1663.84L1622.99 1671.81L1617.74 1679.62L1612.25 1687.24L1606.52 1694.63L1600.53 1701.78L1594.27 1708.64L1587.74 1715.19L1580.92 1721.41L1573.83 1727.26L1566.45 1732.71L1558.79 1737.76L1550.85 1742.37L1542.65 1746.52L1534.18 1750.2L1525.46 1753.4L1516.49 1756.1L1507.31 1758.29L1497.91 1759.96L1488.31 1761.11L1478.54 1761.75L1468.61 1761.86L1458.54 1761.47L1448.36 1760.56L1438.07 1759.16L1427.72 1757.28L1417.3 1754.94L1406.86 1752.14L1396.4 1748.93L1385.96 1745.31L1375.54 1741.31L1365.18 1736.97L1354.88 1732.31L1344.66 1727.36L1334.55 1722.17L1324.56 1716.76L1314.69 1711.17L1304.96 1705.43L1295.39 1699.59L1285.97 1693.67L1276.72 1687.72L1267.63 1681.77L1258.72 1675.86L1249.97 1670.01L1241.4 1664.26L1232.99 1658.64L1224.74 1653.17L1216.65 1647.88L1208.7 1642.79L1200.89 1637.92L1193.21 1633.29L1185.65 1628.9L1178.18 1624.79L1170.81 1620.94L1163.52 1617.38L1156.29 1614.11L1149.11 1611.12L1141.97 1608.42L1134.85 1606L1127.74 1603.86L1120.62 1601.98L1113.49 1600.37L1106.32 1598.99L1099.11 1597.84L1091.86 1596.9L1084.54 1596.15L1077.15 1595.57L1069.69 1595.12L1062.15 1594.79L1054.53 1594.55L1046.83 1594.38L1039.04 1594.23L1031.17 1594.09L1023.22 1593.92L1015.19 1593.7L1007.1 1593.39L998.948 1592.97L990.748 1592.41L982.511 1591.67L974.25 1590.74L965.978 1589.59L957.712 1588.2L949.467 1586.53L941.262 1584.58L933.114 1582.33L925.042 1579.75L917.066 1576.85L909.204 1573.59L901.476 1569.98L893.9 1566.02L886.497 1561.69L879.283 1556.99L872.277 1551.94L865.494 1546.52L858.949 1540.76L852.658 1534.65L846.631 1528.21L840.88 1521.46L835.413 1514.4L830.238 1507.07L825.359 1499.46L820.78 1491.62L816.499 1483.56L812.518 1475.29L808.832 1466.86L805.44 1458.27L802.337 1449.55L799.517 1440.71L796.976 1431.79L794.706 1422.79L792.698 1413.75L790.945 1404.67L789.434 1395.57L788.156 1386.48L787.099 1377.41L786.25 1368.37L785.596 1359.38L785.122 1350.46L784.817 1341.61L784.664 1332.85L784.649 1324.18L784.76 1315.62L784.981 1307.18L785.301 1298.85L785.707 1290.65L786.186 1282.58L786.727 1274.64L787.317 1266.84L787.942 1259.17L788.589 1251.64L789.244 1244.25L789.895 1237L790.528 1229.89L791.128 1222.91L791.684 1216.07L792.182 1209.37L792.61 1202.79L792.956 1196.34L793.208 1190L793.355 1183.78L793.389 1177.67L793.3 1171.66L793.079 1165.74L792.719 1159.91L792.215 1154.15L791.562 1148.47L790.754 1142.84L789.791 1137.26L788.67 1131.72L787.391 1126.21L785.955 1120.72L784.364 1115.25L782.621 1109.78L780.73 1104.3L778.698 1098.8L776.53 1093.28L774.235 1087.73L771.82 1082.14L769.295 1076.51L766.669 1070.82L763.955 1065.07L761.162 1059.26L758.302 1053.38L755.387 1047.43L752.429 1041.41L749.442 1035.3L746.436 1029.12L743.424 1022.86L740.417 1016.51L737.429 1010.09L734.469 1003.58L731.548 996.995L728.676 990.329L725.863 983.586L723.117 976.768L720.446 969.876L717.857 962.914L715.355 955.883L712.947 948.786L710.637 941.626L708.431 934.405L706.336 927.127L704.358 919.797L702.504 912.419L700.783 904.998L699.202 897.539L697.768 890.048L696.489 882.531L695.371 874.996L694.422 867.447L693.648 859.894L693.056 852.342L692.651 844.8L692.439 837.275L692.425 829.776L692.616 822.311L693.017 814.889L693.633 807.52L694.471 800.214L695.536 792.981L696.836 785.833L698.376 778.783L700.161 771.84L702.192 765.017L704.472 758.322L707 751.765L709.774 745.354L712.791 739.097L716.045 732.999L719.532 727.067L723.244 721.305L727.173 715.715L731.311 710.301L735.648 705.063L740.174 700.002L744.877 695.117L749.747 690.405L754.773 685.865L759.943 681.493L765.244 677.284L770.666 673.233L776.196 669.336L781.824 665.584L787.539 661.972L793.329 658.492L799.185 655.137L805.098 651.899L811.058 648.77L817.056 645.742L823.087 642.808L829.141 639.959L835.214 637.187L841.299 634.486L847.392 631.847L853.488 629.265L859.585 626.733L865.679 624.245L871.768 621.795L877.852 619.379L883.928 616.992L889.998 614.63L896.059 612.29L902.115 609.969L908.164 607.665L914.209 605.375L920.251 603.098Z" fill="#AEC79F" fill-opacity="0.99"/>
<path d="M1836.56 1257.36V1257.36ZM1836.56 1257.36L1836.36 1264.28L1836.15 1271.18L1835.92 1278.09L1835.69 1284.99L1835.44 1291.89L1835.18 1298.79L1834.9 1305.69L1834.61 1312.6L1834.3 1319.52L1833.96 1326.44L1833.61 1333.37L1833.22 1340.31L1832.79 1347.26L1832.31 1354.21L1831.78 1361.17L1831.18 1368.12L1830.49 1375.06L1829.72 1382L1828.84 1388.92L1827.85 1395.81L1826.74 1402.68L1825.49 1409.5L1824.09 1416.28L1822.54 1423.01L1820.83 1429.68L1818.95 1436.27L1816.9 1442.79L1814.66 1449.22L1812.23 1455.55L1809.62 1461.78L1806.81 1467.89L1803.8 1473.89L1800.6 1479.75L1797.21 1485.49L1793.62 1491.08L1789.84 1496.52L1785.88 1501.82L1781.74 1506.96L1777.43 1511.95L1772.96 1516.79L1768.35 1521.47L1763.59 1526.01L1758.7 1530.39L1753.7 1534.63L1748.59 1538.73L1743.39 1542.7L1738.11 1546.55L1732.77 1550.28L1727.37 1553.9L1721.93 1557.42L1716.45 1560.86L1710.97 1564.22L1705.47 1567.52L1699.98 1570.77L1694.5 1573.97L1689.04 1577.15L1683.62 1580.32L1678.22 1583.48L1672.87 1586.65L1667.57 1589.84L1662.32 1593.07L1657.12 1596.33L1651.98 1599.65L1646.89 1603.03L1641.86 1606.49L1636.88 1610.02L1631.96 1613.63L1627.08 1617.34L1622.25 1621.14L1617.45 1625.05L1612.69 1629.05L1607.96 1633.16L1603.25 1637.38L1598.56 1641.7L1593.87 1646.12L1589.18 1650.64L1584.48 1655.26L1579.76 1659.97L1575.02 1664.77L1570.24 1669.65L1565.42 1674.6L1560.55 1679.63L1555.62 1684.71L1550.63 1689.84L1545.56 1695.02L1540.41 1700.23L1535.18 1705.47L1529.85 1710.74L1524.43 1716.02L1518.92 1721.32L1513.3 1726.64L1507.58 1731.98L1501.76 1737.34L1495.83 1742.73L1489.79 1748.14L1483.64 1753.58L1477.38 1759.05L1470.99 1764.56L1464.49 1770.11L1457.86 1775.7L1451.11 1781.34L1444.22 1787.01L1437.19 1792.74L1430.03 1798.49L1422.71 1804.29L1415.24 1810.11L1407.62 1815.95L1399.83 1821.8L1391.87 1827.64L1383.74 1833.47L1375.44 1839.27L1366.96 1845.03L1358.29 1850.73L1349.44 1856.35L1340.41 1861.89L1331.19 1867.31L1321.79 1872.61L1312.2 1877.77L1302.43 1882.77L1292.48 1887.58L1282.35 1892.19L1272.05 1896.59L1261.59 1900.74L1250.97 1904.63L1240.2 1908.25L1229.29 1911.56L1218.25 1914.56L1207.08 1917.22L1195.81 1919.53L1184.45 1921.46L1173 1923.01L1161.48 1924.15L1149.91 1924.88L1138.31 1925.18L1126.68 1925.03L1115.06 1924.43L1103.45 1923.36L1091.88 1921.83L1080.36 1919.81L1068.91 1917.31L1057.56 1914.32L1046.31 1910.85L1035.2 1906.88L1024.23 1902.42L1013.44 1897.48L1002.82 1892.06L992.417 1886.17L982.231 1879.8L972.283 1872.98L962.589 1865.72L953.162 1858.02L944.018 1849.91L935.168 1841.39L926.625 1832.48L918.398 1823.21L910.497 1813.59L902.928 1803.64L895.698 1793.38L888.811 1782.84L882.27 1772.03L876.076 1760.99L870.23 1749.73L864.727 1738.29L859.562 1726.67L854.726 1714.93L850.211 1703.07L846.002 1691.13L842.085 1679.14L838.442 1667.12L835.054 1655.1L831.9 1643.11L828.958 1631.16L826.203 1619.28L823.611 1607.5L821.155 1595.83L818.808 1584.29L816.543 1572.89L814.333 1561.65L812.15 1550.58L809.968 1539.68L807.76 1528.97L805.503 1518.45L803.171 1508.11L800.743 1497.97L798.199 1488.01L795.52 1478.22L792.688 1468.62L789.69 1459.17L786.512 1449.88L783.144 1440.74L779.579 1431.72L775.812 1422.82L771.84 1414.02L767.664 1405.31L763.286 1396.67L758.713 1388.08L753.953 1379.53L749.017 1371L743.919 1362.47L738.674 1353.94L733.302 1345.37L727.824 1336.77L722.262 1328.12L716.641 1319.4L710.988 1310.6L705.33 1301.72L699.697 1292.75L694.12 1283.68L688.63 1274.51L683.258 1265.24L678.037 1255.86L672.999 1246.37L668.175 1236.78L663.598 1227.1L659.298 1217.33L655.306 1207.47L651.649 1197.54L648.356 1187.55L645.451 1177.51L642.958 1167.44L640.9 1157.35L639.295 1147.25L638.161 1137.17L637.512 1127.11L637.36 1117.11L637.714 1107.17L638.58 1097.32L639.961 1087.57L641.858 1077.95L644.268 1068.46L647.186 1059.13L650.604 1049.97L654.51 1041L658.891 1032.23L663.729 1023.68L669.007 1015.35L674.702 1007.26L680.792 999.41L687.25 991.812L694.048 984.469L701.157 977.383L708.546 970.554L716.182 963.982L724.03 957.661L732.058 951.587L740.229 945.751L748.509 940.143L756.862 934.753L765.254 929.565L773.652 924.567L782.021 919.739L790.33 915.066L798.55 910.529L806.653 906.106L814.611 901.778L822.402 897.525L830.003 893.324L837.397 889.156L844.568 884.999L851.502 880.834L858.188 876.64L864.617 872.398L870.784 868.09L876.684 863.697L882.315 859.203L887.679 854.593L892.779 849.853L897.621 844.97L902.213 839.934L906.565 834.736L910.689 829.369L914.6 823.828L918.314 818.112L921.848 812.219L925.223 806.153L928.458 799.916L931.575 793.516L934.598 786.961L937.549 780.264L940.454 773.436L943.335 766.493L946.218 759.454L949.127 752.337L952.086 745.163L955.119 737.955L958.248 730.738L961.496 723.537L964.883 716.378L968.428 709.289L972.15 702.297L976.064 695.432L980.187 688.722L984.53 682.195L989.105 675.879L993.92 669.803L998.983 663.992L1004.3 658.473L1009.87 653.269L1015.69 648.405L1021.77 643.901L1028.1 639.776L1034.67 636.047L1041.48 632.73L1048.52 629.836L1055.77 627.376L1063.22 625.356L1070.87 623.781L1078.68 622.652L1086.66 621.967L1094.77 621.722L1103 621.909L1111.34 622.519L1119.76 623.537L1128.24 624.95L1136.77 626.741L1145.32 628.894L1153.88 631.392L1162.44 634.219L1170.98 637.355L1179.48 640.783L1187.93 644.483L1196.33 648.434L1204.65 652.618L1212.88 657.013L1221.02 661.599L1229.05 666.353L1236.98 671.256L1244.79 676.286L1252.47 681.422L1260.02 686.645L1267.44 691.935L1274.73 697.274L1281.88 702.645L1288.89 708.033L1295.76 713.423L1302.5 718.802L1309.1 724.157L1315.58 729.473L1321.92 734.738L1328.13 739.939L1334.22 745.062L1340.2 750.095L1346.06 755.027L1351.82 759.845L1357.48 764.539L1363.04 769.1L1368.52 773.517L1373.92 777.782L1379.25 781.889L1384.52 785.831L1389.74 789.602L1394.91 793.199L1400.06 796.619L1405.18 799.86L1410.28 802.922L1415.38 805.805L1420.48 808.511L1425.6 811.045L1430.74 813.409L1435.9 815.61L1441.11 817.654L1446.36 819.549L1451.66 821.303L1457.02 822.927L1462.44 824.43L1467.93 825.824L1473.5 827.121L1479.14 828.332L1484.85 829.47L1490.65 830.549L1496.53 831.582L1502.49 832.582L1508.54 833.563L1514.66 834.537L1520.87 835.518L1527.15 836.519L1533.5 837.552L1539.93 838.629L1546.43 839.761L1552.98 840.959L1559.6 842.233L1566.27 843.591L1573 845.043L1579.76 846.596L1586.57 848.256L1593.42 850.029L1600.29 851.921L1607.2 853.936L1614.12 856.075L1621.07 858.344L1628.03 860.745L1635 863.281L1641.97 865.957L1648.95 868.777L1655.91 871.744L1662.85 874.862L1669.77 878.134L1676.66 881.564L1683.5 885.154L1690.3 888.905L1697.04 892.82L1703.71 896.9L1710.31 901.145L1716.82 905.557L1723.25 910.134L1729.57 914.878L1735.78 919.787L1741.87 924.861L1747.82 930.099L1753.64 935.501L1759.29 941.065L1764.78 946.79L1770.09 952.672L1775.21 958.708L1780.13 964.892L1784.85 971.218L1789.36 977.681L1793.64 984.271L1797.71 990.981L1801.55 997.802L1805.17 1004.73L1808.56 1011.74L1811.73 1018.84L1814.67 1026.02L1817.4 1033.26L1819.92 1040.55L1822.23 1047.89L1824.33 1055.27L1826.24 1062.68L1827.97 1070.1L1829.51 1077.55L1830.89 1084.99L1832.11 1092.44L1833.18 1099.88L1834.1 1107.31L1834.9 1114.72L1835.58 1122.11L1836.15 1129.48L1836.61 1136.83L1836.99 1144.14L1837.28 1151.42L1837.5 1158.68L1837.66 1165.9L1837.76 1173.09L1837.81 1180.25L1837.82 1187.38L1837.79 1194.48L1837.73 1201.55L1837.64 1208.6L1837.53 1215.62L1837.41 1222.62L1837.26 1229.6L1837.1 1236.56L1836.93 1243.51L1836.75 1250.44L1836.56 1257.36" stroke="white"/>
<path d="M1382.36 626.805V626.805ZM1382.36 626.805L1388.34 631.003L1394.3 635.207L1400.27 639.418L1406.22 643.64L1412.17 647.873L1418.12 652.12L1424.07 656.383L1430.01 660.664L1435.95 664.967L1441.9 669.293L1447.84 673.647L1453.78 678.035L1459.72 682.463L1465.64 686.939L1471.55 691.47L1477.43 696.064L1483.28 700.73L1489.1 705.474L1494.87 710.305L1500.58 715.228L1506.22 720.251L1511.79 725.378L1517.27 730.614L1522.66 735.963L1527.94 741.427L1533.11 747.009L1538.15 752.709L1543.06 758.529L1547.83 764.467L1552.44 770.523L1556.9 776.694L1561.18 782.978L1565.29 789.371L1569.23 795.868L1572.98 802.464L1576.54 809.151L1579.91 815.924L1583.09 822.773L1586.09 829.691L1588.9 836.67L1591.53 843.701L1593.99 850.775L1596.27 857.883L1598.39 865.017L1600.36 872.168L1602.18 879.329L1603.87 886.491L1605.43 893.647L1606.89 900.792L1608.25 907.92L1609.52 915.024L1610.72 922.102L1611.86 929.149L1612.96 936.162L1614.02 943.141L1615.07 950.083L1616.12 956.99L1617.17 963.86L1618.25 970.697L1619.36 977.502L1620.51 984.278L1621.72 991.029L1622.99 997.759L1624.34 1004.47L1625.76 1011.18L1627.27 1017.87L1628.87 1024.57L1630.57 1031.28L1632.36 1038L1634.25 1044.74L1636.25 1051.51L1638.34 1058.32L1640.53 1065.16L1642.82 1072.05L1645.19 1079L1647.66 1086L1650.21 1093.07L1652.83 1100.21L1655.52 1107.42L1658.27 1114.72L1661.08 1122.09L1663.92 1129.56L1666.8 1137.11L1669.71 1144.76L1672.63 1152.49L1675.55 1160.33L1678.47 1168.25L1681.39 1176.28L1684.29 1184.41L1687.17 1192.64L1690.04 1200.97L1692.9 1209.41L1695.74 1217.96L1698.56 1226.62L1701.38 1235.4L1704.19 1244.3L1706.98 1253.33L1709.78 1262.49L1712.57 1271.78L1715.36 1281.22L1718.14 1290.8L1720.92 1300.52L1723.69 1310.41L1726.46 1320.44L1729.2 1330.64L1731.92 1340.99L1734.61 1351.5L1737.26 1362.17L1739.84 1372.99L1742.36 1383.97L1744.8 1395.09L1747.15 1406.35L1749.38 1417.75L1751.49 1429.28L1753.47 1440.93L1755.29 1452.69L1756.94 1464.55L1758.42 1476.5L1759.69 1488.53L1760.74 1500.62L1761.57 1512.75L1762.14 1524.92L1762.46 1537.1L1762.5 1549.28L1762.24 1561.44L1761.69 1573.56L1760.81 1585.61L1759.6 1597.58L1758.04 1609.45L1756.14 1621.2L1753.86 1632.79L1751.22 1644.22L1748.19 1655.45L1744.77 1666.46L1740.96 1677.23L1736.76 1687.75L1732.15 1697.97L1727.14 1707.89L1721.73 1717.49L1715.93 1726.73L1709.72 1735.61L1703.12 1744.1L1696.13 1752.18L1688.77 1759.84L1681.03 1767.07L1672.94 1773.84L1664.49 1780.14L1655.7 1785.97L1646.6 1791.31L1637.18 1796.15L1627.47 1800.49L1617.48 1804.33L1607.23 1807.66L1596.75 1810.48L1586.04 1812.79L1575.13 1814.59L1564.04 1815.89L1552.79 1816.7L1541.4 1817.02L1529.89 1816.86L1518.27 1816.24L1506.59 1815.18L1494.84 1813.68L1483.06 1811.77L1471.26 1809.48L1459.47 1806.82L1447.71 1803.83L1435.99 1800.54L1424.34 1796.97L1412.76 1793.16L1401.28 1789.15L1389.91 1784.97L1378.66 1780.66L1367.54 1776.25L1356.57 1771.78L1345.74 1767.27L1335.06 1762.78L1324.54 1758.33L1314.18 1753.95L1303.97 1749.67L1293.91 1745.52L1284 1741.53L1274.23 1737.71L1264.6 1734.09L1255.09 1730.69L1245.69 1727.53L1236.4 1724.6L1227.2 1721.92L1218.07 1719.51L1209.02 1717.35L1200.01 1715.45L1191.04 1713.81L1182.09 1712.42L1173.16 1711.27L1164.22 1710.35L1155.27 1709.64L1146.29 1709.13L1137.27 1708.79L1128.21 1708.61L1119.09 1708.56L1109.91 1708.61L1100.66 1708.74L1091.33 1708.92L1081.93 1709.11L1072.46 1709.3L1062.91 1709.43L1053.29 1709.49L1043.6 1709.44L1033.85 1709.26L1024.04 1708.9L1014.19 1708.33L1004.31 1707.54L994.401 1706.49L984.491 1705.15L974.589 1703.5L964.713 1701.51L954.879 1699.17L945.108 1696.45L935.416 1693.35L925.825 1689.83L916.355 1685.9L907.024 1681.55L897.855 1676.76L888.865 1671.53L880.076 1665.88L871.505 1659.78L863.171 1653.26L855.09 1646.32L847.28 1638.96L839.753 1631.21L832.525 1623.07L825.605 1614.57L819.003 1605.71L812.729 1596.54L806.787 1587.06L801.181 1577.3L795.914 1567.28L790.984 1557.04L786.391 1546.6L782.127 1535.99L778.187 1525.24L774.56 1514.38L771.234 1503.43L768.197 1492.43L765.431 1481.41L762.919 1470.39L760.642 1459.4L758.577 1448.47L756.702 1437.62L754.993 1426.88L753.425 1416.26L751.973 1405.79L750.611 1395.47L749.312 1385.34L748.051 1375.4L746.801 1365.65L745.538 1356.11L744.237 1346.79L742.876 1337.68L741.432 1328.78L739.885 1320.1L738.214 1311.64L736.402 1303.38L734.432 1295.32L732.289 1287.45L729.959 1279.76L727.432 1272.25L724.699 1264.89L721.752 1257.68L718.588 1250.6L715.205 1243.64L711.602 1236.77L707.784 1229.99L703.754 1223.27L699.521 1216.6L695.096 1209.96L690.491 1203.33L685.721 1196.71L680.804 1190.07L675.757 1183.39L670.604 1176.67L665.366 1169.9L660.068 1163.05L654.737 1156.13L649.399 1149.11L644.084 1142.01L638.82 1134.8L633.637 1127.48L628.565 1120.06L623.635 1112.52L618.876 1104.89L614.318 1097.14L609.99 1089.3L605.92 1081.36L602.135 1073.34L598.661 1065.24L595.522 1057.07L592.739 1048.85L590.333 1040.59L588.322 1032.3L586.722 1023.99L585.545 1015.69L584.803 1007.41L584.502 999.154L584.649 990.952L585.245 982.815L586.289 974.76L587.777 966.801L589.704 958.954L592.059 951.232L594.83 943.648L598.002 936.214L601.557 928.94L605.477 921.836L609.742 914.908L614.332 908.166L619.227 901.613L624.407 895.256L629.851 889.098L635.538 883.142L641.448 877.39L647.558 871.841L653.848 866.495L660.296 861.351L666.88 856.406L673.579 851.655L680.372 847.094L687.238 842.718L694.159 838.519L701.114 834.491L708.087 830.625L715.059 826.915L722.016 823.35L728.944 819.924L735.831 816.627L742.665 813.45L749.434 810.386L756.129 807.423L762.737 804.552L769.249 801.761L775.655 799.04L781.945 796.376L788.111 793.759L794.144 791.175L800.036 788.613L805.783 786.059L811.377 783.503L816.814 780.931L822.091 778.332L827.204 775.694L832.152 773.005L836.934 770.255L841.551 767.433L846.004 764.53L850.295 761.536L854.429 758.443L858.41 755.245L862.244 751.934L865.936 748.505L869.496 744.953L872.93 741.276L876.248 737.47L879.46 733.534L882.576 729.469L885.607 725.274L888.563 720.952L891.458 716.506L894.302 711.94L897.107 707.258L899.886 702.467L902.65 697.572L905.412 692.582L908.183 687.503L910.974 682.346L913.796 677.119L916.659 671.83L919.575 666.491L922.551 661.111L925.596 655.699L928.72 650.267L931.928 644.823L935.228 639.377L938.625 633.938L942.125 628.516L945.731 623.118L949.448 617.752L953.279 612.425L957.225 607.143L961.288 601.913L965.47 596.738L969.771 591.627L974.195 586.585L978.742 581.621L983.413 576.743L988.21 571.96L993.133 567.28L998.184 562.714L1003.36 558.269L1008.67 553.955L1014.1 549.781L1019.65 545.755L1025.33 541.887L1031.13 538.184L1037.04 534.655L1043.08 531.308L1049.22 528.153L1055.48 525.198L1061.84 522.452L1068.31 519.925L1074.87 517.626L1081.52 515.568L1088.26 513.759L1095.08 512.21L1101.98 510.926L1108.94 509.913L1115.96 509.176L1123.03 508.715L1130.15 508.531L1137.3 508.624L1144.48 508.99L1151.67 509.626L1158.88 510.526L1166.08 511.683L1173.29 513.091L1180.48 514.74L1187.65 516.62L1194.79 518.721L1201.9 521.032L1208.98 523.542L1216.02 526.238L1223.01 529.109L1229.95 532.14L1236.84 535.321L1243.68 538.638L1250.47 542.08L1257.2 545.634L1263.87 549.288L1270.49 553.032L1277.05 556.854L1283.56 560.745L1290.02 564.695L1296.43 568.694L1302.79 572.736L1309.1 576.813L1315.38 580.917L1321.61 585.044L1327.8 589.188L1333.96 593.346L1340.09 597.513L1346.19 601.687L1352.27 605.866L1358.32 610.049L1364.35 614.234L1370.37 618.421L1376.37 622.611L1382.36 626.805" stroke="#637856"/>
</svg>
