<svg width="1210" height="1223" viewBox="0 0 1210 1223" fill="none" xmlns="http://www.w3.org/2000/svg">
<path fill-rule="evenodd" clip-rule="evenodd" d="M445.576 289.86L448.509 288.735L451.443 287.616L454.378 286.503L457.316 285.395L460.257 284.293L463.202 283.197L466.154 282.107L469.112 281.023L472.079 279.947L475.054 278.878L478.04 277.818L481.039 276.771L484.052 275.739L487.08 274.727L490.126 273.741L493.192 272.784L496.278 271.864L499.387 270.985L502.518 270.154L505.672 269.376L508.85 268.659L512.051 268.007L515.276 267.426L518.523 266.922L521.791 266.5L525.08 266.163L528.386 265.918L531.709 265.766L535.047 265.713L538.396 265.761L541.754 265.914L545.119 266.173L548.488 266.54L551.857 267.016L555.224 267.601L558.585 268.294L561.937 269.093L565.277 269.995L568.603 270.998L571.911 272.098L575.199 273.291L578.465 274.571L581.707 275.933L584.923 277.371L588.111 278.879L591.272 280.451L594.403 282.079L597.505 283.756L600.579 285.475L603.624 287.23L606.641 289.013L609.633 290.817L612.599 292.635L615.544 294.461L618.468 296.288L621.374 298.11L624.265 299.922L627.145 301.719L630.016 303.496L632.883 305.249L635.748 306.974L638.615 308.668L641.489 310.328L644.372 311.954L647.268 313.543L650.181 315.094L653.115 316.608L656.073 318.085L659.057 319.525L662.072 320.931L665.119 322.304L668.201 323.646L671.321 324.961L674.48 326.251L677.679 327.521L680.921 328.773L684.206 330.013L687.534 331.244L690.907 332.471L694.323 333.698L697.783 334.931L701.285 336.174L704.829 337.432L708.414 338.71L712.039 340.013L715.7 341.344L719.399 342.708L723.133 344.106L726.903 345.543L730.709 347.018L734.552 348.534L738.432 350.092L742.351 351.691L746.312 353.333L750.314 355.018L754.362 356.746L758.457 358.519L762.601 360.336L766.797 362.198L771.046 364.108L775.35 366.066L779.711 368.074L784.129 370.135L788.605 372.25L793.138 374.424L797.726 376.66L802.369 378.962L807.062 381.333L811.802 383.777L816.585 386.3L821.408 388.904L826.264 391.594L831.149 394.374L836.056 397.246L840.98 400.215L845.912 403.284L850.847 406.455L855.775 409.732L860.689 413.117L865.579 416.612L870.437 420.219L875.253 423.939L880.017 427.773L884.718 431.722L889.347 435.785L893.893 439.962L898.345 444.252L902.693 448.654L906.924 453.165L911.029 457.782L914.996 462.504L918.816 467.325L922.477 472.243L925.969 477.252L929.282 482.346L932.407 487.521L935.334 492.77L938.054 498.087L940.56 503.464L942.844 508.895L944.898 514.371L946.717 519.884L948.294 525.426L949.624 530.99L950.704 536.565L951.53 542.143L952.1 547.715L952.412 553.273L952.464 558.807L952.258 564.309L951.794 569.77L951.074 575.181L950.101 580.534L948.878 585.821L947.411 591.035L945.704 596.168L943.764 601.214L941.598 606.166L939.214 611.018L936.62 615.765L933.826 620.403L930.842 624.927L927.68 629.334L924.351 633.623L920.87 637.792L917.251 641.84L913.509 645.769L909.66 649.58L905.719 653.277L901.705 656.862L897.633 660.341L893.519 663.719L889.381 667.003L885.234 670.2L881.094 673.318L876.976 676.366L872.894 679.352L868.862 682.287L864.892 685.181L860.996 688.043L857.183 690.884L853.463 693.714L849.842 696.543L846.328 699.381L842.924 702.238L839.635 705.122L836.461 708.041L833.405 711.005L830.465 714.02L827.64 717.093L824.926 720.228L822.319 723.432L819.814 726.707L817.403 730.056L815.081 733.481L812.837 736.981L810.663 740.557L808.549 744.205L806.484 747.924L804.457 751.708L802.456 755.552L800.47 759.45L798.486 763.393L796.492 767.374L794.476 771.381L792.427 775.406L790.332 779.435L788.18 783.458L785.96 787.46L783.663 791.43L781.278 795.352L778.797 799.213L776.211 802.997L773.513 806.691L770.697 810.281L767.758 813.75L764.691 817.086L761.493 820.274L758.162 823.301L754.697 826.155L751.098 828.822L747.366 831.293L743.502 833.556L739.511 835.602L735.395 837.423L731.16 839.011L726.812 840.361L722.358 841.468L717.805 842.329L713.16 842.942L708.433 843.305L703.633 843.421L698.769 843.291L693.851 842.918L688.89 842.308L683.895 841.467L678.876 840.402L673.845 839.123L668.811 837.639L663.784 835.962L658.774 834.105L653.789 832.08L648.84 829.903L643.933 827.588L639.077 825.153L634.278 822.613L629.543 819.985L624.876 817.288L620.283 814.538L615.766 811.752L611.33 808.949L606.974 806.145L602.701 803.356L598.51 800.598L594.4 797.886L590.37 795.235L586.416 792.657L582.536 790.163L578.726 787.765L574.981 785.471L571.297 783.291L567.666 781.231L564.085 779.298L560.545 777.495L557.042 775.827L553.568 774.296L550.116 772.904L546.68 771.648L543.253 770.529L539.828 769.543L536.399 768.685L532.96 767.952L529.505 767.334L526.029 766.826L522.526 766.419L518.994 766.102L515.428 765.865L511.825 765.696L508.183 765.583L504.501 765.514L500.778 765.475L497.014 765.452L493.21 765.432L489.368 765.399L485.49 765.341L481.581 765.242L477.643 765.088L473.684 764.867L469.707 764.564L465.719 764.167L461.728 763.664L457.741 763.043L453.766 762.293L449.812 761.406L445.887 760.372L442.001 759.183L438.163 757.833L434.383 756.317L430.669 754.63L427.032 752.769L423.48 750.732L420.021 748.52L416.665 746.132L413.419 743.571L410.291 740.84L407.287 737.943L404.413 734.886L401.674 731.675L399.074 728.318L396.617 724.823L394.304 721.199L392.138 717.457L390.118 713.608L388.243 709.661L386.513 705.629L384.925 701.521L383.478 697.349L382.168 693.121L380.994 688.847L379.951 684.538L379.035 680.203L378.242 675.85L377.567 671.489L377.004 667.127L376.548 662.773L376.192 658.435L375.93 654.12L375.755 649.833L375.66 645.582L375.639 641.372L375.685 637.208L375.79 633.095L375.948 629.035L376.152 625.033L376.398 621.089L376.678 617.207L376.988 613.389L377.32 609.634L377.668 605.946L378.026 602.323L378.388 598.768L378.746 595.279L379.095 591.858L379.427 588.503L379.737 585.213L380.018 581.987L380.264 578.823L380.47 575.72L380.63 572.675L380.739 569.685L380.792 566.748L380.785 563.86L380.714 561.017L380.576 558.216L380.367 555.453L380.085 552.724L379.729 550.024L379.297 547.348L378.789 544.693L378.204 542.054L377.543 539.425L376.807 536.804L375.997 534.184L375.116 531.562L374.167 528.934L373.153 526.295L372.077 523.641L370.943 520.969L369.757 518.276L368.522 515.558L367.245 512.813L365.93 510.038L364.583 507.23L363.21 504.388L361.817 501.51L360.409 498.595L358.994 495.643L357.576 492.651L356.161 489.62L354.755 486.55L353.364 483.441L351.992 480.293L350.644 477.107L349.325 473.883L348.039 470.623L346.789 467.327L345.58 463.997L344.413 460.633L343.292 457.237L342.219 453.81L341.196 450.353L340.227 446.869L339.315 443.358L338.464 439.823L337.677 436.267L336.957 432.692L336.309 429.101L335.736 425.496L335.242 421.882L334.829 418.26L334.5 414.635L334.259 411.009L334.109 407.387L334.052 403.772L334.091 400.168L334.228 396.58L334.466 393.011L334.809 389.465L335.257 385.949L335.816 382.467L336.487 379.024L337.274 375.626L338.179 372.279L339.202 368.988L340.344 365.757L341.606 362.59L342.985 359.493L344.481 356.468L346.091 353.518L347.812 350.646L349.641 347.854L351.574 345.144L353.606 342.517L355.734 339.974L357.952 337.515L360.255 335.138L362.637 332.845L365.094 330.633L367.619 328.5L370.207 326.446L372.852 324.467L375.548 322.56L378.291 320.723L381.075 318.953L383.895 317.246L386.745 315.598L389.623 314.006L392.522 312.467L395.44 310.975L398.372 309.529L401.316 308.123L404.268 306.754L407.225 305.42L410.186 304.115L413.148 302.837L416.11 301.584L419.071 300.351L422.029 299.137L424.984 297.939L427.936 296.756L430.883 295.584L433.827 294.423L436.768 293.271L439.706 292.127L442.642 290.99L445.576 289.86Z" fill="#AEC79F" fill-opacity="0.99"/>
<path d="M884.536 598.718V598.718ZM884.536 598.718L884.397 602.042L884.253 605.363L884.103 608.681L883.948 611.999L883.787 615.317L883.619 618.635L883.443 621.955L883.259 625.277L883.067 628.603L882.864 631.932L882.649 635.265L882.42 638.603L882.171 641.944L881.899 645.287L881.599 648.632L881.266 651.977L880.895 655.319L880.479 658.656L880.014 661.986L879.493 665.305L878.913 668.611L878.267 671.899L877.552 675.166L876.763 678.408L875.895 681.622L874.947 684.803L873.913 687.947L872.792 691.05L871.582 694.108L870.28 697.117L868.886 700.073L867.397 702.972L865.814 705.81L864.138 708.585L862.37 711.294L860.511 713.933L858.564 716.502L856.533 718.999L854.421 721.424L852.233 723.775L849.972 726.054L847.645 728.261L845.257 730.397L842.813 732.465L840.319 734.468L837.782 736.407L835.207 738.286L832.601 740.111L829.97 741.884L827.318 743.61L824.654 745.295L821.981 746.944L819.305 748.562L816.63 750.155L813.963 751.729L811.306 753.29L808.663 754.844L806.038 756.395L803.433 757.951L800.851 759.517L798.293 761.098L795.761 762.699L793.255 764.325L790.776 765.981L788.323 767.671L785.896 769.398L783.493 771.165L781.114 772.977L778.755 774.834L776.414 776.738L774.09 778.692L771.779 780.696L769.477 782.749L767.181 784.853L764.888 787.006L762.594 789.207L760.295 791.455L757.986 793.748L755.665 796.083L753.326 798.457L750.967 800.867L748.582 803.31L746.169 805.783L743.724 808.28L741.243 810.799L738.723 813.335L736.162 815.884L733.556 818.446L730.906 821.018L728.208 823.599L725.461 826.19L722.665 828.79L719.818 831.402L716.92 834.025L713.968 836.661L710.962 839.313L707.901 841.981L704.783 844.668L701.606 847.374L698.369 850.101L695.07 852.85L691.706 855.62L688.276 858.411L684.776 861.223L681.206 864.051L677.561 866.894L673.84 869.747L670.04 872.604L666.159 875.461L662.195 878.311L658.146 881.148L654.011 883.966L649.789 886.757L645.478 889.513L641.079 892.227L636.59 894.89L632.013 897.495L627.347 900.031L622.594 902.491L617.756 904.864L612.833 907.142L607.83 909.316L602.748 911.374L597.592 913.309L592.365 915.11L587.071 916.769L581.715 918.276L576.304 919.622L570.842 920.799L565.336 921.798L559.792 922.611L554.219 923.23L548.623 923.65L543.012 923.862L537.395 923.861L531.78 923.643L526.176 923.201L520.591 922.532L515.035 921.632L509.517 920.5L504.047 919.133L498.633 917.53L493.285 915.69L488.012 913.615L482.823 911.306L477.727 908.764L472.733 905.994L467.848 902.998L463.08 899.78L458.438 896.348L453.929 892.706L449.558 888.86L445.332 884.82L441.256 880.592L437.336 876.185L433.574 871.609L429.976 866.873L426.543 861.988L423.278 856.963L420.182 851.81L417.255 846.54L414.497 841.165L411.906 835.697L409.48 830.148L407.213 824.532L405.102 818.861L403.14 813.149L401.319 807.41L399.631 801.656L398.066 795.9L396.614 790.154L395.264 784.431L394.004 778.74L392.822 773.093L391.705 767.499L390.64 761.966L389.614 756.503L388.614 751.114L387.626 745.807L386.637 740.585L385.634 735.451L384.606 730.407L383.542 725.455L382.43 720.593L381.26 715.821L380.024 711.137L378.713 706.536L377.321 702.016L375.841 697.571L374.268 693.196L372.6 688.884L370.832 684.63L368.966 680.426L367 676.265L364.936 672.138L362.777 668.038L360.528 663.957L358.194 659.888L355.781 655.821L353.297 651.75L350.753 647.668L348.157 643.567L345.52 639.441L342.856 635.285L340.177 631.093L337.496 626.86L334.827 622.583L332.186 618.258L329.588 613.884L327.047 609.458L324.58 604.982L322.202 600.454L319.929 595.876L317.775 591.25L315.756 586.578L313.885 581.866L312.178 577.117L310.646 572.336L309.302 567.529L308.159 562.703L307.225 557.865L306.51 553.023L306.023 548.184L305.769 543.357L305.756 538.55L305.987 533.772L306.465 529.032L307.191 524.339L308.166 519.702L309.389 515.128L310.855 510.627L312.563 506.205L314.505 501.87L316.675 497.63L319.065 493.49L321.666 489.456L324.468 485.533L327.458 481.724L330.626 478.034L333.956 474.464L337.435 471.016L341.047 467.69L344.778 464.485L348.609 461.4L352.526 458.433L356.511 455.579L360.547 452.834L364.617 450.193L368.704 447.65L372.793 445.197L376.867 442.827L380.912 440.531L384.912 438.3L388.855 436.126L392.728 433.998L396.519 431.907L400.219 429.843L403.818 427.795L407.309 425.754L410.685 423.711L413.942 421.655L417.076 419.578L420.082 417.47L422.96 415.323L425.709 413.13L428.33 410.882L430.823 408.573L433.193 406.197L435.443 403.749L437.578 401.225L439.604 398.621L441.527 395.935L443.357 393.165L445.101 390.312L446.768 387.376L448.369 384.36L449.915 381.265L451.415 378.097L452.882 374.861L454.327 371.562L455.762 368.208L457.198 364.808L458.647 361.37L460.12 357.904L461.63 354.422L463.186 350.935L464.799 347.455L466.479 343.994L468.235 340.566L470.076 337.184L472.01 333.861L474.043 330.611L476.182 327.448L478.431 324.385L480.795 321.436L483.277 318.613L485.879 315.929L488.603 313.395L491.447 311.022L494.412 308.821L497.496 306.8L500.695 304.969L504.006 303.333L507.425 301.9L510.945 300.674L514.56 299.659L518.265 298.855L522.05 298.266L525.908 297.888L529.831 297.722L533.809 297.762L537.834 298.005L541.897 298.444L545.988 299.071L550.098 299.881L554.219 300.864L558.343 302.013L562.463 303.319L566.571 304.775L570.66 306.371L574.724 308.098L578.756 309.947L582.751 311.907L586.705 313.97L590.611 316.124L594.467 318.36L598.267 320.669L602.01 323.039L605.692 325.461L609.312 327.925L612.866 330.423L616.356 332.945L619.779 335.483L623.135 338.03L626.426 340.578L629.65 343.123L632.81 345.656L635.905 348.172L638.939 350.664L641.911 353.126L644.825 355.551L647.683 357.934L650.487 360.269L653.24 362.549L655.946 364.771L658.607 366.929L661.228 369.019L663.813 371.036L666.365 372.978L668.888 374.84L671.388 376.621L673.868 378.319L676.334 379.931L678.788 381.458L681.237 382.898L683.685 384.253L686.135 385.523L688.593 386.709L691.062 387.815L693.546 388.841L696.05 389.792L698.576 390.671L701.127 391.482L703.708 392.23L706.32 392.92L708.966 393.557L711.647 394.146L714.365 394.694L717.122 395.207L719.918 395.691L722.754 396.151L725.629 396.596L728.545 397.031L731.499 397.462L734.492 397.896L737.522 398.339L740.588 398.798L743.688 399.276L746.82 399.781L749.983 400.317L753.174 400.889L756.391 401.502L759.631 402.159L762.893 402.864L766.173 403.621L769.471 404.432L772.783 405.3L776.107 406.226L779.442 407.213L782.786 408.261L786.136 409.373L789.49 410.55L792.845 411.794L796.198 413.107L799.544 414.491L802.882 415.947L806.206 417.478L809.514 419.085L812.801 420.769L816.063 422.531L819.297 424.371L822.498 426.292L825.661 428.292L828.784 430.373L831.861 432.534L834.888 434.775L837.86 437.097L840.772 439.499L843.619 441.98L846.397 444.541L849.097 447.181L851.716 449.899L854.247 452.694L856.685 455.563L859.027 458.506L861.269 461.518L863.407 464.596L865.439 467.737L867.364 470.937L869.18 474.192L870.886 477.498L872.484 480.85L873.972 484.243L875.353 487.673L876.629 491.135L877.8 494.626L878.871 498.14L879.845 501.673L880.724 505.22L881.512 508.78L882.215 512.346L882.836 515.916L883.379 519.488L883.85 523.057L884.254 526.621L884.595 530.179L884.877 533.727L885.107 537.265L885.288 540.791L885.426 544.304L885.524 547.803L885.587 551.287L885.619 554.757L885.624 558.212L885.606 561.652L885.567 565.078L885.51 568.491L885.438 571.89L885.354 575.276L885.258 578.651L885.154 582.016L885.043 585.371L884.924 588.718L884.8 592.057L884.671 595.39L884.536 598.718" stroke="white"/>
<path d="M667.358 308.615V308.615ZM667.358 308.615L670.221 310.597L673.081 312.581L675.937 314.569L678.79 316.562L681.641 318.56L684.49 320.565L687.338 322.578L690.185 324.6L693.032 326.632L695.879 328.675L698.726 330.731L701.57 332.804L704.412 334.897L707.248 337.012L710.076 339.154L712.892 341.326L715.693 343.533L718.475 345.778L721.233 348.064L723.964 350.396L726.662 352.776L729.323 355.206L731.941 357.689L734.513 360.227L737.033 362.821L739.497 365.473L741.9 368.182L744.237 370.949L746.505 373.774L748.699 376.656L750.815 379.595L752.849 382.589L754.798 385.637L756.659 388.735L758.431 391.882L760.112 395.075L761.702 398.309L763.2 401.581L764.607 404.888L765.924 408.225L767.153 411.588L768.296 414.973L769.357 418.375L770.339 421.79L771.247 425.215L772.084 428.645L772.857 432.077L773.57 435.507L774.23 438.932L774.843 442.349L775.415 445.755L775.952 449.149L776.461 452.529L776.95 455.893L777.423 459.24L777.889 462.57L778.353 465.883L778.821 469.178L779.3 472.457L779.796 475.721L780.312 478.97L780.856 482.207L781.43 485.434L782.039 488.652L782.687 491.865L783.376 495.075L784.109 498.285L784.888 501.498L785.714 504.717L786.588 507.946L787.51 511.187L788.481 514.443L789.499 517.719L790.562 521.017L791.67 524.341L792.82 527.692L794.009 531.074L795.233 534.489L796.49 537.939L797.776 541.428L799.087 544.956L800.418 548.526L801.765 552.138L803.122 555.794L804.487 559.495L805.852 563.242L807.217 567.034L808.576 570.874L809.929 574.762L811.275 578.699L812.612 582.686L813.941 586.724L815.262 590.816L816.576 594.962L817.884 599.164L819.186 603.425L820.484 607.747L821.78 612.131L823.072 616.581L824.362 621.098L825.65 625.685L826.935 630.343L828.216 635.075L829.491 639.882L830.757 644.765L832.011 649.724L833.247 654.759L834.46 659.87L835.646 665.056L836.797 670.315L837.908 675.645L838.973 681.044L839.985 686.509L840.937 692.037L841.821 697.623L842.631 703.264L843.359 708.954L843.997 714.687L844.539 720.459L844.977 726.262L845.302 732.089L845.508 737.933L845.587 743.786L845.532 749.639L845.336 755.483L844.993 761.309L844.496 767.108L843.839 772.869L843.016 778.582L842.023 784.237L840.855 789.823L839.507 795.328L837.976 800.744L836.258 806.057L834.352 811.258L832.256 816.335L829.968 821.278L827.487 826.076L824.815 830.719L821.951 835.197L818.898 839.5L815.657 843.62L812.232 847.547L808.626 851.273L804.843 854.79L800.888 858.092L796.767 861.173L792.486 864.026L788.052 866.647L783.47 869.032L778.751 871.178L773.9 873.082L768.928 874.743L763.843 876.16L758.653 877.335L753.37 878.267L748.001 878.959L742.558 879.415L737.049 879.637L731.486 879.633L725.878 879.406L720.235 878.964L714.567 878.315L708.884 877.469L703.196 876.437L697.514 875.231L691.846 873.865L686.202 872.353L680.589 870.709L675.017 868.95L669.493 867.092L664.022 865.152L658.611 863.147L653.264 861.094L647.986 859.01L642.779 856.913L637.646 854.818L632.588 852.741L627.604 850.698L622.695 848.703L617.859 846.77L613.093 844.911L608.395 843.137L603.76 841.457L599.184 839.88L594.661 838.414L590.188 837.063L585.756 835.833L581.361 834.726L576.996 833.744L572.654 832.886L568.329 832.151L564.014 831.537L559.702 831.038L555.388 830.649L551.065 830.363L546.728 830.171L542.372 830.064L537.992 830.032L533.584 830.062L529.146 830.144L524.673 830.262L520.166 830.403L515.622 830.554L511.041 830.698L506.424 830.821L501.773 830.908L497.09 830.943L492.377 830.911L487.64 830.797L482.882 830.587L478.11 830.265L473.329 829.819L468.547 829.235L463.771 828.501L459.009 827.606L454.271 826.541L449.564 825.294L444.898 823.859L440.284 822.229L435.73 820.397L431.246 818.36L426.843 816.114L422.53 813.658L418.315 810.992L414.21 808.115L410.221 805.031L406.357 801.743L402.626 798.255L399.035 794.575L395.59 790.708L392.297 786.662L389.159 782.448L386.182 778.076L383.367 773.555L380.717 768.898L378.231 764.118L375.91 759.226L373.753 754.237L371.756 749.164L369.916 744.02L368.229 738.822L366.687 733.582L365.286 728.314L364.015 723.034L362.868 717.754L361.833 712.487L360.901 707.247L360.06 702.044L359.299 696.891L358.605 691.798L357.967 686.773L357.37 681.826L356.804 676.963L356.254 672.192L355.709 667.516L355.156 662.94L354.583 658.466L353.98 654.096L353.336 649.831L352.64 645.669L351.884 641.61L351.058 637.652L350.155 633.79L349.166 630.023L348.086 626.343L346.91 622.747L345.633 619.229L344.253 615.782L342.766 612.398L341.173 609.071L339.473 605.793L337.668 602.555L335.761 599.35L333.755 596.17L331.657 593.006L329.471 589.85L327.205 586.695L324.868 583.533L322.469 580.357L320.019 577.159L317.528 573.935L315.009 570.677L312.474 567.381L309.936 564.043L307.41 560.658L304.909 557.225L302.448 553.741L300.041 550.204L297.704 546.614L295.45 542.972L293.293 539.278L291.249 535.535L289.329 531.745L287.548 527.913L285.918 524.041L284.45 520.136L283.154 516.202L282.041 512.245L281.119 508.273L280.396 504.292L279.877 500.308L279.568 496.331L279.473 492.367L279.593 488.425L279.93 484.511L280.484 480.633L281.251 476.8L282.23 473.017L283.414 469.292L284.8 465.631L286.378 462.039L288.14 458.522L290.078 455.084L292.181 451.729L294.44 448.461L296.845 445.283L299.387 442.197L302.056 439.204L304.841 436.308L307.732 433.508L310.718 430.804L313.791 428.197L316.938 425.686L320.15 423.27L323.417 420.947L326.728 418.714L330.073 416.569L333.444 414.51L336.83 412.532L340.223 410.632L343.616 408.807L347 407.052L350.369 405.363L353.717 403.737L357.04 402.17L360.33 400.656L363.584 399.192L366.795 397.772L369.96 396.392L373.072 395.046L376.129 393.728L379.125 392.433L382.056 391.154L384.92 389.887L387.713 388.626L390.432 387.364L393.076 386.095L395.642 384.814L398.129 383.515L400.537 382.193L402.865 380.843L405.113 379.459L407.283 378.037L409.376 376.572L411.392 375.061L413.336 373.5L415.209 371.886L417.014 370.215L418.756 368.487L420.438 366.699L422.065 364.85L423.641 362.939L425.171 360.967L426.662 358.933L428.117 356.838L429.543 354.684L430.945 352.472L432.329 350.205L433.701 347.886L435.067 345.517L436.432 343.102L437.802 340.645L439.182 338.15L440.577 335.621L441.993 333.062L443.434 330.478L444.905 327.875L446.41 325.256L447.952 322.626L449.536 319.991L451.164 317.354L452.839 314.72L454.563 312.093L456.339 309.477L458.168 306.876L460.051 304.293L461.99 301.731L463.986 299.192L466.038 296.681L468.148 294.198L470.317 291.748L472.544 289.335L474.832 286.963L477.179 284.635L479.587 282.357L482.055 280.132L484.585 277.965L487.174 275.86L489.824 273.821L492.533 271.853L495.301 269.959L498.126 268.145L501.008 266.413L503.944 264.769L506.934 263.215L509.976 261.758L513.067 260.399L516.206 259.146L519.391 258.002L522.62 256.972L525.888 256.063L529.194 255.277L532.535 254.618L535.906 254.09L539.305 253.693L542.726 253.429L546.166 253.298L549.622 253.299L553.089 253.432L556.563 253.694L560.04 254.083L563.517 254.596L566.989 255.229L570.455 255.978L573.909 256.838L577.35 257.805L580.774 258.873L584.179 260.036L587.564 261.289L590.926 262.626L594.263 264.042L597.575 265.529L600.861 267.082L604.12 268.695L607.351 270.362L610.555 272.078L613.731 273.837L616.881 275.634L620.004 277.465L623.102 279.324L626.175 281.207L629.224 283.111L632.252 285.032L635.259 286.967L638.246 288.913L641.215 290.867L644.167 292.828L647.105 294.794L650.028 296.763L652.94 298.734L655.84 300.708L658.731 302.683L661.614 304.659L664.489 306.636L667.358 308.615" stroke="#637856"/>
</svg>
