<svg width="155" height="148" viewBox="0 0 155 148" fill="none" xmlns="http://www.w3.org/2000/svg">
<g filter="url(#filter0_d_717_4727)">
<rect x="21.3994" y="16" width="95.2" height="88.2" rx="16.8" fill="#C9D7C0" shape-rendering="crispEdges"/>
<path d="M69.0041 35.0641C67.2843 35.0226 65.739 35.9259 65.7883 38.1973L35.9014 62.4708L35.9407 63.4384V88.4002L37.5399 88.0256L59.2815 82.9268L60.0399 85.3934L64.1844 84.9271L63.7093 81.8856L73.3751 79.6195L74.6084 81.0489L77.6543 81.2754L77.5237 78.6475L94.5283 74.6557V74.6599C94.7179 74.632 94.9002 74.5874 95.0773 74.5293C95.0804 74.528 95.0829 74.5259 95.0861 74.5247L97.9884 73.8449L98.9953 73.6097V72.6073L101.579 52.051C102.819 49.6646 100.674 45.573 96.1797 46.4556C96.8424 43.6791 90.7434 42.532 88.924 44.0501C89.379 41.5117 83.7105 38.2328 81.6855 41.0955C82.3314 37.9218 75.2698 35.3964 73.4794 38.2583C73.1433 36.3822 70.9595 35.1111 69.0038 35.064L69.0041 35.0641ZM67.5705 40.5941C67.8962 40.986 68.6083 41.367 69.44 41.5485C70.2717 41.7298 71.2002 41.7061 71.7235 41.5702L72.9702 41.2476L73.3099 42.494C73.6181 43.638 74.2655 44.074 75.3234 44.3027C76.3813 44.5314 77.8012 44.3502 78.9274 43.9017L80.3742 43.3221L80.688 44.8473C80.8274 45.5287 81.7186 46.3941 82.9671 46.8433C84.2157 47.2923 85.6376 47.224 86.2484 46.8433L87.8219 45.8627L88.2095 47.6756C88.3806 48.4777 88.8418 49.0324 89.5561 49.4318C90.2705 49.8312 91.2407 50.0192 92.2145 49.9025L92.5283 52.4911C91.0452 52.6688 89.5462 52.4126 88.2833 51.7067C87.4386 51.2343 86.7235 50.5175 86.2264 49.6367C84.8825 49.9714 83.4143 49.7742 82.0866 49.2964C80.7227 48.806 79.4003 47.9669 78.6569 46.721C77.411 47.0401 76.0686 47.1274 74.7739 46.8475C73.373 46.5444 72.0133 45.6708 71.2441 44.2631C70.4855 44.3196 69.6885 44.2683 68.8865 44.093C67.6719 43.828 66.4363 43.3054 65.5657 42.2585L67.5703 40.5937L67.5705 40.5941ZM93.9313 56.7923L93.9445 56.8404C94.1732 56.7867 94.2159 56.7986 94.4544 56.993C94.6931 57.1868 95.0317 57.6367 95.3218 58.2959C95.8877 59.5816 96.2854 61.5906 96.3894 63.6648V65.8961C96.3192 67.316 96.1161 68.6676 95.7881 69.7352C95.545 70.5262 95.2328 71.1563 94.9296 71.5395C94.7182 71.8068 94.5424 71.9467 94.3718 72.0192L38.5468 85.1144V67.2558C57.0408 62.4446 75.5033 58.5092 93.9314 56.7926L93.9313 56.7923ZM83.8558 81.4888L80.1692 81.9159L82.1999 84.8879L85.6821 84.269L83.8559 81.4888H83.8558ZM75.1009 84.9793L70.6384 85.7072L72.1942 87.5115L75.2447 87.7381L75.1011 84.9794L75.1009 84.9793ZM53.1719 89.0931L52.9453 91.1721L56.0788 91.5817L57.2553 89.4462L53.1721 89.0934L53.1719 89.0931ZM68.15 89.7514L64.7597 90.1915L65.0037 92.4447L69.4226 92.0613L68.1502 89.7515L68.15 89.7514Z" fill="#3B3B3B"/>
</g>
<defs>
<filter id="filter0_d_717_4727" x="0.399406" y="0.599991" width="154" height="147" filterUnits="userSpaceOnUse" color-interpolation-filters="sRGB">
<feFlood flood-opacity="0" result="BackgroundImageFix"/>
<feColorMatrix in="SourceAlpha" type="matrix" values="0 0 0 0 0 0 0 0 0 0 0 0 0 0 0 0 0 0 127 0" result="hardAlpha"/>
<feOffset dx="8.4" dy="14"/>
<feGaussianBlur stdDeviation="14.7"/>
<feComposite in2="hardAlpha" operator="out"/>
<feColorMatrix type="matrix" values="0 0 0 0 0 0 0 0 0 0 0 0 0 0 0 0 0 0 0.1 0"/>
<feBlend mode="normal" in2="BackgroundImageFix" result="effect1_dropShadow_717_4727"/>
<feBlend mode="normal" in="SourceGraphic" in2="effect1_dropShadow_717_4727" result="shape"/>
</filter>
</defs>
</svg>
