<svg width="111" height="105" viewBox="0 0 111 105" fill="none" xmlns="http://www.w3.org/2000/svg">
<g filter="url(#filter0_d_701_4641)">
<rect x="15.5" y="11" width="68" height="63" rx="12" fill="#C9D7C0" shape-rendering="crispEdges"/>
<path d="M73.4062 46.427C73.4062 43.7846 71.7073 41.3915 68.8449 39.5149C68.6378 38.7674 68.2903 38.0471 67.8202 37.3602C68.1064 36.6946 68.2783 35.9855 68.3286 35.2628C70.1805 33.618 71.2395 31.6864 71.2395 29.601C71.2395 23.4284 61.9974 18.5938 50.1981 18.5938C38.6553 18.5938 29.5646 23.222 29.1757 29.2025C27.3254 30.8465 26.2679 32.7749 26.2679 34.8588C26.2679 36.2039 26.7078 37.4853 27.5158 38.6662C27.1713 39.4558 26.9923 40.3077 26.9899 41.1692C26.9899 43.3566 28.1549 45.3735 30.1782 47.0685C27.2903 48.9324 25.5938 51.2489 25.5938 53.7869C25.5938 54.8595 25.9013 55.8915 26.4671 56.8669C27.5509 62.2163 37.4361 66.4062 49.4761 66.4062C61.5161 66.4062 71.4021 62.2163 72.4851 56.8669C73.0508 55.8907 73.3584 54.8587 73.3584 53.7869C73.3584 52.5327 72.9369 51.3357 72.1695 50.2169C72.9696 49.04 73.4062 47.765 73.4062 46.427ZM68.5899 32.7383L68.5836 32.7088C68.5963 32.7064 68.6067 32.7 68.6194 32.6976L68.5899 32.7383ZM52.1974 20.4983C68.2545 20.4983 72.0508 31.2465 67.8425 31.2465C65.675 31.2465 68.2552 34.3296 66.5659 34.3296C63.2357 34.3296 67.3938 48.8391 63.772 48.8391C59.3518 48.8391 65.6455 35.8254 61.8882 35.8254C60.1192 35.8254 59.4864 38.3674 57.4887 38.3674C55.3013 38.3674 55.0917 35.4995 53.5641 35.4995C52.9608 35.4995 52.1528 35.9465 50.9368 37.192C49.4275 38.7388 47.8441 39.7356 46.5516 39.7356C45.2232 39.7356 44.2016 38.683 43.8804 36.0915C43.7665 35.1711 43.4063 34.8484 42.972 34.8484C42.1807 34.8484 41.1432 35.9186 40.8938 36.4031C38.166 41.7055 43.0772 53.5766 38.9079 53.5766C34.0287 53.5766 40.4459 35.8804 37.2672 35.8804C36.4217 35.8804 35.3499 36.9354 34.5156 36.9354C34.3657 36.9377 34.2182 36.8977 34.09 36.8199C31.093 34.9847 36.9691 29.703 34.0502 29.703C27.4927 29.7038 34.3299 20.4983 52.1974 20.4983ZM66.7292 39.3834C66.7278 39.3138 66.7259 39.2442 66.7237 39.1746C66.8025 39.075 66.8759 38.9754 66.9484 38.875C67.3277 39.6089 67.5309 40.3771 67.5309 41.1684C67.5309 41.9932 67.3062 42.7933 66.8958 43.5567C66.8759 42.8275 66.8432 42.0697 66.8065 41.2824C66.7954 41.0616 66.7842 40.8202 66.7731 40.5692C66.7914 40.4186 66.8089 40.2688 66.8089 40.1165C66.8075 39.8701 66.7808 39.6244 66.7292 39.3834ZM47.3094 44.324C45.4298 44.3233 43.5528 44.1864 41.693 43.9145C41.6342 43.2142 41.5946 42.5124 41.5743 41.8099C43.384 42.0713 45.3068 42.2195 47.3094 42.2195C52.9792 42.2195 58.0529 41.0895 61.4962 39.3077C61.4001 40.0389 61.2882 40.768 61.1607 41.4943C57.6281 43.2339 52.7409 44.324 47.3094 44.324ZM60.8682 48.2758C57.4353 49.7372 52.9552 50.6321 48.0322 50.6321C45.9985 50.6321 44.0462 50.4719 42.2038 50.1914C42.1929 49.4893 42.1554 48.7878 42.0915 48.0885C44.058 48.3824 46.0437 48.5297 48.0322 48.5292C52.8652 48.5292 57.2584 47.7028 60.5877 46.3577C60.5949 47.0621 60.6746 47.7108 60.8682 48.2758ZM41.8843 38.1546C41.9855 37.7785 42.1042 37.4215 42.2652 37.1099C42.3002 37.0502 42.3648 36.9713 42.4437 36.8876C42.5433 37.4478 42.6795 37.9307 42.8381 38.3586C42.5154 38.2949 42.199 38.2264 41.8843 38.1546ZM51.2213 39.0463C51.5129 38.7866 51.7926 38.5244 52.0396 38.2702C52.8262 37.4637 53.2732 37.184 53.4724 37.0884C53.5951 37.2271 53.7649 37.4645 53.8868 37.6367C54.1267 37.973 54.4335 38.3977 54.8343 38.7897C53.6345 38.9305 52.4289 39.0162 51.2213 39.0463ZM31.3998 30.6178C31.8405 30.8919 32.3752 31.0776 32.9991 31.1716C32.9314 31.3183 32.8628 31.4617 32.8039 31.5868C32.5943 32.0251 32.3401 32.563 32.1249 33.1471C31.3153 32.1789 30.826 31.1318 30.7232 30.0353C30.9137 30.256 31.1368 30.4544 31.3998 30.6178ZM29.3646 31.1724C29.3749 31.2099 29.3813 31.2489 29.3917 31.2872C28.8338 32.0825 28.5302 32.9287 28.5302 33.8069C28.5302 36.6382 31.658 39.138 36.4432 40.6632C36.3619 41.3334 36.2719 42.0083 36.1858 42.6267C31.1272 40.9166 27.8083 38.0773 27.8083 34.8588C27.8083 33.5487 28.3709 32.3056 29.3646 31.1724ZM28.531 41.1692C28.531 40.7883 28.5836 40.4146 28.6753 40.0464C28.8705 40.2417 29.0737 40.4345 29.2905 40.6218C29.598 42.947 32.0118 45.0173 35.6894 46.4573C35.6151 47.1106 35.5564 47.7655 35.5133 48.4216C31.2476 46.6852 28.531 44.081 28.531 41.1692ZM35.5284 51.1708C34.8455 50.6026 34.2733 49.9986 33.8454 49.3619C34.3594 49.6049 34.9076 49.8273 35.4694 50.0424C35.4742 50.4393 35.4925 50.8162 35.5284 51.1708ZM30.0467 51.3437C30.8539 55.6564 38.9183 59.0463 48.7541 59.0463C54.7657 59.0463 60.1008 57.7745 63.5322 55.803C64.4338 55.5145 65.3187 55.1758 66.1826 54.7886C63.4246 58.0199 56.5635 60.3779 48.7541 60.3779C38.6011 60.3779 30.0236 56.3983 30.0236 51.6856C30.0236 51.5692 30.0371 51.4569 30.0467 51.3437ZM49.4761 63.5335C37.366 63.5335 27.1349 59.0694 27.1349 53.7877C27.1349 52.5741 27.6808 51.4051 28.6601 50.3213C28.5443 50.7666 28.4846 51.2247 28.4824 51.6848C28.4824 57.4247 37.3867 61.9198 48.7533 61.9198C58.9509 61.9198 67.1595 58.2996 68.7413 53.4108C69.6649 52.8163 70.4674 52.1653 71.136 51.4712C71.5742 52.2171 71.8165 52.9917 71.8165 53.7869C71.8173 59.0694 61.5862 63.5335 49.4761 63.5335ZM52.3648 55.8915C48.1868 55.8915 44.3355 55.2428 41.1671 54.1543L41.1679 54.1527C41.5934 53.681 41.8492 53.0753 42.0078 52.3797C44.9777 53.265 48.531 53.7869 52.3648 53.7869C62.7337 53.7869 71.1431 50.0201 71.1431 45.3743C71.1431 44.0714 70.4817 42.8379 69.3008 41.7366C70.9296 43.1192 71.8651 44.7193 71.8651 46.4262C71.8651 51.6529 63.1337 55.8915 52.3648 55.8915Z" fill="#3B3B3B"/>
<path d="M35.3381 28.4431C37.4163 28.1673 34.9564 32.0051 34.8926 34.379C34.8297 36.7393 43.5044 29.4878 44.5117 33.8897C45.5197 38.2916 46.6625 40.3404 50.556 36.0915C53.5841 32.7892 54.6583 34.8364 56.7334 36.5329C58.8076 38.2287 61.8358 32.1469 64.7969 31.4138C67.7581 30.6799 67.947 28.5698 67.0027 27.2852C66.0568 26.0022 65.3372 26.3529 66.0568 28.3865C66.7764 30.4209 62.9091 29.5786 60.9544 31.6887C59.0013 33.7989 57.7414 34.3487 56.0401 32.79C54.3387 31.2297 51.2086 32.7589 49.1734 35.0826C45.3954 39.3929 46.0887 30.5875 43 30.5875C39.9137 30.5875 36.3796 33.602 36.9151 31.9692C37.3733 30.5699 38.928 24.8667 33.8885 27.6191C33.2 27.9928 33.2582 28.7188 35.3381 28.4431ZM63.7506 48.055C65.609 48.055 64.5212 38.5889 64.5212 38.5889C64.5212 38.5889 62.7522 48.055 63.7506 48.055ZM39.2571 52.9446C41.0819 52.9446 39.3041 42.0903 39.3041 42.0903C39.3041 42.0903 37.743 52.9446 39.2571 52.9446Z" fill="#3B3B3B"/>
<path d="M44.7808 24.0197V25.4628L48.248 29.0743L56.3371 25.6557V24.0659C61.5359 25.4325 64.2429 27.6574 64.2429 25.6445C64.2429 25.1401 59.0998 22.4809 53.5209 21.9L56.3371 23.0515L48.2121 25.7449L44.7808 23.1901L52.4858 21.8163C52.222 21.802 51.9575 21.7852 51.6937 21.7813C45.6358 21.6984 39.6641 23.1328 39.6641 24.3153C39.6641 25.3003 42.1591 24.6707 44.7808 24.0197Z" fill="#3B3B3B"/>
</g>
<defs>
<filter id="filter0_d_701_4641" x="0.5" y="0" width="110" height="105" filterUnits="userSpaceOnUse" color-interpolation-filters="sRGB">
<feFlood flood-opacity="0" result="BackgroundImageFix"/>
<feColorMatrix in="SourceAlpha" type="matrix" values="0 0 0 0 0 0 0 0 0 0 0 0 0 0 0 0 0 0 127 0" result="hardAlpha"/>
<feOffset dx="6" dy="10"/>
<feGaussianBlur stdDeviation="10.5"/>
<feComposite in2="hardAlpha" operator="out"/>
<feColorMatrix type="matrix" values="0 0 0 0 0 0 0 0 0 0 0 0 0 0 0 0 0 0 0.1 0"/>
<feBlend mode="normal" in2="BackgroundImageFix" result="effect1_dropShadow_701_4641"/>
<feBlend mode="normal" in="SourceGraphic" in2="effect1_dropShadow_701_4641" result="shape"/>
</filter>
</defs>
</svg>
