<svg width="154" height="148" viewBox="0 0 154 148" fill="none" xmlns="http://www.w3.org/2000/svg">
<g filter="url(#filter0_d_717_4740)">
<rect x="21" y="16" width="95.2" height="88.2" rx="16.8" fill="#C9D7C0" shape-rendering="crispEdges"/>
<path d="M44.8006 83.9C43.1643 83.9 41.7631 83.317 40.5969 82.1508C39.4307 80.9846 38.8486 79.5843 38.8506 77.9501V42.2501C38.8506 40.6138 39.4337 39.2126 40.5999 38.0464C41.7661 36.8802 43.1663 36.2981 44.8006 36.3001H92.4006C94.0368 36.3001 95.4381 36.8832 96.6043 38.0494C97.7705 39.2156 98.3526 40.6158 98.3506 42.2501V77.9501C98.3506 79.5863 97.7675 80.9875 96.6013 82.1537C95.4351 83.3199 94.0349 83.902 92.4006 83.9H44.8006ZM44.8006 77.9501H74.5506V42.2501H44.8006V77.9501ZM83.4756 51.1751H89.4256V45.2251H83.4756V51.1751ZM86.4506 63.0751C87.2935 63.0751 88.0006 62.7895 88.5718 62.2183C89.143 61.6471 89.4276 60.941 89.4256 60.1001C89.4256 59.2571 89.14 58.5501 88.5688 57.9789C87.9976 57.4077 87.2915 57.1231 86.4506 57.1251C85.6077 57.1251 84.9006 57.4107 84.3294 57.9819C83.7582 58.5531 83.4736 59.2591 83.4756 60.1001C83.4756 60.943 83.7612 61.65 84.3324 62.2212C84.9036 62.7924 85.6097 63.077 86.4506 63.0751ZM86.4506 74.9751C87.2935 74.9751 88.0006 74.6894 88.5718 74.1183C89.143 73.5471 89.4276 72.841 89.4256 72C89.4256 71.1571 89.14 70.4501 88.5688 69.8789C87.9976 69.3077 87.2915 69.0231 86.4506 69.0251C85.6077 69.0251 84.9006 69.3106 84.3294 69.8819C83.7582 70.4531 83.4736 71.1591 83.4756 72C83.4756 72.843 83.7612 73.55 84.3324 74.1212C84.9036 74.6924 85.6097 74.977 86.4506 74.9751ZM63.3943 72C62.2043 72 61.175 71.7769 60.3063 71.3307C59.4376 70.8844 58.6819 70.463 58.0393 70.0663C57.5435 69.7192 57.1468 69.4594 56.8493 69.2868C56.5518 69.1143 56.2543 69.027 55.9568 69.0251C55.4114 69.0251 54.866 69.2482 54.3206 69.6944C53.7752 70.1407 53.3785 70.5126 53.1306 70.8101L48.8912 66.6451C49.4366 66.0501 50.3172 65.3063 51.533 64.4138C52.7488 63.5213 54.2234 63.0751 55.9568 63.0751C57.1468 63.0751 58.1762 63.3111 59.0449 63.7831C59.9136 64.2551 60.6692 64.6885 61.3118 65.0832C61.7581 65.3807 62.1548 65.6167 62.5018 65.7912C62.8489 65.9658 63.1464 66.052 63.3943 66.0501C63.9398 66.0501 64.4852 65.8269 65.0306 65.3807C65.576 64.9344 65.9727 64.5625 66.2206 64.2651L70.46 68.43C69.9145 69.0251 69.0349 69.7688 67.8211 70.6613C66.6073 71.5538 65.1317 72 63.3943 72ZM63.3943 57.1251C62.2043 57.1251 61.175 56.9019 60.3063 56.4557C59.4376 56.0094 58.6819 55.588 58.0393 55.1913C57.5435 54.8442 57.1468 54.5844 56.8493 54.4119C56.5518 54.2393 56.2543 54.152 55.9568 54.1501C55.4114 54.1501 54.866 54.3732 54.3206 54.8194C53.7752 55.2657 53.3785 55.6376 53.1306 55.9351L48.8912 51.7701C49.4366 51.1751 50.3172 50.4313 51.533 49.5388C52.7488 48.6463 54.2234 48.2001 55.9568 48.2001C57.1468 48.2001 58.1762 48.4361 59.0449 48.9081C59.9136 49.3801 60.6692 49.8135 61.3118 50.2082C61.7581 50.5057 62.1548 50.7417 62.5018 50.9162C62.8489 51.0908 63.1464 51.177 63.3943 51.1751C63.9398 51.1751 64.4852 50.9519 65.0306 50.5057C65.576 50.0594 65.9727 49.6876 66.2206 49.3901L70.46 53.5551C69.9145 54.1501 69.0349 54.8938 67.8211 55.7863C66.6073 56.6788 65.1317 57.1251 63.3943 57.1251Z" fill="#3B3B3B"/>
</g>
<defs>
<filter id="filter0_d_717_4740" x="-7.62939e-06" y="0.599991" width="154" height="147" filterUnits="userSpaceOnUse" color-interpolation-filters="sRGB">
<feFlood flood-opacity="0" result="BackgroundImageFix"/>
<feColorMatrix in="SourceAlpha" type="matrix" values="0 0 0 0 0 0 0 0 0 0 0 0 0 0 0 0 0 0 127 0" result="hardAlpha"/>
<feOffset dx="8.4" dy="14"/>
<feGaussianBlur stdDeviation="14.7"/>
<feComposite in2="hardAlpha" operator="out"/>
<feColorMatrix type="matrix" values="0 0 0 0 0 0 0 0 0 0 0 0 0 0 0 0 0 0 0.1 0"/>
<feBlend mode="normal" in2="BackgroundImageFix" result="effect1_dropShadow_717_4740"/>
<feBlend mode="normal" in="SourceGraphic" in2="effect1_dropShadow_717_4740" result="shape"/>
</filter>
</defs>
</svg>
