<svg width="155" height="148" viewBox="0 0 155 148" fill="none" xmlns="http://www.w3.org/2000/svg">
<g filter="url(#filter0_d_717_4733)">
<rect x="21.2002" y="15.9999" width="95.2" height="88.2" rx="16.8" fill="#C9D7C0" shape-rendering="crispEdges"/>
<path fill-rule="evenodd" clip-rule="evenodd" d="M63.9042 55.6013C63.8867 55.9111 63.9304 56.2838 64.0179 57.0328L64.7197 63.0318C64.9946 65.3811 66.1226 67.5475 67.8895 69.1199C69.6564 70.6923 71.9392 71.5611 74.3044 71.5613H80.6289C82.4875 71.5612 84.3065 71.0244 85.8674 70.0155C87.4283 69.0066 88.6646 67.5684 89.4279 65.8738H93.2167C94.9572 65.8738 96.6264 65.1824 97.8571 63.9517C99.0878 62.721 99.7792 61.0518 99.7792 59.3113C99.7792 57.5709 99.0878 55.9017 97.8571 54.671C96.6264 53.4403 94.9572 52.7488 93.2167 52.7488H89.2284C88.8916 52.5617 88.5262 52.4317 88.1469 52.3638C87.8424 52.3113 87.4644 52.3113 86.7119 52.3113H68.2214C67.4689 52.3113 67.0927 52.3113 66.7882 52.3638C66.0142 52.5016 65.3092 52.8959 64.7866 53.4832C64.2641 54.0705 63.9545 54.8166 63.9077 55.6013H63.9042ZM91.0064 55.3738C91.0152 55.4491 91.0239 55.5261 91.0274 55.6013C91.0449 55.9111 91.0029 56.2838 90.9154 57.0328L90.2137 63.0318L90.1857 63.2488H93.2167C94.261 63.2488 95.2625 62.834 96.0009 62.0956C96.7394 61.3572 97.1542 60.3556 97.1542 59.3113C97.1542 58.2671 96.7394 57.2655 96.0009 56.5271C95.2625 55.7887 94.261 55.3738 93.2167 55.3738H91.0064ZM78.3942 37.3838C78.64 37.6299 78.778 37.9635 78.778 38.3113C78.778 38.6592 78.64 38.9928 78.3942 39.2388C78.1766 39.4573 78.0545 39.753 78.0545 40.0613C78.0545 40.3697 78.1766 40.6654 78.3942 40.8838C79.1042 41.594 79.5031 42.5571 79.5031 43.5613C79.5031 44.5656 79.1042 45.5287 78.3942 46.2388C78.1454 46.4707 77.8163 46.5969 77.4763 46.5909C77.1363 46.5849 76.8118 46.4472 76.5714 46.2067C76.3309 45.9662 76.1931 45.6418 76.1871 45.3018C76.1811 44.9617 76.3074 44.6327 76.5392 44.3838C76.9942 43.9288 76.9942 43.1938 76.5392 42.7388C75.8292 42.0287 75.4303 41.0656 75.4303 40.0613C75.4303 39.0571 75.8292 38.094 76.5392 37.3838C76.7853 37.1381 77.1189 37 77.4667 37C77.8145 37 78.1481 37.1381 78.3942 37.3838ZM70.5192 40.0088C70.765 40.2549 70.903 40.5885 70.903 40.9363C70.903 41.2842 70.765 41.6178 70.5192 41.8638L70.3162 42.0668C70.1101 42.2728 69.9852 42.5463 69.9646 42.8369C69.9441 43.1276 70.0291 43.4159 70.2042 43.6488C70.7579 44.3873 71.0267 45.3008 70.9611 46.2215C70.8955 47.1422 70.5 48.0083 69.8472 48.6608L69.6442 48.8638C69.3954 49.0957 69.0663 49.2219 68.7263 49.2159C68.3863 49.2099 68.0618 49.0722 67.8214 48.8317C67.5809 48.5912 67.4431 48.2668 67.4371 47.9268C67.4311 47.5867 67.5574 47.2577 67.7892 47.0088L67.9922 46.8058C68.1983 46.5999 68.3232 46.3264 68.3438 46.0358C68.3643 45.7451 68.2793 45.4568 68.1042 45.2238C67.5505 44.4854 67.2817 43.5719 67.3473 42.6512C67.4129 41.7305 67.8084 40.8644 68.4612 40.2118L68.6642 40.0088C68.9103 39.7631 69.2439 39.625 69.5917 39.625C69.9395 39.625 70.2731 39.7631 70.5192 40.0088ZM87.1442 40.0088C87.39 40.2549 87.528 40.5885 87.528 40.9363C87.528 41.2842 87.39 41.6178 87.1442 41.8638L86.9412 42.0668C86.7351 42.2728 86.6102 42.5463 86.5896 42.8369C86.5691 43.1276 86.6541 43.4159 86.8292 43.6488C87.3829 44.3873 87.6517 45.3008 87.5861 46.2215C87.5205 47.1422 87.125 48.0083 86.4722 48.6608L86.2692 48.8638C86.149 48.9928 86.0041 49.0962 85.8431 49.168C85.6821 49.2397 85.5083 49.2783 85.3321 49.2814C85.1559 49.2845 84.9808 49.2521 84.8174 49.1861C84.654 49.12 84.5055 49.0218 84.3809 48.8972C84.2562 48.7725 84.158 48.6241 84.092 48.4606C84.026 48.2972 83.9935 48.1222 83.9967 47.9459C83.9998 47.7697 84.0383 47.5959 84.1101 47.4349C84.1818 47.2739 84.2852 47.129 84.4142 47.0088L84.6172 46.8058C84.8233 46.5999 84.9482 46.3264 84.9688 46.0358C84.9893 45.7451 84.9043 45.4568 84.7292 45.2238C84.1755 44.4854 83.9067 43.5719 83.9723 42.6512C84.0379 41.7305 84.4334 40.8644 85.0862 40.2118L85.2892 40.0088C85.5353 39.7631 85.8689 39.625 86.2167 39.625C86.5645 39.625 86.8981 39.7631 87.1442 40.0088Z" fill="#3B3B3B"/>
<path d="M66.0466 50.1482C64.4754 51.3152 57.5245 49.5686 54.5468 47.968C56.2839 49.9082 57.0635 50.6954 56.3896 52.1944C54.4326 56.5478 43.0604 48.4101 43.347 57.0284C40.1577 53.3466 45.1127 47.6036 48.0546 48.4118C49.9609 48.9355 52.1275 50.1929 52.3831 47.921C52.3188 45.6835 49.1958 40.8943 53.5034 41.3653L66.0466 50.1482ZM65.8083 73.8365L63.0494 77.7767L58.1777 74.3655L60.9366 70.4253L65.8083 73.8365ZM59.9287 69.7196L57.1697 73.6598L41.8266 62.9164L44.5856 58.9762L59.9287 69.7196ZM43.5776 58.2704L40.8187 62.2106L39.9227 61.5833L42.6817 57.6431L43.5776 58.2704ZM41.6737 56.9373L38.9148 60.8775L37.9628 60.211L40.7218 56.2708L41.6737 56.9373Z" fill="#3B3B3B"/>
<path d="M53.433 40.6012C54.9129 42.0925 55.8732 43.709 57.6673 44.8355C58.8844 45.5997 60.2196 46.1382 61.391 46.9651C61.6746 47.1653 61.9156 47.3041 62.1756 47.5504C62.4736 47.8327 63.0655 47.9848 63.2715 48.335C63.4362 48.615 63.5186 48.9228 63.6576 49.2317C63.7327 49.3986 64.1273 49.7921 64.0499 49.7921C63.4212 49.7921 62.1991 50.1299 61.7521 50.6327C61.6435 50.7549 61.145 50.9126 61.1544 50.5767C61.1667 50.1344 62.1989 49.7434 62.543 49.6924C63.1541 49.6019 63.3262 50.0849 63.7946 50.3525C64.0002 50.47 64.2577 50.279 64.3674 50.0785C64.7226 49.4294 63.6045 49.1465 63.2466 48.9079C62.9288 48.696 62.6602 48.1844 62.2628 48.1233C61.9917 48.0816 61.5545 48.2858 61.3287 48.198C61.0131 48.0753 60.4955 47.9706 60.3324 47.6625C60.0505 47.13 59.7417 46.6135 59.4357 46.0933C59.3008 45.8638 59.0658 45.7861 58.9251 45.5329C58.7276 45.1773 58.5444 44.928 58.2526 44.6362C57.2067 43.5902 56.028 42.4237 54.5663 42.0583C53.806 41.8682 52.9263 41.7772 52.2001 41.4979C51.7927 41.3412 50.8254 41.245 50.4068 41.4543C49.8101 41.7526 49.6681 42.5295 49.0804 42.7744C48.723 42.9233 49.7456 42.2825 50.1328 42.2825C50.8026 42.2825 51.3733 42.2433 51.9199 42.6685C52.2629 42.9353 52.9516 42.7903 53.3583 42.955C54.7269 43.5089 55.7877 44.6058 56.9076 45.508C57.789 46.2179 58.8151 47.176 59.3735 48.1731C59.6203 48.6138 60.5768 49.7796 59.6101 49.7796C59.2971 49.7796 59.0207 49.307 58.7134 49.2192C58.5874 49.1832 58.1743 48.3971 58.1281 48.2354C58.0485 47.9568 57.6903 47.3252 57.4681 47.2141" stroke="#C9D7C0" stroke-width="4.2" stroke-linecap="round"/>
</g>
<defs>
<filter id="filter0_d_717_4733" x="0.200188" y="0.599869" width="154" height="147" filterUnits="userSpaceOnUse" color-interpolation-filters="sRGB">
<feFlood flood-opacity="0" result="BackgroundImageFix"/>
<feColorMatrix in="SourceAlpha" type="matrix" values="0 0 0 0 0 0 0 0 0 0 0 0 0 0 0 0 0 0 127 0" result="hardAlpha"/>
<feOffset dx="8.4" dy="14"/>
<feGaussianBlur stdDeviation="14.7"/>
<feComposite in2="hardAlpha" operator="out"/>
<feColorMatrix type="matrix" values="0 0 0 0 0 0 0 0 0 0 0 0 0 0 0 0 0 0 0.1 0"/>
<feBlend mode="normal" in2="BackgroundImageFix" result="effect1_dropShadow_717_4733"/>
<feBlend mode="normal" in="SourceGraphic" in2="effect1_dropShadow_717_4733" result="shape"/>
</filter>
</defs>
</svg>
