<svg width="977" height="993" viewBox="0 0 977 993" fill="none" xmlns="http://www.w3.org/2000/svg">
<path fill-rule="evenodd" clip-rule="evenodd" d="M355.171 233.472L357.505 232.613L359.84 231.76L362.176 230.911L364.514 230.066L366.854 229.227L369.199 228.392L371.549 227.562L373.904 226.737L376.265 225.919L378.634 225.106L381.012 224.302L383.4 223.507L385.8 222.726L388.212 221.961L390.64 221.217L393.083 220.497L395.544 219.807L398.023 219.152L400.521 218.535L403.04 217.963L405.578 217.44L408.136 216.97L410.714 216.558L413.311 216.209L415.928 215.927L418.561 215.715L421.211 215.576L423.876 215.515L426.555 215.533L429.244 215.634L431.944 215.82L434.65 216.093L437.361 216.453L440.075 216.901L442.789 217.438L445.5 218.062L448.206 218.772L450.904 219.566L453.592 220.441L456.269 221.394L458.93 222.423L461.576 223.522L464.204 224.687L466.812 225.913L469.4 227.195L471.966 228.529L474.51 229.907L477.032 231.325L479.531 232.777L482.008 234.257L484.463 235.759L486.898 237.278L489.313 238.808L491.711 240.343L494.092 241.879L496.459 243.412L498.814 244.935L501.159 246.446L503.497 247.941L505.831 249.416L508.163 250.868L510.496 252.296L512.833 253.696L515.178 255.068L517.532 256.411L519.9 257.723L522.283 259.006L524.685 260.258L527.108 261.482L529.554 262.678L532.025 263.848L534.525 264.995L537.054 266.119L539.613 267.224L542.206 268.313L544.831 269.389L547.491 270.455L550.186 271.515L552.916 272.573L555.682 273.632L558.482 274.696L561.317 275.769L564.186 276.856L567.087 277.959L570.021 279.082L572.985 280.23L575.98 281.405L579.003 282.609L582.057 283.844L585.139 285.111L588.252 286.412L591.396 287.747L594.572 289.117L597.782 290.522L601.027 291.963L604.308 293.44L607.629 294.954L610.989 296.504L614.392 298.093L617.838 299.721L621.33 301.389L624.868 303.099L628.453 304.852L632.086 306.651L635.765 308.499L639.49 310.397L643.26 312.35L647.071 314.361L650.922 316.432L654.809 318.567L658.728 320.769L662.677 323.041L666.65 325.386L670.643 327.807L674.65 330.306L678.667 332.887L682.687 335.551L686.704 338.301L690.712 341.138L694.702 344.064L698.669 347.08L702.604 350.187L706.499 353.386L710.347 356.676L714.138 360.058L717.865 363.531L721.518 367.094L725.089 370.745L728.57 374.483L731.951 378.306L735.223 382.209L738.378 386.192L741.408 390.249L744.304 394.377L747.058 398.572L749.663 402.828L752.109 407.141L754.392 411.504L756.503 415.913L758.437 420.361L760.187 424.842L761.749 429.349L763.117 433.874L764.288 438.413L765.258 442.956L766.024 447.497L766.584 452.028L766.937 456.543L767.082 461.034L767.018 465.494L766.746 469.916L766.268 474.292L765.585 478.617L764.701 482.885L763.62 487.088L762.344 491.221L760.88 495.279L759.232 499.256L757.408 503.149L755.413 506.952L753.256 510.663L750.944 514.279L748.486 517.796L745.893 521.214L743.175 524.532L740.344 527.75L737.413 530.868L734.393 533.889L731.298 536.816L728.141 539.65L724.936 542.398L721.696 545.063L718.434 547.65L715.164 550.168L711.898 552.621L708.648 555.017L705.426 557.365L702.243 559.672L699.11 561.946L696.035 564.196L693.026 566.43L690.092 568.658L687.237 570.886L684.468 573.124L681.788 575.379L679.201 577.658L676.707 579.968L674.308 582.316L672.003 584.708L669.792 587.149L667.671 589.643L665.637 592.194L663.686 594.804L661.813 597.477L660.012 600.213L658.275 603.011L656.596 605.872L654.966 608.793L653.377 611.772L651.82 614.805L650.284 617.886L648.762 621.012L647.242 624.175L645.714 627.367L644.17 630.582L642.599 633.809L640.991 637.039L639.338 640.263L637.63 643.47L635.859 646.648L634.017 649.786L632.096 652.872L630.089 655.895L627.992 658.842L625.797 661.702L623.502 664.463L621.101 667.112L618.593 669.64L615.975 672.035L613.246 674.286L610.405 676.383L607.455 678.319L604.395 680.083L601.228 681.67L597.957 683.071L594.587 684.281L591.121 685.297L587.566 686.113L583.926 686.727L580.208 687.138L576.42 687.346L572.569 687.351L568.661 687.155L564.706 686.762L560.712 686.176L556.686 685.401L552.638 684.445L548.575 683.314L544.506 682.017L540.439 680.564L536.382 678.964L532.343 677.229L528.329 675.372L524.347 673.403L520.404 671.338L516.504 669.188L512.654 666.969L508.858 664.694L505.119 662.378L501.442 660.035L497.828 657.679L494.28 655.323L490.798 652.982L487.382 650.667L484.033 648.391L480.748 646.165L477.526 644L474.366 641.906L471.262 639.89L468.214 637.96L465.215 636.123L462.262 634.385L459.351 632.75L456.476 631.222L453.633 629.804L450.816 628.498L448.019 627.304L445.237 626.222L442.465 625.251L439.697 624.388L436.929 623.629L434.154 622.97L431.369 622.405L428.569 621.929L425.749 621.533L422.908 621.211L420.04 620.953L417.144 620.749L414.219 620.591L411.261 620.467L408.271 620.366L405.249 620.278L402.195 620.191L399.11 620.094L395.996 619.975L392.855 619.822L389.692 619.625L386.508 619.372L383.31 619.053L380.101 618.658L376.888 618.176L373.675 617.598L370.47 616.917L367.28 616.124L364.11 615.212L360.968 614.176L357.862 613.01L354.799 611.71L351.786 610.272L348.832 608.696L345.942 606.978L343.125 605.119L340.386 603.12L337.733 600.982L335.171 598.708L332.706 596.303L330.342 593.769L328.084 591.113L325.935 588.342L323.897 585.461L321.974 582.478L320.166 579.402L318.473 576.242L316.895 573.005L315.431 569.702L314.081 566.34L312.842 562.928L311.712 559.473L310.691 555.985L309.774 552.469L308.958 548.935L308.241 545.389L307.619 541.838L307.086 538.289L306.64 534.749L306.274 531.222L305.984 527.716L305.764 524.235L305.61 520.785L305.515 517.369L305.475 513.991L305.483 510.656L305.535 507.365L305.625 504.121L305.75 500.927L305.903 497.782L306.081 494.69L306.278 491.65L306.49 488.664L306.71 485.732L306.935 482.854L307.158 480.03L307.375 477.261L307.58 474.544L307.768 471.881L307.934 469.269L308.073 466.707L308.181 464.193L308.254 461.725L308.286 459.302L308.274 456.92L308.215 454.576L308.106 452.269L307.943 449.994L307.724 447.748L307.448 445.529L307.112 443.331L306.716 441.153L306.258 438.989L305.74 436.837L305.161 434.692L304.521 432.552L303.823 430.411L303.068 428.268L302.257 426.118L301.394 423.958L300.481 421.785L299.522 419.597L298.519 417.39L297.478 415.162L296.402 412.911L295.295 410.635L294.162 408.332L293.007 406.001L291.835 403.641L290.652 401.25L289.461 398.828L288.267 396.375L287.075 393.89L285.89 391.373L284.715 388.825L283.556 386.245L282.415 383.636L281.296 380.996L280.203 378.327L279.139 375.63L278.107 372.906L277.108 370.155L276.146 367.379L275.221 364.579L274.336 361.755L273.493 358.91L272.696 356.045L271.948 353.162L271.25 350.262L270.607 347.348L270.02 344.423L269.494 341.488L269.03 338.546L268.631 335.6L268.3 332.653L268.04 329.707L267.853 326.765L267.74 323.831L267.705 320.908L267.748 317.999L267.874 315.108L268.083 312.238L268.379 309.394L268.763 306.579L269.238 303.798L269.807 301.056L270.472 298.357L271.232 295.706L272.09 293.105L273.044 290.56L274.094 288.072L275.239 285.645L276.477 283.281L277.806 280.983L279.222 278.752L280.724 276.589L282.308 274.496L283.969 272.471L285.704 270.517L287.509 268.632L289.379 266.815L291.311 265.065L293.299 263.382L295.338 261.763L297.425 260.206L299.555 258.709L301.723 257.269L303.925 255.884L306.157 254.551L308.416 253.267L310.696 252.029L312.996 250.833L315.311 249.677L317.638 248.558L319.975 247.472L322.32 246.416L324.669 245.387L327.022 244.384L329.377 243.402L331.732 242.439L334.086 241.494L336.438 240.564L338.789 239.647L341.136 238.741L343.481 237.845L345.823 236.957L348.163 236.077L350.5 235.203L352.836 234.335L355.171 233.472Z" fill="#AEC79F" fill-opacity="0.99"/>
<path d="M713.284 492.16V492.16ZM713.284 492.16L713.234 494.854L713.179 497.546L713.121 500.235L713.057 502.924L712.989 505.613L712.915 508.302L712.836 510.992L712.749 513.684L712.656 516.379L712.555 519.076L712.444 521.777L712.321 524.48L712.183 527.186L712.027 529.894L711.848 532.602L711.642 535.309L711.406 538.014L711.133 540.714L710.821 543.407L710.465 546.09L710.06 548.761L709.603 551.417L709.089 554.055L708.515 556.671L707.878 559.262L707.175 561.825L706.403 564.356L705.561 566.853L704.646 569.312L703.656 571.729L702.591 574.102L701.449 576.426L700.231 578.7L698.937 580.92L697.567 583.085L696.123 585.192L694.608 587.241L693.024 589.229L691.373 591.157L689.659 593.024L687.887 594.831L686.059 596.579L684.181 598.268L682.257 599.901L680.292 601.479L678.291 603.006L676.259 604.483L674.2 605.915L672.12 607.305L670.024 608.657L667.915 609.975L665.8 611.263L663.681 612.527L661.564 613.77L659.451 614.998L657.347 616.215L655.254 617.426L653.175 618.637L651.113 619.851L649.069 621.074L647.044 622.309L645.041 623.561L643.059 624.834L641.1 626.132L639.162 627.458L637.245 628.814L635.348 630.204L633.471 631.629L631.612 633.092L629.768 634.594L627.938 636.136L626.12 637.719L624.31 639.343L622.506 641.007L620.704 642.712L618.903 644.455L617.099 646.237L615.288 648.054L613.467 649.905L611.634 651.789L609.784 653.701L607.915 655.639L606.023 657.6L604.106 659.581L602.161 661.579L600.184 663.59L598.175 665.611L596.131 667.641L594.05 669.679L591.932 671.723L589.775 673.774L587.578 675.833L585.341 677.898L583.062 679.973L580.741 682.058L578.377 684.153L575.968 686.262L573.515 688.384L571.014 690.521L568.466 692.674L565.868 694.843L563.219 697.028L560.516 699.23L557.759 701.446L554.944 703.675L552.071 705.914L549.136 708.159L546.138 710.408L543.075 712.654L539.945 714.893L536.747 717.12L533.48 719.33L530.142 721.516L526.732 723.672L523.25 725.793L519.695 727.871L516.068 729.9L512.369 731.871L508.599 733.779L504.758 735.615L500.849 737.373L496.872 739.043L492.831 740.62L488.726 742.094L484.563 743.459L480.344 744.707L476.072 745.831L471.752 746.823L467.389 747.677L462.987 748.386L458.552 748.943L454.089 749.343L449.604 749.58L445.103 749.648L440.594 749.544L436.082 749.263L431.574 748.801L427.078 748.155L422.601 747.323L418.151 746.302L413.734 745.092L409.358 743.691L405.03 742.1L400.758 740.319L396.55 738.35L392.412 736.194L388.351 733.854L384.374 731.333L380.487 728.634L376.697 725.764L373.009 722.725L369.429 719.525L365.962 716.169L362.612 712.664L359.383 709.016L356.279 705.234L353.302 701.325L350.456 697.298L347.742 693.161L345.161 688.923L342.714 684.594L340.4 680.182L338.219 675.697L336.169 671.151L334.246 666.552L332.446 661.912L330.765 657.242L329.197 652.552L327.736 647.853L326.373 643.154L325.101 638.466L323.912 633.797L322.795 629.157L321.742 624.553L320.742 619.994L319.785 615.486L318.861 611.034L317.958 606.644L317.067 602.32L316.176 598.065L315.277 593.881L314.358 589.77L313.412 585.732L312.429 581.768L311.402 577.874L310.323 574.051L309.186 570.294L307.985 566.601L306.715 562.967L305.371 559.389L303.952 555.86L302.455 552.376L300.878 548.931L299.223 545.518L297.49 542.132L295.682 538.766L293.8 535.413L291.851 532.068L289.839 528.725L287.77 525.376L285.652 522.017L283.492 518.642L281.299 515.246L279.083 511.825L276.855 508.374L274.624 504.89L272.403 501.371L270.203 497.813L268.036 494.216L265.915 490.579L263.851 486.901L261.859 483.184L259.949 479.428L258.134 475.635L256.427 471.808L254.838 467.95L253.38 464.065L252.062 460.158L250.894 456.233L249.887 452.297L249.048 448.355L248.385 444.413L247.904 440.478L247.612 436.557L247.512 432.657L247.609 428.785L247.906 424.948L248.402 421.154L249.099 417.409L249.996 413.721L251.09 410.096L252.379 406.54L253.858 403.059L255.522 399.659L257.365 396.344L259.379 393.12L261.555 389.988L263.886 386.954L266.361 384.018L268.968 381.183L271.698 378.45L274.536 375.818L277.472 373.287L280.491 370.855L283.581 368.52L286.727 366.278L289.917 364.126L293.135 362.058L296.37 360.07L299.607 358.155L302.835 356.308L306.039 354.52L309.21 352.784L312.335 351.093L315.405 349.438L318.41 347.812L321.342 346.205L324.194 344.61L326.959 343.019L329.632 341.423L332.208 339.815L334.686 338.188L337.06 336.533L339.331 334.845L341.498 333.116L343.56 331.341L345.519 329.514L347.378 327.63L349.139 325.685L350.806 323.677L352.385 321.601L353.88 319.458L355.297 317.244L356.644 314.962L357.929 312.611L359.159 310.193L360.342 307.711L361.489 305.168L362.606 302.569L363.706 299.92L364.795 297.225L365.885 294.493L366.985 291.731L368.104 288.946L369.252 286.149L370.437 283.349L371.667 280.555L372.952 277.778L374.299 275.029L375.715 272.319L377.206 269.659L378.778 267.06L380.436 264.533L382.185 262.09L384.029 259.741L385.969 257.496L388.009 255.366L390.149 253.361L392.389 251.488L394.728 249.757L397.167 248.175L399.701 246.748L402.329 245.482L405.047 244.383L407.851 243.453L410.735 242.696L413.694 242.112L416.722 241.704L419.812 241.469L422.958 241.406L426.153 241.512L429.389 241.784L432.659 242.215L435.955 242.799L439.269 243.532L442.596 244.406L445.928 245.414L449.26 246.55L452.585 247.807L455.897 249.178L459.191 250.654L462.463 252.228L465.706 253.892L468.918 255.639L472.094 257.459L475.231 259.344L478.325 261.287L481.373 263.279L484.374 265.312L487.325 267.379L490.226 269.47L493.073 271.581L495.868 273.703L498.61 275.832L501.299 277.96L503.935 280.084L506.518 282.198L509.05 284.296L511.531 286.374L513.963 288.426L516.347 290.448L518.685 292.434L520.979 294.38L523.232 296.281L525.445 298.134L527.622 299.934L529.764 301.677L531.877 303.362L533.961 304.984L536.022 306.542L538.061 308.033L540.084 309.456L542.093 310.81L544.092 312.093L546.085 313.307L548.074 314.452L550.065 315.527L552.06 316.535L554.063 317.478L556.076 318.356L558.104 319.174L560.148 319.934L562.211 320.639L564.297 321.294L566.407 321.901L568.542 322.467L570.706 322.995L572.898 323.489L575.121 323.956L577.375 324.4L579.66 324.827L581.977 325.24L584.325 325.647L586.705 326.051L589.116 326.459L591.557 326.874L594.027 327.303L596.524 327.748L599.048 328.216L601.597 328.709L604.17 329.232L606.763 329.789L609.377 330.382L612.008 331.014L614.656 331.689L617.319 332.408L619.993 333.173L622.68 333.986L625.375 334.848L628.079 335.76L630.789 336.724L633.504 337.741L636.22 338.812L638.936 339.939L641.648 341.124L644.355 342.367L647.052 343.67L649.737 345.035L652.407 346.462L655.059 347.951L657.689 349.505L660.294 351.122L662.871 352.803L665.416 354.549L667.926 356.359L670.397 358.234L672.826 360.172L675.209 362.174L677.541 364.24L679.817 366.369L682.034 368.561L684.187 370.814L686.27 373.129L688.281 375.502L690.215 377.932L692.071 380.417L693.844 382.954L695.534 385.54L697.138 388.172L698.656 390.847L700.087 393.56L701.431 396.309L702.689 399.089L703.861 401.898L704.949 404.73L705.954 407.584L706.879 410.454L707.725 413.339L708.497 416.233L709.196 419.135L709.825 422.042L710.39 424.95L710.892 427.858L711.336 430.762L711.726 433.661L712.065 436.554L712.358 439.438L712.607 442.313L712.818 445.177L712.993 448.029L713.137 450.87L713.252 453.698L713.342 456.514L713.41 459.317L713.458 462.108L713.49 464.887L713.507 467.654L713.513 470.41L713.507 473.156L713.493 475.893L713.472 478.621L713.444 481.341L713.411 484.054L713.373 486.761L713.33 489.462L713.284 492.16" stroke="white"/>
<path d="M534.532 244.575V244.575ZM534.532 244.575L536.868 246.236L539.2 247.898L541.53 249.564L543.857 251.233L546.183 252.907L548.507 254.587L550.831 256.272L553.154 257.965L555.477 259.666L557.801 261.377L560.124 263.098L562.446 264.832L564.766 266.582L567.082 268.35L569.392 270.14L571.693 271.955L573.982 273.797L576.257 275.67L578.514 277.576L580.749 279.518L582.959 281.499L585.14 283.519L587.288 285.582L589.4 287.689L591.471 289.84L593.498 292.037L595.477 294.279L597.405 296.567L599.277 298.901L601.092 301.28L602.845 303.704L604.533 306.17L606.154 308.679L607.706 311.227L609.186 313.813L610.595 316.434L611.931 319.087L613.194 321.77L614.384 324.479L615.503 327.21L616.552 329.962L617.532 332.729L618.447 335.509L619.299 338.298L620.09 341.093L620.826 343.891L621.51 346.69L622.146 349.486L622.739 352.277L623.294 355.06L623.816 357.835L624.31 360.598L624.781 363.35L625.235 366.088L625.678 368.812L626.113 371.523L626.546 374.219L626.983 376.901L627.429 379.57L627.886 382.227L628.361 384.873L628.857 387.509L629.378 390.138L629.926 392.76L630.506 395.379L631.118 397.996L631.766 400.614L632.45 403.235L633.173 405.862L633.935 408.497L634.735 411.144L635.574 413.804L636.452 416.481L637.367 419.176L638.318 421.893L639.302 424.633L640.319 427.398L641.365 430.192L642.438 433.015L643.535 435.869L644.653 438.755L645.787 441.676L646.935 444.631L648.093 447.623L649.256 450.651L650.422 453.716L651.587 456.818L652.749 459.958L653.908 463.138L655.06 466.357L656.208 469.616L657.349 472.917L658.485 476.261L659.617 479.648L660.744 483.082L661.869 486.563L662.991 490.093L664.111 493.675L665.231 497.309L666.35 500.997L667.469 504.742L668.587 508.546L669.703 512.408L670.815 516.332L671.922 520.317L673.019 524.363L674.105 528.471L675.173 532.64L676.221 536.87L677.242 541.157L678.233 545.502L679.188 549.902L680.101 554.355L680.967 558.857L681.78 563.406L682.534 567.997L683.224 572.627L683.842 577.291L684.384 581.983L684.842 586.699L685.211 591.433L685.484 596.178L685.656 600.928L685.72 605.675L685.67 610.413L685.502 615.134L685.21 619.829L684.789 624.491L684.235 629.111L683.542 633.681L682.707 638.191L681.726 642.633L680.597 646.998L679.316 651.278L677.882 655.462L676.293 659.542L674.547 663.51L672.644 667.357L670.585 671.075L668.368 674.655L665.997 678.09L663.471 681.372L660.794 684.495L657.967 687.451L654.995 690.235L651.881 692.841L648.63 695.264L645.245 697.5L641.734 699.545L638.1 701.395L634.35 703.049L630.491 704.504L626.53 705.76L622.474 706.816L618.329 707.673L614.104 708.332L609.807 708.794L605.446 709.063L601.028 709.143L596.561 709.036L592.055 708.748L587.516 708.285L582.953 707.654L578.375 706.863L573.79 705.921L569.206 704.838L564.63 703.625L560.071 702.293L555.535 700.856L551.029 699.326L546.56 697.717L542.132 696.042L537.75 694.315L533.42 692.551L529.144 690.763L524.925 688.965L520.765 687.17L516.666 685.392L512.628 683.642L508.65 681.933L504.731 680.276L500.871 678.679L497.066 677.153L493.314 675.705L489.611 674.341L485.953 673.068L482.337 671.889L478.756 670.809L475.207 669.83L471.685 668.953L468.183 668.177L464.697 667.501L461.221 666.922L457.751 666.438L454.28 666.043L450.804 665.73L447.319 665.495L443.819 665.328L440.303 665.221L436.765 665.164L433.203 665.148L429.614 665.161L425.998 665.193L422.353 665.231L418.678 665.264L414.974 665.278L411.241 665.263L407.482 665.205L403.698 665.092L399.893 664.912L396.069 664.653L392.232 664.304L388.386 663.854L384.536 663.292L380.688 662.608L376.848 661.794L373.024 660.842L369.223 659.744L365.451 658.494L361.716 657.086L358.026 655.516L354.389 653.78L350.812 651.877L347.304 649.805L343.871 647.563L340.522 645.154L337.263 642.578L334.1 639.839L331.04 636.94L328.089 633.888L325.252 630.687L322.534 627.344L319.937 623.867L317.466 620.264L315.123 616.545L312.909 612.718L310.825 608.793L308.871 604.782L307.047 600.694L305.35 596.541L303.778 592.334L302.328 588.086L300.994 583.806L299.771 579.506L298.654 575.199L297.635 570.894L296.707 566.602L295.862 562.333L295.09 558.096L294.384 553.902L293.733 549.756L293.128 545.668L292.558 541.643L292.013 537.688L291.484 533.806L290.96 530.002L290.431 526.28L289.889 522.639L289.324 519.083L288.728 515.61L288.093 512.221L287.411 508.914L286.674 505.687L285.878 502.538L285.014 499.463L284.08 496.458L283.069 493.519L281.979 490.641L280.807 487.818L279.551 485.046L278.21 482.317L276.785 479.626L275.276 476.966L273.686 474.33L272.017 471.713L270.274 469.107L268.461 466.507L266.584 463.905L264.649 461.296L262.665 458.675L260.638 456.036L258.579 453.373L256.496 450.684L254.4 447.963L252.301 445.208L250.211 442.415L248.139 439.584L246.099 436.711L244.102 433.797L242.159 430.842L240.282 427.845L238.483 424.808L236.772 421.734L235.161 418.624L233.661 415.481L232.28 412.31L231.029 409.115L229.917 405.899L228.95 402.668L228.136 399.429L227.482 396.185L226.992 392.944L226.671 389.711L226.521 386.494L226.545 383.297L226.743 380.128L227.116 376.992L227.661 373.896L228.377 370.845L229.259 367.845L230.304 364.9L231.504 362.015L232.854 359.194L234.346 356.441L235.973 353.758L237.726 351.148L239.598 348.614L241.582 346.157L243.669 343.779L245.852 341.48L248.121 339.262L250.469 337.123L252.887 335.065L255.368 333.086L257.902 331.185L260.482 329.36L263.099 327.61L265.745 325.932L268.412 324.323L271.094 322.781L273.784 321.302L276.473 319.884L279.158 318.523L281.832 317.215L284.49 315.958L287.128 314.747L289.742 313.58L292.327 312.452L294.879 311.36L297.394 310.298L299.868 309.263L302.297 308.25L304.679 307.255L307.009 306.272L309.284 305.297L311.503 304.325L313.663 303.351L315.762 302.371L317.798 301.379L319.771 300.371L321.68 299.343L323.524 298.29L325.304 297.209L327.019 296.095L328.672 294.946L330.263 293.757L331.795 292.526L333.268 291.251L334.687 289.93L336.054 288.56L337.371 287.14L338.643 285.67L339.873 284.149L341.065 282.577L342.224 280.954L343.354 279.281L344.459 277.56L345.543 275.792L346.613 273.978L347.672 272.122L348.724 270.225L349.775 268.291L350.83 266.323L351.892 264.324L352.965 262.297L354.055 260.248L355.164 258.178L356.297 256.093L357.457 253.996L358.647 251.891L359.869 249.782L361.127 247.673L362.423 245.566L363.759 243.467L365.136 241.378L366.557 239.301L368.021 237.24L369.531 235.197L371.086 233.175L372.687 231.175L374.335 229.2L376.031 227.252L377.775 225.336L379.567 223.453L381.409 221.608L383.3 219.804L385.241 218.044L387.231 216.333L389.271 214.673L391.361 213.068L393.5 211.521L395.687 210.036L397.921 208.616L400.203 207.264L402.53 205.984L404.902 204.779L407.316 203.653L409.773 202.608L412.27 201.649L414.806 200.779L417.379 200.004L419.986 199.326L422.626 198.75L425.296 198.277L427.993 197.91L430.714 197.651L433.455 197.5L436.215 197.457L438.99 197.522L441.775 197.694L444.569 197.971L447.368 198.35L450.169 198.831L452.968 199.408L455.764 200.08L458.553 200.842L461.333 201.69L464.102 202.619L466.857 203.626L469.598 204.705L472.321 205.852L475.027 207.062L477.714 208.33L480.38 209.65L483.026 211.019L485.651 212.431L488.255 213.883L490.837 215.369L493.399 216.885L495.94 218.428L498.461 219.993L500.963 221.578L503.447 223.179L505.913 224.794L508.363 226.419L510.797 228.053L513.216 229.693L515.623 231.338L518.018 232.987L520.401 234.639L522.775 236.292L525.14 237.947L527.497 239.603L529.848 241.259L532.193 242.917L534.532 244.575" stroke="#637856"/>
</svg>
