<svg width="111" height="105" viewBox="0 0 111 105" fill="none" xmlns="http://www.w3.org/2000/svg">
<g filter="url(#filter0_d_701_4635)">
<rect x="15.5" y="11" width="68" height="63" rx="12" fill="#C9D7C0" shape-rendering="crispEdges"/>
<path d="M49.5029 24.6172C48.2745 24.5875 47.1708 25.2328 47.2059 26.8552L25.8582 44.1934L25.8862 44.8845V62.7144L27.0286 62.4468L42.5583 58.8048L43.0999 60.5667L46.0603 60.2336L45.721 58.0611L52.6251 56.4425L53.506 57.4635L55.6817 57.6252L55.5884 55.7482L67.7345 52.8969V52.8999C67.87 52.88 68.0002 52.8481 68.1267 52.8066C68.1289 52.8056 68.1307 52.8042 68.133 52.8034L70.206 52.3178L70.9252 52.1497V51.4337L72.771 36.7507C73.6565 35.0461 72.124 32.1235 68.9141 32.754C69.3875 30.7708 65.031 29.9514 63.7314 31.0357C64.0565 29.2226 60.0075 26.8805 58.5611 28.9253C59.0225 26.6584 53.9785 24.8546 52.6996 26.8987C52.4595 25.5587 50.8997 24.6508 49.5027 24.6171L49.5029 24.6172ZM48.4789 28.5672C48.7116 28.8471 49.2202 29.1192 49.8143 29.2489C50.4084 29.3784 51.0716 29.3615 51.4454 29.2644L52.3359 29.034L52.5786 29.9243C52.7987 30.7414 53.2611 31.0528 54.0167 31.2162C54.7724 31.3796 55.7866 31.2501 56.591 30.9297L57.6245 30.5158L57.8486 31.6052C57.9482 32.0919 58.5847 32.71 59.4765 33.0309C60.3684 33.3516 61.384 33.3028 61.8203 33.0309L62.9442 32.3304L63.2211 33.6254C63.3434 34.1983 63.6728 34.5946 64.183 34.8798C64.6933 35.1651 65.3862 35.2994 66.0818 35.216L66.3059 37.0651C65.2466 37.192 64.1759 37.009 63.2738 36.5048C62.6705 36.1673 62.1597 35.6553 61.8046 35.0262C60.8447 35.2652 59.796 35.1244 58.8476 34.7831C57.8734 34.4328 56.9288 33.8334 56.3978 32.9435C55.5079 33.1714 54.549 33.2338 53.6243 33.0339C52.6236 32.8174 51.6524 32.1934 51.103 31.1879C50.5611 31.2283 49.9918 31.1916 49.419 31.0664C48.5514 30.8771 47.6688 30.5038 47.047 29.756L48.4788 28.5669L48.4789 28.5672ZM67.3081 40.1373L67.3176 40.1717C67.4809 40.1333 67.5114 40.1418 67.6817 40.2807C67.8523 40.4191 68.0941 40.7405 68.3013 41.2113C68.7055 42.1297 68.9896 43.5647 69.0639 45.0463V46.64C69.0137 47.6542 68.8687 48.6197 68.6344 49.3823C68.4608 49.9473 68.2378 50.3973 68.0212 50.671C67.8702 50.862 67.7446 50.9619 67.6228 51.0137L27.7477 60.3674V47.6112C40.9577 44.1747 54.1452 41.3637 67.3082 40.1375L67.3081 40.1373ZM60.1113 57.7776L57.4781 58.0827L58.9286 60.2056L61.4158 59.7636L60.1114 57.7776H60.1113ZM53.8579 60.2709L50.6704 60.7908L51.7816 62.0796L53.9606 62.2414L53.858 60.271L53.8579 60.2709ZM38.1943 63.2093L38.0324 64.6943L40.2706 64.9869L41.1109 63.4616L38.1944 63.2095L38.1943 63.2093ZM48.8929 63.6795L46.4712 63.9939L46.6455 65.6034L49.8019 65.3294L48.893 63.6796L48.8929 63.6795Z" fill="#3B3B3B"/>
</g>
<defs>
<filter id="filter0_d_701_4635" x="0.5" y="0" width="110" height="105" filterUnits="userSpaceOnUse" color-interpolation-filters="sRGB">
<feFlood flood-opacity="0" result="BackgroundImageFix"/>
<feColorMatrix in="SourceAlpha" type="matrix" values="0 0 0 0 0 0 0 0 0 0 0 0 0 0 0 0 0 0 127 0" result="hardAlpha"/>
<feOffset dx="6" dy="10"/>
<feGaussianBlur stdDeviation="10.5"/>
<feComposite in2="hardAlpha" operator="out"/>
<feColorMatrix type="matrix" values="0 0 0 0 0 0 0 0 0 0 0 0 0 0 0 0 0 0 0.1 0"/>
<feBlend mode="normal" in2="BackgroundImageFix" result="effect1_dropShadow_701_4635"/>
<feBlend mode="normal" in="SourceGraphic" in2="effect1_dropShadow_701_4635" result="shape"/>
</filter>
</defs>
</svg>
