<svg width="155" height="148" viewBox="0 0 155 148" fill="none" xmlns="http://www.w3.org/2000/svg">
<g filter="url(#filter0_d_717_4719)">
<rect x="21.5996" y="15.9999" width="95.2" height="88.2" rx="16.8" fill="#C9D7C0" shape-rendering="crispEdges"/>
<path d="M102.668 65.5974C102.668 61.898 100.289 58.5478 96.2821 55.9205C95.9921 54.874 95.5057 53.8655 94.8475 52.9038C95.2482 51.9721 95.4888 50.9793 95.5592 49.9675C98.1519 47.6649 99.6346 44.9606 99.6346 42.041C99.6346 33.3994 86.6956 26.6309 70.1765 26.6309C54.0167 26.6309 41.2896 33.1104 40.7452 41.4832C38.1547 43.7847 36.6743 46.4845 36.6743 49.4019C36.6743 51.2851 37.2901 53.079 38.4214 54.7323C37.939 55.8378 37.6884 57.0304 37.685 58.2365C37.685 61.2989 39.3161 64.1226 42.1487 66.4955C38.1056 69.1049 35.7305 72.3481 35.7305 75.9013C35.7305 77.403 36.1611 78.8477 36.9532 80.2132C38.4704 87.7024 52.3098 93.5684 69.1658 93.5684C86.0217 93.5684 99.8622 87.7024 101.378 80.2132C102.17 78.8466 102.601 77.4018 102.601 75.9013C102.601 74.1453 102.011 72.4697 100.937 70.9033C102.057 69.2555 102.668 67.4705 102.668 65.5974ZM95.9251 46.4332L95.9162 46.3919C95.9341 46.3886 95.9486 46.3797 95.9664 46.3763L95.9251 46.4332ZM72.9756 29.2972C95.4555 29.2972 100.77 44.3448 94.8787 44.3448C91.8442 44.3448 95.4566 48.6611 93.0915 48.6611C88.4293 48.6611 94.2506 68.9744 89.1801 68.9744C82.9917 68.9744 91.8029 50.7551 86.5427 50.7551C84.0661 50.7551 83.1802 54.314 80.3834 54.314C77.321 54.314 77.0276 50.2988 74.8889 50.2988C74.0444 50.2988 72.9131 50.9247 71.2107 52.6684C69.0977 54.8339 66.881 56.2295 65.0714 56.2295C63.2117 56.2295 61.7814 54.7558 61.3318 51.1278C61.1723 49.8392 60.668 49.3874 60.06 49.3874C58.9522 49.3874 57.4997 50.8857 57.1505 51.564C53.3317 58.9873 60.2073 75.6068 54.3703 75.6068C47.5394 75.6068 56.5235 50.8321 52.0733 50.8321C50.8896 50.8321 49.3891 52.3092 48.221 52.3092C48.0112 52.3124 47.8047 52.2564 47.6253 52.1474C43.4294 49.5781 51.656 42.1838 47.5695 42.1838C38.389 42.1849 47.9611 29.2972 72.9756 29.2972ZM93.3202 55.7364C93.3181 55.639 93.3155 55.5415 93.3123 55.4441C93.4228 55.3046 93.5254 55.1652 93.627 55.0246C94.158 56.0521 94.4425 57.1276 94.4425 58.2354C94.4425 59.3901 94.1279 60.5102 93.5533 61.5789C93.5254 60.5581 93.4797 59.4972 93.4284 58.3949C93.4128 58.0859 93.3971 57.7479 93.3815 57.3964C93.4072 57.1856 93.4317 56.9759 93.4317 56.7628C93.4298 56.4177 93.3924 56.0738 93.3202 55.7364ZM66.1324 62.6533C63.501 62.6522 60.8731 62.4606 58.2694 62.0798C58.1871 61.0994 58.1317 60.1169 58.1032 59.1335C60.6368 59.4994 63.3288 59.7069 66.1324 59.7069C74.07 59.7069 81.1732 58.125 85.9939 55.6304C85.8593 56.6541 85.7027 57.6748 85.5242 58.6917C80.5786 61.1271 73.7365 62.6533 66.1324 62.6533ZM85.1147 68.1857C80.3086 70.2317 74.0366 71.4846 67.1442 71.4846C64.2972 71.4846 61.5639 71.2603 58.9846 70.8676C58.9692 69.8846 58.9168 68.9025 58.8273 67.9235C61.5805 68.335 64.3605 68.5412 67.1442 68.5404C73.9105 68.5404 80.061 67.3835 84.722 65.5003C84.7321 66.4866 84.8436 67.3947 85.1147 68.1857ZM58.5372 54.0161C58.6789 53.4895 58.8451 52.9897 59.0705 52.5535C59.1196 52.4698 59.2099 52.3594 59.3204 52.2423C59.4598 53.0265 59.6506 53.7026 59.8726 54.3017C59.4208 54.2125 58.9779 54.1165 58.5372 54.0161ZM71.609 55.2645C72.0173 54.9008 72.4089 54.5338 72.7547 54.1779C73.8558 53.0489 74.4817 52.6573 74.7606 52.5234C74.9324 52.7175 75.1701 53.05 75.3407 53.2909C75.6765 53.7617 76.1061 54.3564 76.6672 54.9053C74.9875 55.1024 73.2997 55.2222 71.609 55.2645ZM43.8589 43.4645C44.4759 43.8483 45.2244 44.1082 46.098 44.2399C46.0031 44.4452 45.9072 44.646 45.8246 44.8211C45.5312 45.4347 45.1754 46.1878 44.8741 47.0055C43.7407 45.65 43.0557 44.1841 42.9117 42.649C43.1784 42.958 43.4908 43.2358 43.8589 43.4645ZM41.0096 44.241C41.0241 44.2934 41.033 44.3481 41.0475 44.4016C40.2666 45.515 39.8415 46.6998 39.8415 47.9293C39.8415 51.8931 44.2204 55.3928 50.9197 57.5281C50.8059 58.4663 50.6798 59.4113 50.5594 60.277C43.4774 57.8829 38.8308 53.9079 38.8308 49.4019C38.8308 47.5678 39.6184 45.8274 41.0096 44.241ZM39.8427 58.2365C39.8427 57.7032 39.9163 57.18 40.0446 56.6646C40.3179 56.9379 40.6024 57.2079 40.9059 57.4701C41.3365 60.7255 44.7157 63.6239 49.8643 65.6398C49.7604 66.5544 49.6782 67.4713 49.6178 68.3898C43.6458 65.9589 39.8427 62.313 39.8427 58.2365ZM49.639 72.2387C48.6829 71.4433 47.8819 70.5976 47.2828 69.7063C48.0023 70.0465 48.7699 70.3578 49.5564 70.659C49.5631 71.2146 49.5888 71.7423 49.639 72.2387ZM41.9646 72.4808C43.0947 78.5186 54.3848 83.2644 68.155 83.2644C76.5713 83.2644 84.0404 81.4839 88.8443 78.7239C90.1066 78.3199 91.3454 77.8457 92.5548 77.3037C88.6937 81.8275 79.0881 85.1287 68.155 85.1287C53.9408 85.1287 41.9322 79.5572 41.9322 72.9594C41.9322 72.7965 41.9512 72.6392 41.9646 72.4808ZM69.1658 89.5465C52.2116 89.5465 37.8881 83.2968 37.8881 75.9024C37.8881 74.2033 38.6523 72.5667 40.0234 71.0495C39.8613 71.6729 39.7777 72.3141 39.7746 72.9583C39.7746 80.9941 52.2406 87.2874 68.1539 87.2874C82.4305 87.2874 93.9226 82.2191 96.1371 75.3747C97.4301 74.5425 98.5536 73.631 99.4896 72.6593C100.103 73.7035 100.442 74.7879 100.442 75.9013C100.443 83.2968 86.1199 89.5465 69.1658 89.5465ZM73.2099 78.8477C67.3607 78.8477 61.9689 77.9396 57.5331 76.4156L57.5343 76.4134C58.13 75.7529 58.4881 74.9051 58.7101 73.9311C62.8681 75.1706 67.8426 75.9013 73.2099 75.9013C87.7264 75.9013 99.4996 70.6278 99.4996 64.1237C99.4996 62.2996 98.5736 60.5726 96.9203 59.0308C99.2006 60.9664 100.51 63.2066 100.51 65.5963C100.51 72.9137 88.2865 78.8477 73.2099 78.8477Z" fill="#3B3B3B"/>
<path d="M49.3728 40.4204C52.2823 40.0344 48.8384 45.4073 48.7492 48.7307C48.661 52.0352 60.8057 41.883 62.2159 48.0457C63.6271 54.2084 65.2269 57.0767 70.6779 51.1282C74.9173 46.5051 76.4211 49.3711 79.3262 51.7463C82.2302 54.1203 86.4696 45.6059 90.6152 44.5795C94.7609 43.552 95.0253 40.5978 93.7033 38.7994C92.379 37.0033 91.3716 37.4942 92.379 40.3412C93.3864 43.1894 87.9723 42.0102 85.2357 44.9644C82.5013 47.9186 80.7375 48.6883 78.3556 46.5062C75.9738 44.3218 71.5916 46.4627 68.7423 49.7158C63.4531 55.7502 64.4237 43.4226 60.0995 43.4226C55.7787 43.4226 50.8309 47.643 51.5806 45.3571C52.2221 43.398 54.3987 35.4135 47.3435 39.2669C46.3796 39.7901 46.461 40.8064 49.3728 40.4204ZM89.1504 67.8771C91.752 67.8771 90.2292 54.6246 90.2292 54.6246C90.2292 54.6246 87.7525 67.8771 89.1504 67.8771ZM54.8594 74.7226C57.4142 74.7226 54.9253 59.5266 54.9253 59.5266C54.9253 59.5266 52.7398 74.7226 54.8594 74.7226Z" fill="#3B3B3B"/>
<path d="M62.5931 34.2275V36.2479L67.4472 41.3039L78.7719 36.5178V34.2922C86.0503 36.2055 89.84 39.3203 89.84 36.5022C89.84 35.796 82.6398 32.0732 74.8293 31.2599L78.7719 32.872L67.397 36.6428L62.5931 33.0661L73.3801 31.1428C73.0108 31.1227 72.6404 31.0993 72.2712 31.0937C63.7902 30.9776 55.4297 32.9858 55.4297 34.6414C55.4297 36.0203 58.9227 35.1389 62.5931 34.2275Z" fill="#3B3B3B"/>
</g>
<defs>
<filter id="filter0_d_717_4719" x="0.599602" y="0.599869" width="154" height="147" filterUnits="userSpaceOnUse" color-interpolation-filters="sRGB">
<feFlood flood-opacity="0" result="BackgroundImageFix"/>
<feColorMatrix in="SourceAlpha" type="matrix" values="0 0 0 0 0 0 0 0 0 0 0 0 0 0 0 0 0 0 127 0" result="hardAlpha"/>
<feOffset dx="8.4" dy="14"/>
<feGaussianBlur stdDeviation="14.7"/>
<feComposite in2="hardAlpha" operator="out"/>
<feColorMatrix type="matrix" values="0 0 0 0 0 0 0 0 0 0 0 0 0 0 0 0 0 0 0.1 0"/>
<feBlend mode="normal" in2="BackgroundImageFix" result="effect1_dropShadow_717_4719"/>
<feBlend mode="normal" in="SourceGraphic" in2="effect1_dropShadow_717_4719" result="shape"/>
</filter>
</defs>
</svg>
