<svg width="25" height="19" viewBox="0 0 25 19" fill="none" xmlns="http://www.w3.org/2000/svg">
<path d="M14.7839 6.23118L18.8255 9.30285L22.8672 6.23118C22.9636 6.15789 23.0781 6.09975 23.2041 6.06008C23.3301 6.02042 23.4652 6 23.6016 6C23.738 6 23.873 6.02042 23.999 6.06008C24.125 6.09975 24.2395 6.15789 24.3359 6.23118C24.4324 6.30448 24.5089 6.39149 24.5611 6.48725C24.6133 6.58302 24.6401 6.68565 24.6401 6.78931C24.6401 6.89296 24.6133 6.9956 24.5611 7.09136C24.5089 7.18713 24.4324 7.27414 24.3359 7.34743L19.5547 10.9812C19.1484 11.2899 18.4922 11.2899 18.0859 10.9812L13.3047 7.34743C13.2081 7.27419 13.1315 7.1872 13.0792 7.09143C13.027 6.99566 13.0001 6.89299 13.0001 6.78931C13.0001 6.68562 13.027 6.58296 13.0792 6.48719C13.1315 6.39142 13.2081 6.30442 13.3047 6.23118C13.7109 5.93035 14.3776 5.92243 14.7839 6.23118Z" fill="#3B3B3B"/>
</svg>
