<svg width="9" height="8" viewBox="0 0 9 8" fill="none" xmlns="http://www.w3.org/2000/svg">
<path d="M6.36132 4.39884H4.69525V5.88777C4.69525 5.96675 4.66014 6.04249 4.59765 6.09834C4.53516 6.15419 4.45041 6.18556 4.36204 6.18556C4.27366 6.18556 4.18891 6.15419 4.12642 6.09834C4.06393 6.04249 4.02882 5.96675 4.02882 5.88777V4.39884H2.36275C2.27438 4.39884 2.18963 4.36746 2.12714 4.31162C2.06465 4.25577 2.02954 4.18003 2.02954 4.10105C2.02954 4.02207 2.06465 3.94633 2.12714 3.89048C2.18963 3.83464 2.27438 3.80326 2.36275 3.80326H4.02882V2.31433C4.02882 2.23535 4.06393 2.15961 4.12642 2.10376C4.18891 2.04791 4.27366 2.01654 4.36204 2.01654C4.45041 2.01654 4.53516 2.04791 4.59765 2.10376C4.66014 2.15961 4.69525 2.23535 4.69525 2.31433V3.80326H6.36132C6.44969 3.80326 6.53445 3.83464 6.59694 3.89048C6.65942 3.94633 6.69453 4.02207 6.69453 4.10105C6.69453 4.18003 6.65942 4.25577 6.59694 4.31162C6.53445 4.36746 6.44969 4.39884 6.36132 4.39884Z" fill="black"/>
</svg>
