<svg width="18" height="11" viewBox="0 0 18 11" fill="none" xmlns="http://www.w3.org/2000/svg">
<path d="M13.5901 5.95839H10.0308V8.0429C10.0308 8.15346 9.9558 8.25951 9.8223 8.33769C9.6888 8.41587 9.50773 8.4598 9.31893 8.4598C9.13014 8.4598 8.94907 8.41587 8.81557 8.33769C8.68207 8.25951 8.60707 8.15346 8.60707 8.0429V5.95839H5.04774C4.85894 5.95839 4.67788 5.91446 4.54438 5.83628C4.41088 5.75809 4.33588 5.65205 4.33588 5.54148C4.33588 5.43091 4.41088 5.32487 4.54438 5.24669C4.67788 5.1685 4.85894 5.12458 5.04774 5.12458H8.60707V3.04007C8.60707 2.9295 8.68207 2.82346 8.81557 2.74528C8.94907 2.66709 9.13014 2.62317 9.31893 2.62317C9.50773 2.62317 9.6888 2.66709 9.8223 2.74528C9.9558 2.82346 10.0308 2.9295 10.0308 3.04007V5.12458H13.5901C13.7789 5.12458 13.96 5.1685 14.0935 5.24669C14.227 5.32487 14.302 5.43091 14.302 5.54148C14.302 5.65205 14.227 5.75809 14.0935 5.83628C13.96 5.91446 13.7789 5.95839 13.5901 5.95839Z" fill="black"/>
</svg>
