<svg width="9" height="8" viewBox="0 0 9 8" fill="none" xmlns="http://www.w3.org/2000/svg">
<path d="M6.36138 4.39884H4.69531V5.88777C4.69531 5.96675 4.6602 6.04249 4.59771 6.09834C4.53522 6.15419 4.45047 6.18556 4.3621 6.18556C4.27372 6.18556 4.18897 6.15419 4.12648 6.09834C4.06399 6.04249 4.02888 5.96675 4.02888 5.88777V4.39884H2.36282C2.27444 4.39884 2.18969 4.36746 2.1272 4.31162C2.06471 4.25577 2.0296 4.18003 2.0296 4.10105C2.0296 4.02207 2.06471 3.94633 2.1272 3.89048C2.18969 3.83464 2.27444 3.80326 2.36282 3.80326H4.02888V2.31433C4.02888 2.23535 4.06399 2.15961 4.12648 2.10376C4.18897 2.04791 4.27372 2.01654 4.3621 2.01654C4.45047 2.01654 4.53522 2.04791 4.59771 2.10376C4.6602 2.15961 4.69531 2.23535 4.69531 2.31433V3.80326H6.36138C6.44975 3.80326 6.53451 3.83464 6.597 3.89048C6.65949 3.94633 6.69459 4.02207 6.69459 4.10105C6.69459 4.18003 6.65949 4.25577 6.597 4.31162C6.53451 4.36746 6.44975 4.39884 6.36138 4.39884Z" fill="black"/>
</svg>
