<svg width="23" height="11" viewBox="0 0 23 11" fill="none" xmlns="http://www.w3.org/2000/svg">
<path d="M16.7708 5.95839H12.3785V8.0429C12.3785 8.15346 12.2859 8.25951 12.1212 8.33769C11.9564 8.41587 11.733 8.4598 11.5 8.4598C11.267 8.4598 11.0436 8.41587 10.8788 8.33769C10.7141 8.25951 10.6215 8.15346 10.6215 8.0429V5.95839H6.22918C5.99619 5.95839 5.77275 5.91446 5.60801 5.83628C5.44326 5.75809 5.35071 5.65205 5.35071 5.54148C5.35071 5.43091 5.44326 5.32487 5.60801 5.24669C5.77275 5.1685 5.99619 5.12458 6.22918 5.12458H10.6215V3.04007C10.6215 2.9295 10.7141 2.82346 10.8788 2.74528C11.0436 2.66709 11.267 2.62317 11.5 2.62317C11.733 2.62317 11.9564 2.66709 12.1212 2.74528C12.2859 2.82346 12.3785 2.9295 12.3785 3.04007V5.12458H16.7708C17.0038 5.12458 17.2273 5.1685 17.392 5.24669C17.5568 5.32487 17.6493 5.43091 17.6493 5.54148C17.6493 5.65205 17.5568 5.75809 17.392 5.83628C17.2273 5.91446 17.0038 5.95839 16.7708 5.95839Z" fill="black"/>
</svg>
