<svg width="62" height="45" viewBox="0 0 62 45" fill="none" xmlns="http://www.w3.org/2000/svg">
<g clip-path="url(#clip0_717_2597)">
<path d="M21.4236 16.5475L31.447 23.8225L41.4703 16.5475C41.7095 16.3739 41.9934 16.2362 42.3059 16.1423C42.6184 16.0484 42.9533 16 43.2916 16C43.6298 16 43.9647 16.0484 44.2772 16.1423C44.5897 16.2362 44.8736 16.3739 45.1128 16.5475C45.352 16.7211 45.5417 16.9272 45.6711 17.154C45.8006 17.3808 45.8672 17.6239 45.8672 17.8694C45.8672 18.1149 45.8006 18.358 45.6711 18.5848C45.5417 18.8116 45.352 19.0177 45.1128 19.1913L33.2553 27.7975C32.2478 28.5288 30.6203 28.5288 29.6128 27.7975L17.7553 19.1913C17.5158 19.0178 17.3258 18.8118 17.1962 18.585C17.0665 18.3581 16.9998 18.115 16.9998 17.8694C16.9998 17.6238 17.0665 17.3807 17.1962 17.1539C17.3258 16.927 17.5158 16.721 17.7553 16.5475C18.7628 15.835 20.4161 15.8163 21.4236 16.5475Z" fill="#3B3B3B"/>
</g>
<defs>
<clipPath id="clip0_717_2597">
<rect width="45" height="62" fill="white" transform="matrix(0 1 -1 0 62 0)"/>
</clipPath>
</defs>
</svg>
