<svg width="25" height="20" viewBox="0 0 25 20" fill="none" xmlns="http://www.w3.org/2000/svg">
<path d="M14.7839 7.23118L18.8255 10.3029L22.8672 7.23118C22.9636 7.15789 23.0781 7.09975 23.2041 7.06008C23.3301 7.02042 23.4652 7 23.6016 7C23.738 7 23.873 7.02042 23.999 7.06008C24.125 7.09975 24.2395 7.15789 24.3359 7.23118C24.4324 7.30448 24.5089 7.39149 24.5611 7.48725C24.6133 7.58302 24.6401 7.68565 24.6401 7.78931C24.6401 7.89296 24.6133 7.9956 24.5611 8.09136C24.5089 8.18713 24.4324 8.27414 24.3359 8.34743L19.5547 11.9812C19.1484 12.2899 18.4922 12.2899 18.0859 11.9812L13.3047 8.34743C13.2081 8.27419 13.1315 8.1872 13.0792 8.09143C13.027 7.99566 13.0001 7.89299 13.0001 7.78931C13.0001 7.68562 13.027 7.58296 13.0792 7.48719C13.1315 7.39142 13.2081 7.30442 13.3047 7.23118C13.7109 6.93035 14.3776 6.92243 14.7839 7.23118Z" fill="#3B3B3B"/>
</svg>
