<svg width="39" height="39" viewBox="0 0 39 39" fill="none" xmlns="http://www.w3.org/2000/svg">
<path fill-rule="evenodd" clip-rule="evenodd" d="M6.2002 27.7999C6.2002 27.4816 6.32662 27.1764 6.55167 26.9514C6.77671 26.7263 7.08194 26.5999 7.4002 26.5999H31.4002C31.7185 26.5999 32.0237 26.7263 32.2487 26.9514C32.4738 27.1764 32.6002 27.4816 32.6002 27.7999C32.6002 28.1182 32.4738 28.4234 32.2487 28.6484C32.0237 28.8735 31.7185 28.9999 31.4002 28.9999H7.4002C7.08194 28.9999 6.77671 28.8735 6.55167 28.6484C6.32662 28.4234 6.2002 28.1182 6.2002 27.7999ZM6.2002 18.1999C6.2002 17.8816 6.32662 17.5764 6.55167 17.3514C6.77671 17.1263 7.08194 16.9999 7.4002 16.9999H31.4002C31.7185 16.9999 32.0237 17.1263 32.2487 17.3514C32.4738 17.5764 32.6002 17.8816 32.6002 18.1999C32.6002 18.5182 32.4738 18.8234 32.2487 19.0484C32.0237 19.2735 31.7185 19.3999 31.4002 19.3999H7.4002C7.08194 19.3999 6.77671 19.2735 6.55167 19.0484C6.32662 18.8234 6.2002 18.5182 6.2002 18.1999ZM6.2002 8.5999C6.2002 8.28164 6.32662 7.97642 6.55167 7.75137C6.77671 7.52633 7.08194 7.3999 7.4002 7.3999H31.4002C31.7185 7.3999 32.0237 7.52633 32.2487 7.75137C32.4738 7.97642 32.6002 8.28164 32.6002 8.5999C32.6002 8.91816 32.4738 9.22339 32.2487 9.44843C32.0237 9.67347 31.7185 9.7999 31.4002 9.7999H7.4002C7.08194 9.7999 6.77671 9.67347 6.55167 9.44843C6.32662 9.22339 6.2002 8.91816 6.2002 8.5999Z" fill="#3B3B3B"/>
</svg>
