<svg width="39" height="39" viewBox="0 0 39 39" fill="none" xmlns="http://www.w3.org/2000/svg">
<path fill-rule="evenodd" clip-rule="evenodd" d="M6.19995 27.7999C6.19995 27.4816 6.32638 27.1764 6.55142 26.9514C6.77647 26.7263 7.08169 26.5999 7.39995 26.5999H31.4C31.7182 26.5999 32.0234 26.7263 32.2485 26.9514C32.4735 27.1764 32.6 27.4816 32.6 27.7999C32.6 28.1182 32.4735 28.4234 32.2485 28.6484C32.0234 28.8735 31.7182 28.9999 31.4 28.9999H7.39995C7.08169 28.9999 6.77647 28.8735 6.55142 28.6484C6.32638 28.4234 6.19995 28.1182 6.19995 27.7999ZM6.19995 18.1999C6.19995 17.8816 6.32638 17.5764 6.55142 17.3514C6.77647 17.1263 7.08169 16.9999 7.39995 16.9999H31.4C31.7182 16.9999 32.0234 17.1263 32.2485 17.3514C32.4735 17.5764 32.6 17.8816 32.6 18.1999C32.6 18.5182 32.4735 18.8234 32.2485 19.0484C32.0234 19.2735 31.7182 19.3999 31.4 19.3999H7.39995C7.08169 19.3999 6.77647 19.2735 6.55142 19.0484C6.32638 18.8234 6.19995 18.5182 6.19995 18.1999ZM6.19995 8.5999C6.19995 8.28164 6.32638 7.97642 6.55142 7.75137C6.77647 7.52633 7.08169 7.3999 7.39995 7.3999H31.4C31.7182 7.3999 32.0234 7.52633 32.2485 7.75137C32.4735 7.97642 32.6 8.28164 32.6 8.5999C32.6 8.91816 32.4735 9.22339 32.2485 9.44843C32.0234 9.67347 31.7182 9.7999 31.4 9.7999H7.39995C7.08169 9.7999 6.77647 9.67347 6.55142 9.44843C6.32638 9.22339 6.19995 8.91816 6.19995 8.5999Z" fill="#3B3B3B"/>
</svg>
