<svg width="39" height="39" viewBox="0 0 39 39" fill="none" xmlns="http://www.w3.org/2000/svg">
<g filter="url(#filter0_d_701_4093)">
<path fill-rule="evenodd" clip-rule="evenodd" d="M6.19995 27.7999C6.19995 27.4816 6.32638 27.1764 6.55142 26.9514C6.77647 26.7263 7.08169 26.5999 7.39995 26.5999H31.4C31.7182 26.5999 32.0234 26.7263 32.2485 26.9514C32.4735 27.1764 32.6 27.4816 32.6 27.7999C32.6 28.1182 32.4735 28.4234 32.2485 28.6484C32.0234 28.8735 31.7182 28.9999 31.4 28.9999H7.39995C7.08169 28.9999 6.77647 28.8735 6.55142 28.6484C6.32638 28.4234 6.19995 28.1182 6.19995 27.7999ZM6.19995 18.1999C6.19995 17.8816 6.32638 17.5764 6.55142 17.3514C6.77647 17.1263 7.08169 16.9999 7.39995 16.9999H31.4C31.7182 16.9999 32.0234 17.1263 32.2485 17.3514C32.4735 17.5764 32.6 17.8816 32.6 18.1999C32.6 18.5182 32.4735 18.8234 32.2485 19.0484C32.0234 19.2735 31.7182 19.3999 31.4 19.3999H7.39995C7.08169 19.3999 6.77647 19.2735 6.55142 19.0484C6.32638 18.8234 6.19995 18.5182 6.19995 18.1999ZM6.19995 8.5999C6.19995 8.28164 6.32638 7.97642 6.55142 7.75137C6.77647 7.52633 7.08169 7.3999 7.39995 7.3999H31.4C31.7182 7.3999 32.0234 7.52633 32.2485 7.75137C32.4735 7.97642 32.6 8.28164 32.6 8.5999C32.6 8.91816 32.4735 9.22339 32.2485 9.44843C32.0234 9.67347 31.7182 9.7999 31.4 9.7999H7.39995C7.08169 9.7999 6.77647 9.67347 6.55142 9.44843C6.32638 9.22339 6.19995 8.91816 6.19995 8.5999Z" fill="#3B3B3B"/>
<path d="M6.69995 27.7999C6.69995 27.6143 6.7737 27.4362 6.90498 27.3049C7.03625 27.1737 7.2143 27.0999 7.39995 27.0999H31.4C31.5856 27.0999 31.7637 27.1737 31.8949 27.3049C32.0262 27.4362 32.1 27.6143 32.1 27.7999C32.1 27.9856 32.0262 28.1636 31.8949 28.2949L32.2485 28.6484L31.8949 28.2949C31.7637 28.4262 31.5856 28.4999 31.4 28.4999H7.39995C7.2143 28.4999 7.03625 28.4262 6.90498 28.2949C6.7737 28.1636 6.69995 27.9856 6.69995 27.7999ZM6.69995 18.1999C6.69995 18.0143 6.7737 17.8362 6.90498 17.7049C7.03625 17.5737 7.2143 17.4999 7.39995 17.4999H31.4C31.5856 17.4999 31.7637 17.5737 31.8949 17.7049C32.0262 17.8362 32.1 18.0143 32.1 18.1999C32.1 18.3856 32.0262 18.5636 31.8949 18.6949C31.7637 18.8262 31.5856 18.8999 31.4 18.8999H7.39995C7.2143 18.8999 7.03625 18.8262 6.90498 18.6949C6.7737 18.5636 6.69995 18.3856 6.69995 18.1999ZM6.69995 8.5999C6.69995 8.41425 6.7737 8.2362 6.90498 8.10493C7.03625 7.97365 7.2143 7.8999 7.39995 7.8999H31.4C31.5856 7.8999 31.7637 7.97365 31.8949 8.10493C32.0262 8.2362 32.1 8.41425 32.1 8.5999C32.1 8.78556 32.0262 8.9636 31.8949 9.09488C31.7637 9.22615 31.5856 9.2999 31.4 9.2999H7.39995C7.2143 9.2999 7.03625 9.22615 6.90498 9.09488C6.7737 8.9636 6.69995 8.78555 6.69995 8.5999Z" stroke="black"/>
</g>
<defs>
<filter id="filter0_d_701_4093" x="2.19995" y="7.3999" width="34.3999" height="29.6" filterUnits="userSpaceOnUse" color-interpolation-filters="sRGB">
<feFlood flood-opacity="0" result="BackgroundImageFix"/>
<feColorMatrix in="SourceAlpha" type="matrix" values="0 0 0 0 0 0 0 0 0 0 0 0 0 0 0 0 0 0 127 0" result="hardAlpha"/>
<feOffset dy="4"/>
<feGaussianBlur stdDeviation="2"/>
<feComposite in2="hardAlpha" operator="out"/>
<feColorMatrix type="matrix" values="0 0 0 0 0 0 0 0 0 0 0 0 0 0 0 0 0 0 0.25 0"/>
<feBlend mode="normal" in2="BackgroundImageFix" result="effect1_dropShadow_701_4093"/>
<feBlend mode="normal" in="SourceGraphic" in2="effect1_dropShadow_701_4093" result="shape"/>
</filter>
</defs>
</svg>
