<svg width="13" height="13" viewBox="0 0 13 13" fill="none" xmlns="http://www.w3.org/2000/svg">
<path d="M6.50004 4.87767C7.07467 4.87767 7.62578 5.10594 8.0321 5.51227C8.43843 5.9186 8.66671 6.4697 8.66671 7.04433C8.66671 7.61897 8.43843 8.17007 8.0321 8.5764C7.62578 8.98273 7.07467 9.211 6.50004 9.211C5.9254 9.211 5.3743 8.98273 4.96797 8.5764C4.56165 8.17007 4.33337 7.61897 4.33337 7.04433C4.33337 6.4697 4.56165 5.9186 4.96797 5.51227C5.3743 5.10594 5.9254 4.87767 6.50004 4.87767ZM6.50004 2.97913C8.99875 2.97913 11.1562 4.68538 11.7547 7.07629C11.781 7.1808 11.7646 7.29145 11.7092 7.38389C11.6539 7.47633 11.5641 7.54299 11.4595 7.56921C11.355 7.59543 11.2444 7.57905 11.1519 7.52369C11.0595 7.46833 10.9928 7.37851 10.9666 7.274C10.7158 6.27921 10.1401 5.39662 9.3308 4.76616C8.52147 4.13569 7.52484 3.79346 6.49892 3.7937C5.47301 3.79395 4.47654 4.13668 3.66752 4.76753C2.85849 5.39838 2.28322 6.28126 2.03291 7.27617C2.02 7.32795 1.99702 7.37669 1.96528 7.41959C1.93353 7.46249 1.89365 7.49872 1.8479 7.52621C1.80215 7.5537 1.75144 7.5719 1.69866 7.57979C1.64587 7.58768 1.59205 7.5851 1.54027 7.57219C1.48848 7.55928 1.43975 7.53629 1.39685 7.50455C1.35395 7.4728 1.31772 7.43292 1.29023 7.38717C1.26274 7.34143 1.24453 7.29071 1.23664 7.23793C1.22875 7.18515 1.23134 7.13133 1.24425 7.07954C1.538 5.90808 2.21473 4.86833 3.16695 4.12544C4.11917 3.38254 5.2923 2.97908 6.50004 2.97913Z" fill="white"/>
</svg>
