<svg width="15" height="16" viewBox="0 0 15 16" fill="none" xmlns="http://www.w3.org/2000/svg">
<g clip-path="url(#clip0_1040_3711)">
<path d="M11.008 10.1976C11.9158 8.95886 12.3224 7.42305 12.1465 5.89742C11.9705 4.37179 11.225 2.96885 10.0591 1.96928C8.89316 0.969708 7.39281 0.447223 5.85821 0.506354C4.3236 0.565485 2.86791 1.20187 1.78236 2.2882C0.696818 3.37452 0.0614735 4.83067 0.0034406 6.36531C-0.0545924 7.89996 0.468966 9.39993 1.46937 10.5651C2.46978 11.7303 3.87325 12.4748 5.39901 12.6497C6.92476 12.8246 8.46028 12.4169 9.69836 11.5082H9.69742C9.72555 11.5457 9.75555 11.5813 9.7893 11.616L13.3987 15.2254C13.5745 15.4013 13.8129 15.5002 14.0616 15.5003C14.3103 15.5004 14.5489 15.4017 14.7248 15.2259C14.9007 15.0501 14.9996 14.8116 14.9996 14.5629C14.9997 14.3142 14.901 14.0757 14.7252 13.8998L11.1159 10.2904C11.0823 10.2565 11.0463 10.2261 11.008 10.1976ZM11.2499 6.59384C11.2499 7.27097 11.1166 7.94147 10.8574 8.56706C10.5983 9.19264 10.2185 9.76106 9.73969 10.2399C9.26089 10.7187 8.69247 11.0985 8.06689 11.3576C7.4413 11.6167 6.7708 11.7501 6.09368 11.7501C5.41655 11.7501 4.74605 11.6167 4.12046 11.3576C3.49488 11.0985 2.92646 10.7187 2.44766 10.2399C1.96885 9.76106 1.58905 9.19264 1.32992 8.56706C1.0708 7.94147 0.937426 7.27097 0.937426 6.59384C0.937426 5.22632 1.48067 3.91481 2.44766 2.94783C3.41464 1.98084 4.72615 1.43759 6.09368 1.43759C7.4612 1.43759 8.77271 1.98084 9.73969 2.94783C10.7067 3.91481 11.2499 5.22632 11.2499 6.59384Z" fill="#888888"/>
</g>
<defs>
<clipPath id="clip0_1040_3711">
<rect width="15" height="15" fill="white" transform="translate(0 0.5)"/>
</clipPath>
</defs>
</svg>
