<svg width="18" height="19" viewBox="0 0 18 19" fill="none" xmlns="http://www.w3.org/2000/svg">
<g clip-path="url(#clip0_476_6504)">
<path d="M13.2098 12.1371C14.2991 10.6506 14.787 8.80766 14.5759 6.97691C14.3647 5.14615 13.4701 3.46262 12.071 2.26313C10.6719 1.06365 8.8715 0.436667 7.02997 0.507624C5.18845 0.578582 3.44162 1.34225 2.13896 2.64583C0.836304 3.94942 0.0738903 5.6968 0.00425079 7.53838C-0.0653888 9.37995 0.562881 11.1799 1.76337 12.5782C2.96385 13.9764 4.64802 14.8698 6.47893 15.0796C8.30984 15.2895 10.1525 14.8003 11.6382 13.7099H11.637C11.6708 13.7549 11.7068 13.7976 11.7473 13.8392L16.0785 18.1705C16.2895 18.3816 16.5756 18.5002 16.8741 18.5003C17.1725 18.5004 17.4587 18.382 17.6698 18.1711C17.8809 17.9601 17.9996 17.6739 17.9997 17.3755C17.9998 17.0771 17.8814 16.7908 17.6704 16.5797L13.3392 12.2485C13.2989 12.2078 13.2557 12.1713 13.2098 12.1371ZM13.5 7.81261C13.5 8.62517 13.34 9.42977 13.029 10.1805C12.7181 10.9312 12.2623 11.6133 11.6878 12.1878C11.1132 12.7624 10.4311 13.2182 9.68039 13.5291C8.92968 13.8401 8.12509 14.0001 7.31253 14.0001C6.49998 14.0001 5.69538 13.8401 4.94468 13.5291C4.19398 13.2182 3.51187 12.7624 2.93731 12.1878C2.36275 11.6133 1.90698 10.9312 1.59603 10.1805C1.28508 9.42977 1.12503 8.62517 1.12503 7.81261C1.12503 6.17159 1.77693 4.59777 2.93731 3.43739C4.09769 2.27701 5.67151 1.62511 7.31253 1.62511C8.95356 1.62511 10.5274 2.27701 11.6878 3.43739C12.8481 4.59777 13.5 6.17159 13.5 7.81261Z" fill="#888888"/>
</g>
<defs>
<clipPath id="clip0_476_6504">
<rect width="18" height="18" fill="white" transform="translate(0 0.5)"/>
</clipPath>
</defs>
</svg>
