<svg width="15" height="16" viewBox="0 0 15 16" fill="none" xmlns="http://www.w3.org/2000/svg">
<g clip-path="url(#clip0_701_4410)">
<path d="M11.008 10.1976C11.9158 8.95886 12.3223 7.42305 12.1464 5.89742C11.9704 4.37179 11.2249 2.96885 10.059 1.96928C8.8931 0.969708 7.39275 0.447223 5.85815 0.506354C4.32354 0.565485 2.86785 1.20187 1.7823 2.2882C0.696757 3.37452 0.0614125 4.83067 0.00337956 6.36531C-0.0546534 7.89996 0.468905 9.39993 1.46931 10.5651C2.46971 11.7303 3.87319 12.4748 5.39894 12.6497C6.9247 12.8246 8.46022 12.4169 9.6983 11.5082H9.69736C9.72549 11.5457 9.75549 11.5813 9.78924 11.616L13.3986 15.2254C13.5744 15.4013 13.8129 15.5002 14.0616 15.5003C14.3103 15.5004 14.5488 15.4017 14.7247 15.2259C14.9006 15.0501 14.9995 14.8116 14.9996 14.5629C14.9997 14.3142 14.901 14.0757 14.7252 13.8998L11.1158 10.2904C11.0823 10.2565 11.0462 10.2261 11.008 10.1976ZM11.2499 6.59384C11.2499 7.27097 11.1165 7.94147 10.8574 8.56706C10.5982 9.19264 10.2184 9.76106 9.73963 10.2399C9.26083 10.7187 8.69241 11.0985 8.06683 11.3576C7.44124 11.6167 6.77074 11.7501 6.09361 11.7501C5.41649 11.7501 4.74599 11.6167 4.1204 11.3576C3.49482 11.0985 2.9264 10.7187 2.4476 10.2399C1.96879 9.76106 1.58899 9.19264 1.32986 8.56706C1.07074 7.94147 0.937365 7.27097 0.937365 6.59384C0.937365 5.22632 1.48061 3.91481 2.4476 2.94783C3.41458 1.98084 4.72609 1.43759 6.09361 1.43759C7.46114 1.43759 8.77265 1.98084 9.73963 2.94783C10.7066 3.91481 11.2499 5.22632 11.2499 6.59384Z" fill="#888888"/>
</g>
<defs>
<clipPath id="clip0_701_4410">
<rect width="15" height="15" fill="white" transform="translate(0 0.5)"/>
</clipPath>
</defs>
</svg>
