<svg width="15" height="16" viewBox="0 0 15 16" fill="none" xmlns="http://www.w3.org/2000/svg">
<g clip-path="url(#clip0_701_4507)">
<path d="M11.0081 10.1976C11.9159 8.95886 12.3225 7.42305 12.1465 5.89742C11.9706 4.37179 11.2251 2.96885 10.0591 1.96928C8.89322 0.969708 7.39288 0.447223 5.85827 0.506354C4.32366 0.565485 2.86797 1.20187 1.78243 2.2882C0.696879 3.37452 0.0615346 4.83067 0.00350163 6.36531C-0.0545313 7.89996 0.469027 9.39993 1.46943 10.5651C2.46984 11.7303 3.87331 12.4748 5.39907 12.6497C6.92482 12.8246 8.46034 12.4169 9.69842 11.5082H9.69749C9.72561 11.5457 9.75561 11.5813 9.78936 11.616L13.3987 15.2254C13.5745 15.4013 13.813 15.5002 14.0617 15.5003C14.3104 15.5004 14.5489 15.4017 14.7248 15.2259C14.9007 15.0501 14.9996 14.8116 14.9997 14.5629C14.9998 14.3142 14.9011 14.0757 14.7253 13.8998L11.1159 10.2904C11.0824 10.2565 11.0464 10.2261 11.0081 10.1976ZM11.25 6.59384C11.25 7.27097 11.1166 7.94147 10.8575 8.56706C10.5984 9.19264 10.2186 9.76106 9.73976 10.2399C9.26095 10.7187 8.69253 11.0985 8.06695 11.3576C7.44136 11.6167 6.77086 11.7501 6.09374 11.7501C5.41661 11.7501 4.74611 11.6167 4.12053 11.3576C3.49494 11.0985 2.92652 10.7187 2.44772 10.2399C1.96892 9.76106 1.58911 9.19264 1.32998 8.56706C1.07086 7.94147 0.937487 7.27097 0.937487 6.59384C0.937487 5.22632 1.48073 3.91481 2.44772 2.94783C3.4147 1.98084 4.72621 1.43759 6.09374 1.43759C7.46126 1.43759 8.77277 1.98084 9.73976 2.94783C10.7067 3.91481 11.25 5.22632 11.25 6.59384Z" fill="#888888"/>
</g>
<defs>
<clipPath id="clip0_701_4507">
<rect width="15" height="15" fill="white" transform="translate(0 0.5)"/>
</clipPath>
</defs>
</svg>
