<svg width="39" height="38" viewBox="0 0 39 38" fill="none" xmlns="http://www.w3.org/2000/svg">
<path d="M19.5002 31.6663C19.0516 31.6663 18.6753 31.5143 18.3713 31.2103C18.0673 30.9063 17.9158 30.5306 17.9168 30.083V18.7622L14.9481 21.7309C14.6578 22.0212 14.2815 22.16 13.8192 22.1473C13.3568 22.1347 12.9811 21.9827 12.6918 21.6913C12.4016 21.4011 12.2564 21.0316 12.2564 20.583C12.2564 20.1344 12.4016 19.765 12.6918 19.4747L18.3918 13.7747C18.5502 13.6163 18.7217 13.5045 18.9064 13.439C19.0911 13.3736 19.2891 13.3403 19.5002 13.3393C19.7113 13.3393 19.9092 13.3725 20.0939 13.439C20.2786 13.5055 20.4502 13.6174 20.6085 13.7747L26.3085 19.4747C26.5988 19.765 26.7439 20.1344 26.7439 20.583C26.7439 21.0316 26.5988 21.4011 26.3085 21.6913C26.0182 21.9816 25.6419 22.1336 25.1796 22.1473C24.7173 22.1611 24.3415 22.0223 24.0523 21.7309L21.0835 18.7622V30.083C21.0835 30.5316 20.9315 30.9079 20.6275 31.2119C20.3235 31.5159 19.9477 31.6674 19.5002 31.6663ZM8.41683 14.2497C7.96822 14.2497 7.59192 14.0977 7.28792 13.7937C6.98392 13.4897 6.83245 13.1139 6.8335 12.6663V9.49968C6.8335 8.62884 7.14383 7.88309 7.7645 7.26243C8.38517 6.64176 9.13039 6.33195 10.0002 6.33301H29.0002C29.871 6.33301 30.6168 6.64334 31.2374 7.26401C31.8581 7.88468 32.1679 8.6299 32.1668 9.49968V12.6663C32.1668 13.115 32.0148 13.4913 31.7108 13.7953C31.4068 14.0993 31.0311 14.2507 30.5835 14.2497C30.1349 14.2497 29.7586 14.0977 29.4546 13.7937C29.1506 13.4897 28.9991 13.1139 29.0002 12.6663V9.49968H10.0002V12.6663C10.0002 13.115 9.84817 13.4913 9.54417 13.7953C9.24017 14.0993 8.86439 14.2507 8.41683 14.2497Z" fill="white"/>
</svg>
