<svg width="24" height="24" viewBox="0 0 24 24" fill="none" xmlns="http://www.w3.org/2000/svg">
<path d="M12 20C11.7167 20 11.479 19.904 11.287 19.712C11.095 19.52 10.9993 19.2827 11 19V11.85L9.125 13.725C8.94167 13.9083 8.704 13.996 8.412 13.988C8.12 13.98 7.88267 13.884 7.7 13.7C7.51667 13.5167 7.425 13.2833 7.425 13C7.425 12.7167 7.51667 12.4833 7.7 12.3L11.3 8.7C11.4 8.6 11.5083 8.52934 11.625 8.488C11.7417 8.44667 11.8667 8.42567 12 8.425C12.1333 8.425 12.2583 8.446 12.375 8.488C12.4917 8.53 12.6 8.60067 12.7 8.7L16.3 12.3C16.4833 12.4833 16.575 12.7167 16.575 13C16.575 13.2833 16.4833 13.5167 16.3 13.7C16.1167 13.8833 15.879 13.9793 15.587 13.988C15.295 13.9967 15.0577 13.909 14.875 13.725L13 11.85V19C13 19.2833 12.904 19.521 12.712 19.713C12.52 19.905 12.2827 20.0007 12 20ZM5 9C4.71667 9 4.479 8.904 4.287 8.712C4.095 8.52 3.99934 8.28267 4 8V6C4 5.45 4.196 4.979 4.588 4.587C4.98 4.195 5.45067 3.99934 6 4H18C18.55 4 19.021 4.196 19.413 4.588C19.805 4.98 20.0007 5.45067 20 6V8C20 8.28334 19.904 8.521 19.712 8.713C19.52 8.905 19.2827 9.00067 19 9C18.7167 9 18.479 8.904 18.287 8.712C18.095 8.52 17.9993 8.28267 18 8V6H6V8C6 8.28334 5.904 8.521 5.712 8.713C5.52 8.905 5.28267 9.00067 5 9Z" fill="white"/>
</svg>
