<svg width="21" height="21" viewBox="0 0 21 21" fill="none" xmlns="http://www.w3.org/2000/svg">
<path d="M10.5 4.8125C11.3122 4.8125 12.0912 5.13516 12.6655 5.70949C13.2398 6.28382 13.5625 7.06277 13.5625 7.875C13.5625 8.68723 13.2398 9.46618 12.6655 10.0405C12.0912 10.6148 11.3122 10.9375 10.5 10.9375C9.68777 10.9375 8.90882 10.6148 8.33449 10.0405C7.76016 9.46618 7.4375 8.68723 7.4375 7.875C7.4375 7.06277 7.76016 6.28382 8.33449 5.70949C8.90882 5.13516 9.68777 4.8125 10.5 4.8125ZM4.375 7C4.865 7 5.32 7.13125 5.71375 7.3675C5.5825 8.61875 5.95 9.86125 6.7025 10.8325C6.265 11.6725 5.39 12.25 4.375 12.25C3.67881 12.25 3.01113 11.9734 2.51884 11.4812C2.02656 10.9889 1.75 10.3212 1.75 9.625C1.75 8.92881 2.02656 8.26113 2.51884 7.76884C3.01113 7.27656 3.67881 7 4.375 7ZM16.625 7C17.3212 7 17.9889 7.27656 18.4812 7.76884C18.9734 8.26113 19.25 8.92881 19.25 9.625C19.25 10.3212 18.9734 10.9889 18.4812 11.4812C17.9889 11.9734 17.3212 12.25 16.625 12.25C15.61 12.25 14.735 11.6725 14.2975 10.8325C15.0604 9.84762 15.4145 8.60667 15.2862 7.3675C15.68 7.13125 16.135 7 16.625 7ZM4.8125 15.9688C4.8125 14.1575 7.35875 12.6875 10.5 12.6875C13.6412 12.6875 16.1875 14.1575 16.1875 15.9688V17.5H4.8125V15.9688ZM0 17.5V16.1875C0 14.9712 1.65375 13.9475 3.89375 13.65C3.3775 14.245 3.0625 15.0675 3.0625 15.9688V17.5H0ZM21 17.5H17.9375V15.9688C17.9375 15.0675 17.6225 14.245 17.1062 13.65C19.3462 13.9475 21 14.9712 21 16.1875V17.5Z" fill="#3B3B3B"/>
</svg>
