<svg width="27" height="27" viewBox="0 0 27 27" fill="none" xmlns="http://www.w3.org/2000/svg">
<g clip-path="url(#clip0_665_5576)">
<path d="M13.625 6.76569C14.6403 6.76569 15.614 7.16901 16.3319 7.88692C17.0498 8.60483 17.4531 9.57853 17.4531 10.5938C17.4531 11.6091 17.0498 12.5828 16.3319 13.3007C15.614 14.0186 14.6403 14.4219 13.625 14.4219C12.6097 14.4219 11.636 14.0186 10.9181 13.3007C10.2002 12.5828 9.79688 11.6091 9.79688 10.5938C9.79688 9.57853 10.2002 8.60483 10.9181 7.88692C11.636 7.16901 12.6097 6.76569 13.625 6.76569ZM5.96875 9.50006C6.58125 9.50006 7.15 9.66412 7.64219 9.95944C7.47813 11.5235 7.9375 13.0766 8.87813 14.2907C8.33125 15.3407 7.2375 16.0626 5.96875 16.0626C5.09851 16.0626 4.26391 15.7169 3.64856 15.1015C3.0332 14.4862 2.6875 13.6516 2.6875 12.7813C2.6875 11.9111 3.0332 11.0765 3.64856 10.4611C4.26391 9.84576 5.09851 9.50006 5.96875 9.50006ZM21.2812 9.50006C22.1515 9.50006 22.9861 9.84576 23.6014 10.4611C24.2168 11.0765 24.5625 11.9111 24.5625 12.7813C24.5625 13.6516 24.2168 14.4862 23.6014 15.1015C22.9861 15.7169 22.1515 16.0626 21.2812 16.0626C20.0125 16.0626 18.9188 15.3407 18.3719 14.2907C19.3255 13.0596 19.7681 11.5084 19.6078 9.95944C20.1 9.66412 20.6688 9.50006 21.2812 9.50006ZM6.51562 20.711C6.51562 18.4469 9.69844 16.6094 13.625 16.6094C17.5516 16.6094 20.7344 18.4469 20.7344 20.711V22.6251H6.51562V20.711ZM0.5 22.6251V20.9844C0.5 19.4641 2.56719 18.1844 5.36719 17.8126C4.72187 18.5563 4.32812 19.5844 4.32812 20.711V22.6251H0.5ZM26.75 22.6251H22.9219V20.711C22.9219 19.5844 22.5281 18.5563 21.8828 17.8126C24.6828 18.1844 26.75 19.4641 26.75 20.9844V22.6251Z" fill="#3B3B3B"/>
</g>
<defs>
<clipPath id="clip0_665_5576">
<rect width="26.25" height="26.25" fill="white" transform="translate(0.5 0.75)"/>
</clipPath>
</defs>
</svg>
