<svg width="35" height="35" viewBox="0 0 35 35" fill="none" xmlns="http://www.w3.org/2000/svg">
<g clip-path="url(#clip0_717_2595)">
<path d="M17.4985 8.02051C18.8522 8.02051 20.1505 8.55827 21.1077 9.51548C22.0649 10.4727 22.6027 11.771 22.6027 13.1247C22.6027 14.4784 22.0649 15.7766 21.1077 16.7339C20.1505 17.6911 18.8522 18.2288 17.4985 18.2288C16.1448 18.2288 14.8466 17.6911 13.8893 16.7339C12.9321 15.7766 12.3944 14.4784 12.3944 13.1247C12.3944 11.771 12.9321 10.4727 13.8893 9.51548C14.8466 8.55827 16.1448 8.02051 17.4985 8.02051ZM7.2902 11.6663C8.10687 11.6663 8.8652 11.8851 9.52145 12.2788C9.3027 14.3643 9.9152 16.4351 11.1694 18.0538C10.4402 19.4538 8.98187 20.4163 7.2902 20.4163C6.12988 20.4163 5.01708 19.9554 4.19661 19.1349C3.37614 18.3145 2.9152 17.2017 2.9152 16.0413C2.9152 14.881 3.37614 13.7682 4.19661 12.9477C5.01708 12.1273 6.12988 11.6663 7.2902 11.6663ZM27.7069 11.6663C28.8672 11.6663 29.98 12.1273 30.8005 12.9477C31.6209 13.7682 32.0819 14.881 32.0819 16.0413C32.0819 17.2017 31.6209 18.3145 30.8005 19.1349C29.98 19.9554 28.8672 20.4163 27.7069 20.4163C26.0152 20.4163 24.5569 19.4538 23.8277 18.0538C25.0992 16.4124 25.6894 14.3441 25.4756 12.2788C26.1319 11.8851 26.8902 11.6663 27.7069 11.6663ZM8.01937 26.6143C8.01937 23.5955 12.2631 21.1455 17.4985 21.1455C22.734 21.1455 26.9777 23.5955 26.9777 26.6143V29.1663H8.01937V26.6143ZM-0.00146484 29.1663V26.9788C-0.00146484 24.9518 2.75479 23.2455 6.48812 22.7497C5.6277 23.7413 5.1027 25.1122 5.1027 26.6143V29.1663H-0.00146484ZM34.9985 29.1663H29.8944V26.6143C29.8944 25.1122 29.3694 23.7413 28.509 22.7497C32.2423 23.2455 34.9985 24.9518 34.9985 26.9788V29.1663Z" fill="#3B3B3B"/>
</g>
<defs>
<clipPath id="clip0_717_2595">
<rect width="35" height="35" fill="white"/>
</clipPath>
</defs>
</svg>
