<svg width="20" height="20" viewBox="0 0 20 20" fill="none" xmlns="http://www.w3.org/2000/svg">
<g clip-path="url(#clip0_701_2278)">
<path d="M9.99927 4.58325C10.7728 4.58325 11.5147 4.89054 12.0617 5.43752C12.6086 5.98451 12.9159 6.72637 12.9159 7.49992C12.9159 8.27347 12.6086 9.01533 12.0617 9.56231C11.5147 10.1093 10.7728 10.4166 9.99927 10.4166C9.22572 10.4166 8.48385 10.1093 7.93687 9.56231C7.38989 9.01533 7.0826 8.27347 7.0826 7.49992C7.0826 6.72637 7.38989 5.98451 7.93687 5.43752C8.48385 4.89054 9.22572 4.58325 9.99927 4.58325ZM4.16593 6.66659C4.6326 6.66659 5.06593 6.79159 5.44093 7.01659C5.31593 8.20825 5.66593 9.39159 6.3826 10.3166C5.96593 11.1166 5.1326 11.6666 4.16593 11.6666C3.50289 11.6666 2.86701 11.4032 2.39817 10.9344C1.92933 10.4655 1.66593 9.82963 1.66593 9.16658C1.66593 8.50354 1.92933 7.86766 2.39817 7.39882C2.86701 6.92998 3.50289 6.66659 4.16593 6.66659ZM15.8326 6.66659C16.4956 6.66659 17.1315 6.92998 17.6004 7.39882C18.0692 7.86766 18.3326 8.50354 18.3326 9.16658C18.3326 9.82963 18.0692 10.4655 17.6004 10.9344C17.1315 11.4032 16.4956 11.6666 15.8326 11.6666C14.8659 11.6666 14.0326 11.1166 13.6159 10.3166C14.3425 9.3786 14.6797 8.19675 14.5576 7.01659C14.9326 6.79159 15.3659 6.66659 15.8326 6.66659ZM4.5826 15.2083C4.5826 13.4833 7.0076 12.0833 9.99927 12.0833C12.9909 12.0833 15.4159 13.4833 15.4159 15.2083V16.6666H4.5826V15.2083ZM-0.000732422 16.6666V15.4166C-0.000732422 14.2583 1.57427 13.2833 3.7076 12.9999C3.21593 13.5666 2.91593 14.3499 2.91593 15.2083V16.6666H-0.000732422ZM19.9993 16.6666H17.0826V15.2083C17.0826 14.3499 16.7826 13.5666 16.2909 12.9999C18.4243 13.2833 19.9993 14.2583 19.9993 15.4166V16.6666Z" fill="#3B3B3B"/>
</g>
<defs>
<clipPath id="clip0_701_2278">
<rect width="20" height="20" fill="white"/>
</clipPath>
</defs>
</svg>
