<svg width="21" height="21" viewBox="0 0 21 21" fill="none" xmlns="http://www.w3.org/2000/svg">
<path d="M10.1719 2.625C10.4329 2.625 10.6833 2.72871 10.8679 2.91332C11.0525 3.09792 11.1562 3.3483 11.1562 3.60938V9.1875H16.7344C16.9954 9.1875 17.2458 9.29121 17.4304 9.47582C17.615 9.66042 17.7188 9.9108 17.7188 10.1719C17.7188 10.4329 17.615 10.6833 17.4304 10.8679C17.2458 11.0525 16.9954 11.1562 16.7344 11.1562H11.1562V16.7344C11.1562 16.9954 11.0525 17.2458 10.8679 17.4304C10.6833 17.615 10.4329 17.7188 10.1719 17.7188C9.9108 17.7188 9.66042 17.615 9.47582 17.4304C9.29121 17.2458 9.1875 16.9954 9.1875 16.7344V11.1562H3.60938C3.3483 11.1562 3.09792 11.0525 2.91332 10.8679C2.72871 10.6833 2.625 10.4329 2.625 10.1719C2.625 9.9108 2.72871 9.66042 2.91332 9.47582C3.09792 9.29121 3.3483 9.1875 3.60938 9.1875H9.1875V3.60938C9.1875 3.3483 9.29121 3.09792 9.47582 2.91332C9.66042 2.72871 9.9108 2.625 10.1719 2.625Z" fill="white"/>
</svg>
