<svg width="75" height="74" viewBox="0 0 75 74" fill="none" xmlns="http://www.w3.org/2000/svg">
<g clip-path="url(#clip0_701_3837)" filter="url(#filter0_d_701_3837)">
<g filter="url(#filter1_d_701_3837)">
<ellipse cx="32.4411" cy="25.5882" rx="10.3529" ry="10.8235" fill="white"/>
<path d="M47.5 27C47.5 31.2435 45.8143 35.3131 42.8137 38.3137C39.8131 41.3143 35.7435 43 31.5 43C27.2565 43 23.1869 41.3143 20.1863 38.3137C17.1857 35.3131 15.5 31.2435 15.5 27C15.5 22.7565 17.1857 18.6869 20.1863 15.6863C23.1869 12.6857 27.2565 11 31.5 11C35.7435 11 39.8131 12.6857 42.8137 15.6863C45.8143 18.6869 47.5 22.7565 47.5 27ZM32.5 20C32.5 19.7348 32.3946 19.4804 32.2071 19.2929C32.0196 19.1054 31.7652 19 31.5 19C31.2348 19 30.9804 19.1054 30.7929 19.2929C30.6054 19.4804 30.5 19.7348 30.5 20V26H24.5C24.2348 26 23.9804 26.1054 23.7929 26.2929C23.6054 26.4804 23.5 26.7348 23.5 27C23.5 27.2652 23.6054 27.5196 23.7929 27.7071C23.9804 27.8946 24.2348 28 24.5 28H30.5V34C30.5 34.2652 30.6054 34.5196 30.7929 34.7071C30.9804 34.8946 31.2348 35 31.5 35C31.7652 35 32.0196 34.8946 32.2071 34.7071C32.3946 34.5196 32.5 34.2652 32.5 34V28H38.5C38.7652 28 39.0196 27.8946 39.2071 27.7071C39.3946 27.5196 39.5 27.2652 39.5 27C39.5 26.7348 39.3946 26.4804 39.2071 26.2929C39.0196 26.1054 38.7652 26 38.5 26H32.5V20Z" fill="#F16E00"/>
</g>
</g>
<defs>
<filter id="filter0_d_701_3837" x="0.5" y="-2" width="76" height="76" filterUnits="userSpaceOnUse" color-interpolation-filters="sRGB">
<feFlood flood-opacity="0" result="BackgroundImageFix"/>
<feColorMatrix in="SourceAlpha" type="matrix" values="0 0 0 0 0 0 0 0 0 0 0 0 0 0 0 0 0 0 127 0" result="hardAlpha"/>
<feOffset dx="6" dy="10"/>
<feGaussianBlur stdDeviation="10.5"/>
<feComposite in2="hardAlpha" operator="out"/>
<feColorMatrix type="matrix" values="0 0 0 0 0 0 0 0 0 0 0 0 0 0 0 0 0 0 0.1 0"/>
<feBlend mode="normal" in2="BackgroundImageFix" result="effect1_dropShadow_701_3837"/>
<feBlend mode="normal" in="SourceGraphic" in2="effect1_dropShadow_701_3837" result="shape"/>
</filter>
<filter id="filter1_d_701_3837" x="0.5" y="0" width="74" height="74" filterUnits="userSpaceOnUse" color-interpolation-filters="sRGB">
<feFlood flood-opacity="0" result="BackgroundImageFix"/>
<feColorMatrix in="SourceAlpha" type="matrix" values="0 0 0 0 0 0 0 0 0 0 0 0 0 0 0 0 0 0 127 0" result="hardAlpha"/>
<feOffset dx="6" dy="10"/>
<feGaussianBlur stdDeviation="10.5"/>
<feComposite in2="hardAlpha" operator="out"/>
<feColorMatrix type="matrix" values="0 0 0 0 0 0 0 0 0 0 0 0 0 0 0 0 0 0 0.1 0"/>
<feBlend mode="normal" in2="BackgroundImageFix" result="effect1_dropShadow_701_3837"/>
<feBlend mode="normal" in="SourceGraphic" in2="effect1_dropShadow_701_3837" result="shape"/>
</filter>
<clipPath id="clip0_701_3837">
<rect width="34" height="34" fill="white" transform="translate(15.5 9)"/>
</clipPath>
</defs>
</svg>
