<svg width="32" height="32" viewBox="0 0 32 32" fill="none" xmlns="http://www.w3.org/2000/svg">
<circle cx="16" cy="16" r="16" fill="#AEC79F"/>
<path d="M23.3333 17.2196H17.2222V23.3307C17.2222 23.6549 17.0935 23.9658 16.8643 24.195C16.635 24.4242 16.3242 24.5529 16 24.5529C15.6759 24.5529 15.365 24.4242 15.1358 24.195C14.9066 23.9658 14.7778 23.6549 14.7778 23.3307V17.2196H8.66668C8.34253 17.2196 8.03165 17.0908 7.80244 16.8616C7.57323 16.6324 7.44446 16.3215 7.44446 15.9974C7.44446 15.6732 7.57323 15.3624 7.80244 15.1331C8.03165 14.9039 8.34253 14.7752 8.66668 14.7752H14.7778V8.66406C14.7778 8.3399 14.9066 8.02902 15.1358 7.79981C15.365 7.5706 15.6759 7.44183 16 7.44183C16.3242 7.44183 16.635 7.5706 16.8643 7.79981C17.0935 8.02902 17.2222 8.3399 17.2222 8.66406V14.7752H23.3333C23.6575 14.7752 23.9684 14.9039 24.1976 15.1331C24.4268 15.3624 24.5556 15.6732 24.5556 15.9974C24.5556 16.3215 24.4268 16.6324 24.1976 16.8616C23.9684 17.0908 23.6575 17.2196 23.3333 17.2196Z" fill="#3B3B3B"/>
</svg>
