<svg width="40" height="40" viewBox="0 0 40 40" fill="none" xmlns="http://www.w3.org/2000/svg">
<circle cx="20" cy="20" r="20" fill="#AEC79F"/>
<path d="M29.1663 21.5259H21.5274V29.1648C21.5274 29.57 21.3664 29.9586 21.0799 30.2451C20.7934 30.5316 20.4048 30.6926 19.9996 30.6926C19.5944 30.6926 19.2058 30.5316 18.9193 30.2451C18.6328 29.9586 18.4718 29.57 18.4718 29.1648V21.5259H10.833C10.4278 21.5259 10.0392 21.365 9.75265 21.0785C9.46614 20.7919 9.30518 20.4033 9.30518 19.9982C9.30518 19.593 9.46614 19.2044 9.75265 18.9179C10.0392 18.6313 10.4278 18.4704 10.833 18.4704H18.4718V10.8315C18.4718 10.4263 18.6328 10.0377 18.9193 9.75119C19.2058 9.46467 19.5944 9.30371 19.9996 9.30371C20.4048 9.30371 20.7934 9.46467 21.0799 9.75119C21.3664 10.0377 21.5274 10.4263 21.5274 10.8315V18.4704H29.1663C29.5715 18.4704 29.9601 18.6313 30.2466 18.9179C30.5331 19.2044 30.6941 19.593 30.6941 19.9982C30.6941 20.4033 30.5331 20.7919 30.2466 21.0785C29.9601 21.365 29.5715 21.5259 29.1663 21.5259Z" fill="#3B3B3B"/>
</svg>
