<svg width="47" height="47" viewBox="0 0 47 47" fill="none" xmlns="http://www.w3.org/2000/svg">
<path d="M41.125 29.375V35.25H47V39.1667H41.125V45.0417H37.2084V39.1667H31.3334V35.25H37.2084V29.375H41.125ZM41.1407 5.875C42.2139 5.875 43.0834 6.74646 43.0834 7.81963V25.4583H39.1667V9.79167H7.83335V37.2064L27.4167 17.625L33.2917 23.5V29.0401L27.4167 23.1651L13.3696 37.2083H27.4167V41.125H5.85935C5.34395 41.1245 4.84983 40.9194 4.48556 40.5547C4.1213 40.1901 3.91669 39.6958 3.91669 39.1804V7.81963C3.92027 7.30532 4.12603 6.81308 4.48952 6.44922C4.85302 6.08536 5.34506 5.8791 5.85935 5.875H41.1407ZM15.6667 13.7083C16.7055 13.7083 17.7017 14.121 18.4362 14.8555C19.1707 15.59 19.5834 16.5862 19.5834 17.625C19.5834 18.6638 19.1707 19.66 18.4362 20.3945C17.7017 21.129 16.7055 21.5417 15.6667 21.5417C14.6279 21.5417 13.6317 21.129 12.8972 20.3945C12.1627 19.66 11.75 18.6638 11.75 17.625C11.75 16.5862 12.1627 15.59 12.8972 14.8555C13.6317 14.121 14.6279 13.7083 15.6667 13.7083Z" fill="#3B3B3B"/>
</svg>
