<svg width="72" height="73" viewBox="0 0 72 73" fill="none" xmlns="http://www.w3.org/2000/svg">
<g clip-path="url(#clip0_670_5525)">
<path d="M62.3136 45.3795V54.418H71.0823V60.4436H62.3136V69.4821H56.4679V60.4436H47.6992V54.418H56.4679V45.3795H62.3136ZM62.337 9.22559C63.9388 9.22559 65.2365 10.5663 65.2365 12.2173V39.3539H59.3908V15.2512H12.6246V57.4278L41.8534 27.3025L50.6221 36.341V44.8643L41.8534 35.8258L20.8876 57.4308H41.8534V63.4565H9.67831C8.90905 63.4557 8.17155 63.1401 7.62788 62.5791C7.0842 62.0182 6.77881 61.2577 6.77881 60.4647V12.2173C6.78416 11.4261 7.09127 10.6688 7.63379 10.109C8.17631 9.54922 8.9107 9.2319 9.67831 9.22559H62.337ZM24.3161 21.2769C25.8665 21.2769 27.3534 21.9117 28.4497 23.0418C29.546 24.1718 30.1619 25.7044 30.1619 27.3025C30.1619 28.9006 29.546 30.4333 28.4497 31.5633C27.3534 32.6934 25.8665 33.3282 24.3161 33.3282C22.7657 33.3282 21.2788 32.6934 20.1825 31.5633C19.0862 30.4333 18.4704 28.9006 18.4704 27.3025C18.4704 25.7044 19.0862 24.1718 20.1825 23.0418C21.2788 21.9117 22.7657 21.2769 24.3161 21.2769Z" fill="#3B3B3B"/>
</g>
<defs>
<clipPath id="clip0_670_5525">
<rect width="70.1493" height="72.3078" fill="white" transform="translate(0.933105 0.1875)"/>
</clipPath>
</defs>
</svg>
