<svg width="47" height="47" viewBox="0 0 47 47" fill="none" xmlns="http://www.w3.org/2000/svg">
<path d="M41.125 29.375V35.25H47V39.1667H41.125V45.0417H37.2083V39.1667H31.3333V35.25H37.2083V29.375H41.125ZM41.1406 5.875C42.2138 5.875 43.0833 6.74646 43.0833 7.81963V25.4583H39.1666V9.79167H7.83329V37.2064L27.4166 17.625L33.2916 23.5V29.0401L27.4166 23.1651L13.3695 37.2083H27.4166V41.125H5.85929C5.34389 41.1245 4.84977 40.9194 4.4855 40.5547C4.12124 40.1901 3.91663 39.6958 3.91663 39.1804V7.81963C3.92021 7.30532 4.12597 6.81308 4.48946 6.44922C4.85296 6.08536 5.345 5.8791 5.85929 5.875H41.1406ZM15.6666 13.7083C16.7054 13.7083 17.7016 14.121 18.4361 14.8555C19.1706 15.59 19.5833 16.5862 19.5833 17.625C19.5833 18.6638 19.1706 19.66 18.4361 20.3945C17.7016 21.129 16.7054 21.5417 15.6666 21.5417C14.6279 21.5417 13.6316 21.129 12.8971 20.3945C12.1626 19.66 11.75 18.6638 11.75 17.625C11.75 16.5862 12.1626 15.59 12.8971 14.8555C13.6316 14.121 14.6279 13.7083 15.6666 13.7083Z" fill="#3B3B3B"/>
</svg>
