<svg width="348" height="341" viewBox="0 0 348 341" fill="none" xmlns="http://www.w3.org/2000/svg">
<path fill-rule="evenodd" clip-rule="evenodd" d="M32.9454 185.399L33.0624 184.085L33.1814 182.773L33.3027 181.46L33.4263 180.149L33.5526 178.836L33.6818 177.524L33.8141 176.21L33.95 174.896L34.0897 173.579L34.2337 172.261L34.383 170.941L34.5387 169.618L34.7024 168.294L34.8761 166.967L35.0617 165.64L35.2613 164.31L35.4773 162.981L35.7119 161.652L35.9675 160.324L36.2461 158.998L36.5501 157.675L36.8815 156.357L37.2421 155.044L37.6337 153.739L38.0579 152.442L38.5162 151.155L39.0098 149.879L39.5397 148.616L40.1068 147.368L40.7119 146.136L41.3555 144.921L42.0381 143.725L42.7595 142.549L43.5195 141.395L44.3176 140.264L45.1528 139.157L46.0241 138.074L46.93 137.017L47.869 135.985L48.8392 134.979L49.8386 133.999L50.8651 133.045L51.9164 132.116L52.99 131.212L54.0837 130.333L55.1948 129.476L56.3207 128.642L57.4591 127.828L58.6074 127.034L59.7631 126.257L60.9239 125.496L62.0876 124.749L63.252 124.014L64.4151 123.289L65.5752 122.571L66.7305 121.859L67.8796 121.151L69.0212 120.444L70.1543 119.736L71.278 119.025L72.3915 118.309L73.4946 117.586L74.5869 116.854L75.6684 116.111L76.7393 115.356L77.7999 114.587L78.8509 113.803L79.8929 113.003L80.9268 112.185L81.9536 111.35L82.9746 110.495L83.9909 109.622L85.004 108.729L86.0153 107.817L87.0264 106.885L88.0388 105.934L89.0542 104.965L90.0743 103.978L91.1007 102.974L92.135 101.953L93.1788 100.918L94.2338 99.8685L95.3014 98.8068L96.3831 97.7339L97.4804 96.6514L98.5945 95.5608L99.7266 94.4631L100.877 93.3591L102.048 92.2495L103.238 91.1344L104.449 90.0138L105.682 88.8875L106.936 87.7552L108.213 86.6163L109.512 85.4701L110.834 84.3161L112.181 83.1535L113.551 81.9815L114.947 80.7997L116.369 79.6074L117.818 78.4044L119.294 77.1905L120.799 75.9658L122.334 74.7309L123.899 73.4864L125.496 72.2337L127.126 70.9743L128.789 69.7101L130.487 68.4431L132.22 67.1758L133.988 65.9105L135.793 64.6497L137.634 63.3963L139.513 62.1533L141.428 60.9236L143.38 59.7106L145.369 58.5176L147.394 57.348L149.455 56.2056L151.551 55.0939L153.681 54.0167L155.843 52.9779L158.036 51.9813L160.259 51.0307L162.51 50.13L164.787 49.2831L167.087 48.4937L169.408 47.7655L171.748 47.1023L174.103 46.5074L176.471 45.9843L178.848 45.5362L181.232 45.1661L183.618 44.8771L186.003 44.6716L188.383 44.5521L190.755 44.5208L193.114 44.5797L195.458 44.7303L197.781 44.9741L200.08 45.3121L202.351 45.745L204.589 46.2734L206.792 46.8973L208.955 47.6165L211.075 48.4305L213.147 49.3384L215.169 50.3392L217.137 51.4312L219.048 52.6127L220.9 53.8816L222.689 55.2354L224.413 56.6715L226.069 58.1869L227.657 59.7783L229.175 61.4422L230.62 63.1751L231.992 64.9729L233.291 66.8317L234.516 68.747L235.667 70.7146L236.745 72.7299L237.75 74.7881L238.683 76.8839L239.548 79.0122L240.345 81.1675L241.079 83.3444L241.752 85.5374L242.369 87.7411L242.933 89.95L243.45 92.159L243.923 94.363L244.359 96.5574L244.762 98.7374L245.139 100.899L245.495 103.038L245.835 105.152L246.166 107.237L246.494 109.29L246.823 111.31L247.159 113.295L247.507 115.243L247.873 117.154L248.261 119.027L248.674 120.863L249.118 122.662L249.594 124.426L250.106 126.154L250.657 127.85L251.249 129.515L251.882 131.151L252.559 132.762L253.278 134.349L254.04 135.915L254.845 137.464L255.69 138.999L256.574 140.524L257.494 142.04L258.448 143.553L259.431 145.065L260.441 146.579L261.472 148.099L262.519 149.626L263.578 151.165L264.643 152.718L265.707 154.286L266.766 155.872L267.812 157.478L268.839 159.105L269.841 160.755L270.81 162.427L271.741 164.123L272.627 165.842L273.461 167.584L274.237 169.35L274.949 171.136L275.591 172.944L276.158 174.77L276.645 176.613L277.047 178.471L277.359 180.342L277.578 182.222L277.701 184.11L277.724 186.001L277.646 187.893L277.465 189.783L277.179 191.666L276.789 193.541L276.294 195.402L275.696 197.248L274.995 199.074L274.193 200.877L273.293 202.655L272.297 204.404L271.21 206.121L270.036 207.805L268.778 209.452L267.442 211.061L266.033 212.63L264.556 214.157L263.019 215.642L261.428 217.084L259.788 218.483L258.107 219.838L256.392 221.149L254.651 222.419L252.889 223.647L251.115 224.836L249.335 225.987L247.557 227.103L245.785 228.185L244.028 229.237L242.291 230.262L240.579 231.262L238.897 232.242L237.251 233.204L235.644 234.152L234.081 235.09L232.563 236.022L231.094 236.95L229.675 237.879L228.308 238.811L226.995 239.751L225.736 240.702L224.53 241.666L223.378 242.647L222.279 243.647L221.232 244.67L220.234 245.716L219.284 246.788L218.378 247.887L217.514 249.015L216.689 250.173L215.899 251.36L215.14 252.577L214.408 253.823L213.698 255.098L213.005 256.4L212.326 257.728L211.655 259.08L210.988 260.453L210.319 261.844L209.644 263.251L208.958 264.669L208.256 266.096L207.535 267.526L206.789 268.955L206.016 270.379L205.21 271.793L204.369 273.192L203.491 274.571L202.571 275.925L201.608 277.249L200.599 278.537L199.544 279.785L198.441 280.987L197.29 282.139L196.089 283.237L194.84 284.275L193.543 285.25L192.198 286.159L190.808 286.997L189.373 287.762L187.897 288.452L186.381 289.063L184.828 289.596L183.241 290.047L181.624 290.418L179.979 290.708L178.311 290.917L176.622 291.047L174.917 291.099L173.2 291.075L171.474 290.978L169.743 290.81L168.01 290.573L166.279 290.272L164.553 289.908L162.834 289.486L161.125 289.007L159.43 288.476L157.75 287.896L156.088 287.27L154.445 286.603L152.824 285.898L151.226 285.159L149.652 284.389L148.105 283.593L146.583 282.774L145.089 281.936L143.623 281.083L142.186 280.218L140.777 279.344L139.396 278.464L138.043 277.581L136.718 276.698L135.421 275.816L134.15 274.939L132.906 274.069L131.687 273.208L130.491 272.36L129.32 271.527L128.17 270.71L127.04 269.913L125.93 269.137L124.838 268.385L123.761 267.658L122.699 266.959L121.649 266.288L120.61 265.647L119.58 265.037L118.556 264.46L117.538 263.915L116.522 263.404L115.507 262.926L114.492 262.483L113.473 262.072L112.451 261.695L111.421 261.351L110.384 261.037L109.338 260.755L108.281 260.501L107.211 260.275L106.129 260.075L105.032 259.899L103.92 259.745L102.791 259.611L101.647 259.495L100.485 259.394L99.3063 259.306L98.1103 259.229L96.897 259.159L95.6667 259.095L94.4197 259.033L93.1565 258.972L91.8777 258.908L90.5839 258.84L89.276 258.765L87.9548 258.681L86.6213 258.586L85.2765 258.477L83.9213 258.354L82.5569 258.214L81.1843 258.056L79.8045 257.878L78.4186 257.679L77.0274 257.459L75.632 257.216L74.2331 256.95L72.8316 256.659L71.4284 256.344L70.0249 256.004L68.6221 255.637L67.2215 255.243L65.8246 254.82L64.4328 254.369L63.0479 253.888L61.6715 253.377L60.3051 252.834L58.9506 252.26L57.6097 251.654L56.2841 251.015L54.9757 250.343L53.6861 249.638L52.4173 248.9L51.1712 248.128L49.9497 247.323L48.7549 246.484L47.5891 245.611L46.4545 244.705L45.3538 243.764L44.2893 242.79L43.2634 241.782L42.278 240.742L41.3349 239.669L40.4356 238.565L39.5813 237.432L38.7731 236.269L38.0116 235.08L37.2972 233.865L36.6301 232.626L36.0103 231.365L35.4374 230.083L34.9107 228.783L34.4295 227.467L33.9928 226.135L33.5992 224.791L33.2475 223.436L32.936 222.071L32.6631 220.699L32.4269 219.32L32.2255 217.937L32.0569 216.551L31.919 215.163L31.8098 213.775L31.7271 212.386L31.6688 211L31.6329 209.615L31.6174 208.234L31.6201 206.855L31.6393 205.481L31.6732 204.112L31.7199 202.747L31.778 201.387L31.8458 200.032L31.9221 198.681L32.0056 197.336L32.0953 195.995L32.1901 194.659L32.2893 193.326L32.3921 191.998L32.498 190.673L32.6065 189.351L32.7174 188.031L32.8304 186.714L32.9454 185.399Z" fill="#AEC79F"/>
<path d="M234.926 292.291V292.291ZM234.926 292.291L233.58 292.616L232.234 292.94L230.888 293.261L229.542 293.58L228.195 293.897L226.846 294.211L225.496 294.522L224.143 294.831L222.787 295.137L221.428 295.44L220.066 295.738L218.699 296.032L217.328 296.319L215.952 296.597L214.571 296.866L213.184 297.122L211.792 297.363L210.394 297.588L208.991 297.793L207.583 297.977L206.171 298.137L204.755 298.271L203.335 298.376L201.913 298.451L200.489 298.494L199.065 298.503L197.641 298.477L196.22 298.413L194.801 298.311L193.386 298.17L191.977 297.988L190.575 297.765L189.181 297.5L187.797 297.194L186.424 296.845L185.063 296.455L183.716 296.025L182.383 295.555L181.066 295.047L179.765 294.502L178.481 293.922L177.215 293.31L175.966 292.666L174.735 291.995L173.522 291.297L172.327 290.576L171.15 289.834L169.989 289.075L168.844 288.3L167.715 287.513L166.6 286.716L165.498 285.912L164.407 285.103L163.327 284.292L162.256 283.481L161.191 282.673L160.132 281.869L159.077 281.072L158.023 280.282L156.969 279.502L155.913 278.733L154.853 277.975L153.788 277.231L152.715 276.499L151.634 275.781L150.542 275.077L149.437 274.386L148.319 273.709L147.187 273.045L146.038 272.394L144.873 271.753L143.69 271.123L142.489 270.503L141.269 269.89L140.029 269.284L138.77 268.683L137.492 268.085L136.195 267.489L134.878 266.893L133.543 266.295L132.19 265.694L130.82 265.087L129.433 264.473L128.032 263.849L126.615 263.215L125.186 262.568L123.744 261.907L122.29 261.232L120.824 260.54L119.346 259.833L117.857 259.108L116.356 258.366L114.841 257.607L113.314 256.83L111.772 256.034L110.216 255.22L108.643 254.388L107.053 253.536L105.446 252.665L103.821 251.774L102.177 250.862L100.513 249.929L98.8299 248.974L97.1274 247.995L95.4059 246.992L93.6665 245.963L91.9104 244.906L90.1393 243.821L88.3548 242.706L86.5592 241.56L84.7546 240.38L82.9435 239.166L81.1284 237.917L79.3123 236.631L77.4982 235.307L75.6894 233.945L73.8893 232.543L72.1015 231.1L70.3297 229.617L68.5779 228.092L66.8502 226.525L65.1506 224.916L63.4836 223.265L61.8534 221.572L60.2644 219.838L58.7212 218.062L57.2281 216.247L55.7896 214.393L54.4101 212.501L53.0941 210.572L51.8458 208.609L50.6694 206.612L49.569 204.584L48.5485 202.527L47.6117 200.444L46.7621 198.337L46.0031 196.208L45.3377 194.061L44.7689 191.899L44.2991 189.724L43.9307 187.54L43.6657 185.35L43.5056 183.158L43.4518 180.967L43.5053 178.78L43.6667 176.602L43.9362 174.435L44.3138 172.284L44.7989 170.151L45.3908 168.039L46.0881 165.954L46.8893 163.896L47.7924 161.87L48.7952 159.879L49.895 157.925L51.0889 156.011L52.3735 154.139L53.7453 152.311L55.2004 150.53L56.7347 148.797L58.3438 147.114L60.023 145.481L61.7671 143.899L63.5708 142.37L65.4281 140.892L67.3328 139.466L69.2786 138.09L71.2591 136.763L73.2675 135.484L75.2973 134.25L77.3418 133.06L79.3946 131.91L81.4492 130.797L83.4996 129.717L85.5397 128.668L87.5641 127.646L89.5675 126.645L91.5451 125.663L93.4925 124.694L95.4059 123.735L97.2819 122.78L99.1178 121.827L100.911 120.87L102.661 119.906L104.365 118.93L106.023 117.94L107.635 116.932L109.202 115.903L110.724 114.85L112.203 113.77L113.641 112.662L115.039 111.524L116.401 110.354L117.729 109.153L119.027 107.919L120.299 106.653L121.548 105.356L122.778 104.028L123.994 102.672L125.2 101.289L126.4 99.8822L127.599 98.454L128.802 97.0082L130.011 95.5484L131.233 94.0789L132.47 92.6043L133.728 91.1293L135.008 89.6591L136.316 88.199L137.653 86.7547L139.023 85.3317L140.429 83.9359L141.872 82.5732L143.353 81.2495L144.876 79.9705L146.439 78.7421L148.044 77.5699L149.692 76.4593L151.381 75.4156L153.111 74.4437L154.88 73.5483L156.688 72.7337L158.533 72.0038L160.412 71.3622L162.323 70.8118L164.263 70.3553L166.229 69.9947L168.218 69.7315L170.226 69.5668L172.25 69.5011L174.287 69.5342L176.331 69.6656L178.38 69.894L180.43 70.2176L182.476 70.6343L184.516 71.1412L186.545 71.735L188.559 72.412L190.556 73.1679L192.533 73.9978L194.485 74.8967L196.412 75.8591L198.309 76.8788L200.176 77.9499L202.011 79.0657L203.811 80.2196L205.577 81.4049L207.307 82.6147L209.001 83.842L210.66 85.0801L212.283 86.3221L213.871 87.5616L215.426 88.7922L216.949 90.0077L218.442 91.2025L219.907 92.3713L221.346 93.5091L222.761 94.6114L224.155 95.6745L225.532 96.6949L226.894 97.6695L228.243 98.5958L229.583 99.4716L230.918 100.295L232.249 101.066L233.581 101.783L234.916 102.446L236.257 103.055L237.607 103.612L238.967 104.117L240.342 104.573L241.732 104.981L243.139 105.345L244.566 105.668L246.012 105.954L247.48 106.205L248.969 106.427L250.48 106.624L252.013 106.801L253.567 106.962L255.141 107.114L256.734 107.261L258.344 107.408L259.969 107.561L261.607 107.726L263.254 107.907L264.909 108.11L266.566 108.341L268.224 108.603L269.877 108.902L271.522 109.242L273.154 109.627L274.77 110.062L276.364 110.548L277.932 111.09L279.47 111.69L280.972 112.351L282.435 113.073L283.854 113.859L285.225 114.709L286.543 115.623L287.806 116.602L289.009 117.644L290.15 118.75L291.225 119.916L292.232 121.142L293.17 122.424L294.036 123.761L294.83 125.149L295.551 126.585L296.198 128.065L296.773 129.586L297.276 131.142L297.709 132.73L298.072 134.347L298.368 135.987L298.599 137.646L298.766 139.323L298.872 141.011L298.919 142.709L298.91 144.412L298.847 146.117L298.733 147.821L298.571 149.522L298.366 151.215L298.119 152.899L297.834 154.57L297.515 156.227L297.165 157.867L296.788 159.489L296.387 161.091L295.966 162.672L295.527 164.229L295.073 165.763L294.607 167.272L294.133 168.757L293.651 170.216L293.166 171.65L292.681 173.058L292.197 174.439L291.718 175.795L291.246 177.126L290.785 178.43L290.336 179.71L289.903 180.966L289.488 182.198L289.094 183.407L288.722 184.594L288.375 185.761L288.055 186.908L287.763 188.038L287.501 189.15L287.271 190.247L287.073 191.331L286.908 192.403L286.777 193.464L286.68 194.517L286.618 195.563L286.59 196.604L286.596 197.642L286.635 198.678L286.706 199.715L286.809 200.753L286.942 201.795L287.103 202.842L287.291 203.896L287.504 204.957L287.739 206.027L287.995 207.108L288.269 208.2L288.559 209.304L288.861 210.421L289.175 211.551L289.496 212.696L289.822 213.855L290.151 215.029L290.481 216.218L290.807 217.422L291.129 218.641L291.443 219.875L291.748 221.123L292.04 222.386L292.319 223.662L292.583 224.952L292.829 226.254L293.056 227.569L293.263 228.896L293.449 230.234L293.613 231.583L293.753 232.942L293.87 234.311L293.961 235.688L294.025 237.074L294.062 238.466L294.07 239.864L294.047 241.267L293.992 242.674L293.904 244.083L293.782 245.493L293.625 246.903L293.432 248.311L293.202 249.716L292.934 251.116L292.626 252.51L292.279 253.897L291.892 255.274L291.464 256.639L290.994 257.992L290.481 259.33L289.925 260.65L289.325 261.951L288.68 263.231L287.99 264.487L287.255 265.717L286.475 266.919L285.65 268.092L284.781 269.235L283.87 270.345L282.918 271.422L281.925 272.465L280.894 273.473L279.827 274.445L278.724 275.383L277.59 276.284L276.424 277.15L275.231 277.981L274.011 278.776L272.767 279.538L271.502 280.267L270.217 280.963L268.915 281.629L267.597 282.264L266.266 282.871L264.925 283.451L263.573 284.005L262.214 284.535L260.849 285.042L259.479 285.529L258.106 285.996L256.731 286.446L255.355 286.879L253.979 287.298L252.603 287.704L251.229 288.098L249.856 288.481L248.486 288.856L247.119 289.222L245.754 289.581L244.392 289.934L243.033 290.282L241.677 290.625L240.323 290.964L238.971 291.3L237.621 291.633L236.273 291.963L234.926 292.291" stroke="white"/>
<path d="M75.3617 215.254V215.254ZM75.3617 215.254L75.0066 213.984L74.6539 212.715L74.3035 211.446L73.9554 210.176L73.6097 208.905L73.2666 207.633L72.9261 206.359L72.5886 205.082L72.2541 203.803L71.923 202.521L71.5961 201.235L71.2746 199.945L70.96 198.651L70.6541 197.351L70.3588 196.047L70.0765 194.736L69.8095 193.42L69.5602 192.099L69.331 190.771L69.1245 189.439L68.9431 188.101L68.789 186.759L68.6647 185.412L68.5722 184.063L68.5136 182.711L68.4906 181.357L68.505 180.002L68.5584 178.648L68.652 177.296L68.7872 175.946L68.965 174.601L69.1864 173.261L69.4517 171.927L69.7611 170.602L70.1146 169.285L70.5117 167.979L70.9515 166.685L71.433 165.403L71.9549 164.134L72.5155 162.88L73.1129 161.641L73.745 160.417L74.4097 159.209L75.1043 158.018L75.8263 156.842L76.5731 155.683L77.3417 154.54L78.1294 153.412L78.9332 152.299L79.7504 151.2L80.578 150.115L81.4132 149.041L82.2533 147.979L83.0958 146.926L83.9381 145.881L84.7779 144.844L85.6131 143.811L86.4416 142.782L87.2618 141.755L88.0719 140.728L88.8708 139.7L89.6571 138.668L90.4302 137.632L91.1893 136.589L91.934 135.537L92.6641 134.477L93.3797 133.405L94.0811 132.32L94.7686 131.222L95.4431 130.11L96.1054 128.981L96.7565 127.837L97.3977 126.675L98.0303 125.495L98.6559 124.297L99.276 123.081L99.8923 121.847L100.507 120.594L101.121 119.324L101.737 118.036L102.357 116.73L102.982 115.408L103.615 114.07L104.257 112.717L104.911 111.351L105.577 109.971L106.258 108.579L106.955 107.175L107.668 105.759L108.398 104.332L109.146 102.893L109.912 101.442L110.696 99.9781L111.499 98.5011L112.321 97.01L113.162 95.504L114.022 93.9823L114.903 92.444L115.804 90.8884L116.725 89.3147L117.668 87.7223L118.634 86.1108L119.622 84.4801L120.635 82.8302L121.674 81.1616L122.739 79.4751L123.834 77.7718L124.958 76.0533L126.113 74.3212L127.302 72.5775L128.525 70.8242L129.784 69.0636L131.081 67.2981L132.416 65.5305L133.791 63.7636L135.206 62.0005L136.663 60.2443L138.163 58.4986L139.706 56.7668L141.293 55.0528L142.925 53.3602L144.601 51.6931L146.321 50.0556L148.085 48.4517L149.894 46.8858L151.746 45.362L153.64 43.8846L155.576 42.4579L157.553 41.0861L159.568 39.7735L161.621 38.5241L163.71 37.3421L165.831 36.2313L167.984 35.1956L170.166 34.2385L172.374 33.3637L174.605 32.5742L176.856 31.8732L179.124 31.2635L181.407 30.7476L183.7 30.3278L186 30.0061L188.303 29.784L190.607 29.6631L192.906 29.6444L195.198 29.7285L197.479 29.9157L199.745 30.2062L201.992 30.5995L204.218 31.0949L206.418 31.6914L208.588 32.3877L210.727 33.1818L212.83 34.0718L214.895 35.0552L216.919 36.1293L218.9 37.2911L220.834 38.5371L222.721 39.8638L224.558 41.2674L226.343 42.7436L228.076 44.2881L229.755 45.896L231.381 47.5622L232.952 49.2809L234.47 51.0464L235.935 52.8526L237.349 54.6933L238.713 56.5621L240.029 58.4526L241.3 60.3585L242.529 62.2736L243.719 64.1916L244.873 66.1066L245.995 68.0129L247.09 69.905L248.16 71.7779L249.212 73.6268L250.249 75.4475L251.276 77.2361L252.297 78.9894L253.317 80.7044L254.34 82.3791L255.371 84.0116L256.412 85.6008L257.469 87.1459L258.544 88.6468L259.641 90.1036L260.763 91.5173L261.913 92.889L263.091 94.2204L264.301 95.5137L265.544 96.7712L266.82 97.9958L268.129 99.1907L269.472 100.359L270.848 101.506L272.255 102.633L273.693 103.746L275.159 104.848L276.649 105.945L278.162 107.039L279.694 108.136L281.24 109.24L282.797 110.354L284.359 111.484L285.922 112.632L287.48 113.803L289.028 115L290.559 116.225L292.068 117.483L293.549 118.774L294.996 120.103L296.402 121.469L297.761 122.876L299.067 124.323L300.315 125.812L301.498 127.343L302.612 128.916L303.65 130.529L304.608 132.183L305.482 133.876L306.267 135.607L306.959 137.373L307.556 139.172L308.054 141.002L308.452 142.86L308.747 144.743L308.94 146.647L309.028 148.569L309.012 150.506L308.893 152.454L308.673 154.41L308.352 156.369L307.933 158.328L307.419 160.283L306.814 162.231L306.121 164.168L305.345 166.09L304.491 167.996L303.565 169.881L302.571 171.743L301.517 173.58L300.408 175.389L299.252 177.169L298.056 178.918L296.826 180.634L295.571 182.317L294.296 183.967L293.01 185.583L291.719 187.166L290.431 188.716L289.152 190.233L287.888 191.72L286.646 193.177L285.431 194.607L284.248 196.011L283.102 197.392L281.998 198.752L280.938 200.093L279.926 201.419L278.965 202.731L278.056 204.033L277.203 205.328L276.405 206.619L275.664 207.908L274.98 209.198L274.352 210.493L273.779 211.793L273.261 213.103L272.795 214.424L272.378 215.759L272.008 217.109L271.682 218.475L271.396 219.86L271.145 221.263L270.926 222.686L270.733 224.129L270.562 225.592L270.407 227.075L270.262 228.576L270.123 230.095L269.983 231.631L269.838 233.181L269.68 234.743L269.505 236.315L269.307 237.894L269.08 239.478L268.82 241.062L268.521 242.643L268.179 244.218L267.79 245.782L267.348 247.332L266.852 248.863L266.297 250.371L265.68 251.852L265 253.302L264.254 254.716L263.441 256.09L262.561 257.42L261.612 258.703L260.595 259.934L259.51 261.112L258.359 262.231L257.142 263.291L255.863 264.287L254.523 265.22L253.126 266.086L251.674 266.885L250.171 267.616L248.621 268.278L247.027 268.873L245.396 269.401L243.73 269.863L242.034 270.26L240.312 270.594L238.569 270.866L236.808 271.079L235.033 271.233L233.249 271.332L231.458 271.377L229.664 271.371L227.871 271.317L226.082 271.218L224.3 271.076L222.527 270.895L220.767 270.678L219.021 270.427L217.293 270.147L215.584 269.84L213.896 269.51L212.231 269.16L210.589 268.792L208.972 268.409L207.38 268.015L205.815 267.611L204.276 267.2L202.764 266.784L201.279 266.367L199.821 265.951L198.391 265.539L196.988 265.133L195.612 264.735L194.262 264.35L192.937 263.978L191.638 263.623L190.363 263.286L189.111 262.971L187.881 262.678L186.671 262.41L185.481 262.169L184.309 261.955L183.153 261.771L182.012 261.617L180.883 261.495L179.766 261.404L178.658 261.346L177.557 261.32L176.463 261.326L175.371 261.365L174.282 261.435L173.193 261.536L172.102 261.667L171.007 261.826L169.908 262.013L168.802 262.225L167.688 262.461L166.565 262.719L165.431 262.997L164.286 263.292L163.128 263.602L161.956 263.926L160.77 264.26L159.57 264.602L158.354 264.949L157.123 265.299L155.875 265.65L154.613 265.999L153.334 266.343L152.04 266.681L150.73 267.011L149.405 267.329L148.066 267.635L146.712 267.927L145.345 268.202L143.964 268.46L142.571 268.699L141.166 268.919L139.749 269.117L138.322 269.294L136.884 269.448L135.436 269.579L133.98 269.684L132.516 269.764L131.046 269.815L129.571 269.838L128.091 269.831L126.609 269.792L125.125 269.722L123.641 269.617L122.159 269.478L120.679 269.304L119.204 269.094L117.735 268.846L116.274 268.56L114.823 268.236L113.383 267.872L111.956 267.468L110.545 267.024L109.151 266.537L107.777 266.008L106.426 265.436L105.099 264.819L103.798 264.16L102.527 263.456L101.285 262.709L100.076 261.92L98.9002 261.089L97.7587 260.217L96.6528 259.307L95.5831 258.359L94.5503 257.375L93.5545 256.357L92.5959 255.307L91.6744 254.226L90.7897 253.118L89.9413 251.984L89.1285 250.825L88.3504 249.645L87.606 248.446L86.8941 247.229L86.2136 245.997L85.5629 244.751L84.9406 243.494L84.3452 242.226L83.775 240.951L83.2284 239.669L82.7038 238.383L82.1994 237.092L81.7136 235.799L81.2448 234.504L80.7913 233.209L80.3518 231.914L79.9246 230.62L79.5084 229.328L79.102 228.037L78.704 226.749L78.3136 225.462L77.9295 224.179L77.551 222.898L77.1773 221.619L76.8078 220.342L76.4419 219.068L76.0791 217.795L75.7191 216.524L75.3617 215.254" stroke="#637856"/>
</svg>
