<svg width="1755" height="1755" viewBox="0 0 1755 1755" fill="none" xmlns="http://www.w3.org/2000/svg">
<path fill-rule="evenodd" clip-rule="evenodd" d="M1153.95 1386.88L1148.66 1388.54L1143.37 1390.2L1138.08 1391.84L1132.79 1393.48L1127.49 1395.1L1122.18 1396.72L1116.87 1398.33L1111.55 1399.92L1106.21 1401.5L1100.86 1403.07L1095.5 1404.63L1090.11 1406.16L1084.71 1407.66L1079.28 1409.13L1073.83 1410.56L1068.35 1411.93L1062.85 1413.25L1057.32 1414.49L1051.76 1415.65L1046.17 1416.72L1040.56 1417.69L1034.92 1418.55L1029.26 1419.29L1023.58 1419.9L1017.88 1420.37L1012.17 1420.69L1006.45 1420.87L1000.72 1420.88L994.992 1420.74L989.267 1420.42L983.551 1419.92L977.848 1419.25L972.165 1418.4L966.507 1417.37L960.878 1416.16L955.285 1414.76L949.732 1413.19L944.224 1411.45L938.765 1409.55L933.359 1407.48L928.008 1405.26L922.717 1402.89L917.486 1400.39L912.318 1397.77L907.213 1395.03L902.171 1392.19L897.193 1389.25L892.275 1386.24L887.418 1383.16L882.617 1380.02L877.87 1376.83L873.172 1373.61L868.521 1370.37L863.909 1367.12L859.333 1363.87L854.786 1360.63L850.261 1357.41L845.753 1354.21L841.255 1351.04L836.76 1347.92L832.26 1344.84L827.749 1341.82L823.22 1338.85L818.666 1335.93L814.081 1333.08L809.458 1330.29L804.791 1327.56L800.074 1324.89L795.302 1322.28L790.471 1319.72L785.577 1317.22L780.614 1314.76L775.582 1312.35L770.476 1309.98L765.296 1307.63L760.039 1305.32L754.706 1303.02L749.296 1300.73L743.809 1298.45L738.248 1296.16L732.614 1293.86L726.908 1291.54L721.135 1289.19L715.296 1286.81L709.396 1284.38L703.439 1281.9L697.427 1279.37L691.361 1276.77L685.243 1274.11L679.073 1271.38L672.85 1268.59L666.571 1265.72L660.236 1262.77L653.841 1259.76L647.383 1256.66L640.858 1253.5L634.263 1250.25L627.595 1246.93L620.849 1243.53L614.022 1240.05L607.113 1236.48L600.118 1232.83L593.038 1229.08L585.871 1225.24L578.621 1221.29L571.29 1217.24L563.882 1213.08L556.405 1208.79L548.863 1204.38L541.266 1199.84L533.622 1195.16L525.94 1190.34L518.23 1185.36L510.503 1180.22L502.772 1174.93L495.048 1169.47L487.346 1163.83L479.679 1158.02L472.063 1152.04L464.512 1145.87L457.044 1139.51L449.675 1132.97L442.422 1126.25L435.302 1119.33L428.334 1112.24L421.535 1104.96L414.923 1097.49L408.518 1089.85L402.336 1082.04L396.397 1074.05L390.717 1065.91L385.315 1057.6L380.206 1049.15L375.409 1040.56L370.939 1031.84L366.81 1022.99L363.037 1014.04L359.634 1004.99L356.612 995.858L353.985 986.649L351.76 977.382L349.949 968.068L348.558 958.724L347.594 949.362L347.062 939.999L346.966 930.648L347.307 921.325L348.087 912.045L349.306 902.823L350.959 893.673L353.045 884.609L355.558 875.647L358.49 866.799L361.834 858.079L365.58 849.498L369.716 841.068L374.232 832.802L379.113 824.707L384.343 816.794L389.908 809.071L395.79 801.545L401.97 794.221L408.429 787.104L415.145 780.196L422.093 773.5L429.249 767.014L436.587 760.735L444.081 754.66L451.703 748.783L459.427 743.096L467.225 737.59L475.069 732.256L482.934 727.08L490.792 722.049L498.621 717.15L506.395 712.366L514.092 707.682L521.692 703.08L529.176 698.542L536.526 694.052L543.728 689.59L550.77 685.141L557.639 680.685L564.33 676.208L570.835 671.692L577.151 667.122L583.277 662.484L589.213 657.764L594.961 652.951L600.527 648.034L605.917 643.003L611.139 637.852L616.204 632.575L621.124 627.168L625.912 621.628L630.582 615.957L635.151 610.155L639.635 604.228L644.051 598.181L648.417 592.021L652.753 585.76L657.077 579.409L661.407 572.981L665.763 566.493L670.163 559.96L674.625 553.402L679.166 546.839L683.803 540.291L688.551 533.782L693.424 527.333L698.436 520.969L703.599 514.715L708.923 508.594L714.418 502.633L720.089 496.854L725.944 491.284L731.985 485.945L738.216 480.862L744.637 476.056L751.246 471.549L758.042 467.362L765.019 463.512L772.171 460.017L779.492 456.893L786.972 454.153L794.601 451.808L802.367 449.868L810.258 448.341L818.261 447.231L826.361 446.541L834.544 446.271L842.793 446.42L851.094 446.983L859.429 447.953L867.783 449.322L876.14 451.078L884.484 453.209L892.799 455.697L901.071 458.527L909.285 461.678L917.427 465.129L925.486 468.856L933.45 472.835L941.307 477.039L949.049 481.441L956.669 486.014L964.158 490.727L971.514 495.552L978.731 500.46L985.808 505.421L992.745 510.406L999.543 515.387L1006.2 520.337L1012.73 525.229L1019.13 530.038L1025.4 534.742L1031.57 539.318L1037.62 543.747L1043.58 548.013L1049.45 552.1L1055.25 555.994L1060.98 559.683L1066.66 563.159L1072.3 566.413L1077.9 569.44L1083.49 572.238L1089.07 574.803L1094.66 577.139L1100.27 579.247L1105.9 581.133L1111.57 582.805L1117.29 584.272L1123.06 585.546L1128.9 586.639L1134.8 587.568L1140.77 588.347L1146.83 588.996L1152.96 589.533L1159.17 589.979L1165.46 590.356L1171.83 590.686L1178.27 590.992L1184.78 591.297L1191.35 591.624L1197.98 591.997L1204.65 592.44L1211.36 592.976L1218.09 593.626L1224.83 594.414L1231.57 595.358L1238.28 596.481L1244.97 597.799L1251.6 599.33L1258.16 601.089L1264.64 603.091L1271.01 605.348L1277.27 607.869L1283.39 610.664L1289.35 613.738L1295.14 617.097L1300.74 620.742L1306.14 624.673L1311.33 628.889L1316.28 633.386L1320.99 638.158L1325.45 643.197L1329.65 648.494L1333.59 654.038L1337.25 659.815L1340.63 665.812L1343.73 672.012L1346.56 678.399L1349.11 684.955L1351.39 691.662L1353.4 698.502L1355.15 705.458L1356.64 712.512L1357.88 719.648L1358.88 726.849L1359.65 734.101L1360.2 741.388L1360.52 748.695L1360.65 756.008L1360.58 763.314L1360.34 770.598L1359.92 777.85L1359.35 785.058L1358.63 792.21L1357.79 799.298L1356.83 806.312L1355.77 813.245L1354.62 820.09L1353.39 826.841L1352.09 833.494L1350.74 840.045L1349.34 846.491L1347.91 852.831L1346.45 859.061L1344.98 865.181L1343.51 871.189L1342.05 877.086L1340.62 882.871L1339.21 888.546L1337.85 894.111L1336.54 899.57L1335.29 904.923L1334.12 910.175L1333.04 915.33L1332.04 920.391L1331.15 925.363L1330.37 930.252L1329.7 935.064L1329.14 939.804L1328.72 944.479L1328.42 949.097L1328.26 953.663L1328.23 958.187L1328.34 962.674L1328.58 967.133L1328.96 971.571L1329.47 975.997L1330.11 980.416L1330.88 984.837L1331.77 989.268L1332.78 993.713L1333.89 998.182L1335.1 1002.68L1336.41 1007.21L1337.81 1011.78L1339.28 1016.39L1340.82 1021.06L1342.42 1025.78L1344.06 1030.55L1345.74 1035.38L1347.45 1040.27L1349.17 1045.23L1350.9 1050.25L1352.62 1055.33L1354.32 1060.48L1356.01 1065.7L1357.65 1070.97L1359.26 1076.31L1360.82 1081.72L1362.31 1087.18L1363.75 1092.7L1365.11 1098.28L1366.39 1103.92L1367.59 1109.6L1368.71 1115.34L1369.74 1121.12L1370.67 1126.95L1371.51 1132.83L1372.24 1138.74L1372.87 1144.69L1373.37 1150.67L1373.76 1156.68L1374.02 1162.7L1374.15 1168.75L1374.14 1174.81L1373.99 1180.87L1373.7 1186.93L1373.26 1192.99L1372.66 1199.03L1371.9 1205.06L1370.98 1211.06L1369.9 1217.02L1368.65 1222.95L1367.22 1228.83L1365.62 1234.66L1363.84 1240.42L1361.88 1246.11L1359.73 1251.71L1357.39 1257.22L1354.86 1262.63L1352.14 1267.93L1349.23 1273.12L1346.13 1278.18L1342.85 1283.11L1339.4 1287.91L1335.77 1292.57L1331.98 1297.09L1328.03 1301.47L1323.93 1305.7L1319.68 1309.79L1315.3 1313.73L1310.79 1317.52L1306.17 1321.17L1301.44 1324.68L1296.61 1328.05L1291.69 1331.29L1286.7 1334.4L1281.63 1337.39L1276.49 1340.25L1271.31 1343L1266.07 1345.64L1260.8 1348.19L1255.5 1350.63L1250.17 1352.99L1244.82 1355.27L1239.45 1357.47L1234.08 1359.6L1228.7 1361.67L1223.32 1363.68L1217.94 1365.65L1212.56 1367.56L1207.19 1369.44L1201.83 1371.28L1196.47 1373.1L1191.13 1374.88L1185.79 1376.64L1180.47 1378.39L1175.15 1380.11L1169.84 1381.82L1164.54 1383.52L1159.24 1385.2L1153.95 1386.88Z" fill="#AEC79F"/>
<path d="M1258.82 448.732V448.732ZM1258.82 448.732L1262.16 453.319L1265.49 457.907L1268.81 462.5L1272.12 467.097L1275.43 471.702L1278.72 476.317L1282.02 480.943L1285.3 485.582L1288.58 490.236L1291.85 494.907L1295.1 499.599L1298.35 504.315L1301.58 509.058L1304.78 513.834L1307.95 518.646L1311.08 523.498L1314.16 528.394L1317.19 533.338L1320.14 538.333L1323.03 543.381L1325.82 548.485L1328.52 553.646L1331.12 558.865L1333.6 564.141L1335.96 569.475L1338.19 574.866L1340.27 580.312L1342.22 585.811L1344 591.36L1345.63 596.956L1347.09 602.596L1348.38 608.275L1349.5 613.99L1350.44 619.735L1351.2 625.506L1351.77 631.295L1352.17 637.099L1352.4 642.911L1352.45 648.726L1352.33 654.538L1352.05 660.342L1351.62 666.132L1351.04 671.903L1350.32 677.653L1349.47 683.375L1348.51 689.068L1347.44 694.728L1346.27 700.353L1345.02 705.94L1343.69 711.49L1342.31 717.002L1340.88 722.476L1339.41 727.912L1337.92 733.314L1336.42 738.681L1334.91 744.018L1333.41 749.328L1331.94 754.614L1330.49 759.88L1329.08 765.132L1327.71 770.374L1326.39 775.612L1325.14 780.85L1323.94 786.095L1322.81 791.352L1321.76 796.628L1320.77 801.927L1319.86 807.257L1319.02 812.621L1318.25 818.026L1317.55 823.476L1316.92 828.977L1316.36 834.533L1315.86 840.147L1315.41 845.824L1315.01 851.566L1314.65 857.377L1314.33 863.258L1314.04 869.211L1313.76 875.237L1313.51 881.337L1313.26 887.512L1313 893.76L1312.73 900.082L1312.45 906.475L1312.13 912.939L1311.78 919.472L1311.39 926.075L1310.96 932.748L1310.48 939.491L1309.95 946.306L1309.38 953.195L1308.76 960.161L1308.08 967.206L1307.36 974.334L1306.59 981.548L1305.78 988.853L1304.91 996.252L1304 1003.75L1303.03 1011.35L1302.02 1019.05L1300.95 1026.86L1299.82 1034.79L1298.64 1042.82L1297.38 1050.96L1296.06 1059.22L1294.65 1067.58L1293.16 1076.04L1291.57 1084.6L1289.87 1093.26L1288.06 1102L1286.13 1110.82L1284.06 1119.72L1281.86 1128.67L1279.5 1137.68L1276.98 1146.73L1274.3 1155.82L1271.44 1164.92L1268.4 1174.02L1265.16 1183.12L1261.73 1192.19L1258.08 1201.22L1254.23 1210.2L1250.15 1219.1L1245.85 1227.92L1241.32 1236.62L1236.56 1245.2L1231.56 1253.64L1226.33 1261.91L1220.85 1270L1215.13 1277.89L1209.18 1285.56L1202.98 1292.99L1196.56 1300.17L1189.89 1307.07L1183 1313.67L1175.89 1319.97L1168.57 1325.94L1161.03 1331.57L1153.29 1336.84L1145.36 1341.75L1137.26 1346.27L1128.97 1350.39L1120.53 1354.11L1111.95 1357.42L1103.23 1360.3L1094.38 1362.76L1085.43 1364.78L1076.39 1366.36L1067.26 1367.5L1058.08 1368.2L1048.84 1368.47L1039.57 1368.29L1030.28 1367.68L1020.99 1366.64L1011.7 1365.18L1002.45 1363.31L993.225 1361.04L984.057 1358.37L974.954 1355.33L965.928 1351.93L956.992 1348.18L948.155 1344.09L939.429 1339.7L930.822 1335.03L922.341 1330.09L913.994 1324.91L905.785 1319.52L897.718 1313.95L889.795 1308.23L882.017 1302.38L874.383 1296.43L866.891 1290.42L859.537 1284.37L852.316 1278.31L845.221 1272.27L838.246 1266.27L831.38 1260.35L824.614 1254.51L817.936 1248.79L811.336 1243.2L804.801 1237.76L798.319 1232.49L791.875 1227.4L785.458 1222.5L779.055 1217.79L772.651 1213.29L766.235 1209L759.795 1204.91L753.318 1201.03L746.795 1197.35L740.216 1193.87L733.571 1190.58L726.853 1187.47L720.056 1184.52L713.175 1181.72L706.206 1179.07L699.148 1176.53L692.001 1174.09L684.765 1171.73L677.444 1169.44L670.043 1167.18L662.568 1164.93L655.028 1162.69L647.431 1160.41L639.791 1158.08L632.118 1155.67L624.428 1153.17L616.736 1150.55L609.059 1147.8L601.414 1144.88L593.822 1141.79L586.3 1138.5L578.87 1135L571.552 1131.27L564.367 1127.31L557.336 1123.1L550.48 1118.63L543.82 1113.9L537.377 1108.89L531.17 1103.61L525.218 1098.06L519.54 1092.23L514.151 1086.12L509.069 1079.76L504.307 1073.13L499.878 1066.24L495.792 1059.12L492.06 1051.76L488.688 1044.18L485.683 1036.4L483.046 1028.43L480.78 1020.28L478.884 1011.99L477.355 1003.55L476.187 994.996L475.374 986.343L474.906 977.611L474.772 968.818L474.958 959.985L475.449 951.131L476.227 942.275L477.272 933.436L478.565 924.631L480.081 915.878L481.798 907.192L483.691 898.589L485.733 890.081L487.899 881.681L490.162 873.4L492.496 865.247L494.872 857.229L497.265 849.352L499.648 841.621L501.998 834.037L504.289 826.602L506.5 819.316L508.61 812.174L510.598 805.175L512.448 798.313L514.143 791.581L515.669 784.973L517.013 778.48L518.163 772.093L519.111 765.803L519.849 759.598L520.372 753.468L520.678 747.401L520.766 741.385L520.636 735.41L520.294 729.462L519.744 723.531L518.994 717.604L518.054 711.672L516.937 705.724L515.656 699.75L514.227 693.741L512.667 687.689L510.995 681.588L509.231 675.431L507.397 669.214L505.516 662.933L503.611 656.586L501.705 650.173L499.825 643.693L497.994 637.149L496.239 630.544L494.583 623.883L493.052 617.172L491.67 610.417L490.46 603.628L489.446 596.814L488.648 589.986L488.087 583.154L487.782 576.332L487.749 569.534L488.005 562.771L488.564 556.06L489.436 549.413L490.632 542.847L492.159 536.375L494.022 530.012L496.225 523.773L498.768 517.67L501.649 511.718L504.866 505.927L508.412 500.31L512.279 494.877L516.457 489.637L520.933 484.596L525.693 479.763L530.722 475.141L536.002 470.734L541.514 466.543L547.241 462.569L553.165 458.813L559.267 455.273L565.529 451.948L571.934 448.836L578.465 445.934L585.105 443.236L591.835 440.738L598.639 438.435L605.501 436.319L612.404 434.382L619.334 432.617L626.274 431.015L633.21 429.566L640.129 428.26L647.019 427.088L653.867 426.039L660.663 425.103L667.397 424.27L674.062 423.53L680.651 422.874L687.156 422.293L693.573 421.777L699.896 421.317L706.119 420.901L712.239 420.52L718.251 420.162L724.151 419.818L729.937 419.475L735.606 419.122L741.157 418.75L746.587 418.348L751.898 417.904L757.089 417.409L762.162 416.854L767.118 416.228L771.959 415.523L776.689 414.731L781.312 413.845L785.833 412.858L790.255 411.763L794.585 410.556L798.829 409.233L802.994 407.791L807.087 406.226L811.115 404.538L815.086 402.726L819.008 400.791L822.889 398.734L826.738 396.558L830.562 394.265L834.37 391.862L838.171 389.351L841.972 386.74L845.782 384.035L849.607 381.242L853.456 378.371L857.334 375.43L861.25 372.426L865.208 369.37L869.215 366.27L873.275 363.137L877.393 359.979L881.574 356.807L885.82 353.63L890.136 350.458L894.522 347.298L898.983 344.161L903.518 341.053L908.129 337.984L912.817 334.959L917.582 331.986L922.424 329.071L927.343 326.218L932.338 323.431L937.408 320.717L942.552 318.078L947.77 315.522L953.059 313.053L958.419 310.679L963.846 308.407L969.339 306.242L974.895 304.192L980.511 302.263L986.184 300.462L991.909 298.795L997.684 297.269L1003.5 295.888L1009.36 294.659L1015.26 293.588L1021.19 292.679L1027.14 291.938L1033.11 291.372L1039.09 290.985L1045.09 290.784L1051.08 290.774L1057.06 290.963L1063.03 291.358L1068.98 291.961L1074.9 292.778L1080.78 293.81L1086.61 295.057L1092.39 296.52L1098.11 298.196L1103.77 300.083L1109.35 302.177L1114.86 304.471L1120.29 306.962L1125.63 309.641L1130.88 312.501L1136.04 315.534L1141.11 318.731L1146.08 322.083L1150.96 325.581L1155.75 329.214L1160.43 332.973L1165.02 336.848L1169.52 340.828L1173.93 344.904L1178.25 349.067L1182.49 353.306L1186.64 357.614L1190.72 361.98L1194.72 366.398L1198.65 370.859L1202.52 375.357L1206.32 379.884L1210.07 384.435L1213.77 389.005L1217.41 393.588L1221.02 398.181L1224.58 402.78L1228.11 407.383L1231.61 411.986L1235.08 416.589L1238.52 421.189L1241.95 425.786L1245.35 430.381L1248.74 434.972L1252.11 439.56L1255.47 444.147L1258.82 448.732" stroke="white"/>
<path d="M1204.79 1177.98V1177.98ZM1204.79 1177.98L1200.39 1181.36L1196 1184.74L1191.6 1188.1L1187.2 1191.46L1182.79 1194.82L1178.37 1198.16L1173.93 1201.5L1169.49 1204.83L1165.03 1208.15L1160.55 1211.46L1156.05 1214.77L1151.53 1218.06L1146.98 1221.33L1142.39 1224.58L1137.77 1227.79L1133.11 1230.97L1128.4 1234.09L1123.65 1237.16L1118.84 1240.16L1113.97 1243.08L1109.05 1245.92L1104.06 1248.66L1099.02 1251.29L1093.91 1253.81L1088.74 1256.2L1083.51 1258.46L1078.22 1260.58L1072.87 1262.55L1067.46 1264.36L1062.01 1266.02L1056.5 1267.5L1050.95 1268.81L1045.35 1269.95L1039.72 1270.9L1034.05 1271.67L1028.36 1272.26L1022.65 1272.67L1016.92 1272.9L1011.18 1272.95L1005.44 1272.84L999.701 1272.56L993.968 1272.12L988.247 1271.54L982.543 1270.82L976.86 1269.96L971.201 1268.99L965.571 1267.91L959.972 1266.73L954.405 1265.46L948.873 1264.12L943.376 1262.73L937.915 1261.28L932.489 1259.8L927.097 1258.29L921.737 1256.77L916.408 1255.25L911.106 1253.73L905.828 1252.24L900.57 1250.78L895.329 1249.35L890.099 1247.97L884.876 1246.64L879.654 1245.37L874.428 1244.16L869.193 1243.02L863.942 1241.95L858.671 1240.96L853.374 1240.04L848.044 1239.19L842.678 1238.42L837.27 1237.71L831.814 1237.08L826.308 1236.51L820.745 1236L815.123 1235.55L809.439 1235.15L803.689 1234.79L797.871 1234.47L791.983 1234.18L786.023 1233.91L779.991 1233.65L773.886 1233.4L767.708 1233.14L761.457 1232.88L755.135 1232.59L748.742 1232.27L742.279 1231.92L735.745 1231.53L729.141 1231.1L722.466 1230.62L715.717 1230.09L708.893 1229.51L701.992 1228.89L695.011 1228.21L687.946 1227.48L680.793 1226.71L673.549 1225.88L666.21 1225.01L658.773 1224.09L651.233 1223.12L643.587 1222.09L635.833 1221.02L627.968 1219.88L619.99 1218.69L611.901 1217.42L603.7 1216.08L595.391 1214.67L586.976 1213.16L578.459 1211.55L569.847 1209.84L561.144 1208.01L552.357 1206.06L543.494 1203.97L534.564 1201.74L525.574 1199.36L516.537 1196.82L507.463 1194.1L498.364 1191.21L489.252 1188.13L480.141 1184.86L471.046 1181.39L461.982 1177.7L452.965 1173.8L444.01 1169.68L435.134 1165.33L426.356 1160.75L417.693 1155.93L409.163 1150.87L400.785 1145.57L392.576 1140.03L384.557 1134.24L376.744 1128.21L369.157 1121.94L361.814 1115.43L354.733 1108.69L347.932 1101.71L341.427 1094.51L335.234 1087.09L329.371 1079.46L323.851 1071.63L318.688 1063.6L313.896 1055.39L309.487 1047L305.471 1038.45L301.858 1029.76L298.657 1020.92L295.874 1011.96L293.516 1002.9L291.586 993.737L290.087 984.495L289.022 975.189L288.388 965.832L288.185 956.441L288.409 947.03L289.056 937.614L290.118 928.208L291.589 918.827L293.457 909.485L295.714 900.195L298.346 890.972L301.34 881.826L304.681 872.771L308.35 863.817L312.329 854.974L316.596 846.251L321.126 837.657L325.897 829.197L330.881 820.877L336.05 812.701L341.378 804.671L346.835 796.788L352.393 789.051L358.022 781.457L363.694 774.003L369.382 766.684L375.057 759.494L380.694 752.423L386.266 745.464L391.752 738.606L397.129 731.837L402.377 725.148L407.478 718.524L412.417 711.953L417.181 705.423L421.759 698.919L426.143 692.429L430.326 685.939L434.304 679.436L438.076 672.909L441.642 666.346L445.007 659.736L448.175 653.068L451.154 646.334L453.953 639.526L456.586 632.639L459.064 625.666L461.405 618.605L463.623 611.453L465.739 604.211L467.772 596.879L469.741 589.461L471.67 581.962L473.579 574.388L475.492 566.748L477.431 559.051L479.42 551.309L481.481 543.535L483.637 535.743L485.909 527.948L488.319 520.169L490.887 512.423L493.632 504.73L496.572 497.108L499.724 489.578L503.103 482.162L506.722 474.881L510.593 467.756L514.726 460.808L519.129 454.058L523.808 447.527L528.767 441.236L534.008 435.203L539.531 429.447L545.334 423.984L551.414 418.832L557.765 414.003L564.379 409.512L571.248 405.369L578.359 401.583L585.701 398.163L593.26 395.113L601.021 392.437L608.967 390.137L617.081 388.211L625.346 386.656L633.742 385.468L642.25 384.639L650.851 384.159L659.524 384.018L668.251 384.201L677.01 384.692L685.783 385.475L694.551 386.528L703.295 387.832L711.996 389.363L720.64 391.097L729.209 393.009L737.69 395.073L746.07 397.262L754.336 399.549L762.479 401.908L770.49 404.31L778.362 406.729L786.091 409.139L793.672 411.515L801.104 413.832L808.387 416.067L815.521 418.199L822.511 420.209L829.36 422.079L836.073 423.792L842.658 425.334L849.122 426.691L855.473 427.852L861.721 428.808L867.876 429.552L873.948 430.079L879.949 430.385L885.891 430.47L891.784 430.335L897.641 429.984L903.473 429.423L909.292 428.66L915.11 427.704L920.936 426.569L926.781 425.268L932.654 423.816L938.564 422.232L944.519 420.534L950.524 418.743L956.587 416.882L962.71 414.972L968.897 413.038L975.15 411.103L981.47 409.194L987.855 407.336L994.303 405.553L1000.81 403.872L1007.37 402.317L1013.98 400.912L1020.64 399.683L1027.32 398.651L1034.03 397.838L1040.75 397.265L1047.47 396.952L1054.18 396.915L1060.87 397.17L1067.51 397.731L1074.11 398.611L1080.64 399.818L1087.09 401.361L1093.45 403.245L1099.69 405.472L1105.82 408.045L1111.81 410.96L1117.66 414.216L1123.35 417.804L1128.87 421.718L1134.21 425.947L1139.37 430.478L1144.33 435.298L1149.1 440.39L1153.67 445.736L1158.03 451.318L1162.18 457.117L1166.13 463.115L1169.87 469.295L1173.41 475.637L1176.74 482.124L1179.87 488.738L1182.81 495.462L1185.55 502.279L1188.1 509.171L1190.46 516.121L1192.66 523.113L1194.68 530.132L1196.54 537.161L1198.26 544.187L1199.83 551.196L1201.26 558.175L1202.58 565.112L1203.78 571.996L1204.88 578.818L1205.88 585.569L1206.79 592.243L1207.63 598.833L1208.4 605.334L1209.11 611.739L1209.78 618.043L1210.4 624.243L1211 630.333L1211.58 636.31L1212.15 642.171L1212.73 647.914L1213.32 653.537L1213.94 659.038L1214.6 664.418L1215.3 669.677L1216.05 674.815L1216.87 679.835L1217.76 684.74L1218.74 689.531L1219.8 694.214L1220.96 698.792L1222.22 703.272L1223.59 707.658L1225.06 711.957L1226.66 716.175L1228.37 720.32L1230.2 724.4L1232.15 728.422L1234.22 732.393L1236.41 736.324L1238.71 740.221L1241.13 744.094L1243.66 747.951L1246.29 751.8L1249.02 755.649L1251.85 759.506L1254.76 763.38L1257.75 767.277L1260.81 771.204L1263.93 775.169L1267.11 779.177L1270.34 783.234L1273.59 787.345L1276.88 791.515L1280.18 795.749L1283.49 800.049L1286.79 804.418L1290.09 808.861L1293.37 813.377L1296.62 817.969L1299.84 822.639L1303.02 827.386L1306.14 832.212L1309.22 837.115L1312.23 842.096L1315.19 847.155L1318.07 852.289L1320.89 857.499L1323.62 862.783L1326.28 868.14L1328.84 873.568L1331.3 879.065L1333.66 884.628L1335.91 890.256L1338.04 895.944L1340.05 901.689L1341.93 907.489L1343.67 913.338L1345.27 919.233L1346.72 925.168L1348.02 931.141L1349.16 937.144L1350.13 943.173L1350.93 949.222L1351.56 955.285L1352 961.356L1352.25 967.426L1352.31 973.49L1352.16 979.538L1351.81 985.563L1351.24 991.557L1350.47 997.513L1349.47 1003.42L1348.26 1009.28L1346.84 1015.08L1345.21 1020.81L1343.37 1026.47L1341.33 1032.05L1339.09 1037.55L1336.66 1042.96L1334.05 1048.28L1331.27 1053.51L1328.32 1058.65L1325.21 1063.69L1321.96 1068.64L1318.57 1073.48L1315.05 1078.23L1311.41 1082.89L1307.66 1087.45L1303.82 1091.92L1299.89 1096.3L1295.87 1100.59L1291.79 1104.8L1287.65 1108.93L1283.45 1112.99L1279.21 1116.98L1274.92 1120.89L1270.61 1124.75L1266.27 1128.55L1261.91 1132.3L1257.53 1136L1253.15 1139.65L1248.75 1143.26L1244.35 1146.84L1239.95 1150.39L1235.55 1153.91L1231.15 1157.4L1226.75 1160.87L1222.35 1164.32L1217.96 1167.76L1213.57 1171.18L1209.18 1174.58L1204.79 1177.98" stroke="#637856"/>
</svg>
