<svg width="1043" height="1021" viewBox="0 0 1043 1021" fill="none" xmlns="http://www.w3.org/2000/svg">
<path fill-rule="evenodd" clip-rule="evenodd" d="M98.8359 556.197L99.1869 552.256L99.5441 548.318L99.9078 544.381L100.279 540.445L100.657 536.509L101.045 532.571L101.442 528.631L101.85 524.686L102.269 520.737L102.701 516.783L103.149 512.822L103.616 508.855L104.107 504.881L104.628 500.902L105.185 496.918L105.784 492.931L106.432 488.943L107.136 484.955L107.902 480.971L108.738 476.993L109.65 473.025L110.644 469.07L111.726 465.133L112.901 461.216L114.174 457.325L115.548 453.464L117.029 449.637L118.619 445.849L120.32 442.104L122.135 438.407L124.066 434.762L126.114 431.174L128.278 427.648L130.558 424.186L132.953 420.793L135.458 417.47L138.072 414.222L140.79 411.05L143.607 407.954L146.517 404.936L149.515 401.996L152.595 399.134L155.749 396.348L158.97 393.637L162.251 390.998L165.584 388.429L168.962 385.926L172.377 383.485L175.822 381.101L179.289 378.771L182.771 376.488L186.262 374.247L189.756 372.041L193.245 369.866L196.725 367.713L200.191 365.578L203.638 363.453L207.063 361.332L210.463 359.208L213.834 357.075L217.174 354.926L220.483 352.757L223.76 350.561L227.005 348.333L230.218 346.067L233.4 343.761L236.552 341.409L239.678 339.008L242.78 336.556L245.861 334.049L248.923 331.486L251.972 328.865L255.012 326.187L258.046 323.45L261.079 320.655L264.116 317.803L267.162 314.895L270.223 311.933L273.302 308.921L276.405 305.86L279.536 302.753L282.701 299.605L285.904 296.42L289.149 293.201L292.441 289.954L295.783 286.682L299.179 283.389L302.632 280.077L306.143 276.748L309.714 273.403L313.348 270.041L317.045 266.662L320.808 263.265L324.637 259.849L328.535 256.41L332.502 252.948L336.541 249.46L340.653 245.944L344.841 242.399L349.107 238.822L353.453 235.213L357.883 231.571L362.398 227.897L367.002 224.192L371.698 220.459L376.489 216.701L381.378 212.923L386.368 209.13L391.46 205.329L396.659 201.527L401.964 197.731L407.378 193.949L412.902 190.189L418.537 186.46L424.283 182.771L430.14 179.131L436.107 175.552L442.183 172.044L448.365 168.616L454.652 165.281L461.041 162.05L467.528 158.933L474.109 155.944L480.778 153.092L487.531 150.39L494.361 147.849L501.261 145.481L508.225 143.296L515.244 141.307L522.309 139.522L529.413 137.953L536.544 136.608L543.694 135.498L550.852 134.631L558.007 134.014L565.148 133.656L572.264 133.562L579.343 133.739L586.373 134.191L593.342 134.922L600.239 135.936L607.051 137.235L613.767 138.82L620.376 140.692L626.865 142.849L633.223 145.291L639.441 148.015L645.506 151.017L651.411 154.293L657.144 157.838L662.698 161.645L668.065 165.706L673.237 170.014L678.208 174.56L682.972 179.335L687.523 184.326L691.86 189.525L695.977 194.918L699.874 200.495L703.548 206.241L707.001 212.144L710.234 218.19L713.248 224.364L716.049 230.651L718.642 237.036L721.035 243.502L723.237 250.033L725.256 256.612L727.106 263.223L728.799 269.85L730.348 276.477L731.769 283.089L733.077 289.672L734.287 296.212L735.417 302.697L736.485 309.115L737.506 315.456L738.499 321.71L739.481 327.87L740.468 333.93L741.476 339.884L742.522 345.728L743.619 351.461L744.782 357.081L746.022 362.589L747.352 367.986L748.781 373.276L750.319 378.463L751.972 383.55L753.746 388.545L755.647 393.454L757.676 398.285L759.834 403.045L762.121 407.745L764.534 412.392L767.069 416.998L769.721 421.571L772.482 426.121L775.343 430.659L778.294 435.195L781.322 439.737L784.415 444.295L787.557 448.879L790.734 453.496L793.928 458.153L797.122 462.858L800.297 467.617L803.435 472.435L806.516 477.316L809.521 482.264L812.43 487.281L815.223 492.368L817.879 497.525L820.381 502.753L822.71 508.048L824.846 513.409L826.773 518.831L828.474 524.31L829.934 529.84L831.139 535.414L832.076 541.026L832.734 546.667L833.102 552.329L833.172 558.003L832.937 563.679L832.394 569.347L831.537 574.998L830.367 580.621L828.883 586.206L827.087 591.743L824.983 597.221L822.578 602.631L819.878 607.964L816.892 613.211L813.631 618.364L810.107 623.414L806.333 628.356L802.325 633.183L798.097 637.89L793.669 642.472L789.057 646.927L784.282 651.253L779.363 655.448L774.321 659.512L769.177 663.448L763.952 667.257L758.668 670.942L753.346 674.508L748.006 677.962L742.669 681.308L737.356 684.555L732.084 687.712L726.872 690.785L721.736 693.787L716.691 696.725L711.753 699.612L706.933 702.457L702.241 705.271L697.688 708.065L693.28 710.85L689.024 713.636L684.925 716.433L680.985 719.253L677.207 722.105L673.59 724.998L670.135 727.941L666.838 730.942L663.695 734.008L660.701 737.147L657.85 740.363L655.134 743.662L652.543 747.046L650.068 750.518L647.697 754.079L645.42 757.73L643.223 761.469L641.093 765.294L639.016 769.201L636.978 773.185L634.965 777.24L632.963 781.359L630.956 785.533L628.93 789.753L626.872 794.008L624.768 798.287L622.604 802.577L620.367 806.865L618.046 811.137L615.63 815.379L613.108 819.576L610.472 823.714L607.712 827.775L604.823 831.746L601.798 835.611L598.632 839.354L595.323 842.961L591.868 846.418L588.267 849.71L584.519 852.825L580.627 855.751L576.594 858.476L572.423 860.991L568.12 863.286L563.691 865.354L559.143 867.189L554.484 868.786L549.724 870.142L544.872 871.254L539.937 872.124L534.932 872.752L529.866 873.141L524.752 873.297L519.6 873.225L514.422 872.933L509.229 872.428L504.03 871.72L498.837 870.816L493.657 869.725L488.501 868.457L483.376 867.021L478.29 865.428L473.25 863.687L468.263 861.811L463.335 859.809L458.472 857.693L453.678 855.475L448.957 853.166L444.313 850.778L439.749 848.322L435.268 845.809L430.87 843.249L426.557 840.654L422.33 838.032L418.187 835.392L414.129 832.743L410.155 830.092L406.262 827.447L402.451 824.816L398.717 822.205L395.059 819.624L391.474 817.08L387.959 814.579L384.509 812.13L381.121 809.738L377.791 807.411L374.513 805.155L371.284 802.974L368.097 800.875L364.948 798.863L361.83 796.94L358.739 795.111L355.669 793.378L352.613 791.745L349.566 790.211L346.521 788.779L343.475 787.447L340.42 786.217L337.351 785.085L334.264 784.051L331.153 783.112L328.014 782.264L324.842 781.503L321.634 780.825L318.386 780.225L315.095 779.697L311.758 779.236L308.374 778.834L304.94 778.485L301.455 778.183L297.919 777.919L294.331 777.686L290.691 777.477L287 777.283L283.259 777.098L279.469 776.914L275.633 776.724L271.751 776.52L267.828 776.295L263.864 776.043L259.864 775.757L255.829 775.432L251.764 775.061L247.67 774.641L243.553 774.166L239.413 773.633L235.255 773.037L231.082 772.376L226.896 771.647L222.699 770.848L218.494 769.978L214.285 769.033L210.074 768.011L205.866 766.91L201.664 765.728L197.473 764.461L193.298 763.107L189.143 761.664L185.014 760.129L180.915 758.502L176.852 756.779L172.829 754.96L168.852 753.044L164.927 751.028L161.058 748.914L157.252 746.699L153.513 744.384L149.849 741.968L146.265 739.452L142.767 736.833L139.363 734.114L136.061 731.292L132.868 728.37L129.79 725.347L126.834 722.225L124.004 719.007L121.306 715.696L118.744 712.295L116.319 708.808L114.034 705.239L111.891 701.594L109.89 697.877L108.031 694.094L106.312 690.249L104.732 686.35L103.288 682.4L101.978 678.406L100.797 674.373L99.7423 670.307L98.8078 666.213L97.9891 662.096L97.2804 657.961L96.6762 653.812L96.1703 649.653L95.7567 645.489L95.429 641.324L95.1809 637.159L95.0062 632.999L94.8984 628.845L94.8518 624.7L94.8601 620.566L94.9177 616.444L95.0192 612.335L95.1595 608.241L95.3336 604.16L95.5372 600.095L95.7661 596.044L96.0166 592.007L96.2856 587.985L96.5701 583.975L96.8676 579.978L97.176 575.993L97.4937 572.017L97.8193 568.051L98.1519 564.094L98.4908 560.143L98.8359 556.197Z" fill="#AEC79F"/>
<path d="M704.778 876.873V876.873ZM704.778 876.873L700.74 877.849L696.703 878.819L692.666 879.783L688.627 880.74L684.585 881.69L680.539 882.632L676.487 883.567L672.428 884.494L668.361 885.411L664.285 886.319L660.197 887.215L656.097 888.096L651.984 888.956L647.856 889.792L643.712 890.597L639.552 891.365L635.375 892.09L631.183 892.763L626.974 893.379L622.75 893.931L618.513 894.41L614.264 894.811L610.005 895.128L605.739 895.353L601.468 895.482L597.195 895.509L592.924 895.43L588.659 895.239L584.402 894.934L580.157 894.51L575.93 893.965L571.724 893.295L567.542 892.501L563.39 891.58L559.272 890.535L555.19 889.365L551.148 888.074L547.15 886.664L543.198 885.14L539.296 883.505L535.444 881.766L531.644 879.929L527.898 877.999L524.206 875.984L520.567 873.891L516.982 871.728L513.449 869.503L509.967 867.225L506.533 864.9L503.145 862.538L499.799 860.147L496.493 857.734L493.221 855.308L489.981 852.875L486.767 850.443L483.573 848.018L480.396 845.607L477.23 843.214L474.068 840.846L470.906 838.506L467.739 836.198L464.56 833.926L461.364 831.692L458.146 829.497L454.901 827.343L451.625 825.231L448.312 823.159L444.958 821.128L441.561 819.136L438.115 817.18L434.619 815.259L431.07 813.37L427.466 811.508L423.806 809.67L420.087 807.852L416.311 806.049L412.476 804.256L408.584 802.468L404.634 800.68L400.629 798.886L396.57 797.082L392.46 795.26L388.3 793.417L384.095 791.547L379.846 789.644L375.557 787.704L371.231 785.722L366.869 783.695L362.471 781.621L358.039 779.498L353.571 777.325L349.067 775.099L344.525 772.82L339.942 770.488L335.317 768.102L330.647 765.66L325.929 763.163L321.161 760.608L316.34 757.995L311.463 755.322L306.53 752.587L301.539 749.787L296.49 746.921L291.382 743.985L286.218 740.975L281 737.888L275.731 734.719L270.418 731.464L265.065 728.118L259.678 724.678L254.264 721.14L248.83 717.498L243.385 713.751L237.937 709.893L232.495 705.922L227.068 701.834L221.668 697.628L216.304 693.3L210.989 688.85L205.734 684.274L200.551 679.574L195.452 674.747L190.451 669.794L185.56 664.715L180.793 659.512L176.164 654.187L171.684 648.741L167.369 643.179L163.23 637.502L159.282 631.716L155.538 625.826L152.008 619.836L148.707 613.752L145.646 607.582L142.835 601.332L140.287 595.01L138.009 588.625L136.013 582.183L134.307 575.696L132.897 569.171L131.792 562.619L130.997 556.05L130.517 549.473L130.356 542.9L130.516 536.341L131 529.806L131.809 523.305L132.942 516.851L134.397 510.451L136.172 504.118L138.264 497.86L140.668 491.688L143.377 485.611L146.386 479.637L149.685 473.775L153.267 468.032L157.121 462.416L161.236 456.934L165.601 451.59L170.204 446.391L175.031 441.341L180.069 436.442L185.302 431.698L190.712 427.109L196.284 422.676L201.998 418.397L207.836 414.269L213.777 410.289L219.803 406.451L225.892 402.751L232.026 399.179L238.184 395.729L244.348 392.39L250.499 389.152L256.619 386.005L262.692 382.937L268.703 379.935L274.635 376.988L280.478 374.082L286.218 371.203L291.846 368.34L297.353 365.48L302.734 362.609L307.982 359.717L313.094 356.791L318.069 353.821L322.906 350.796L327.607 347.708L332.173 344.548L336.61 341.309L340.923 337.985L345.118 334.571L349.203 331.062L353.188 327.458L357.082 323.757L360.897 319.96L364.644 316.068L368.335 312.085L371.983 308.016L375.6 303.868L379.201 299.646L382.798 295.362L386.405 291.024L390.034 286.645L393.699 282.237L397.411 277.813L401.183 273.388L405.025 268.977L408.947 264.597L412.959 260.264L417.07 255.995L421.286 251.808L425.615 247.719L430.06 243.748L434.627 239.911L439.317 236.226L444.134 232.709L449.075 229.378L454.142 226.247L459.332 223.331L464.641 220.645L470.065 218.201L475.599 216.011L481.236 214.086L486.968 212.435L492.788 211.066L498.686 209.984L504.653 209.194L510.678 208.7L516.751 208.503L522.86 208.603L528.994 208.997L535.141 209.682L541.29 210.653L547.429 211.903L553.548 213.424L559.634 215.205L565.678 217.236L571.669 219.503L577.598 221.993L583.456 224.69L589.235 227.577L594.929 230.636L600.529 233.849L606.033 237.197L611.434 240.659L616.731 244.215L621.921 247.844L627.004 251.526L631.979 255.24L636.848 258.966L641.613 262.685L646.278 266.376L650.847 270.023L655.326 273.607L659.72 277.114L664.037 280.527L668.283 283.834L672.466 287.023L676.596 290.085L680.681 293.008L684.729 295.787L688.75 298.415L692.753 300.886L696.748 303.198L700.744 305.348L704.748 307.337L708.771 309.165L712.82 310.834L716.902 312.35L721.025 313.718L725.195 314.944L729.417 316.036L733.697 317.005L738.036 317.861L742.44 318.616L746.908 319.281L751.441 319.872L756.04 320.403L760.702 320.887L765.424 321.342L770.203 321.782L775.032 322.224L779.907 322.683L784.82 323.177L789.763 323.721L794.726 324.331L799.698 325.022L804.671 325.809L809.63 326.706L814.565 327.726L819.463 328.882L824.31 330.185L829.092 331.645L833.797 333.271L838.409 335.071L842.917 337.053L847.306 339.22L851.562 341.577L855.674 344.127L859.63 346.87L863.418 349.806L867.027 352.933L870.449 356.249L873.675 359.748L876.697 363.425L879.509 367.272L882.108 371.283L884.489 375.447L886.651 379.755L888.594 384.195L890.319 388.756L891.828 393.426L893.126 398.191L894.216 403.039L895.105 407.959L895.797 412.939L896.299 417.968L896.616 423.034L896.757 428.126L896.729 433.235L896.54 438.351L896.198 443.464L895.714 448.565L895.097 453.644L894.356 458.695L893.502 463.71L892.545 468.681L891.496 473.602L890.365 478.468L889.162 483.274L887.897 488.014L886.58 492.687L885.219 497.289L883.822 501.817L882.398 506.271L880.954 510.649L879.499 514.949L878.042 519.173L876.59 523.318L875.153 527.386L873.738 531.376L872.354 535.291L871.008 539.131L869.709 542.897L868.465 546.593L867.281 550.221L866.166 553.783L865.125 557.283L864.164 560.725L863.289 564.113L862.503 567.45L861.812 570.742L861.218 573.993L860.723 577.208L860.33 580.392L860.04 583.551L859.854 586.689L859.77 589.812L859.787 592.926L859.905 596.035L860.119 599.145L860.428 602.26L860.826 605.386L861.31 608.527L861.874 611.687L862.512 614.871L863.218 618.082L863.985 621.324L864.807 624.599L865.676 627.911L866.584 631.262L867.524 634.654L868.488 638.088L869.467 641.566L870.454 645.088L871.442 648.655L872.422 652.267L873.386 655.924L874.329 659.625L875.243 663.37L876.121 667.157L876.958 670.986L877.748 674.855L878.486 678.763L879.168 682.708L879.79 686.688L880.347 690.703L880.838 694.749L881.26 698.826L881.609 702.932L881.883 707.064L882.076 711.22L882.186 715.397L882.209 719.592L882.14 723.801L881.976 728.022L881.713 732.249L881.347 736.479L880.876 740.708L880.297 744.933L879.606 749.148L878.801 753.349L877.879 757.531L876.838 761.69L875.677 765.821L874.392 769.918L872.982 773.976L871.444 777.989L869.776 781.951L867.976 785.854L866.041 789.693L863.971 793.46L861.765 797.15L859.424 800.757L856.949 804.277L854.344 807.704L851.61 811.034L848.753 814.265L845.775 817.394L842.682 820.418L839.48 823.336L836.173 826.147L832.769 828.852L829.273 831.449L825.692 833.941L822.032 836.329L818.301 838.615L814.505 840.801L810.65 842.89L806.744 844.886L802.791 846.792L798.799 848.612L794.774 850.352L790.72 852.014L786.642 853.604L782.547 855.127L778.438 856.587L774.318 857.989L770.193 859.338L766.065 860.638L761.936 861.895L757.809 863.112L753.686 864.294L749.569 865.444L745.459 866.567L741.357 867.665L737.262 868.742L733.176 869.801L729.099 870.845L725.03 871.874L720.968 872.892L716.913 873.9L712.863 874.898L708.819 875.889L704.778 876.873" stroke="white" stroke-width="3"/>
<path d="M226.085 645.762V645.762ZM226.085 645.762L225.02 641.953L223.961 638.146L222.91 634.338L221.866 630.528L220.829 626.716L219.799 622.899L218.778 619.076L217.765 615.247L216.762 611.41L215.769 607.563L214.788 603.705L213.824 599.835L212.88 595.952L211.962 592.054L211.076 588.139L210.229 584.209L209.428 580.261L208.68 576.296L207.993 572.314L207.373 568.316L206.829 564.303L206.367 560.276L205.994 556.237L205.716 552.188L205.54 548.131L205.472 544.07L205.515 540.007L205.675 535.945L205.956 531.888L206.361 527.839L206.895 523.803L207.559 519.782L208.355 515.781L209.283 511.805L210.344 507.855L211.535 503.937L212.854 500.053L214.299 496.207L215.864 492.402L217.546 488.639L219.338 484.921L221.235 481.251L223.229 477.627L225.313 474.053L227.479 470.527L229.719 467.049L232.025 463.619L234.388 460.236L236.799 456.897L239.251 453.601L241.734 450.344L244.239 447.123L246.76 443.936L249.287 440.777L251.814 437.644L254.333 434.531L256.839 431.433L259.325 428.346L261.785 425.265L264.215 422.185L266.612 419.099L268.971 416.005L271.29 412.895L273.568 409.766L275.802 406.612L277.992 403.43L280.139 400.214L282.243 396.961L284.306 393.667L286.329 390.329L288.316 386.944L290.269 383.51L292.193 380.024L294.091 376.485L295.967 372.892L297.828 369.244L299.677 365.541L301.52 361.783L303.363 357.971L305.211 354.106L307.07 350.19L308.946 346.224L310.844 342.21L312.771 338.152L314.732 334.052L316.732 329.913L318.775 325.736L320.865 321.524L323.004 317.277L325.194 312.996L327.437 308.679L329.735 304.326L332.088 299.934L334.497 295.503L336.962 291.03L339.485 286.512L342.067 281.947L344.708 277.332L347.41 272.665L350.175 267.944L353.004 263.167L355.9 258.332L358.866 253.44L361.905 248.49L365.021 243.485L368.218 238.425L371.5 233.315L374.873 228.16L378.34 222.964L381.906 217.732L385.576 212.473L389.353 207.191L393.242 201.894L397.247 196.591L401.371 191.291L405.618 186.001L409.99 180.733L414.489 175.496L419.119 170.3L423.88 165.158L428.774 160.08L433.801 155.079L438.962 150.167L444.256 145.355L449.681 140.657L455.237 136.086L460.92 131.654L466.729 127.374L472.658 123.258L478.705 119.32L484.863 115.572L491.128 112.026L497.493 108.694L503.952 105.587L510.497 102.715L517.121 100.091L523.814 97.7225L530.568 95.6196L537.373 93.7904L544.22 92.2427L551.099 90.9833L557.999 90.018L564.909 89.352L571.819 88.9893L578.718 88.933L585.594 89.1852L592.437 89.747L599.235 90.6184L605.977 91.7983L612.653 93.2846L619.252 95.0742L625.765 97.1628L632.181 99.5453L638.491 102.215L644.686 105.166L650.758 108.388L656.699 111.873L662.503 115.611L668.163 119.591L673.673 123.802L679.029 128.231L684.228 132.864L689.266 137.688L694.142 142.686L698.856 147.843L703.409 153.139L707.805 158.558L712.046 164.08L716.138 169.686L720.087 175.358L723.9 181.075L727.586 186.821L731.155 192.575L734.618 198.32L737.985 204.039L741.268 209.715L744.481 215.334L747.636 220.88L750.748 226.342L753.828 231.708L756.892 236.968L759.952 242.113L763.021 247.137L766.112 252.035L769.237 256.802L772.407 261.438L775.633 265.94L778.924 270.311L782.29 274.552L785.737 278.667L789.274 282.661L792.904 286.541L796.631 290.313L800.458 293.987L804.387 297.572L808.416 301.078L812.543 304.516L816.766 307.899L821.079 311.237L825.475 314.545L829.948 317.834L834.487 321.117L839.082 324.408L843.721 327.719L848.391 331.063L853.078 334.452L857.766 337.897L862.44 341.409L867.083 344.999L871.677 348.675L876.204 352.448L880.647 356.323L884.986 360.308L889.204 364.408L893.282 368.628L897.201 372.97L900.944 377.437L904.494 382.029L907.834 386.747L910.949 391.588L913.824 396.55L916.445 401.629L918.799 406.821L920.877 412.119L922.667 417.516L924.162 423.006L925.355 428.58L926.242 434.227L926.818 439.94L927.083 445.707L927.036 451.519L926.68 457.363L926.018 463.229L925.055 469.107L923.798 474.983L922.257 480.849L920.442 486.692L918.363 492.503L916.036 498.271L913.474 503.988L910.693 509.643L907.712 515.23L904.549 520.74L901.224 526.167L897.756 531.506L894.167 536.752L890.478 541.902L886.711 546.952L882.888 551.901L879.029 556.75L875.157 561.497L871.293 566.146L867.455 570.699L863.664 575.16L859.937 579.532L856.292 583.821L852.744 588.034L849.307 592.176L845.993 596.255L842.813 600.279L839.777 604.256L836.894 608.193L834.169 612.1L831.608 615.985L829.215 619.857L826.992 623.724L824.939 627.595L823.055 631.477L821.337 635.38L819.782 639.31L818.383 643.273L817.134 647.277L816.025 651.326L815.046 655.425L814.187 659.579L813.436 663.789L812.778 668.058L812.199 672.388L811.685 676.777L811.22 681.224L810.786 685.728L810.369 690.286L809.95 694.892L809.513 699.541L809.04 704.228L808.514 708.944L807.92 713.682L807.24 718.432L806.46 723.185L805.564 727.929L804.538 732.653L803.369 737.346L802.045 741.996L800.555 746.589L798.89 751.114L797.04 755.557L794.999 759.906L792.762 764.147L790.324 768.269L787.682 772.26L784.835 776.108L781.783 779.803L778.529 783.335L775.075 786.693L771.427 789.871L767.589 792.862L763.57 795.659L759.377 798.257L755.021 800.654L750.512 802.847L745.861 804.835L741.082 806.62L736.187 808.204L731.188 809.589L726.101 810.781L720.936 811.782L715.706 812.599L710.423 813.236L705.1 813.699L699.746 813.995L694.374 814.131L688.993 814.114L683.614 813.952L678.246 813.654L672.899 813.229L667.581 812.686L662.3 812.033L657.064 811.282L651.88 810.441L646.752 809.521L641.688 808.53L636.691 807.479L631.766 806.375L626.914 805.227L622.14 804.044L617.443 802.831L612.826 801.598L608.29 800.352L603.836 799.101L599.464 797.853L595.173 796.616L590.963 795.398L586.834 794.206L582.784 793.049L578.811 791.934L574.913 790.869L571.088 789.859L567.332 788.912L563.641 788.034L560.013 787.23L556.443 786.506L552.926 785.865L549.459 785.313L546.035 784.851L542.65 784.483L539.298 784.211L535.974 784.036L532.672 783.959L529.387 783.978L526.114 784.094L522.845 784.305L519.578 784.608L516.305 785.001L513.022 785.479L509.724 786.039L506.406 786.675L503.065 787.383L499.695 788.157L496.294 788.99L492.857 789.876L489.383 790.807L485.868 791.777L482.311 792.779L478.709 793.804L475.062 794.846L471.367 795.897L467.626 796.95L463.837 797.996L460.001 799.03L456.118 800.044L452.189 801.032L448.215 801.988L444.197 802.905L440.136 803.78L436.034 804.606L431.893 805.38L427.714 806.098L423.498 806.756L419.248 807.352L414.965 807.882L410.651 808.345L406.308 808.737L401.94 809.053L397.549 809.291L393.139 809.446L388.712 809.514L384.273 809.493L379.826 809.377L375.374 809.164L370.923 808.851L366.476 808.435L362.037 807.912L357.612 807.28L353.206 806.537L348.823 805.68L344.468 804.708L340.148 803.617L335.868 802.405L331.634 801.071L327.453 799.611L323.331 798.024L319.277 796.307L315.296 794.458L311.395 792.478L307.58 790.367L303.856 788.127L300.228 785.759L296.7 783.266L293.276 780.652L289.958 777.921L286.749 775.077L283.65 772.125L280.663 769.071L277.787 765.92L275.023 762.679L272.369 759.354L269.824 755.95L267.385 752.476L265.051 748.936L262.818 745.338L260.682 741.687L258.64 737.99L256.688 734.253L254.822 730.48L253.035 726.679L251.325 722.853L249.685 719.008L248.111 715.148L246.598 711.276L245.141 707.397L243.734 703.513L242.374 699.627L241.055 695.743L239.774 691.861L238.525 687.983L237.306 684.111L236.112 680.245L234.94 676.387L233.788 672.536L232.653 668.693L231.532 664.856L230.423 661.027L229.325 657.204L228.237 653.386L227.157 649.572L226.085 645.762" stroke="#637856" stroke-width="3"/>
</svg>
