<svg width="672" height="672" viewBox="0 0 672 672" fill="none" xmlns="http://www.w3.org/2000/svg">
<path fill-rule="evenodd" clip-rule="evenodd" d="M591.62 381.137L590.727 383.456L589.83 385.772L588.931 388.086L588.027 390.399L587.118 392.71L586.204 395.021L585.284 397.332L584.358 399.643L583.423 401.955L582.48 404.268L581.527 406.583L580.561 408.898L579.58 411.212L578.581 413.525L577.559 415.834L576.513 418.138L575.437 420.434L574.329 422.72L573.184 424.993L572 427.251L570.773 429.489L569.501 431.705L568.18 433.895L566.807 436.057L565.382 438.186L563.902 440.279L562.366 442.334L560.773 444.346L559.122 446.313L557.412 448.231L555.644 450.098L553.817 451.909L551.932 453.664L549.991 455.36L547.994 456.994L545.945 458.566L543.845 460.075L541.697 461.52L539.505 462.901L537.271 464.219L534.999 465.475L532.693 466.67L530.357 467.806L527.995 468.886L525.61 469.911L523.206 470.885L520.787 471.811L518.358 472.694L515.921 473.536L513.481 474.343L511.04 475.118L508.601 475.867L506.166 476.594L503.74 477.303L501.323 478L498.917 478.689L496.524 479.375L494.144 480.063L491.779 480.756L489.43 481.461L487.095 482.179L484.775 482.916L482.47 483.675L480.177 484.458L477.898 485.269L475.628 486.111L473.369 486.985L471.116 487.893L468.868 488.837L466.624 489.817L464.38 490.834L462.134 491.888L459.884 492.98L457.627 494.107L455.36 495.269L453.08 496.465L450.786 497.694L448.474 498.952L446.142 500.238L443.788 501.549L441.409 502.882L439.003 504.235L436.569 505.604L434.103 506.985L431.606 508.376L429.074 509.773L426.507 511.173L423.904 512.575L421.264 513.977L418.585 515.378L415.867 516.779L413.109 518.179L410.309 519.578L407.466 520.978L404.58 522.379L401.648 523.783L398.671 525.19L395.645 526.6L392.569 528.016L389.443 529.437L386.264 530.863L383.03 532.295L379.74 533.732L376.393 535.171L372.987 536.612L369.52 538.052L365.993 539.486L362.404 540.912L358.753 542.325L355.041 543.721L351.266 545.094L347.43 546.44L343.533 547.754L339.577 549.03L335.562 550.262L331.491 551.445L327.366 552.573L323.19 553.639L318.965 554.638L314.694 555.562L310.382 556.407L306.033 557.165L301.651 557.831L297.24 558.398L292.807 558.859L288.357 559.211L283.895 559.445L279.429 559.558L274.964 559.544L270.507 559.398L266.065 559.115L261.647 558.691L257.258 558.123L252.907 557.407L248.601 556.539L244.349 555.519L240.158 554.343L236.035 553.01L231.989 551.519L228.028 549.87L224.158 548.063L220.387 546.099L216.723 543.978L213.172 541.703L209.741 539.276L206.436 536.7L203.263 533.978L200.228 531.114L197.335 528.113L194.588 524.979L191.993 521.718L189.553 518.336L187.269 514.838L185.145 511.232L183.183 507.524L181.382 503.721L179.745 499.83L178.269 495.86L176.955 491.818L175.801 487.711L174.804 483.548L173.962 479.337L173.269 475.087L172.722 470.805L172.314 466.5L172.038 462.181L171.885 457.856L171.847 453.533L171.914 449.22L172.076 444.925L172.322 440.655L172.642 436.416L173.022 432.214L173.452 428.055L173.92 423.943L174.413 419.882L174.919 415.876L175.427 411.927L175.925 408.037L176.402 404.207L176.849 400.437L177.254 396.727L177.61 393.075L177.907 389.48L178.14 385.939L178.301 382.449L178.384 379.007L178.387 375.608L178.304 372.25L178.133 368.926L177.874 365.632L177.526 362.364L177.09 359.115L176.568 355.881L175.962 352.657L175.277 349.436L174.519 346.215L173.692 342.989L172.805 339.753L171.864 336.503L170.88 333.236L169.86 329.947L168.815 326.635L167.756 323.297L166.694 319.931L165.641 316.536L164.607 313.112L163.606 309.659L162.649 306.178L161.749 302.669L160.917 299.136L160.165 295.58L159.506 292.006L158.949 288.415L158.506 284.814L158.188 281.207L158.002 277.599L157.96 273.996L158.067 270.404L158.332 266.829L158.761 263.277L159.358 259.757L160.13 256.274L161.078 252.836L162.205 249.448L163.512 246.12L165 242.856L166.667 239.663L168.511 236.547L170.53 233.515L172.72 230.571L175.075 227.721L177.589 224.968L180.255 222.317L183.067 219.77L186.015 217.331L189.091 215L192.284 212.78L195.585 210.67L198.983 208.67L202.465 206.778L206.021 204.993L209.639 203.312L213.306 201.731L217.01 200.246L220.74 198.851L224.483 197.541L228.227 196.309L231.962 195.149L235.677 194.052L239.361 193.012L243.004 192.019L246.598 191.066L250.135 190.143L253.607 189.242L257.008 188.355L260.332 187.472L263.575 186.585L266.734 185.687L269.806 184.769L272.788 183.824L275.682 182.844L278.485 181.824L281.199 180.756L283.825 179.636L286.365 178.457L288.823 177.216L291.202 175.909L293.506 174.532L295.739 173.084L297.908 171.563L300.018 169.968L302.076 168.3L304.087 166.56L306.06 164.75L308.001 162.872L309.918 160.932L311.818 158.932L313.708 156.879L315.596 154.779L317.489 152.639L319.394 150.466L321.318 148.268L323.268 146.055L325.249 143.836L327.266 141.62L329.326 139.418L331.433 137.241L333.59 135.097L335.802 133L338.07 130.958L340.397 128.983L342.785 127.086L345.234 125.276L347.743 123.564L350.314 121.959L352.944 120.47L355.631 119.106L358.373 117.874L361.166 116.781L364.008 115.834L366.894 115.038L369.819 114.398L372.778 113.916L375.766 113.596L378.778 113.438L381.807 113.444L384.848 113.613L387.895 113.943L390.941 114.431L393.981 115.073L397.009 115.865L400.02 116.801L403.007 117.875L405.966 119.079L408.892 120.407L411.782 121.853L414.631 123.409L417.435 125.068L420.191 126.823L422.898 128.666L425.551 130.59L428.15 132.587L430.693 134.65L433.177 136.77L435.603 138.94L437.971 141.152L440.279 143.398L442.528 145.672L444.72 147.966L446.854 150.274L448.932 152.588L450.955 154.904L452.925 157.215L454.844 159.518L456.714 161.807L458.537 164.079L460.314 166.328L462.05 168.551L463.746 170.744L465.406 172.901L467.032 175.02L468.629 177.097L470.2 179.128L471.748 181.11L473.278 183.041L474.793 184.917L476.297 186.737L477.793 188.498L479.287 190.199L480.782 191.839L482.281 193.417L483.79 194.933L485.31 196.387L486.846 197.779L488.402 199.111L489.98 200.383L491.583 201.598L493.214 202.757L494.875 203.863L496.569 204.919L498.298 205.928L500.062 206.893L501.863 207.818L503.702 208.707L505.579 209.564L507.495 210.393L509.449 211.198L511.441 211.985L513.47 212.757L515.534 213.519L517.633 214.276L519.765 215.032L521.928 215.791L524.119 216.559L526.337 217.339L528.579 218.134L530.842 218.95L533.123 219.789L535.421 220.654L537.731 221.55L540.052 222.478L542.38 223.44L544.714 224.44L547.049 225.48L549.385 226.56L551.718 227.682L554.048 228.847L556.371 230.057L558.686 231.311L560.991 232.611L563.283 233.957L565.56 235.351L567.82 236.793L570.058 238.284L572.271 239.825L574.457 241.416L576.613 243.058L578.734 244.751L580.818 246.495L582.861 248.29L584.86 250.136L586.812 252.033L588.713 253.981L590.56 255.977L592.35 258.023L594.079 260.117L595.743 262.257L597.339 264.444L598.861 266.676L600.307 268.952L601.671 271.27L602.95 273.629L604.14 276.026L605.239 278.459L606.245 280.926L607.155 283.424L607.97 285.95L608.688 288.501L609.31 291.073L609.836 293.664L610.268 296.271L610.606 298.89L610.853 301.519L611.011 304.154L611.084 306.793L611.073 309.433L610.983 312.071L610.818 314.705L610.58 317.333L610.275 319.953L609.906 322.563L609.478 325.162L608.995 327.748L608.461 330.321L607.88 332.879L607.257 335.421L606.596 337.948L605.901 340.459L605.175 342.954L604.423 345.434L603.647 347.897L602.851 350.346L602.037 352.779L601.209 355.199L600.368 357.606L599.518 360L598.658 362.383L597.792 364.754L596.921 367.117L596.045 369.47L595.166 371.815L594.283 374.154L593.398 376.486L592.51 378.814L591.62 381.137Z" fill="#AEC79F"/>
<path d="M292.006 82.5201V82.5201ZM292.006 82.5201L294.545 82.6299L297.083 82.7434L299.62 82.861L302.156 82.9828L304.694 83.1093L307.232 83.241L309.772 83.3784L312.315 83.5219L314.861 83.6722L317.412 83.8301L319.966 83.9972L322.525 84.1758L325.088 84.3686L327.656 84.579L330.228 84.8107L332.803 85.0675L335.379 85.3536L337.957 85.6731L340.534 86.0302L343.108 86.429L345.678 86.8734L348.241 87.3672L350.795 87.9139L353.337 88.5168L355.865 89.1788L358.377 89.9025L360.869 90.6904L363.339 91.5445L365.783 92.4664L368.2 93.4576L370.585 94.5193L372.936 95.6521L375.251 96.8562L377.526 98.1312L379.761 99.4762L381.952 100.89L384.098 102.369L386.198 103.913L388.251 105.518L390.256 107.182L392.213 108.899L394.121 110.667L395.983 112.481L397.798 114.338L399.568 116.232L401.294 118.159L402.979 120.115L404.625 122.094L406.235 124.092L407.811 126.106L409.357 128.129L410.876 130.159L412.372 132.191L413.85 134.221L415.312 136.247L416.762 138.264L418.206 140.271L419.647 142.264L421.089 144.242L422.536 146.203L423.992 148.145L425.461 150.068L426.947 151.971L428.452 153.854L429.98 155.716L431.534 157.56L433.117 159.385L434.731 161.192L436.377 162.984L438.057 164.761L439.774 166.527L441.526 168.283L443.316 170.031L445.144 171.775L447.008 173.518L448.91 175.261L450.847 177.008L452.819 178.762L454.825 180.526L456.862 182.303L458.929 184.095L461.023 185.907L463.142 187.741L465.284 189.599L467.445 191.484L469.623 193.399L471.816 195.345L474.022 197.325L476.24 199.339L478.47 201.388L480.713 203.475L482.968 205.599L485.236 207.762L487.518 209.964L489.815 212.207L492.13 214.49L494.462 216.816L496.815 219.184L499.188 221.598L501.583 224.056L504 226.563L506.44 229.118L508.903 231.723L511.388 234.381L513.893 237.093L516.417 239.862L518.955 242.688L521.506 245.574L524.063 248.522L526.624 251.532L529.183 254.607L531.737 257.747L534.278 260.954L536.802 264.227L539.303 267.568L541.774 270.976L544.209 274.452L546.602 277.994L548.944 281.603L551.23 285.276L553.452 289.013L555.601 292.811L557.672 296.668L559.656 300.582L561.546 304.55L563.334 308.568L565.013 312.632L566.575 316.739L568.013 320.884L569.321 325.061L570.491 329.267L571.517 333.496L572.394 337.741L573.114 341.998L573.673 346.259L574.066 350.518L574.289 354.769L574.337 359.004L574.207 363.218L573.897 367.402L573.403 371.55L572.724 375.655L571.859 379.709L570.808 383.706L569.57 387.64L568.146 391.502L566.539 395.288L564.749 398.989L562.779 402.601L560.633 406.118L558.315 409.535L555.828 412.846L553.179 416.046L550.372 419.133L547.414 422.101L544.312 424.948L541.071 427.672L537.701 430.27L534.208 432.741L530.601 435.083L526.888 437.297L523.078 439.382L519.181 441.34L515.206 443.174L511.164 444.886L507.065 446.48L502.92 447.962L498.741 449.336L494.536 450.61L490.318 451.789L486.097 452.884L481.882 453.901L477.683 454.849L473.51 455.739L469.37 456.579L465.272 457.379L461.222 458.151L457.227 458.903L453.293 459.646L449.423 460.39L445.622 461.144L441.891 461.917L438.234 462.718L434.651 463.556L431.141 464.437L427.704 465.369L424.339 466.357L421.042 467.408L417.812 468.525L414.644 469.713L411.534 470.973L408.478 472.308L405.469 473.719L402.502 475.205L399.572 476.765L396.672 478.398L393.795 480.099L390.935 481.864L388.085 483.69L385.239 485.568L382.391 487.494L379.533 489.458L376.661 491.452L373.768 493.468L370.849 495.495L367.899 497.524L364.915 499.543L361.892 501.541L358.827 503.506L355.717 505.428L352.561 507.294L349.357 509.092L346.105 510.811L342.804 512.439L339.456 513.965L336.061 515.378L332.622 516.667L329.142 517.823L325.623 518.836L322.07 519.698L318.487 520.4L314.878 520.936L311.249 521.3L307.606 521.486L303.955 521.49L300.301 521.309L296.652 520.94L293.013 520.383L289.392 519.638L285.795 518.705L282.228 517.586L278.698 516.286L275.21 514.807L271.772 513.156L268.388 511.337L265.063 509.359L261.803 507.229L258.611 504.956L255.491 502.548L252.446 500.018L249.479 497.374L246.592 494.63L243.785 491.796L241.059 488.886L238.413 485.911L235.848 482.885L233.36 479.82L230.947 476.729L228.607 473.625L226.336 470.52L224.129 467.427L221.981 464.356L219.888 461.318L217.843 458.325L215.84 455.384L213.873 452.506L211.936 449.697L210.021 446.964L208.122 444.313L206.233 441.749L204.346 439.276L202.455 436.897L200.554 434.614L198.636 432.428L196.695 430.34L194.726 428.349L192.723 426.454L190.682 424.654L188.597 422.944L186.466 421.321L184.286 419.781L182.053 418.319L179.766 416.928L177.424 415.601L175.027 414.332L172.575 413.114L170.069 411.938L167.513 410.796L164.907 409.679L162.256 408.579L159.565 407.486L156.838 406.393L154.081 405.289L151.301 404.167L148.504 403.018L145.699 401.833L142.894 400.605L140.097 399.326L137.316 397.989L134.563 396.589L131.845 395.118L129.173 393.571L126.556 391.945L124.005 390.235L121.528 388.438L119.136 386.552L116.836 384.574L114.639 382.505L112.553 380.345L110.585 378.093L108.742 375.751L107.032 373.322L105.459 370.808L104.029 368.213L102.747 365.541L101.615 362.797L100.635 359.986L99.81 357.114L99.1389 354.187L98.6214 351.211L98.2557 348.193L98.039 345.14L97.9676 342.059L98.037 338.957L98.2424 335.84L98.5789 332.715L99.0411 329.588L99.6235 326.464L100.32 323.35L101.126 320.25L102.033 317.17L103.036 314.113L104.128 311.085L105.301 308.089L106.549 305.128L107.864 302.206L109.24 299.326L110.668 296.49L112.141 293.7L113.653 290.957L115.197 288.264L116.766 285.62L118.353 283.027L119.954 280.484L121.563 277.991L123.176 275.548L124.786 273.155L126.389 270.81L127.981 268.512L129.555 266.26L131.108 264.053L132.634 261.888L134.128 259.764L135.587 257.678L137.006 255.628L138.381 253.612L139.708 251.627L140.983 249.669L142.204 247.735L143.368 245.823L144.472 243.929L145.515 242.05L146.495 240.182L147.41 238.322L148.261 236.466L149.046 234.611L149.767 232.754L150.424 230.891L151.018 229.019L151.55 227.136L152.023 225.238L152.44 223.323L152.802 221.388L153.113 219.432L153.377 217.451L153.597 215.445L153.778 213.412L153.924 211.351L154.039 209.26L154.127 207.14L154.195 204.989L154.246 202.808L154.286 200.597L154.32 198.357L154.351 196.087L154.386 193.789L154.429 191.464L154.484 189.113L154.555 186.738L154.647 184.339L154.764 181.919L154.909 179.48L155.086 177.023L155.297 174.549L155.545 172.062L155.833 169.562L156.162 167.05L156.535 164.53L156.952 162.001L157.416 159.466L157.926 156.926L158.487 154.383L159.098 151.84L159.761 149.298L160.479 146.761L161.254 144.231L162.086 141.711L162.977 139.204L163.929 136.713L164.943 134.24L166.02 131.79L167.16 129.364L168.365 126.967L169.635 124.601L170.97 122.27L172.372 119.976L173.84 117.725L175.375 115.519L176.977 113.362L178.646 111.258L180.383 109.213L182.188 107.23L184.059 105.314L185.997 103.467L188 101.695L190.065 99.9981L192.191 98.38L194.376 96.8422L196.616 95.3862L198.908 94.0128L201.25 92.7223L203.638 91.5149L206.068 90.39L208.537 89.3466L211.041 88.3836L213.577 87.4991L216.14 86.6911L218.728 85.9573L221.336 85.2949L223.962 84.701L226.602 84.1726L229.254 83.7061L231.913 83.2982L234.579 82.9453L237.247 82.6438L239.917 82.3898L242.585 82.1798L245.251 82.01L247.912 81.877L250.568 81.777L253.217 81.7069L255.858 81.6633L258.492 81.6432L261.117 81.6438L263.733 81.6623L266.34 81.6963L268.939 81.7437L271.529 81.8024L274.111 81.8707L276.685 81.947L279.252 82.0302L281.813 82.1193L284.368 82.2132L286.918 82.3116L289.463 82.414L292.006 82.5201" stroke="white"/>
<path d="M532.575 305.008V305.008ZM532.575 305.008L532.536 307.492L532.493 309.974L532.446 312.456L532.394 314.937L532.338 317.419L532.277 319.903L532.209 322.388L532.136 324.876L532.056 327.367L531.968 329.862L531.87 332.361L531.762 334.865L531.638 337.374L531.497 339.887L531.334 342.404L531.146 344.925L530.928 347.447L530.675 349.971L530.384 352.495L530.051 355.016L529.67 357.534L529.239 360.046L528.754 362.55L528.211 365.043L527.607 367.523L526.939 369.988L526.205 372.434L525.403 374.859L524.531 377.26L523.587 379.635L522.57 381.98L521.48 384.293L520.315 386.571L519.077 388.812L517.766 391.013L516.384 393.173L514.933 395.289L513.415 397.361L511.833 399.388L510.19 401.369L508.49 403.304L506.738 405.192L504.936 407.035L503.09 408.832L501.204 410.586L499.284 412.298L497.333 413.97L495.356 415.604L493.359 417.202L491.346 418.768L489.322 420.305L487.29 421.816L485.255 423.304L483.222 424.773L481.193 426.228L479.172 427.671L477.162 429.108L475.165 430.541L473.184 431.976L471.221 433.415L469.277 434.863L467.353 436.323L465.451 437.799L463.569 439.294L461.708 440.812L459.868 442.354L458.048 443.924L456.246 445.524L454.462 447.156L452.692 448.821L450.937 450.521L449.192 452.256L447.455 454.028L445.725 455.837L443.997 457.681L442.27 459.562L440.539 461.478L438.803 463.428L437.057 465.41L435.299 467.424L433.525 469.467L431.733 471.537L429.919 473.632L428.081 475.749L426.215 477.885L424.32 480.038L422.394 482.206L420.433 484.388L418.438 486.582L416.406 488.788L414.337 491.006L412.23 493.237L410.084 495.481L407.898 497.74L405.671 500.014L403.403 502.305L401.093 504.615L398.738 506.944L396.339 509.294L393.894 511.666L391.401 514.061L388.859 516.479L386.266 518.919L383.62 521.382L380.919 523.865L378.161 526.366L375.344 528.883L372.467 531.412L369.526 533.95L366.522 536.491L363.452 539.032L360.314 541.567L357.109 544.091L353.835 546.6L350.491 549.086L347.077 551.545L343.593 553.969L340.04 556.352L336.418 558.688L332.728 560.968L328.971 563.187L325.15 565.336L321.265 567.408L317.32 569.397L313.318 571.294L309.261 573.092L305.154 574.784L301 576.363L296.803 577.82L292.569 579.151L288.302 580.348L284.008 581.404L279.692 582.313L275.361 583.071L271.02 583.671L266.676 584.108L262.336 584.379L258.007 584.479L253.695 584.405L249.408 584.153L245.152 583.722L240.936 583.11L236.765 582.315L232.647 581.337L228.59 580.176L224.599 578.832L220.683 577.308L216.846 575.604L213.096 573.723L209.438 571.669L205.878 569.445L202.421 567.056L199.072 564.506L195.835 561.8L192.715 558.945L189.714 555.948L186.836 552.814L184.082 549.551L181.455 546.167L178.956 542.67L176.586 539.068L174.344 535.369L172.229 531.583L170.239 527.72L168.372 523.79L166.624 519.803L164.99 515.769L163.464 511.7L162.041 507.605L160.713 503.496L159.473 499.383L158.311 495.275L157.22 491.182L156.191 487.113L155.212 483.076L154.275 479.079L153.37 475.13L152.486 471.234L151.613 467.396L150.741 463.622L149.86 459.915L148.962 456.278L148.037 452.713L147.078 449.22L146.075 445.8L145.024 442.451L143.916 439.173L142.747 435.964L141.511 432.82L140.206 429.737L138.828 426.713L137.374 423.741L135.845 420.817L134.24 417.936L132.56 415.09L130.807 412.275L128.985 409.484L127.097 406.71L125.149 403.947L123.146 401.188L121.095 398.427L119.005 395.658L116.882 392.874L114.738 390.071L112.581 387.243L110.422 384.385L108.272 381.492L106.142 378.562L104.043 375.59L101.989 372.574L99.9902 369.511L98.0592 366.401L96.2079 363.243L94.4481 360.037L92.7914 356.782L91.2489 353.481L89.8314 350.135L88.5492 346.747L87.412 343.32L86.4285 339.857L85.607 336.362L84.9549 332.841L84.4785 329.298L84.1834 325.739L84.074 322.169L84.154 318.595L84.4256 315.023L84.8901 311.458L85.548 307.909L86.3982 304.38L87.4389 300.879L88.6669 297.411L90.0783 293.984L91.668 290.601L93.4297 287.27L95.3566 283.995L97.4407 280.781L99.6733 277.632L102.045 274.552L104.545 271.544L107.162 268.61L109.885 265.753L112.701 262.973L115.599 260.272L118.564 257.648L121.585 255.102L124.647 252.632L127.738 250.235L130.844 247.908L133.953 245.649L137.053 243.452L140.131 241.315L143.176 239.23L146.178 237.193L149.127 235.199L152.014 233.24L154.83 231.311L157.569 229.405L160.225 227.515L162.792 225.636L165.266 223.761L167.645 221.882L169.925 219.995L172.105 218.093L174.184 216.169L176.162 214.219L178.042 212.237L179.824 210.219L181.512 208.16L183.11 206.056L184.622 203.905L186.053 201.704L187.41 199.451L188.698 197.145L189.926 194.785L191.102 192.373L192.232 189.909L193.326 187.395L194.393 184.834L195.442 182.228L196.481 179.583L197.521 176.904L198.57 174.195L199.637 171.463L200.732 168.715L201.862 165.957L203.037 163.199L204.264 160.449L205.55 157.714L206.903 155.004L208.329 152.329L209.833 149.698L211.421 147.119L213.096 144.603L214.862 142.16L216.721 139.797L218.677 137.524L220.729 135.351L222.879 133.284L225.125 131.331L227.466 129.501L229.9 127.798L232.425 126.229L235.037 124.799L237.732 123.512L240.505 122.371L243.351 121.379L246.264 120.536L249.238 119.843L252.266 119.3L255.341 118.905L258.457 118.655L261.605 118.547L264.779 118.576L267.972 118.738L271.177 119.028L274.388 119.44L277.598 119.971L280.803 120.613L283.995 121.362L287.171 122.211L290.325 123.153L293.453 124.183L296.551 125.292L299.614 126.475L302.64 127.725L305.624 129.033L308.565 130.394L311.461 131.8L314.308 133.244L317.107 134.72L319.855 136.22L322.553 137.74L325.199 139.273L327.794 140.815L330.339 142.361L332.833 143.905L335.277 145.444L337.672 146.971L340.02 148.482L342.322 149.972L344.579 151.437L346.794 152.872L348.969 154.272L351.105 155.634L353.206 156.952L355.275 158.225L357.314 159.447L359.326 160.617L361.314 161.731L363.283 162.787L365.235 163.783L367.173 164.717L369.101 165.589L371.023 166.398L372.943 167.143L374.862 167.824L376.786 168.443L378.717 169L380.658 169.497L382.612 169.936L384.582 170.319L386.571 170.649L388.58 170.929L390.613 171.162L392.671 171.352L394.755 171.504L396.867 171.62L399.007 171.707L401.178 171.767L403.379 171.806L405.61 171.829L407.872 171.841L410.164 171.845L412.486 171.848L414.837 171.853L417.215 171.866L419.621 171.89L422.052 171.931L424.507 171.991L426.984 172.075L429.483 172.186L432 172.328L434.535 172.503L437.086 172.715L439.651 172.965L442.228 173.256L444.816 173.589L447.414 173.965L450.02 174.387L452.631 174.854L455.248 175.37L457.866 175.936L460.483 176.553L463.098 177.223L465.707 177.949L468.308 178.731L470.897 179.571L473.472 180.471L476.029 181.431L478.566 182.453L481.079 183.537L483.565 184.685L486.021 185.898L488.443 187.174L490.828 188.516L493.173 189.923L495.473 191.396L497.725 192.935L499.923 194.541L502.065 196.214L504.144 197.953L506.158 199.759L508.101 201.63L509.972 203.566L511.766 205.564L513.482 207.622L515.117 209.739L516.67 211.911L518.141 214.135L519.528 216.408L520.831 218.728L522.051 221.089L523.189 223.49L524.246 225.926L525.224 228.394L526.124 230.89L526.949 233.411L527.701 235.953L528.384 238.513L529 241.087L529.554 243.673L530.048 246.268L530.485 248.87L530.87 251.475L531.207 254.081L531.499 256.687L531.749 259.291L531.962 261.891L532.141 264.487L532.289 267.076L532.409 269.658L532.506 272.232L532.581 274.798L532.637 277.356L532.678 279.906L532.704 282.447L532.719 284.979L532.723 287.505L532.719 290.022L532.708 292.533L532.691 295.038L532.669 297.537L532.641 300.031L532.61 302.521L532.575 305.008" stroke="#637856"/>
</svg>
