<svg width="29" height="13" viewBox="0 0 29 13" fill="none" xmlns="http://www.w3.org/2000/svg">
<path d="M4.42363 0.547539L14.447 7.82254L24.4703 0.547539C24.7095 0.373948 24.9934 0.236249 25.3059 0.142302C25.6184 0.0483551 25.9533 1.82908e-09 26.2916 0C26.6298 -1.82907e-09 26.9647 0.0483551 27.2772 0.142302C27.5897 0.236249 27.8736 0.373948 28.1128 0.547539C28.352 0.72113 28.5417 0.927213 28.6711 1.15402C28.8006 1.38083 28.8672 1.62392 28.8672 1.86941C28.8672 2.11491 28.8006 2.358 28.6711 2.58481C28.5417 2.81161 28.352 3.0177 28.1128 3.19129L16.2553 11.7975C15.2478 12.5288 13.6203 12.5288 12.6128 11.7975L0.755301 3.19129C0.515816 3.01783 0.325819 2.81178 0.196184 2.58496C0.0665474 2.35813 -0.000179291 2.11498 -0.000179291 1.86941C-0.000179291 1.62385 0.0665474 1.38069 0.196184 1.15387C0.325819 0.927043 0.515816 0.721002 0.755301 0.547539C1.7628 -0.164961 3.41613 -0.183711 4.42363 0.547539Z" fill="#3B3B3B"/>
</svg>
