<svg width="16" height="20" viewBox="0 0 16 20" fill="none" xmlns="http://www.w3.org/2000/svg">
<path d="M0.5 19.3749V19.3746V2.49994C0.5 1.98032 0.719889 1.47491 1.12302 1.09699C1.52723 0.718042 2.08199 0.5 2.66667 0.5H13.3333C13.918 0.5 14.4728 0.718042 14.877 1.09699C15.2801 1.47491 15.5 1.98032 15.5 2.49994V19.3746V19.375C15.5 19.3903 15.4959 19.4073 15.4853 19.4247C15.4746 19.4423 15.4568 19.4609 15.4305 19.4756C15.404 19.4903 15.3716 19.4994 15.3368 19.5C15.3019 19.5005 15.269 19.4925 15.2415 19.4784L15.241 19.4781L8.2277 15.8907L8 15.7743L7.7723 15.8907L0.758969 19.4781L0.758464 19.4784C0.731049 19.4925 0.698087 19.5005 0.663229 19.5C0.62837 19.4994 0.595995 19.4903 0.569542 19.4756C0.543237 19.4609 0.52539 19.4423 0.514663 19.4247C0.50411 19.4073 0.499988 19.3903 0.5 19.3749Z" fill="#3B3B3B" stroke="#3B3B3B"/>
</svg>
