<svg width="21" height="26" viewBox="0 0 21 26" fill="none" xmlns="http://www.w3.org/2000/svg">
<path d="M0.875 24.9687V24.9682V3.87493C0.875 3.2254 1.14986 2.59364 1.65377 2.12124C2.15904 1.64755 2.85249 1.375 3.58333 1.375H16.9167C17.6475 1.375 18.341 1.64755 18.8462 2.12124C19.3501 2.59364 19.625 3.2254 19.625 3.87493V24.9682V24.9687C19.625 24.9878 19.6199 25.0091 19.6067 25.0308C19.5933 25.0529 19.5709 25.0762 19.5381 25.0945C19.505 25.1128 19.4645 25.1243 19.421 25.125C19.3774 25.1257 19.3362 25.1156 19.3019 25.098L19.3013 25.0977L10.5346 20.6134L10.25 20.4678L9.96538 20.6134L1.19871 25.0977L1.19808 25.098C1.16382 25.1156 1.12261 25.1257 1.07903 25.125C1.03547 25.1243 0.994998 25.1128 0.961928 25.0944C0.929047 25.0762 0.906738 25.0529 0.893329 25.0308C0.880137 25.0091 0.874985 24.9878 0.875 24.9687Z" fill="#3B3B3B" stroke="#3B3B3B" stroke-width="1.25"/>
</svg>
